<?xml version="1.0" encoding="UTF-8" standalone="no"?>
<!-- Created with Inkscape (http://www.inkscape.org/) -->

<svg
   xmlns:dc="http://purl.org/dc/elements/1.1/"
   xmlns:cc="http://creativecommons.org/ns#"
   xmlns:rdf="http://www.w3.org/1999/02/22-rdf-syntax-ns#"
   xmlns:svg="http://www.w3.org/2000/svg"
   xmlns="http://www.w3.org/2000/svg"
   xmlns:xlink="http://www.w3.org/1999/xlink"
   xmlns:sodipodi="http://sodipodi.sourceforge.net/DTD/sodipodi-0.dtd"
   xmlns:inkscape="http://www.inkscape.org/namespaces/inkscape"
   width="100"
   height="100"
   id="svg2"
   version="1.1"
   inkscape:version="0.48.4 r9939"
   sodipodi:docname="background_tile03.svg">
  <defs
     id="defs4" />
  <sodipodi:namedview
     id="base"
     pagecolor="#ffffff"
     bordercolor="#666666"
     borderopacity="1.0"
     inkscape:pageopacity="0.0"
     inkscape:pageshadow="2"
     inkscape:zoom="1.4267858"
     inkscape:cx="90.436419"
     inkscape:cy="-169.84559"
     inkscape:document-units="px"
     inkscape:current-layer="g3761"
     showgrid="true"
     showguides="true"
     inkscape:guide-bbox="true"
     inkscape:window-width="1400"
     inkscape:window-height="1001"
     inkscape:window-x="0"
     inkscape:window-y="0"
     inkscape:window-maximized="1"
     gridtolerance="10">
    <inkscape:grid
       type="xygrid"
       id="grid2985"
       empspacing="5"
       visible="true"
       enabled="true"
       snapvisiblegridlinesonly="true"
       spacingx="10px"
       spacingy="10px"
       dotted="false" />
    <sodipodi:guide
       orientation="0,1"
       position="10,430"
       id="guide3830" />
  </sodipodi:namedview>
  <metadata
     id="metadata7">
    <rdf:RDF>
      <cc:Work
         rdf:about="">
        <dc:format>image/svg+xml</dc:format>
        <dc:type
           rdf:resource="http://purl.org/dc/dcmitype/StillImage" />
        <dc:title></dc:title>
      </cc:Work>
    </rdf:RDF>
  </metadata>
  <g
     inkscape:label="Ebene 1"
     inkscape:groupmode="layer"
     id="layer1"
     transform="translate(0,-952.36218)">
    <g
       id="g3761"
       inkscape:tile-cx="150"
       inkscape:tile-cy="902.36218"
       inkscape:tile-w="100"
       inkscape:tile-h="100"
       inkscape:tile-x0="100"
       inkscape:tile-y0="852.36218"
       transform="translate(-200,-200)">
      <rect
         y="1152.3622"
         x="200"
         height="100"
         width="100"
         id="rect2991"
         style="fill:#d9d9d9;fill-opacity:1;stroke:none" />
      <path
         transform="matrix(0.43973574,0,0,0.43973574,202.39681,1251.7595)"
         d="m 5.9199047,1.370465 a 11.370465,11.370465 0 1 1 -22.7409307,0 11.370465,11.370465 0 1 1 22.7409307,0 z"
         sodipodi:ry="11.370465"
         sodipodi:rx="11.370465"
         sodipodi:cy="1.370465"
         sodipodi:cx="-5.4505606"
         id="path3804"
         style="fill:#000000;fill-opacity:1;stroke:none"
         sodipodi:type="arc" />
      <path
         style="fill:none;stroke:#000000;stroke-width:1px;stroke-linecap:butt;stroke-linejoin:miter;stroke-opacity:1"
         d="M 100,0 0,100"
         id="path3810"
         inkscape:connector-curvature="0"
         transform="translate(200,1152.3622)" />
      <path
         style="fill:none;stroke:#000000;stroke-width:1px;stroke-linecap:butt;stroke-linejoin:miter;stroke-opacity:1"
         d="M 0,0 100,100"
         id="path3812"
         inkscape:connector-curvature="0"
         transform="translate(200,1152.3622)" />
      <path
         sodipodi:type="arc"
         style="fill:#000000;fill-opacity:1;stroke:none"
         id="path3814"
         sodipodi:cx="-5.4505606"
         sodipodi:cy="1.370465"
         sodipodi:rx="11.370465"
         sodipodi:ry="11.370465"
         d="m 5.9199047,1.370465 a 11.370465,11.370465 0 1 1 -22.7409307,0 11.370465,11.370465 0 1 1 22.7409307,0 z"
         transform="matrix(0.43973574,0,0,0.43973574,202.39681,1151.7595)" />
      <path
         transform="matrix(0.43973574,0,0,0.43973574,302.39681,1151.7595)"
         d="m 5.9199047,1.370465 a 11.370465,11.370465 0 1 1 -22.7409307,0 11.370465,11.370465 0 1 1 22.7409307,0 z"
         sodipodi:ry="11.370465"
         sodipodi:rx="11.370465"
         sodipodi:cy="1.370465"
         sodipodi:cx="-5.4505606"
         id="path3816"
         style="fill:#000000;fill-opacity:1;stroke:none"
         sodipodi:type="arc" />
      <path
         sodipodi:type="arc"
         style="fill:#000000;fill-opacity:1;stroke:none"
         id="path3818"
         sodipodi:cx="-5.4505606"
         sodipodi:cy="1.370465"
         sodipodi:rx="11.370465"
         sodipodi:ry="11.370465"
         d="m 5.9199047,1.370465 a 11.370465,11.370465 0 1 1 -22.7409307,0 11.370465,11.370465 0 1 1 22.7409307,0 z"
         transform="matrix(0.43973574,0,0,0.43973574,302.39681,1251.7595)" />
      <path
         transform="matrix(0.43973574,0,0,0.43973574,252.39681,1201.7595)"
         d="m 5.9199047,1.370465 a 11.370465,11.370465 0 1 1 -22.7409307,0 11.370465,11.370465 0 1 1 22.7409307,0 z"
         sodipodi:ry="11.370465"
         sodipodi:rx="11.370465"
         sodipodi:cy="1.370465"
         sodipodi:cx="-5.4505606"
         id="path3820"
         style="fill:#000000;fill-opacity:1;stroke:none"
         sodipodi:type="arc" />
    </g>
    <use
       x="0"
       y="0"
       inkscape:tiled-clone-of="#g3761"
       xlink:href="#g3761"
       id="use3764"
       transform="translate(0,200)"
       width="744.09448"
       height="1052.3622" />
    <use
       x="0"
       y="0"
       inkscape:tiled-clone-of="#g3761"
       xlink:href="#g3761"
       transform="translate(0,300)"
       id="use3766"
       width="744.09448"
       height="1052.3622" />
    <use
       x="0"
       y="0"
       inkscape:tiled-clone-of="#g3761"
       xlink:href="#g3761"
       transform="translate(0,400)"
       id="use3768"
       width="744.09448"
       height="1052.3622" />
    <use
       x="0"
       y="0"
       inkscape:tiled-clone-of="#g3761"
       xlink:href="#g3761"
       transform="translate(100,200)"
       id="use3770"
       width="744.09448"
       height="1052.3622" />
    <use
       x="0"
       y="0"
       inkscape:tiled-clone-of="#g3761"
       xlink:href="#g3761"
       transform="translate(100,300)"
       id="use3772"
       width="744.09448"
       height="1052.3622" />
    <use
       x="0"
       y="0"
       inkscape:tiled-clone-of="#g3761"
       xlink:href="#g3761"
       transform="translate(100,400)"
       id="use3774"
       width="744.09448"
       height="1052.3622" />
    <use
       x="0"
       y="0"
       inkscape:tiled-clone-of="#g3761"
       xlink:href="#g3761"
       transform="translate(200,200)"
       id="use3776"
       width="744.09448"
       height="1052.3622" />
    <use
       x="0"
       y="0"
       inkscape:tiled-clone-of="#g3761"
       xlink:href="#g3761"
       transform="translate(200,300)"
       id="use3778"
       width="744.09448"
       height="1052.3622" />
    <use
       x="0"
       y="0"
       inkscape:tiled-clone-of="#g3761"
       xlink:href="#g3761"
       transform="translate(200,400)"
       id="use3780"
       width="744.09448"
       height="1052.3622" />
  </g>
</svg>
