<?xml version="1.0" encoding="UTF-8" standalone="no"?>
<!-- Created with Inkscape (http://www.inkscape.org/) -->

<svg
   xmlns:dc="http://purl.org/dc/elements/1.1/"
   xmlns:cc="http://creativecommons.org/ns#"
   xmlns:rdf="http://www.w3.org/1999/02/22-rdf-syntax-ns#"
   xmlns:svg="http://www.w3.org/2000/svg"
   xmlns="http://www.w3.org/2000/svg"
   xmlns:xlink="http://www.w3.org/1999/xlink"
   xmlns:sodipodi="http://sodipodi.sourceforge.net/DTD/sodipodi-0.dtd"
   xmlns:inkscape="http://www.inkscape.org/namespaces/inkscape"
   width="74"
   height="126"
   id="svg2"
   version="1.1"
   inkscape:version="0.48.4 r9939"
   sodipodi:docname="background_tile09.svg">
  <defs
     id="defs4" />
  <sodipodi:namedview
     id="base"
     pagecolor="#ffffff"
     bordercolor="#666666"
     borderopacity="1.0"
     inkscape:pageopacity="0.0"
     inkscape:pageshadow="2"
     inkscape:zoom="4.0355596"
     inkscape:cx="27.168887"
     inkscape:cy="56.184769"
     inkscape:document-units="px"
     inkscape:current-layer="g3761"
     showgrid="true"
     showguides="true"
     inkscape:guide-bbox="true"
     inkscape:window-width="1400"
     inkscape:window-height="1001"
     inkscape:window-x="0"
     inkscape:window-y="0"
     inkscape:window-maximized="1"
     gridtolerance="10">
    <inkscape:grid
       type="xygrid"
       id="grid2985"
       empspacing="5"
       visible="true"
       enabled="true"
       snapvisiblegridlinesonly="true"
       spacingx="10px"
       spacingy="10px"
       dotted="false" />
    <sodipodi:guide
       orientation="0,1"
       position="10,430"
       id="guide3830" />
  </sodipodi:namedview>
  <metadata
     id="metadata7">
    <rdf:RDF>
      <cc:Work
         rdf:about="">
        <dc:format>image/svg+xml</dc:format>
        <dc:type
           rdf:resource="http://purl.org/dc/dcmitype/StillImage" />
        <dc:title></dc:title>
      </cc:Work>
    </rdf:RDF>
  </metadata>
  <g
     inkscape:label="Ebene 1"
     inkscape:groupmode="layer"
     id="layer1"
     transform="translate(0,-926.36218)">
    <g
       id="g3761"
       inkscape:tile-cx="150"
       inkscape:tile-cy="902.36218"
       inkscape:tile-w="100"
       inkscape:tile-h="100"
       inkscape:tile-x0="100"
       inkscape:tile-y0="852.36218"
       transform="translate(-200,-200)">
      <rect
         y="1126.3623"
         x="200"
         height="126"
         width="74"
         id="rect2991"
         style="fill:#eeeeee;fill-opacity:1;stroke:none" />
      <path
         style="fill:#bfbfbf;fill-opacity:1;stroke:none"
         d="m 236.59375,1131.7624 c -1.37372,9.6137 -6.39247,18.0616 -13.59375,23.9063 l 0,8.2187 c -9.51828,5.0291 -16,15.0172 -16,26.5313 0,11.5142 6.48172,21.502 16,26.5312 l 0,8.2188 c 7.1533,5.8057 12.15347,14.1484 13.5625,23.6875 l 0.84375,0 c 1.41149,-9.5557 6.42037,-17.912 13.59375,-23.7188 l 0,-8.1875 c 9.51828,-5.0292 16,-15.017 16,-26.5312 0,-11.5141 -6.48172,-21.5022 -16,-26.5313 l 0,-8.1875 c -7.21951,-5.8442 -12.24869,-14.3101 -13.625,-23.9375 l -0.78125,0 z"
         id="path4079"
         inkscape:connector-curvature="0" />
      <path
         style="fill:#bfbfbf;fill-opacity:1;stroke:none"
         d="m 199.59375,1193.7624 c -1.37372,9.6137 -6.39247,18.0616 -13.59375,23.9063 l 0,8.2187 c -9.51828,5.0291 -16,15.0172 -16,26.5313 0,11.5142 6.48172,21.502 16,26.5312 l 0,8.2188 c 7.1533,5.8057 12.15347,14.1484 13.5625,23.6875 l 0.84375,0 c 1.41149,-9.5557 6.42037,-17.912 13.59375,-23.7188 l 0,-8.1875 c 9.51828,-5.0292 16,-15.017 16,-26.5312 0,-11.5141 -6.48172,-21.5022 -16,-26.5313 l 0,-8.1875 c -7.21951,-5.8442 -12.24869,-14.3101 -13.625,-23.9375 l -0.78125,0 z"
         id="path4165"
         inkscape:connector-curvature="0" />
      <path
         inkscape:connector-curvature="0"
         id="path4167"
         d="m 199.59375,1067.7624 c -1.37372,9.6137 -6.39247,18.0616 -13.59375,23.9063 l 0,8.2187 c -9.51828,5.0291 -16,15.0172 -16,26.5313 0,11.5142 6.48172,21.502 16,26.5312 l 0,8.2188 c 7.1533,5.8057 12.15347,14.1484 13.5625,23.6875 l 0.84375,0 c 1.41149,-9.5557 6.42037,-17.912 13.59375,-23.7188 l 0,-8.1875 c 9.51828,-5.0292 16,-15.017 16,-26.5312 0,-11.5141 -6.48172,-21.5022 -16,-26.5313 l 0,-8.1875 c -7.21951,-5.8442 -12.24869,-14.3101 -13.625,-23.9375 l -0.78125,0 z"
         style="fill:#bfbfbf;fill-opacity:1;stroke:none" />
      <path
         inkscape:connector-curvature="0"
         id="path4173"
         d="m 273.59375,1193.7624 c -1.37372,9.6137 -6.39247,18.0616 -13.59375,23.9063 l 0,8.2187 c -9.51828,5.0291 -16,15.0172 -16,26.5313 0,11.5142 6.48172,21.502 16,26.5312 l 0,8.2188 c 7.1533,5.8057 12.15347,14.1484 13.5625,23.6875 l 0.84375,0 c 1.41149,-9.5557 6.42037,-17.912 13.59375,-23.7188 l 0,-8.1875 c 9.51828,-5.0292 16,-15.017 16,-26.5312 0,-11.5141 -6.48172,-21.5022 -16,-26.5313 l 0,-8.1875 c -7.21951,-5.8442 -12.24869,-14.3101 -13.625,-23.9375 l -0.78125,0 z"
         style="fill:#bfbfbf;fill-opacity:1;stroke:none" />
      <path
         style="fill:#bfbfbf;fill-opacity:1;stroke:none"
         d="m 273.59375,1067.7624 c -1.37372,9.6137 -6.39247,18.0616 -13.59375,23.9063 l 0,8.2187 c -9.51828,5.0291 -16,15.0172 -16,26.5313 0,11.5142 6.48172,21.502 16,26.5312 l 0,8.2188 c 7.1533,5.8057 12.15347,14.1484 13.5625,23.6875 l 0.84375,0 c 1.41149,-9.5557 6.42037,-17.912 13.59375,-23.7188 l 0,-8.1875 c 9.51828,-5.0292 16,-15.017 16,-26.5312 0,-11.5141 -6.48172,-21.5022 -16,-26.5313 l 0,-8.1875 c -7.21951,-5.8442 -12.24869,-14.3101 -13.625,-23.9375 l -0.78125,0 z"
         id="path4175"
         inkscape:connector-curvature="0" />
    </g>
    <use
       x="0"
       y="0"
       inkscape:tiled-clone-of="#g3761"
       xlink:href="#g3761"
       id="use3764"
       transform="translate(0,200)"
       width="744.09448"
       height="1052.3622" />
    <use
       x="0"
       y="0"
       inkscape:tiled-clone-of="#g3761"
       xlink:href="#g3761"
       transform="translate(0,300)"
       id="use3766"
       width="744.09448"
       height="1052.3622" />
    <use
       x="0"
       y="0"
       inkscape:tiled-clone-of="#g3761"
       xlink:href="#g3761"
       transform="translate(0,400)"
       id="use3768"
       width="744.09448"
       height="1052.3622" />
    <use
       x="0"
       y="0"
       inkscape:tiled-clone-of="#g3761"
       xlink:href="#g3761"
       transform="translate(100,200)"
       id="use3770"
       width="744.09448"
       height="1052.3622" />
    <use
       x="0"
       y="0"
       inkscape:tiled-clone-of="#g3761"
       xlink:href="#g3761"
       transform="translate(100,300)"
       id="use3772"
       width="744.09448"
       height="1052.3622" />
    <use
       x="0"
       y="0"
       inkscape:tiled-clone-of="#g3761"
       xlink:href="#g3761"
       transform="translate(100,400)"
       id="use3774"
       width="744.09448"
       height="1052.3622" />
    <use
       x="0"
       y="0"
       inkscape:tiled-clone-of="#g3761"
       xlink:href="#g3761"
       transform="translate(200,200)"
       id="use3776"
       width="744.09448"
       height="1052.3622" />
    <use
       x="0"
       y="0"
       inkscape:tiled-clone-of="#g3761"
       xlink:href="#g3761"
       transform="translate(200,300)"
       id="use3778"
       width="744.09448"
       height="1052.3622" />
    <use
       x="0"
       y="0"
       inkscape:tiled-clone-of="#g3761"
       xlink:href="#g3761"
       transform="translate(200,400)"
       id="use3780"
       width="744.09448"
       height="1052.3622" />
  </g>
</svg>
