<?xml version="1.0" encoding="UTF-8" standalone="no"?>
<!-- Created with Inkscape (http://www.inkscape.org/) -->

<svg
   xmlns:dc="http://purl.org/dc/elements/1.1/"
   xmlns:cc="http://creativecommons.org/ns#"
   xmlns:rdf="http://www.w3.org/1999/02/22-rdf-syntax-ns#"
   xmlns:svg="http://www.w3.org/2000/svg"
   xmlns="http://www.w3.org/2000/svg"
   xmlns:xlink="http://www.w3.org/1999/xlink"
   xmlns:sodipodi="http://sodipodi.sourceforge.net/DTD/sodipodi-0.dtd"
   xmlns:inkscape="http://www.inkscape.org/namespaces/inkscape"
   width="100"
   height="80"
   id="svg2"
   version="1.1"
   inkscape:version="0.48.4 r9939"
   sodipodi:docname="background_tile12.svg">
  <sodipodi:namedview
     id="base"
     pagecolor="#ffffff"
     bordercolor="#666666"
     borderopacity="1.0"
     inkscape:pageopacity="0.0"
     inkscape:pageshadow="2"
     inkscape:zoom="5.7071432"
     inkscape:cx="27.041172"
     inkscape:cy="34.515152"
     inkscape:document-units="px"
     inkscape:current-layer="layer1"
     showgrid="true"
     showguides="true"
     inkscape:guide-bbox="true"
     inkscape:window-width="1400"
     inkscape:window-height="1001"
     inkscape:window-x="0"
     inkscape:window-y="0"
     inkscape:window-maximized="1"
     gridtolerance="10">
    <inkscape:grid
       dotted="false"
       spacingy="10px"
       spacingx="10px"
       snapvisiblegridlinesonly="true"
       enabled="true"
       visible="true"
       empspacing="5"
       id="grid2985"
       type="xygrid" />
    <sodipodi:guide
       id="guide3830"
       position="10,430"
       orientation="0,1" />
  </sodipodi:namedview>
  <defs
     id="defs4">
    <inkscape:path-effect
       effect="skeletal"
       id="path-effect4429"
       is_visible="true"
       pattern="m 0,0.06012274 9.2234609,0.5257 c 6.3414501,-0.1169 8.4385481,-0.5038 19.0243491,0.1752 10.319363,-0.2336 19.742885,-0.8782 32.184621,-0.2629 7.528976,-0.1437 17.50757,0.3806 22.561989,-0.438 7.268409,-0.2628 11.016402,0.4088 18.20428,0.6133 5.80909,-0.2728 16.54333,-0.6446 22.55985,-0.088 l 16.62732,-0.2629 14.17225,-0.2628 0,1.95739996 -18.81041,-0.3504 c -9.96846,1.2637 -16.27528,-0.2615 -20.56973,-0.088 -10.89962,0.828 -15.70364,0.8529 -22.93991,0.1752 -1.29624,-1.02959996 -16.371614,0.165 -23.99026,0.1752 -8.244324,0.4149 -10.623035,-0.1734 -15.922685,-0.4381 l -14.965308,0.4381 c -3.675715,0.638 -7.960825,0.3619 -12.06948,0.3504 L 15.215686,1.6663227 0,2.0167227 z"
       copytype="single_stretched"
       prop_scale="1"
       scale_y_rel="false"
       spacing="0"
       normal_offset="0"
       tang_offset="0"
       prop_units="false"
       vertical_pattern="false"
       fuse_tolerance="0" />
    <inkscape:path-effect
       bendpath4-nodetypes="cc"
       bendpath3-nodetypes="cc"
       bendpath2-nodetypes="cc"
       bendpath1-nodetypes="cc"
       bendpath4="m 199.99724,1152.3622 c 0.0532,39.8791 4.25224,78.0922 0,119.6972"
       bendpath3="m 199.99724,1272.0594 c 33.27642,-2.0873 66.55285,-0.038 99.82927,0"
       bendpath2="m 299.82651,1152.3622 c -3.50266,37.0997 5.25198,74.4413 0,119.6972"
       bendpath1="m 199.99724,1152.3622 c 20.71929,-14.65 63.55748,-3.4946 99.82927,0"
       xx="true"
       yy="true"
       is_visible="true"
       id="path-effect4638"
       effect="envelope" />
    <inkscape:path-effect
       vertical="false"
       scale_y_rel="false"
       prop_scale="1"
       bendpath="M 0,0 1,0"
       is_visible="true"
       id="path-effect4636"
       effect="bend_path" />
    <inkscape:path-effect
       bendpath4="m 199.99724,1152.3622 0,119.6972"
       bendpath3="m 199.99724,1272.0594 99.82927,0"
       bendpath2="m 299.82651,1152.3622 0,119.6972"
       bendpath1="m 199.99724,1152.3622 99.82927,0"
       xx="true"
       yy="true"
       is_visible="true"
       id="path-effect4610"
       effect="envelope" />
    <inkscape:path-effect
       tgtlength_rdm="0.3;1"
       tgtlength="100"
       tgtscale="10"
       tgt_places_rdmness="1;1"
       nbtangents="5"
       tremble_frequency="1"
       tremble_size="5;1"
       parallel_offset="5;1"
       ends_tolerance="0.1;1"
       strokeoverlap_rdm="0.3;1"
       strokeoverlap="0.3"
       strokelength_rdm="0.3;1"
       strokelength="100"
       nbiter_approxstrokes="5"
       is_visible="true"
       id="path-effect4608"
       effect="sketch" />
    <inkscape:path-effect
       back_thickness="0.25"
       front_thickness="1"
       stroke_width_bottom="1"
       stroke_width_top="1"
       fat_output="true"
       bottom_smth_variation="0;1"
       top_smth_variation="0;1"
       scale_tb="1"
       scale_tf="1"
       scale_bb="1"
       scale_bf="1"
       top_tgt_variation="0;1"
       bottom_tgt_variation="0;1"
       top_edge_variation="11.78543;1"
       bottom_edge_variation="11.78543;1"
       bender="249.94842,1212.6663 , 5,0"
       do_bend="true"
       growth="0"
       dist_rdm="73.2;1"
       direction="249.94842,1207.6663 , 24.939047,0"
       is_visible="true"
       id="path-effect4606"
       effect="rough_hatches" />
    <inkscape:path-effect
       bendpath4-nodetypes="cc"
       bendpath3-nodetypes="cc"
       bendpath2-nodetypes="cc"
       bendpath1-nodetypes="cc"
       bendpath4="m 199.99724,1152.3622 c 0.0532,39.8791 4.25224,78.0922 0,119.6972"
       bendpath3="m 199.99724,1272.0594 c 33.27642,-2.0873 66.55285,-0.038 99.82927,0"
       bendpath2="m 299.82651,1152.3622 c -3.50266,37.0997 5.25198,74.4413 0,119.6972"
       bendpath1="m 199.99724,1152.3622 c 20.71929,-14.65 63.55748,-3.4946 99.82927,0"
       xx="true"
       yy="true"
       is_visible="true"
       id="path-effect4638-6"
       effect="envelope" />
    <inkscape:path-effect
       bendpath4-nodetypes="cc"
       bendpath3-nodetypes="cc"
       bendpath2-nodetypes="cc"
       bendpath1-nodetypes="cc"
       bendpath4="m 199.99724,1152.3622 c 0.0532,39.8791 4.25224,78.0922 0,119.6972"
       bendpath3="m 199.99724,1272.0594 c 33.27642,-2.0873 66.55285,-0.038 99.82927,0"
       bendpath2="m 299.82651,1152.3622 c -3.50266,37.0997 5.25198,74.4413 0,119.6972"
       bendpath1="m 199.99724,1152.3622 c 20.71929,-14.65 63.55748,-3.4946 99.82927,0"
       xx="true"
       yy="true"
       is_visible="true"
       id="path-effect4638-1"
       effect="envelope" />
  </defs>
  <metadata
     id="metadata7">
    <rdf:RDF>
      <cc:Work
         rdf:about="">
        <dc:format>image/svg+xml</dc:format>
        <dc:type
           rdf:resource="http://purl.org/dc/dcmitype/StillImage" />
        <dc:title />
      </cc:Work>
    </rdf:RDF>
  </metadata>
  <g
     transform="translate(0,-972.36218)"
     id="layer1"
     inkscape:groupmode="layer"
     inkscape:label="Ebene 1">
    <g
       transform="translate(-200,-200)"
       inkscape:tile-y0="852.36218"
       inkscape:tile-x0="100"
       inkscape:tile-h="100"
       inkscape:tile-w="100"
       inkscape:tile-cy="902.36218"
       inkscape:tile-cx="150"
       id="g3761">
      <rect
         style="fill:#eeeeee;fill-opacity:1;stroke:none"
         id="rect2991"
         width="100"
         height="80"
         x="200"
         y="1172.3623" />
    </g>
    <use
       height="1052.3622"
       width="744.09448"
       transform="translate(0,200)"
       id="use3764"
       xlink:href="#g3761"
       inkscape:tiled-clone-of="#g3761"
       y="0"
       x="0" />
    <use
       height="1052.3622"
       width="744.09448"
       id="use3766"
       transform="translate(0,300)"
       xlink:href="#g3761"
       inkscape:tiled-clone-of="#g3761"
       y="0"
       x="0" />
    <use
       height="1052.3622"
       width="744.09448"
       id="use3768"
       transform="translate(0,400)"
       xlink:href="#g3761"
       inkscape:tiled-clone-of="#g3761"
       y="0"
       x="0" />
    <use
       height="1052.3622"
       width="744.09448"
       id="use3770"
       transform="translate(100,200)"
       xlink:href="#g3761"
       inkscape:tiled-clone-of="#g3761"
       y="0"
       x="0" />
    <use
       height="1052.3622"
       width="744.09448"
       id="use3772"
       transform="translate(100,300)"
       xlink:href="#g3761"
       inkscape:tiled-clone-of="#g3761"
       y="0"
       x="0" />
    <use
       height="1052.3622"
       width="744.09448"
       id="use3774"
       transform="translate(100,400)"
       xlink:href="#g3761"
       inkscape:tiled-clone-of="#g3761"
       y="0"
       x="0" />
    <use
       height="1052.3622"
       width="744.09448"
       id="use3776"
       transform="translate(200,200)"
       xlink:href="#g3761"
       inkscape:tiled-clone-of="#g3761"
       y="0"
       x="0" />
    <use
       height="1052.3622"
       width="744.09448"
       id="use3778"
       transform="translate(200,300)"
       xlink:href="#g3761"
       inkscape:tiled-clone-of="#g3761"
       y="0"
       x="0" />
    <use
       height="1052.3622"
       width="744.09448"
       id="use3780"
       transform="translate(200,400)"
       xlink:href="#g3761"
       inkscape:tiled-clone-of="#g3761"
       y="0"
       x="0" />
    <path
       id="rect3128"
       d="m 1.7521901,1063.7639 9.2234609,0.5257 c 6.34145,-0.1169 8.438548,-0.5038 19.024349,0.1752 10.319363,-0.2336 19.742885,-0.8782 32.184621,-0.2629 7.528976,-0.1437 17.50757,0.3806 22.561989,-0.438 7.268409,-0.2628 11.016402,0.4088 18.20428,0.6133 5.80909,-0.2728 16.54333,-0.6446 22.55985,-0.088 l 16.62732,-0.2629 14.17225,-0.2628 0,1.9574 -18.81041,-0.3504 c -9.96846,1.2637 -16.27528,-0.2615 -20.56973,-0.088 -10.89962,0.828 -15.70364,0.8529 -22.93991,0.1752 -1.29624,-1.0296 -16.371614,0.165 -23.99026,0.1752 -8.244324,0.4149 -10.623035,-0.1734 -15.922685,-0.4381 l -14.965308,0.4381 c -3.675715,0.638 -7.960825,0.3619 -12.06948,0.3504 l -10.074651,-0.6132 -15.2156859,0.3504 z"
       style="fill:#000000;fill-opacity:1;stroke:none" />
    <path
       sodipodi:nodetypes="cccccccc"
       transform="translate(0,972.36218)"
       inkscape:connector-curvature="0"
       id="path3910"
       d="M 16.79461,28.123899 38.26542,29.690872 42.224135,11.452008 32.847339,18.017623 27.274232,4.4593476 22.231557,20 13.256519,13.643314 z"
       style="fill:none;stroke:#000000;stroke-width:1px;stroke-linecap:butt;stroke-linejoin:miter;stroke-opacity:1" />
    <path
       style="fill:#000000;fill-rule:evenodd;stroke:none"
       d="m 27.746514,58.890334 c 2.348268,0.432995 4.722183,0.847666 7.121745,1.244013 2.461301,0.195575 4.079714,0.258349 6.118258,0.449681 2.038543,0.191333 4.481544,0.522423 8.731837,1.154732 1.356682,0.106907 2.685282,0.206318 4.002331,0.306355 0.743765,-3.225191 1.485343,-6.358516 2.316587,-9.607005 0.831244,-3.248488 1.753687,-6.604364 2.809701,-10.525606 0.0055,-0.0217 0.01102,-0.04344 0.01654,-0.0652 -1.927061,1.063158 -4.190831,1.978289 -6.238776,3.024542 -1.023973,0.523127 -1.992332,1.087568 -2.844924,1.729663 -0.852591,0.642095 -1.588627,1.363619 -2.171005,2.157458 -0.601522,-1.560373 -1.140079,-2.91596 -1.563054,-3.913115 -1.63768,-4.280081 -2.609891,-7.119223 -3.989612,-10.877452 0,0 0,0 0,0 -0.183398,0.888827 -0.480479,1.795349 -0.847128,2.779761 -0.111666,0.38147 -0.228372,0.788527 -0.342206,1.216045 -0.649826,1.624771 -1.478775,3.564265 -2.387948,5.544629 -1.319999,2.413217 -2.814655,4.916714 -4.061507,6.984274 -0.819799,-0.70138 -1.574202,-1.369313 -2.243856,-1.962285 -2.058933,-1.672014 -4.134114,-3.291163 -6.394302,-4.51716 0.285163,1.694907 0.578359,3.384237 0.879586,5.06799 0.654033,3.622932 1.351608,7.215628 2.092725,10.778087 l -1.941841,0.246306 c -0.321993,-5.056591 -0.721044,-10.059672 -1.197151,-15.009243 -0.08293,-0.559103 -0.154464,-1.105083 -0.21785,-1.636868 1.976326,0.927097 3.64326,2.044227 5.081934,3.117751 1.438674,1.073524 2.659954,2.118464 3.747982,3.03625 0.607034,-1.246173 1.210584,-2.329852 1.638784,-3.355927 0.481986,-1.263681 0.874857,-2.400684 1.220564,-3.44126 0.853628,-2.154146 1.593439,-3.93162 2.307277,-5.536955 0.966122,-1.403554 1.925137,-2.61928 2.656181,-3.86441 0.470728,1.230898 0.945443,2.493571 1.459564,3.892325 0.236335,0.898418 2.223806,5.988619 4.187917,10.88171 1.740563,-2.20834 4.174829,-3.536482 5.996782,-4.381278 1.239714,-0.606275 2.311043,-1.04791 3.223818,-1.433152 0.912775,-0.385243 1.672711,-0.7098 2.338208,-1.02509 -0.558982,2.369616 -1.022195,4.096282 -1.654109,6.553337 -0.878181,3.876931 -1.74137,7.829899 -2.589566,11.858904 -0.13682,1.087676 -0.324104,2.206864 -0.543166,3.327268 -2.085896,-0.09172 -4.391818,-0.333132 -6.583482,-0.498916 -2.764096,-0.342787 -5.495515,-0.708922 -8.19426,-1.098403 -4.011649,-0.237875 -8.051498,-0.4556 -12.119548,-0.653177 z"
       id="path4427"
       inkscape:path-effect="#path-effect4429"
       inkscape:original-d="m 27.645736,60 26.32172,2.390489 5.068839,-20.763453 c -3.984904,2.074219 -8.531288,3.165524 -11.376723,6.795993 L 42.052563,33.74218 C 40.866722,37.168825 34.309217,50 34.309217,50 31.377765,47.653786 27.833418,44.910427 25.581976,43.729664 z"
       inkscape:connector-curvature="0"
       transform="translate(0,972.36218)"
       sodipodi:nodetypes="cccccccc" />
  </g>
</svg>
