<?xml version="1.0" encoding="UTF-8" standalone="no"?>
<svg
   xmlns:dc="http://purl.org/dc/elements/1.1/"
   xmlns:cc="http://creativecommons.org/ns#"
   xmlns:rdf="http://www.w3.org/1999/02/22-rdf-syntax-ns#"
   xmlns:svg="http://www.w3.org/2000/svg"
   xmlns="http://www.w3.org/2000/svg"
   version="1.1"
   id="svg2"
   height="100"
   width="100">
  <defs
     id="defs4" />
  <metadata
     id="metadata7">
    <rdf:RDF>
      <cc:Work
         rdf:about="">
        <dc:format>image/svg+xml</dc:format>
        <dc:type
           rdf:resource="http://purl.org/dc/dcmitype/StillImage" />
        <dc:title></dc:title>
      </cc:Work>
    </rdf:RDF>
  </metadata>
  <g
     transform="translate(0,-952.36218)"
     id="layer1">
    <g
       transform="translate(-200,-200)"
       id="g3761">
      <path
         transform="matrix(1,0,0,-1,335,1367.3622)"
         d="m -60,165 a 25,25 0 0 1 -25,25 25,25 0 0 1 -25,-25 25,25 0 0 1 25,-25 25,25 0 0 1 25,25 z"
         id="path3816"
         style="fill:none;stroke:#000000;stroke-opacity:1" />
      <path
         style="fill:none;stroke:#000000;stroke-width:0.66654551;stroke-opacity:1"
         id="path3043"
         d="m -60,165 a 25,25 0 0 1 -25,25 25,25 0 0 1 -25,-25 25,25 0 0 1 25,-25 25,25 0 0 1 25,25 z"
         transform="matrix(1.5002726,0,0,-1.5002726,377.52317,1449.9072)" />
      <path
         id="path3049"
         d="m 276.81441,1229.1146 13.929,13.991"
         style="fill:none;stroke:#000000;stroke-width:1px;stroke-linecap:butt;stroke-linejoin:miter;stroke-opacity:1" />
      <path
         id="path3051"
         d="m 276.65474,1175.8314 14.0267,-14.1507"
         style="fill:none;stroke:#000000;stroke-width:1px;stroke-linecap:butt;stroke-linejoin:miter;stroke-opacity:1" />
      <path
         id="path3053"
         d="m 223.28329,1175.7074 -14.2125,-14.1505"
         style="fill:none;stroke:#000000;stroke-width:1px;stroke-linecap:butt;stroke-linejoin:miter;stroke-opacity:1" />
      <path
         id="path3055"
         d="m 209.31856,1243.0436 13.9028,-13.8408"
         style="fill:none;stroke:#000000;stroke-width:1px;stroke-linecap:butt;stroke-linejoin:miter;stroke-opacity:1" />
      <path
         transform="matrix(1.3015158,0,0,1.3015158,200.01518,1122.1954)"
         d="M 1.9615349e-7,89.99998 A 10.00002,10.00002 0 0 1 10.00002,100"
         id="path3057"
         style="fill:none;fill-opacity:1;stroke:#000000;stroke-width:0.76833487;stroke-miterlimit:4;stroke-opacity:1;stroke-dasharray:none;stroke-dashoffset:5.5" />
      <path
         style="fill:none;fill-opacity:1;stroke:#000000;stroke-width:0.76833487;stroke-miterlimit:4;stroke-opacity:1;stroke-dasharray:none;stroke-dashoffset:5.5"
         id="path3059"
         d="M -10.00002,100 A 10.00002,10.00002 0 0 1 1.9615349e-7,89.99998"
         transform="matrix(1.3015158,0,0,1.3015158,300.01518,1122.1954)" />
      <path
         transform="matrix(1.3015158,0,0,1.3015158,300.01518,1022.1954)"
         d="M 2.679495e-7,110.00002 A 10.00002,10.00002 0 0 1 -7.071082,107.07108 10.00002,10.00002 0 0 1 -10.00002,100"
         id="path3061"
         style="fill:none;fill-opacity:1;stroke:#000000;stroke-width:0.76833487;stroke-miterlimit:4;stroke-opacity:1;stroke-dasharray:none;stroke-dashoffset:5.5" />
      <path
         style="fill:none;fill-opacity:1;stroke:#000000;stroke-width:0.76833487;stroke-miterlimit:4;stroke-opacity:1;stroke-dasharray:none;stroke-dashoffset:5.5"
         id="path3063"
         d="M 10.00002,100 A 10.00002,10.00002 0 0 1 2.679495e-7,110.00002"
         transform="matrix(1.3015158,0,0,1.3015158,200.01518,1022.1954)" />
    </g>
  </g>
</svg>
