<?xml version="1.0" encoding="UTF-8" standalone="no"?>
<!-- Created with Inkscape (http://www.inkscape.org/) -->

<svg
   xmlns:dc="http://purl.org/dc/elements/1.1/"
   xmlns:cc="http://creativecommons.org/ns#"
   xmlns:rdf="http://www.w3.org/1999/02/22-rdf-syntax-ns#"
   xmlns:svg="http://www.w3.org/2000/svg"
   xmlns="http://www.w3.org/2000/svg"
   xmlns:xlink="http://www.w3.org/1999/xlink"
   xmlns:sodipodi="http://sodipodi.sourceforge.net/DTD/sodipodi-0.dtd"
   xmlns:inkscape="http://www.inkscape.org/namespaces/inkscape"
   sodipodi:docname="background_tile14-hdpi.svg"
   inkscape:version="0.48.4 r9939"
   version="1.1"
   id="svg2"
   height="80"
   width="80">
  <defs
     id="defs4">
    <inkscape:path-effect
       effect="skeletal"
       id="path-effect5018"
       is_visible="true"
       pattern="M 0,0 0,10 10,5 z"
       copytype="single_stretched"
       prop_scale="1"
       scale_y_rel="false"
       spacing="0"
       normal_offset="0"
       tang_offset="0"
       prop_units="false"
       vertical_pattern="false"
       fuse_tolerance="0" />
    <inkscape:path-effect
       effect="skeletal"
       id="path-effect5014"
       is_visible="true"
       pattern="M 0,5 C 0,2.24 2.24,0 5,0 7.76,0 10,2.24 10,5 10,7.76 7.76,10 5,10 2.24,10 0,7.76 0,5 z"
       copytype="single_stretched"
       prop_scale="1"
       scale_y_rel="false"
       spacing="0"
       normal_offset="0"
       tang_offset="0"
       prop_units="false"
       vertical_pattern="false"
       fuse_tolerance="0" />
    <inkscape:path-effect
       effect="skeletal"
       id="path-effect5010"
       is_visible="true"
       pattern="M 0,5 C 0,2.24 2.24,0 5,0 7.76,0 10,2.24 10,5 10,7.76 7.76,10 5,10 2.24,10 0,7.76 0,5 z"
       copytype="single_stretched"
       prop_scale="1"
       scale_y_rel="false"
       spacing="0"
       normal_offset="0"
       tang_offset="0"
       prop_units="false"
       vertical_pattern="false"
       fuse_tolerance="0" />
    <inkscape:path-effect
       effect="spiro"
       id="path-effect5008"
       is_visible="true" />
    <inkscape:path-effect
       effect="skeletal"
       id="path-effect5004"
       is_visible="true"
       pattern="M 0,5 C 0,2.24 2.24,0 5,0 7.76,0 10,2.24 10,5 10,7.76 7.76,10 5,10 2.24,10 0,7.76 0,5 z"
       copytype="single_stretched"
       prop_scale="1"
       scale_y_rel="false"
       spacing="0"
       normal_offset="0"
       tang_offset="0"
       prop_units="false"
       vertical_pattern="false"
       fuse_tolerance="0" />
    <inkscape:path-effect
       effect="spiro"
       id="path-effect5002"
       is_visible="true" />
    <inkscape:path-effect
       effect="skeletal"
       id="path-effect4998"
       is_visible="true"
       pattern="M 0,5 C 0,2.24 2.24,0 5,0 7.76,0 10,2.24 10,5 10,7.76 7.76,10 5,10 2.24,10 0,7.76 0,5 z"
       copytype="single_stretched"
       prop_scale="1"
       scale_y_rel="false"
       spacing="0"
       normal_offset="0"
       tang_offset="0"
       prop_units="false"
       vertical_pattern="false"
       fuse_tolerance="0" />
    <inkscape:path-effect
       effect="skeletal"
       id="path-effect4994"
       is_visible="true"
       pattern="M 0,5 C 0,2.24 2.24,0 5,0 7.76,0 10,2.24 10,5 10,7.76 7.76,10 5,10 2.24,10 0,7.76 0,5 z"
       copytype="single_stretched"
       prop_scale="1"
       scale_y_rel="false"
       spacing="0"
       normal_offset="0"
       tang_offset="0"
       prop_units="false"
       vertical_pattern="false"
       fuse_tolerance="0" />
    <inkscape:path-effect
       effect="spiro"
       id="path-effect4988"
       is_visible="true" />
    <inkscape:path-effect
       effect="envelope"
       id="path-effect4638"
       is_visible="true"
       yy="true"
       xx="true"
       bendpath1="m 199.99724,1152.3622 c 20.71929,-14.65 63.55748,-3.4946 99.82927,0"
       bendpath2="m 299.82651,1152.3622 c -3.50266,37.0997 5.25198,74.4413 0,119.6972"
       bendpath3="m 199.99724,1272.0594 c 33.27642,-2.0873 66.55285,-0.038 99.82927,0"
       bendpath4="m 199.99724,1152.3622 c 0.0532,39.8791 4.25224,78.0922 0,119.6972"
       bendpath1-nodetypes="cc"
       bendpath2-nodetypes="cc"
       bendpath3-nodetypes="cc"
       bendpath4-nodetypes="cc" />
    <inkscape:path-effect
       effect="bend_path"
       id="path-effect4636"
       is_visible="true"
       bendpath="M 0,0 1,0"
       prop_scale="1"
       scale_y_rel="false"
       vertical="false" />
    <inkscape:path-effect
       effect="envelope"
       id="path-effect4610"
       is_visible="true"
       yy="true"
       xx="true"
       bendpath1="m 199.99724,1152.3622 99.82927,0"
       bendpath2="m 299.82651,1152.3622 0,119.6972"
       bendpath3="m 199.99724,1272.0594 99.82927,0"
       bendpath4="m 199.99724,1152.3622 0,119.6972" />
    <inkscape:path-effect
       effect="sketch"
       id="path-effect4608"
       is_visible="true"
       nbiter_approxstrokes="5"
       strokelength="100"
       strokelength_rdm="0.3;1"
       strokeoverlap="0.3"
       strokeoverlap_rdm="0.3;1"
       ends_tolerance="0.1;1"
       parallel_offset="5;1"
       tremble_size="5;1"
       tremble_frequency="1"
       nbtangents="5"
       tgt_places_rdmness="1;1"
       tgtscale="10"
       tgtlength="100"
       tgtlength_rdm="0.3;1" />
    <inkscape:path-effect
       effect="rough_hatches"
       id="path-effect4606"
       is_visible="true"
       direction="249.94842,1207.6663 , 24.939047,0"
       dist_rdm="73.2;1"
       growth="0"
       do_bend="true"
       bender="249.94842,1212.6663 , 5,0"
       bottom_edge_variation="11.78543;1"
       top_edge_variation="11.78543;1"
       bottom_tgt_variation="0;1"
       top_tgt_variation="0;1"
       scale_bf="1"
       scale_bb="1"
       scale_tf="1"
       scale_tb="1"
       top_smth_variation="0;1"
       bottom_smth_variation="0;1"
       fat_output="true"
       stroke_width_top="1"
       stroke_width_bottom="1"
       front_thickness="1"
       back_thickness="0.25" />
    <inkscape:path-effect
       effect="envelope"
       id="path-effect4638-6"
       is_visible="true"
       yy="true"
       xx="true"
       bendpath1="m 199.99724,1152.3622 c 20.71929,-14.65 63.55748,-3.4946 99.82927,0"
       bendpath2="m 299.82651,1152.3622 c -3.50266,37.0997 5.25198,74.4413 0,119.6972"
       bendpath3="m 199.99724,1272.0594 c 33.27642,-2.0873 66.55285,-0.038 99.82927,0"
       bendpath4="m 199.99724,1152.3622 c 0.0532,39.8791 4.25224,78.0922 0,119.6972"
       bendpath1-nodetypes="cc"
       bendpath2-nodetypes="cc"
       bendpath3-nodetypes="cc"
       bendpath4-nodetypes="cc" />
    <inkscape:path-effect
       effect="envelope"
       id="path-effect4638-1"
       is_visible="true"
       yy="true"
       xx="true"
       bendpath1="m 199.99724,1152.3622 c 20.71929,-14.65 63.55748,-3.4946 99.82927,0"
       bendpath2="m 299.82651,1152.3622 c -3.50266,37.0997 5.25198,74.4413 0,119.6972"
       bendpath3="m 199.99724,1272.0594 c 33.27642,-2.0873 66.55285,-0.038 99.82927,0"
       bendpath4="m 199.99724,1152.3622 c 0.0532,39.8791 4.25224,78.0922 0,119.6972"
       bendpath1-nodetypes="cc"
       bendpath2-nodetypes="cc"
       bendpath3-nodetypes="cc"
       bendpath4-nodetypes="cc" />
  </defs>
  <sodipodi:namedview
     id="base"
     pagecolor="#ffffff"
     bordercolor="#666666"
     borderopacity="1.0"
     inkscape:pageopacity="0.0"
     inkscape:pageshadow="2"
     inkscape:zoom="1.4142136"
     inkscape:cx="224.90261"
     inkscape:cy="-299.6016"
     inkscape:document-units="px"
     inkscape:current-layer="layer1"
     showgrid="true"
     showguides="true"
     inkscape:guide-bbox="true"
     inkscape:window-width="1400"
     inkscape:window-height="1001"
     inkscape:window-x="0"
     inkscape:window-y="0"
     inkscape:window-maximized="1"
     gridtolerance="10">
    <inkscape:grid
       type="xygrid"
       id="grid2985"
       empspacing="5"
       visible="true"
       enabled="true"
       snapvisiblegridlinesonly="true"
       spacingx="10px"
       spacingy="10px"
       dotted="false" />
    <sodipodi:guide
       orientation="0,1"
       position="10,430"
       id="guide3830" />
  </sodipodi:namedview>
  <metadata
     id="metadata7">
    <rdf:RDF>
      <cc:Work
         rdf:about="">
        <dc:format>image/svg+xml</dc:format>
        <dc:type
           rdf:resource="http://purl.org/dc/dcmitype/StillImage" />
        <dc:title />
      </cc:Work>
    </rdf:RDF>
  </metadata>
  <g
     inkscape:label="Ebene 1"
     inkscape:groupmode="layer"
     id="layer1"
     transform="translate(0,-972.36218)">
    <g
       id="g3761"
       inkscape:tile-cx="150"
       inkscape:tile-cy="902.36218"
       inkscape:tile-w="100"
       inkscape:tile-h="100"
       inkscape:tile-x0="100"
       inkscape:tile-y0="852.36218"
       transform="translate(-200,-200)">
      <rect
         y="1172.3623"
         x="200"
         height="80"
         width="80"
         id="rect2991"
         style="fill:#eeeeee;fill-opacity:1;stroke:none" />
      <path
         style="font-size:medium;font-style:normal;font-variant:normal;font-weight:normal;font-stretch:normal;text-indent:0;text-align:start;text-decoration:none;line-height:normal;letter-spacing:normal;word-spacing:normal;text-transform:none;direction:ltr;block-progression:tb;writing-mode:lr-tb;text-anchor:start;baseline-shift:baseline;color:#000000;fill:#000000;fill-opacity:1;stroke:none;stroke-width:1px;marker:none;visibility:visible;display:inline;overflow:visible;enable-background:accumulate;font-family:Sans;-inkscape-font-specification:Sans"
         d="m 236.28125,1198.3125 -0.716,1.7472 c -1.36846,3.529 -3.22217,10.2007 -3.37775,12.8465 -0.84393,0.2421 -4.33758,-2.3253 -6.61116,-3.4842 l -1.13884,-0.4845 c 0.21651,1.1205 0.45738,2.1193 0.63691,3.4247 0.57757,5.4879 0.83964,5.5448 1.75651,8.8838 l 0.0937,0.4062 c 0.0685,0.1558 0.2129,0.1597 0.36245,0.1533 4.63818,0.6016 11.12729,1.4801 17.51094,1.4792 0.17622,0.01 0.31668,-0.012 0.40465,-0.088 0.0973,-0.1027 0.15525,-0.2252 0.17036,-0.3827 0.57764,-3.7861 1.05111,-9.167 3.21265,-16.7129 l 0.35814,-1.219 -1.03125,0.7812 -7.00449,5.1561 c -0.66509,-3.874 -2.67405,-7.5609 -4.09567,-11.1323 l -0.53125,-1.375 z m -0.0606,2.2267 c 1.12704,3.507 2.94513,8.8881 4.12577,10.9923 0.0803,0.1555 0.18085,0.1947 0.30233,0.2473 0.13279,4e-4 0.28089,-0.013 0.45459,-0.156 l 6.40304,-4.3965 c -1.64098,5.3691 -3.5836,12.1646 -3.14745,14.9708 -5.52872,-0.5197 -15.19713,-0.3189 -16.62179,-1.5449 -0.53813,-3.482 -0.18668,-6.0703 -1.89342,-9.871 2.85287,1.1043 6.58465,4.1914 6.96316,3.5973 l 0.006,0 0.0123,-0.013 c 0.58344,-0.9865 0.39451,-5.2881 3.14811,-13.2339 z"
         id="path5060"
         inkscape:connector-curvature="0"
         sodipodi:nodetypes="cccccccccccccccccccccccccccccccc" />
      <path
         sodipodi:nodetypes="cccccccccccccccccccccccccccccccc"
         inkscape:connector-curvature="0"
         id="path3051"
         d="m 276.28125,1238.3125 -0.716,1.7472 c -1.36846,3.529 -3.22217,10.2007 -3.37775,12.8465 -0.84393,0.2421 -4.33758,-2.3253 -6.61116,-3.4842 l -1.13884,-0.4845 c 0.21651,1.1205 0.45738,2.1193 0.63691,3.4247 0.57757,5.4879 0.83964,5.5448 1.75651,8.8838 l 0.0937,0.4062 c 0.0685,0.1558 0.2129,0.1597 0.36245,0.1533 4.63818,0.6016 11.12729,1.4801 17.51094,1.4792 0.17622,0.01 0.31668,-0.012 0.40465,-0.088 0.0973,-0.1027 0.15525,-0.2252 0.17036,-0.3827 0.57764,-3.7861 1.05111,-9.167 3.21265,-16.7129 l 0.35814,-1.219 -1.03125,0.7812 -7.00449,5.1561 c -0.66509,-3.874 -2.67405,-7.5609 -4.09567,-11.1323 l -0.53125,-1.375 z m -0.0606,2.2267 c 1.12704,3.507 2.94513,8.8881 4.12577,10.9923 0.0803,0.1555 0.18085,0.1947 0.30233,0.2473 0.13279,4e-4 0.28089,-0.013 0.45459,-0.156 l 6.40304,-4.3965 c -1.64098,5.3691 -3.5836,12.1646 -3.14745,14.9708 -5.52872,-0.5197 -15.19713,-0.3189 -16.62179,-1.5449 -0.53813,-3.482 -0.18668,-6.0703 -1.89342,-9.871 2.85287,1.1043 6.58465,4.1914 6.96316,3.5973 l 0.006,0 0.0123,-0.013 c 0.58344,-0.9865 0.39451,-5.2881 3.14811,-13.2339 z"
         style="font-size:medium;font-style:normal;font-variant:normal;font-weight:normal;font-stretch:normal;text-indent:0;text-align:start;text-decoration:none;line-height:normal;letter-spacing:normal;word-spacing:normal;text-transform:none;direction:ltr;block-progression:tb;writing-mode:lr-tb;text-anchor:start;baseline-shift:baseline;color:#000000;fill:#000000;fill-opacity:1;stroke:none;stroke-width:1px;marker:none;visibility:visible;display:inline;overflow:visible;enable-background:accumulate;font-family:Sans;-inkscape-font-specification:Sans" />
      <path
         style="font-size:medium;font-style:normal;font-variant:normal;font-weight:normal;font-stretch:normal;text-indent:0;text-align:start;text-decoration:none;line-height:normal;letter-spacing:normal;word-spacing:normal;text-transform:none;direction:ltr;block-progression:tb;writing-mode:lr-tb;text-anchor:start;baseline-shift:baseline;color:#000000;fill:#000000;fill-opacity:1;stroke:none;stroke-width:1px;marker:none;visibility:visible;display:inline;overflow:visible;enable-background:accumulate;font-family:Sans;-inkscape-font-specification:Sans"
         d="m 276.28125,1158.3125 -0.716,1.7472 c -1.36846,3.529 -3.22217,10.2007 -3.37775,12.8465 -0.84393,0.2421 -4.33758,-2.3253 -6.61116,-3.4842 l -1.13884,-0.4845 c 0.21651,1.1205 0.45738,2.1193 0.63691,3.4247 0.57757,5.4879 0.83964,5.5448 1.75651,8.8838 l 0.0937,0.4062 c 0.0685,0.1558 0.2129,0.1597 0.36245,0.1533 4.63818,0.6016 11.12729,1.4801 17.51094,1.4792 0.17622,0.01 0.31668,-0.012 0.40465,-0.088 0.0973,-0.1027 0.15525,-0.2252 0.17036,-0.3827 0.57764,-3.7861 1.05111,-9.167 3.21265,-16.7129 l 0.35814,-1.219 -1.03125,0.7812 -7.00449,5.1561 c -0.66509,-3.874 -2.67405,-7.5609 -4.09567,-11.1323 l -0.53125,-1.375 z m -0.0606,2.2267 c 1.12704,3.507 2.94513,8.8881 4.12577,10.9923 0.0803,0.1555 0.18085,0.1947 0.30233,0.2473 0.13279,4e-4 0.28089,-0.013 0.45459,-0.156 l 6.40304,-4.3965 c -1.64098,5.3691 -3.5836,12.1646 -3.14745,14.9708 -5.52872,-0.5197 -15.19713,-0.3189 -16.62179,-1.5449 -0.53813,-3.482 -0.18668,-6.0703 -1.89342,-9.871 2.85287,1.1043 6.58465,4.1914 6.96316,3.5973 l 0.006,0 0.0123,-0.013 c 0.58344,-0.9865 0.39451,-5.2881 3.14811,-13.2339 z"
         id="path3053"
         inkscape:connector-curvature="0"
         sodipodi:nodetypes="cccccccccccccccccccccccccccccccc" />
      <path
         sodipodi:nodetypes="cccccccccccccccccccccccccccccccc"
         inkscape:connector-curvature="0"
         id="path3055"
         d="m 196.28125,1158.3125 -0.716,1.7472 c -1.36846,3.529 -3.22217,10.2007 -3.37775,12.8465 -0.84393,0.2421 -4.33758,-2.3253 -6.61116,-3.4842 l -1.13884,-0.4845 c 0.21651,1.1205 0.45738,2.1193 0.63691,3.4247 0.57757,5.4879 0.83964,5.5448 1.75651,8.8838 l 0.0937,0.4062 c 0.0685,0.1558 0.2129,0.1597 0.36245,0.1533 4.63818,0.6016 11.12729,1.4801 17.51094,1.4792 0.17622,0.01 0.31668,-0.012 0.40465,-0.088 0.0973,-0.1027 0.15525,-0.2252 0.17036,-0.3827 0.57764,-3.7861 1.05111,-9.167 3.21265,-16.7129 l 0.35814,-1.219 -1.03125,0.7812 -7.00449,5.1561 c -0.66509,-3.874 -2.67405,-7.5609 -4.09567,-11.1323 l -0.53125,-1.375 z m -0.0606,2.2267 c 1.12704,3.507 2.94513,8.8881 4.12577,10.9923 0.0803,0.1555 0.18085,0.1947 0.30233,0.2473 0.13279,4e-4 0.28089,-0.013 0.45459,-0.156 l 6.40304,-4.3965 c -1.64098,5.3691 -3.5836,12.1646 -3.14745,14.9708 -5.52872,-0.5197 -15.19713,-0.3189 -16.62179,-1.5449 -0.53813,-3.482 -0.18668,-6.0703 -1.89342,-9.871 2.85287,1.1043 6.58465,4.1914 6.96316,3.5973 l 0.006,0 0.0123,-0.013 c 0.58344,-0.9865 0.39451,-5.2881 3.14811,-13.2339 z"
         style="font-size:medium;font-style:normal;font-variant:normal;font-weight:normal;font-stretch:normal;text-indent:0;text-align:start;text-decoration:none;line-height:normal;letter-spacing:normal;word-spacing:normal;text-transform:none;direction:ltr;block-progression:tb;writing-mode:lr-tb;text-anchor:start;baseline-shift:baseline;color:#000000;fill:#000000;fill-opacity:1;stroke:none;stroke-width:1px;marker:none;visibility:visible;display:inline;overflow:visible;enable-background:accumulate;font-family:Sans;-inkscape-font-specification:Sans" />
      <path
         style="font-size:medium;font-style:normal;font-variant:normal;font-weight:normal;font-stretch:normal;text-indent:0;text-align:start;text-decoration:none;line-height:normal;letter-spacing:normal;word-spacing:normal;text-transform:none;direction:ltr;block-progression:tb;writing-mode:lr-tb;text-anchor:start;baseline-shift:baseline;color:#000000;fill:#000000;fill-opacity:1;stroke:none;stroke-width:1px;marker:none;visibility:visible;display:inline;overflow:visible;enable-background:accumulate;font-family:Sans;-inkscape-font-specification:Sans"
         d="m 196.28125,1238.3125 -0.716,1.7472 c -1.36846,3.529 -3.22217,10.2007 -3.37775,12.8465 -0.84393,0.2421 -4.33758,-2.3253 -6.61116,-3.4842 l -1.13884,-0.4845 c 0.21651,1.1205 0.45738,2.1193 0.63691,3.4247 0.57757,5.4879 0.83964,5.5448 1.75651,8.8838 l 0.0937,0.4062 c 0.0685,0.1558 0.2129,0.1597 0.36245,0.1533 4.63818,0.6016 11.12729,1.4801 17.51094,1.4792 0.17622,0.01 0.31668,-0.012 0.40465,-0.088 0.0973,-0.1027 0.15525,-0.2252 0.17036,-0.3827 0.57764,-3.7861 1.05111,-9.167 3.21265,-16.7129 l 0.35814,-1.219 -1.03125,0.7812 -7.00449,5.1561 c -0.66509,-3.874 -2.67405,-7.5609 -4.09567,-11.1323 l -0.53125,-1.375 z m -0.0606,2.2267 c 1.12704,3.507 2.94513,8.8881 4.12577,10.9923 0.0803,0.1555 0.18085,0.1947 0.30233,0.2473 0.13279,4e-4 0.28089,-0.013 0.45459,-0.156 l 6.40304,-4.3965 c -1.64098,5.3691 -3.5836,12.1646 -3.14745,14.9708 -5.52872,-0.5197 -15.19713,-0.3189 -16.62179,-1.5449 -0.53813,-3.482 -0.18668,-6.0703 -1.89342,-9.871 2.85287,1.1043 6.58465,4.1914 6.96316,3.5973 l 0.006,0 0.0123,-0.013 c 0.58344,-0.9865 0.39451,-5.2881 3.14811,-13.2339 z"
         id="path3057"
         inkscape:connector-curvature="0"
         sodipodi:nodetypes="cccccccccccccccccccccccccccccccc" />
    </g>
    <use
       x="0"
       y="0"
       inkscape:tiled-clone-of="#g3761"
       xlink:href="#g3761"
       id="use3764"
       transform="translate(0,200)"
       width="744.09448"
       height="1052.3622" />
    <use
       x="0"
       y="0"
       inkscape:tiled-clone-of="#g3761"
       xlink:href="#g3761"
       transform="translate(0,280)"
       id="use3766"
       width="744.09448"
       height="1052.3622" />
    <use
       x="0"
       y="0"
       inkscape:tiled-clone-of="#g3761"
       xlink:href="#g3761"
       transform="translate(0,360)"
       id="use3768"
       width="744.09448"
       height="1052.3622" />
    <use
       x="0"
       y="0"
       inkscape:tiled-clone-of="#g3761"
       xlink:href="#g3761"
       transform="translate(80,200)"
       id="use3770"
       width="744.09448"
       height="1052.3622" />
    <use
       x="0"
       y="0"
       inkscape:tiled-clone-of="#g3761"
       xlink:href="#g3761"
       transform="translate(80,280)"
       id="use3772"
       width="744.09448"
       height="1052.3622" />
    <use
       x="0"
       y="0"
       inkscape:tiled-clone-of="#g3761"
       xlink:href="#g3761"
       transform="translate(80,360)"
       id="use3774"
       width="744.09448"
       height="1052.3622" />
    <use
       x="0"
       y="0"
       inkscape:tiled-clone-of="#g3761"
       xlink:href="#g3761"
       transform="translate(160,200)"
       id="use3776"
       width="744.09448"
       height="1052.3622" />
    <use
       x="0"
       y="0"
       inkscape:tiled-clone-of="#g3761"
       xlink:href="#g3761"
       transform="translate(160,280)"
       id="use3778"
       width="744.09448"
       height="1052.3622" />
    <use
       x="0"
       y="0"
       inkscape:tiled-clone-of="#g3761"
       xlink:href="#g3761"
       transform="translate(160,360)"
       id="use3780"
       width="744.09448"
       height="1052.3622" />
  </g>
  <rect
     style="fill:#eeeeee;fill-opacity:1;stroke:#ff0000;stroke-width:1;stroke-miterlimit:4;stroke-opacity:1;stroke-dasharray:none;stroke-dashoffset:5.5"
     id="rect5198"
     width="0"
     height="0"
     x="0"
     y="0" />
</svg>
