<?xml version="1.0" encoding="UTF-8" standalone="no"?>
<!-- Created with Inkscape (http://www.inkscape.org/) -->

<svg
   xmlns:dc="http://purl.org/dc/elements/1.1/"
   xmlns:cc="http://creativecommons.org/ns#"
   xmlns:rdf="http://www.w3.org/1999/02/22-rdf-syntax-ns#"
   xmlns:svg="http://www.w3.org/2000/svg"
   xmlns="http://www.w3.org/2000/svg"
   xmlns:xlink="http://www.w3.org/1999/xlink"
   xmlns:sodipodi="http://sodipodi.sourceforge.net/DTD/sodipodi-0.dtd"
   xmlns:inkscape="http://www.inkscape.org/namespaces/inkscape"
   width="100"
   height="100"
   id="svg2"
   version="1.1"
   inkscape:version="0.48.4 r9939"
   sodipodi:docname="background_tile06.svg">
  <defs
     id="defs4" />
  <sodipodi:namedview
     id="base"
     pagecolor="#ffffff"
     bordercolor="#666666"
     borderopacity="1.0"
     inkscape:pageopacity="0.0"
     inkscape:pageshadow="2"
     inkscape:zoom="5.7071431"
     inkscape:cx="56.613429"
     inkscape:cy="55.561167"
     inkscape:document-units="px"
     inkscape:current-layer="g3761"
     showgrid="true"
     showguides="true"
     inkscape:guide-bbox="true"
     inkscape:window-width="1400"
     inkscape:window-height="1001"
     inkscape:window-x="0"
     inkscape:window-y="0"
     inkscape:window-maximized="1"
     gridtolerance="10">
    <inkscape:grid
       type="xygrid"
       id="grid2985"
       empspacing="5"
       visible="true"
       enabled="true"
       snapvisiblegridlinesonly="true"
       spacingx="10px"
       spacingy="10px"
       dotted="false" />
    <sodipodi:guide
       orientation="0,1"
       position="10,430"
       id="guide3830" />
  </sodipodi:namedview>
  <metadata
     id="metadata7">
    <rdf:RDF>
      <cc:Work
         rdf:about="">
        <dc:format>image/svg+xml</dc:format>
        <dc:type
           rdf:resource="http://purl.org/dc/dcmitype/StillImage" />
        <dc:title></dc:title>
      </cc:Work>
    </rdf:RDF>
  </metadata>
  <g
     inkscape:label="Ebene 1"
     inkscape:groupmode="layer"
     id="layer1"
     transform="translate(0,-952.36218)">
    <g
       id="g3761"
       inkscape:tile-cx="150"
       inkscape:tile-cy="902.36218"
       inkscape:tile-w="100"
       inkscape:tile-h="100"
       inkscape:tile-x0="100"
       inkscape:tile-y0="852.36218"
       transform="translate(-200,-200)">
      <rect
         y="1152.3622"
         x="200"
         height="100"
         width="100"
         id="rect2991"
         style="fill:#d9d9d9;fill-opacity:1;stroke:none" />
      <g
         id="g3911"
         transform="translate(-20.195464,-5.699334)">
        <path
           sodipodi:nodetypes="cccccccsccccccssccccccscccccccccccccc"
           inkscape:connector-curvature="0"
           id="path3900"
           transform="translate(200,1152.3622)"
           d="m 48.1875,30 c -7.196748,2.450022 -6.952755,4.411257 -6.203813,9.335731 0.136316,0.442432 0.324937,2.480768 1.610063,3.445519 L 45.625,39 44.75,43.0625 c 0.445754,0.210728 2.033965,-0.863347 2.65625,-1.40625 C 50.25507,38.707926 52.67119,35.615133 48.1875,30 z M 35.75,34.84375 c -1.591466,-0.009 -3.165951,0.599218 -4.75,0.78125 -0.928142,7.017383 2.953478,8.203791 7.25,8.90625 1.366762,0.05741 2.657941,0.02034 3.5625,-0.5 l -3,-3.0625 3.625,2.09375 C 42.716277,42.383618 42.236716,41.19968 41.813326,40.100943 39.695414,35.944036 37.758598,34.85515 35.75,34.84375 z m 16.78125,5.5 c -1.458481,-0.0083 -3.014254,0.615791 -4.530975,1.311123 -0.848758,0.481969 -2.343816,1.5257 -2.656525,2.438877 l 4.25,0.75 -4.15625,0.46875 c 0.106652,0.778945 1.441448,1.6438 2.601218,2.375826 3.615467,2.020692 7.191405,3.984214 10.805032,-3.094576 -1.964081,-3.120595 -4.084993,-4.237308 -6.3125,-4.25 z m -14.234238,4.484512 c -5.338891,0.822154 -8.467481,3.241494 -7.265762,8.859238 6.440909,2.24813 8.731627,-1.527867 10.699781,-4.521902 0.355522,-0.896935 0.967183,-2.019765 0.706469,-3.040598 l -3.84375,1.90625 3.125,-2.8125 C 40.967882,44.625868 39.671815,44.797209 38.297012,44.828262 z M 44.65625,46.1875 45.25,50.4375 43.53125,46.625 c -0.946771,0.529305 -1.389391,2.1309 -1.59375,3.25 -0.775701,7.04183 2.525283,8.511655 6.28125,9.375 4.468363,-5.261122 1.845893,-8.412743 -0.850392,-11.500275 C 46.530115,46.963061 45.241847,45.973277 44.65625,46.1875 z"
           style="fill:#000000;fill-opacity:1;stroke:none" />
        <path
           transform="translate(199.81415,1152.2383)"
           d="m 44.665427,44.865143 c 0,0.581632 -0.471506,1.053137 -1.053138,1.053137 -0.581631,0 -1.053137,-0.471505 -1.053137,-1.053137 0,-0.581632 0.471506,-1.053138 1.053137,-1.053138 0.581632,0 1.053138,0.471506 1.053138,1.053138 z"
           sodipodi:ry="1.0531377"
           sodipodi:rx="1.0531377"
           sodipodi:cy="44.865143"
           sodipodi:cx="43.612289"
           id="path3909"
           style="fill:#000000;fill-opacity:1;stroke:none"
           sodipodi:type="arc" />
        <path
           style="fill:#000000;fill-opacity:1;stroke:none"
           d="m 48.1875,30 c -7.307419,2.26557 -7.484373,3.525228 -6.203813,9.335731 0.136316,0.442432 0.324937,2.480768 1.610063,3.445519 L 45.625,39 44.75,43.0625 c 0.445754,0.210728 2.033965,-0.863347 2.65625,-1.40625 C 50.821404,39.107691 54.019748,36.567056 48.1875,30 z M 35.969024,34.274288 C 34.377558,34.265288 32.584049,35.442968 31,35.625 c -1.04378,8.000305 2.835495,9.206644 7.25,8.90625 1.366762,0.05741 2.657941,0.02034 3.5625,-0.5 l -3,-3.0625 3.625,2.09375 c 0.278777,-0.678882 -0.200784,-1.86282 -0.624174,-2.961557 -2.117912,-4.156907 -3.835704,-5.815255 -5.844302,-5.826655 z m 16.299397,5.631414 c -1.445921,0.19117 -2.751425,1.053839 -4.268146,1.749171 -0.848758,0.481969 -2.343816,1.5257 -2.656525,2.438877 l 4.25,0.75 -4.15625,0.46875 c 0.106652,0.778945 1.441448,1.6438 2.601218,2.375826 3.518149,2.166668 6.651771,4.793665 10.805032,-3.094576 -2.255602,-4.068037 -4.516358,-4.96027 -6.575329,-4.688048 z m -13.971409,4.92256 c -5.246969,0.0056 -8.651498,1.854798 -7.265762,8.859238 7.812996,4.502273 8.80999,-1.399128 10.699781,-4.521902 0.355522,-0.896935 0.967183,-2.019765 0.706469,-3.040598 l -3.84375,1.90625 3.125,-2.8125 C 40.967882,44.625868 39.671815,44.797209 38.297012,44.828262 z M 44.65625,46.1875 45.25,50.4375 43.53125,46.625 c -0.946771,0.529305 -1.389391,2.1309 -1.59375,3.25 -1.620105,7.04183 2.271424,8.511655 6.28125,9.375 6.065133,-6.059507 2.174689,-8.577141 -0.850392,-11.500275 C 46.530115,46.963061 45.241847,45.973277 44.65625,46.1875 z"
           id="path3934"
           inkscape:connector-curvature="0"
           sodipodi:nodetypes="cccccccsccccccssccccccscccccccccccccc"
           transform="translate(200,1152.3622)" />
      </g>
      <g
         transform="matrix(0.63717319,0.36787212,-0.36787212,0.63717319,548.97128,320.03681)"
         id="g3915">
        <path
           style="fill:#000000;fill-opacity:1;stroke:none"
           d="m 48.1875,30 c -7.196748,2.450022 -6.952755,4.411257 -6.203813,9.335731 0.136316,0.442432 0.324937,2.480768 1.610063,3.445519 L 45.625,39 44.75,43.0625 c 0.445754,0.210728 2.033965,-0.863347 2.65625,-1.40625 C 50.25507,38.707926 52.67119,35.615133 48.1875,30 z M 35.75,34.84375 c -1.591466,-0.009 -3.165951,0.599218 -4.75,0.78125 -0.928142,7.017383 2.953478,8.203791 7.25,8.90625 1.366762,0.05741 2.657941,0.02034 3.5625,-0.5 l -3,-3.0625 3.625,2.09375 C 42.716277,42.383618 42.236716,41.19968 41.813326,40.100943 39.695414,35.944036 37.758598,34.85515 35.75,34.84375 z m 16.78125,5.5 c -1.458481,-0.0083 -3.014254,0.615791 -4.530975,1.311123 -0.848758,0.481969 -2.343816,1.5257 -2.656525,2.438877 l 4.25,0.75 -4.15625,0.46875 c 0.106652,0.778945 1.441448,1.6438 2.601218,2.375826 3.615467,2.020692 7.191405,3.984214 10.805032,-3.094576 -1.964081,-3.120595 -4.084993,-4.237308 -6.3125,-4.25 z m -14.234238,4.484512 c -5.338891,0.822154 -8.467481,3.241494 -7.265762,8.859238 6.440909,2.24813 8.731627,-1.527867 10.699781,-4.521902 0.355522,-0.896935 0.967183,-2.019765 0.706469,-3.040598 l -3.84375,1.90625 3.125,-2.8125 C 40.967882,44.625868 39.671815,44.797209 38.297012,44.828262 z M 44.65625,46.1875 45.25,50.4375 43.53125,46.625 c -0.946771,0.529305 -1.389391,2.1309 -1.59375,3.25 -0.775701,7.04183 2.525283,8.511655 6.28125,9.375 4.468363,-5.261122 1.845893,-8.412743 -0.850392,-11.500275 C 46.530115,46.963061 45.241847,45.973277 44.65625,46.1875 z"
           transform="translate(200,1152.3622)"
           id="path3917"
           inkscape:connector-curvature="0"
           sodipodi:nodetypes="cccccccsccccccssccccccscccccccccccccc" />
        <path
           sodipodi:type="arc"
           style="fill:#000000;fill-opacity:1;stroke:none"
           id="path3919"
           sodipodi:cx="43.612289"
           sodipodi:cy="44.865143"
           sodipodi:rx="1.0531377"
           sodipodi:ry="1.0531377"
           d="m 44.665427,44.865143 c 0,0.581632 -0.471506,1.053137 -1.053138,1.053137 -0.581631,0 -1.053137,-0.471505 -1.053137,-1.053137 0,-0.581632 0.471506,-1.053138 1.053137,-1.053138 0.581632,0 1.053138,0.471506 1.053138,1.053138 z"
           transform="translate(199.81415,1152.2383)" />
      </g>
      <path
         style="fill:none;stroke:#000000;stroke-width:1px;stroke-linecap:butt;stroke-linejoin:miter;stroke-opacity:1"
         d="m 222.61589,1222.8769 c 8.73722,2.6797 13.75455,20.5054 19.001,37.3988 -1.57871,-10.8353 -9.87575,-26.1864 -1.55568,-34.2791"
         id="path3923"
         inkscape:connector-curvature="0"
         sodipodi:nodetypes="ccc" />
      <g
         id="g3925"
         transform="matrix(0.43880619,-0.07930706,0.07930706,0.43880619,78.377517,727.47569)">
        <path
           sodipodi:nodetypes="cccccccsccccccssccccccscccccccccccccc"
           inkscape:connector-curvature="0"
           id="path3927"
           transform="translate(200,1152.3622)"
           d="m 48.1875,30 c -7.196748,2.450022 -6.952755,4.411257 -6.203813,9.335731 0.136316,0.442432 0.324937,2.480768 1.610063,3.445519 L 45.625,39 44.75,43.0625 c 0.445754,0.210728 2.033965,-0.863347 2.65625,-1.40625 C 50.25507,38.707926 52.67119,35.615133 48.1875,30 z M 35.75,34.84375 c -1.591466,-0.009 -3.165951,0.599218 -4.75,0.78125 -0.928142,7.017383 2.953478,8.203791 7.25,8.90625 1.366762,0.05741 2.657941,0.02034 3.5625,-0.5 l -3,-3.0625 3.625,2.09375 C 42.716277,42.383618 42.236716,41.19968 41.813326,40.100943 39.695414,35.944036 37.758598,34.85515 35.75,34.84375 z m 16.78125,5.5 c -1.458481,-0.0083 -3.014254,0.615791 -4.530975,1.311123 -0.848758,0.481969 -2.343816,1.5257 -2.656525,2.438877 l 4.25,0.75 -4.15625,0.46875 c 0.106652,0.778945 1.441448,1.6438 2.601218,2.375826 3.615467,2.020692 7.191405,3.984214 10.805032,-3.094576 -1.964081,-3.120595 -4.084993,-4.237308 -6.3125,-4.25 z m -14.234238,4.484512 c -5.338891,0.822154 -8.467481,3.241494 -7.265762,8.859238 6.440909,2.24813 8.731627,-1.527867 10.699781,-4.521902 0.355522,-0.896935 0.967183,-2.019765 0.706469,-3.040598 l -3.84375,1.90625 3.125,-2.8125 C 40.967882,44.625868 39.671815,44.797209 38.297012,44.828262 z M 44.65625,46.1875 45.25,50.4375 43.53125,46.625 c -0.946771,0.529305 -1.389391,2.1309 -1.59375,3.25 -0.775701,7.04183 2.525283,8.511655 6.28125,9.375 4.468363,-5.261122 1.845893,-8.412743 -0.850392,-11.500275 C 46.530115,46.963061 45.241847,45.973277 44.65625,46.1875 z"
           style="fill:#000000;fill-opacity:1;stroke:none" />
        <path
           transform="translate(199.81415,1152.2383)"
           d="m 44.665427,44.865143 c 0,0.581632 -0.471506,1.053137 -1.053138,1.053137 -0.581631,0 -1.053137,-0.471505 -1.053137,-1.053137 0,-0.581632 0.471506,-1.053138 1.053137,-1.053138 0.581632,0 1.053138,0.471506 1.053138,1.053138 z"
           sodipodi:ry="1.0531377"
           sodipodi:rx="1.0531377"
           sodipodi:cy="44.865143"
           sodipodi:cx="43.612289"
           id="path3929"
           style="fill:#000000;fill-opacity:1;stroke:none"
           sodipodi:type="arc" />
      </g>
      <path
         style="fill:#000000;fill-opacity:1;stroke:none"
         d="m 208.59436,1223.2189 c 2.87994,-1.6617 3.57848,-4.3377 8.86197,-4.8573 1.6601,-0.02 4.06454,0.4203 5.04577,2.9926 -2.02242,0.01 -4.13887,-0.053 -5.34904,0.5621 2.31848,0 4.04692,0.2295 5.66133,0.4997 -0.41448,2.8607 -2.6755,3.1986 -4.8672,3.2352 -3.08838,-0.097 -6.13922,-1.4692 -9.35285,-2.4323 z"
         id="rect3931"
         inkscape:connector-curvature="0"
         sodipodi:nodetypes="ccccccc" />
      <path
         sodipodi:nodetypes="ccccccc"
         inkscape:connector-curvature="0"
         id="path3991"
         d="m 250.32515,1217.9954 c -3.27381,0.5807 -5.53015,-1.0187 -9.90931,1.9827 -1.28382,1.0527 -2.84146,2.9366 -1.93775,5.5371 1.55397,-1.2944 3.1347,-2.703 4.45667,-3.0108 -1.77324,1.4935 -2.95049,2.7791 -4.01264,4.0246 2.15764,1.9236 4.10594,0.7276 5.80743,-0.6544 2.30209,-2.0611 3.75486,-5.0744 5.5956,-7.8792 z"
         style="fill:#000000;fill-opacity:1;stroke:none" />
      <path
         sodipodi:nodetypes="ccc"
         inkscape:connector-curvature="0"
         id="path3999"
         d="m 222.61589,1122.8769 c 8.73722,2.6797 13.75455,20.5054 19.001,37.3988 -1.57871,-10.8353 -9.87575,-26.1864 -1.55568,-34.2791"
         style="fill:none;stroke:#000000;stroke-width:1px;stroke-linecap:butt;stroke-linejoin:miter;stroke-opacity:1" />
      <path
         sodipodi:nodetypes="ccccccc"
         inkscape:connector-curvature="0"
         id="path4001"
         d="m 208.59436,1123.2189 c 2.87994,-1.6617 3.57848,-4.3377 8.86197,-4.8573 1.6601,-0.02 4.06454,0.4203 5.04577,2.9926 -2.02242,0.01 -4.13887,-0.053 -5.34904,0.5621 2.31848,0 4.04692,0.2295 5.66133,0.4997 -0.41448,2.8607 -2.6755,3.1986 -4.8672,3.2352 -3.08838,-0.097 -6.13922,-1.4692 -9.35285,-2.4323 z"
         style="fill:#000000;fill-opacity:1;stroke:none" />
      <path
         style="fill:#000000;fill-opacity:1;stroke:none"
         d="m 250.32515,1117.9954 c -3.27381,0.5807 -5.53015,-1.0187 -9.90931,1.9827 -1.28382,1.0527 -2.84146,2.9366 -1.93775,5.5371 1.55397,-1.2944 3.1347,-2.703 4.45667,-3.0108 -1.77324,1.4935 -2.95049,2.7791 -4.01264,4.0246 2.15764,1.9236 4.10594,0.7276 5.80743,-0.6544 2.30209,-2.0611 3.75486,-5.0744 5.5956,-7.8792 z"
         id="path4003"
         inkscape:connector-curvature="0"
         sodipodi:nodetypes="ccccccc" />
    </g>
    <use
       x="0"
       y="0"
       inkscape:tiled-clone-of="#g3761"
       xlink:href="#g3761"
       id="use3764"
       transform="translate(0,200)"
       width="744.09448"
       height="1052.3622" />
    <use
       x="0"
       y="0"
       inkscape:tiled-clone-of="#g3761"
       xlink:href="#g3761"
       transform="translate(0,300)"
       id="use3766"
       width="744.09448"
       height="1052.3622" />
    <use
       x="0"
       y="0"
       inkscape:tiled-clone-of="#g3761"
       xlink:href="#g3761"
       transform="translate(0,400)"
       id="use3768"
       width="744.09448"
       height="1052.3622" />
    <use
       x="0"
       y="0"
       inkscape:tiled-clone-of="#g3761"
       xlink:href="#g3761"
       transform="translate(100,200)"
       id="use3770"
       width="744.09448"
       height="1052.3622" />
    <use
       x="0"
       y="0"
       inkscape:tiled-clone-of="#g3761"
       xlink:href="#g3761"
       transform="translate(100,300)"
       id="use3772"
       width="744.09448"
       height="1052.3622" />
    <use
       x="0"
       y="0"
       inkscape:tiled-clone-of="#g3761"
       xlink:href="#g3761"
       transform="translate(100,400)"
       id="use3774"
       width="744.09448"
       height="1052.3622" />
    <use
       x="0"
       y="0"
       inkscape:tiled-clone-of="#g3761"
       xlink:href="#g3761"
       transform="translate(200,200)"
       id="use3776"
       width="744.09448"
       height="1052.3622" />
    <use
       x="0"
       y="0"
       inkscape:tiled-clone-of="#g3761"
       xlink:href="#g3761"
       transform="translate(200,300)"
       id="use3778"
       width="744.09448"
       height="1052.3622" />
    <use
       x="0"
       y="0"
       inkscape:tiled-clone-of="#g3761"
       xlink:href="#g3761"
       transform="translate(200,400)"
       id="use3780"
       width="744.09448"
       height="1052.3622" />
    <g
       transform="translate(-285.97769,-210.3215)"
       id="g3936">
      <path
         style="fill:#000000;fill-opacity:1;stroke:none"
         d="m 48.1875,30 c -7.196748,2.450022 -6.952755,4.411257 -6.203813,9.335731 0.136316,0.442432 0.324937,2.480768 1.610063,3.445519 L 45.625,39 44.75,43.0625 c 0.445754,0.210728 2.033965,-0.863347 2.65625,-1.40625 C 50.25507,38.707926 52.67119,35.615133 48.1875,30 z M 35.75,34.84375 c -1.591466,-0.009 -3.165951,0.599218 -4.75,0.78125 -0.928142,7.017383 2.953478,8.203791 7.25,8.90625 1.366762,0.05741 2.657941,0.02034 3.5625,-0.5 l -3,-3.0625 3.625,2.09375 C 42.716277,42.383618 42.236716,41.19968 41.813326,40.100943 39.695414,35.944036 37.758598,34.85515 35.75,34.84375 z m 16.78125,5.5 c -1.458481,-0.0083 -3.014254,0.615791 -4.530975,1.311123 -0.848758,0.481969 -2.343816,1.5257 -2.656525,2.438877 l 4.25,0.75 -4.15625,0.46875 c 0.106652,0.778945 1.441448,1.6438 2.601218,2.375826 3.615467,2.020692 7.191405,3.984214 10.805032,-3.094576 -1.964081,-3.120595 -4.084993,-4.237308 -6.3125,-4.25 z m -14.234238,4.484512 c -5.338891,0.822154 -8.467481,3.241494 -7.265762,8.859238 6.440909,2.24813 8.731627,-1.527867 10.699781,-4.521902 0.355522,-0.896935 0.967183,-2.019765 0.706469,-3.040598 l -3.84375,1.90625 3.125,-2.8125 C 40.967882,44.625868 39.671815,44.797209 38.297012,44.828262 z M 44.65625,46.1875 45.25,50.4375 43.53125,46.625 c -0.946771,0.529305 -1.389391,2.1309 -1.59375,3.25 -0.775701,7.04183 2.525283,8.511655 6.28125,9.375 4.468363,-5.261122 1.845893,-8.412743 -0.850392,-11.500275 C 46.530115,46.963061 45.241847,45.973277 44.65625,46.1875 z"
         transform="translate(200,1152.3622)"
         id="path3938"
         inkscape:connector-curvature="0"
         sodipodi:nodetypes="cccccccsccccccssccccccscccccccccccccc" />
      <path
         sodipodi:type="arc"
         style="fill:#000000;fill-opacity:1;stroke:none"
         id="path3940"
         sodipodi:cx="43.612289"
         sodipodi:cy="44.865143"
         sodipodi:rx="1.0531377"
         sodipodi:ry="1.0531377"
         d="m 44.665427,44.865143 c 0,0.581632 -0.471506,1.053137 -1.053138,1.053137 -0.581631,0 -1.053137,-0.471505 -1.053137,-1.053137 0,-0.581632 0.471506,-1.053138 1.053137,-1.053138 0.581632,0 1.053138,0.471506 1.053138,1.053138 z"
         transform="translate(199.81415,1152.2383)" />
      <path
         transform="translate(200,1152.3622)"
         sodipodi:nodetypes="cccccccsccccccssccccccscccccccccccccc"
         inkscape:connector-curvature="0"
         id="path3942"
         d="m 48.1875,30 c -7.196748,2.450022 -6.952755,4.411257 -6.203813,9.335731 0.136316,0.442432 0.324937,2.480768 1.610063,3.445519 L 45.625,39 44.75,43.0625 c 0.445754,0.210728 2.033965,-0.863347 2.65625,-1.40625 C 50.25507,38.707926 52.67119,35.615133 48.1875,30 z M 35.75,34.84375 c -1.591466,-0.009 -3.165951,0.599218 -4.75,0.78125 -0.928142,7.017383 2.953478,8.203791 7.25,8.90625 1.366762,0.05741 2.657941,0.02034 3.5625,-0.5 l -3,-3.0625 3.625,2.09375 C 42.716277,42.383618 42.236716,41.19968 41.813326,40.100943 39.695414,35.944036 37.758598,34.85515 35.75,34.84375 z m 16.78125,5.5 c -1.458481,-0.0083 -3.014254,0.615791 -4.530975,1.311123 -0.848758,0.481969 -2.343816,1.5257 -2.656525,2.438877 l 4.25,0.75 -4.15625,0.46875 c 0.106652,0.778945 1.441448,1.6438 2.601218,2.375826 3.615467,2.020692 7.191405,3.984214 10.805032,-3.094576 -1.964081,-3.120595 -4.084993,-4.237308 -6.3125,-4.25 z m -14.234238,4.484512 c -5.338891,0.822154 -8.467481,3.241494 -7.265762,8.859238 6.440909,2.24813 8.731627,-1.527867 10.699781,-4.521902 0.355522,-0.896935 0.967183,-2.019765 0.706469,-3.040598 l -3.84375,1.90625 3.125,-2.8125 C 40.967882,44.625868 39.671815,44.797209 38.297012,44.828262 z M 44.65625,46.1875 45.25,50.4375 43.53125,46.625 c -0.946771,0.529305 -1.389391,2.1309 -1.59375,3.25 -0.775701,7.04183 2.525283,8.511655 6.28125,9.375 4.468363,-5.261122 1.845893,-8.412743 -0.850392,-11.500275 C 46.530115,46.963061 45.241847,45.973277 44.65625,46.1875 z"
         style="fill:#000000;fill-opacity:1;stroke:none" />
    </g>
    <path
       sodipodi:nodetypes="ccccccc"
       inkscape:connector-curvature="0"
       id="path3959"
       d="m -17.197629,1011.2621 c -1.22987,3.0891 -3.77751,4.1655 -3.53125,9.4689 0.21916,1.6457 1.0008,3.9617 3.6875,4.5625 -0.28237,-2.0026 -0.64773,-4.0882 -0.21352,-5.3742 0.33628,2.294 0.80952,3.9717 1.3092,5.5304 2.771361,-0.8217 2.780311,-3.1079 2.501101,-5.282 -0.54038,-3.0424 -2.33743,-5.8639 -3.753031,-8.9056 z"
       style="fill:#000000;fill-opacity:1;stroke:none" />
  </g>
</svg>
