<?xml version="1.0" encoding="UTF-8" standalone="no"?>
<!-- Created with Inkscape (http://www.inkscape.org/) -->

<svg
   xmlns:dc="http://purl.org/dc/elements/1.1/"
   xmlns:cc="http://creativecommons.org/ns#"
   xmlns:rdf="http://www.w3.org/1999/02/22-rdf-syntax-ns#"
   xmlns:svg="http://www.w3.org/2000/svg"
   xmlns="http://www.w3.org/2000/svg"
   xmlns:sodipodi="http://sodipodi.sourceforge.net/DTD/sodipodi-0.dtd"
   xmlns:inkscape="http://www.inkscape.org/namespaces/inkscape"
   width="230"
   height="90"
   id="svg2"
   version="1.1"
   inkscape:version="0.48.4 r9939"
   sodipodi:docname="category_label_general_de.svg">
  <defs
     id="defs4" />
  <sodipodi:namedview
     id="base"
     pagecolor="#ffffff"
     bordercolor="#666666"
     borderopacity="1.0"
     inkscape:pageopacity="0.0"
     inkscape:pageshadow="2"
     inkscape:zoom="2"
     inkscape:cx="212.05693"
     inkscape:cy="55.300027"
     inkscape:document-units="px"
     inkscape:current-layer="text2985"
     showgrid="false"
     inkscape:window-width="1400"
     inkscape:window-height="1001"
     inkscape:window-x="0"
     inkscape:window-y="0"
     inkscape:window-maximized="1" />
  <metadata
     id="metadata7">
    <rdf:RDF>
      <cc:Work
         rdf:about="">
        <dc:format>image/svg+xml</dc:format>
        <dc:type
           rdf:resource="http://purl.org/dc/dcmitype/StillImage" />
        <dc:title></dc:title>
      </cc:Work>
    </rdf:RDF>
  </metadata>
  <g
     inkscape:label="Ebene 1"
     inkscape:groupmode="layer"
     id="layer1"
     transform="translate(0,-962.36218)">
    <g
       style="font-size:96.52788544px;font-style:normal;font-variant:normal;font-weight:normal;font-stretch:normal;line-height:125%;letter-spacing:0px;word-spacing:0px;fill:#000000;fill-opacity:1;stroke:none;font-family:eufm10;-inkscape-font-specification:eufm10"
       id="text2985">
      <rect
         style="fill:#ffffff;fill-opacity:1;stroke:none"
         id="rect3027"
         width="279.5"
         height="125"
         x="-29"
         y="-14.5"
         transform="translate(0,962.36218)" />
      <path
         d="m 40.757107,1019.4576 c -0.434249,-0.3158 -0.789518,-0.8883 -1.065808,-1.7172 -0.236875,-0.8683 -0.414511,-2.0724 -0.532905,-3.6119 -0.11845,-1.5789 -0.217137,-3.5526 -0.296057,-5.9211 -0.0395,-2.3685 -0.05924,-5.2501 -0.05922,-8.6453 -1.421106,0 -2.92113,0.1974 -4.500079,0.5921 -1.578997,0.3554 -3.157972,0.8292 -4.736925,1.4214 -0.592135,0.2369 -0.986878,0.9081 -1.184232,2.0133 -0.157916,1.0658 -0.236863,2.3488 -0.236845,3.8488 0.03945,1.4605 0.09867,3 0.177634,4.6184 0.07892,1.6184 0.03945,3.0987 -0.118423,4.4409 -0.118442,1.3027 -0.394762,2.3487 -0.828962,3.1383 -0.434235,0.75 -1.16451,1.0264 -2.190827,0.8288 -0.0395,-0.039 -0.138176,-0.1183 -0.296057,-0.2368 -0.11844,-0.1184 -0.17765,-0.1972 -0.177636,-0.2368 -0.157912,-1.2236 -0.138175,-2.5856 0.05922,-4.0856 0.197357,-1.5395 0.434202,-3.0987 0.710538,-4.6778 0.276304,-1.5789 0.493414,-3.1184 0.651327,-4.6184 0.197355,-1.5 0.217092,-2.8619 0.05922,-4.0856 -0.434234,0.1184 -1.105297,0.3947 -2.013192,0.829 -0.907925,0.3947 -1.914521,0.8683 -3.01979,1.4209 -1.065819,0.5133 -2.190837,1.0462 -3.375059,1.5988 -1.184239,0.5132 -2.269782,0.9475 -3.256636,1.3027 -0.986863,0.3158 -1.855298,0.4737 -2.605309,0.4737 -0.71054,0 -1.144758,-0.2565 -1.302654,-0.7697 -0.07896,-0.3159 -0.118431,-0.7107 -0.11843,-1.1844 -10e-7,-0.4736 0.03947,-0.7302 0.118423,-0.7696 l 16.520025,-6.80977 c 0.473675,-2.36843 1.006578,-4.75664 1.598713,-7.16461 0.592096,-2.4079 1.32237,-4.73688 2.190828,-6.98696 0.907888,-2.28947 2.013169,-4.44083 3.315847,-6.45406 1.342102,-2.05262 3.000024,-3.88818 4.973771,-5.50666 1.065777,-0.19733 1.835527,0.0395 2.30925,0.71052 0.513135,0.63164 0.848667,1.55929 1.006597,2.78295 0.157865,1.22375 0.177601,2.66457 0.05922,4.32245 -0.118456,1.61848 -0.276353,3.33561 -0.473693,5.1514 -0.157929,1.77638 -0.296091,3.55273 -0.414481,5.32904 -0.118454,1.77638 -0.118454,3.41455 0,4.91456 0.394712,0.079 0.848667,0.0593 1.361866,-0.0592 0.552608,-0.15788 1.105248,-0.33551 1.657924,-0.53292 0.552605,-0.19734 1.08551,-0.37497 1.598712,-0.53289 0.513129,-0.15789 0.947347,-0.23684 1.302654,-0.23686 0.35523,2e-5 0.611814,0.11845 0.76975,0.35527 0.157859,0.1974 0.177596,0.59214 0.05922,1.18424 -0.118462,0.55266 -0.434257,0.94741 -0.947385,1.18424 -0.473729,0.23685 -1.046108,0.43423 -1.717135,0.5921 -0.631625,0.15792 -1.282953,0.33557 -1.953981,0.5329 -0.631625,0.19741 -1.164527,0.51319 -1.598713,0.94739 -0.355302,4.18467 -0.513199,7.42157 -0.473693,9.71107 0.03944,2.25 0.157865,3.9869 0.35527,5.2106 0.19734,1.1844 0.414447,2.0922 0.651327,2.7238 0.276287,0.6316 0.414448,1.3816 0.41448,2.2501 -3.2e-5,0.4342 -0.09872,0.7301 -0.296057,0.8881 -0.15793,0.1184 -0.37504,0.1578 -0.651327,0.1184 -0.276352,-0.039 -0.552673,-0.1184 -0.828962,-0.2369 -0.276352,-0.1183 -0.493462,-0.2368 -0.651328,-0.3552 m -1.006603,-44.0538 c -1.776376,1.38166 -3.236926,2.96062 -4.381656,4.73692 -1.144781,1.77639 -2.072429,3.67116 -2.782943,5.68432 -0.710562,2.01321 -1.302676,4.06587 -1.776347,6.15799 -0.434238,2.09218 -0.84872,4.14484 -1.243443,6.15801 0.473672,0.11844 1.164473,0.13817 2.072404,0.0592 0.947362,-0.079 1.914484,-0.21708 2.901367,-0.41446 0.986834,-0.19734 1.875007,-0.47367 2.664521,-0.82897 0.828932,-0.35524 1.361837,-0.76972 1.598711,-1.24344 -2.8e-5,-1.42105 0.118395,-3.03951 0.35527,-4.85534 0.236816,-1.85527 0.453925,-3.73031 0.651327,-5.62511 0.197342,-1.89472 0.315765,-3.71055 0.35527,-5.44746 0.03945,-1.73683 -0.09872,-3.19738 -0.414481,-4.38165"
         style="font-family:Talking to the Moon;-inkscape-font-specification:Talking to the Moon"
         id="path3009"
         inkscape:connector-curvature="0" />
      <path
         d="m 67.997685,1013.203 c 0.394723,1.1052 0.201877,2.335 -0.429692,3.243 -0.613318,0.7561 -0.300137,1.0919 -3.264268,1.6621 -1.365776,0.2141 -2.158237,0.1834 -3.592323,0.2635 -1.604985,0.045 -2.747771,0.1351 -3.967175,-0.098 -1.223712,-0.2368 -2.250046,-0.7106 -3.079,-1.4211 -0.828968,-0.7105 -1.203974,-1.7171 -1.12502,-3.0198 -1.855299,2.2106 -3.256638,3.4934 -4.204019,3.8488 -0.947387,0.3553 -1.381605,-0.1776 -1.302656,-1.5988 0,-0.08 0.118423,-0.1973 0.355269,-0.3552 0.27632,-0.1973 0.592115,-0.5132 0.947387,-0.9474 0.39474,-0.4342 0.828958,-1.0263 1.302653,-1.7763 0.473689,-0.7501 0.947381,-1.7566 1.421077,-3.0198 -0.157901,-0.75 -0.23685,-1.8553 -0.236847,-3.3159 0.03948,-1.5 0.138157,-3.1974 0.296059,-5.0923 0.157893,-1.895 0.375002,-3.90821 0.651327,-6.03985 0.276316,-2.17107 0.611848,-4.32242 1.006596,-6.45406 0.434213,-2.13158 0.907905,-4.18425 1.421078,-6.15801 0.552633,-1.97368 1.125011,-3.71054 1.717135,-5.21061 0.631581,-1.53946 1.302644,-2.76317 2.013194,-3.67112 0.750001,-0.94733 1.539487,-1.44077 2.368461,-1.48029 0.710526,-0.19733 1.282903,0.45402 1.717136,1.95399 0.473676,1.46058 0.769734,3.41457 0.888173,5.86194 0.118408,2.40797 0.0592,5.1317 -0.177635,8.17119 -0.197387,3.03956 -0.611867,6.01987 -1.243442,8.94095 -0.631604,2.92127 -1.480302,5.62547 -2.546097,8.11237 -1.06582,2.4869 -2.348735,4.3817 -3.848752,5.6844 -0.236854,1.1052 -0.157905,1.9934 0.236846,2.6644 0.43421,0.6712 1.046062,1.1645 1.835559,1.4803 0.789476,0.2763 1.697387,0.3948 2.723732,0.3553 1.026319,-0.079 2.029884,-0.054 3.05886,-0.1772 0.958151,-0.1144 1.812864,-0.1434 2.759084,-0.5269 0.828942,-0.592 1.942011,-1.1689 2.2973,-1.8794 m -9.181053,-36.55558 c -1.263189,4.30274 -2.230311,8.36861 -2.901366,12.19759 -0.631599,3.78956 -1.125027,7.10541 -1.480289,9.94755 -0.315802,2.80294 -0.513173,5.01364 -0.592115,6.63204 -0.07895,1.6185 -0.138168,2.3883 -0.177635,2.3092 0.710532,-0.4341 1.361857,-1.2631 1.953982,-2.4867 0.63158,-1.2238 1.203958,-2.6449 1.717135,-4.2635 0.513157,-1.65812 0.96711,-3.45421 1.361865,-5.38847 0.394732,-1.93423 0.710528,-3.86846 0.947387,-5.80273 0.276306,-1.93421 0.473679,-3.76977 0.592114,-5.50668 0.118409,-1.73684 0.138147,-3.21712 0.05922,-4.44087 -0.03949,-1.26314 -0.197384,-2.19079 -0.473691,-2.78294 -0.236859,-0.63154 -0.572391,-0.76971 -1.006597,-0.41449"
         style="font-family:Talking to the Moon;-inkscape-font-specification:Talking to the Moon"
         id="path3011"
         inkscape:connector-curvature="0"
         sodipodi:nodetypes="cccccscccccsccscccccccccssccccscccccscccsccccc" />
      <path
         d="m 85.876317,1011.9378 c 0.39472,1.1052 0.276298,2.1118 -0.355273,3.0197 -0.592131,0.908 -1.440832,1.6579 -2.546094,2.25 -1.105298,0.5527 -2.36848,0.9278 -3.789544,1.1251 -1.421088,0.1974 -2.743477,0.1776 -3.967175,-0.059 -1.223708,-0.2367 -2.250044,-0.7106 -3.078997,-1.4211 -0.828969,-0.7104 -1.203975,-1.717 -1.12502,-3.0198 -1.8553,2.2106 -3.643427,3.3646 -4.59081,3.7199 -0.947385,0.3553 -0.994814,-0.048 -0.915865,-1.4698 0,-0.08 0.118422,-0.1973 0.355269,-0.3552 0.27632,-0.1974 0.592114,-0.5133 0.947385,-0.9474 0.394742,-0.4342 0.82896,-1.0263 1.302654,-1.7763 0.473689,-0.7501 0.947382,-1.7567 1.421077,-3.0198 -0.157901,-0.75 -0.23685,-1.8554 -0.236846,-3.3159 0.03948,-1.5 0.138157,-3.1974 0.296059,-5.0923 0.157891,-1.8951 0.375001,-3.90826 0.651326,-6.0399 0.276315,-2.17105 0.611849,-4.32241 1.006596,-6.45405 0.434212,-2.13158 0.907905,-4.18425 1.421077,-6.158 0.552635,-1.97368 1.125014,-3.71056 1.717138,-5.21061 0.631579,-1.53947 1.30264,-2.76318 2.013189,-3.67113 0.750007,-0.94734 1.539491,-1.44077 2.368468,-1.48029 0.710523,-0.19733 1.282898,0.45401 1.717135,1.95399 0.473671,1.46059 0.769731,3.41456 0.888172,5.86194 0.118403,2.40798 0.05917,5.1317 -0.177637,8.17119 -0.197386,3.03956 -0.611868,6.01988 -1.243439,8.94096 -0.631609,2.9212 -1.480303,5.6255 -2.546099,8.1124 -1.065821,2.4869 -2.348738,4.3817 -3.848752,5.6843 -0.236852,1.1053 -0.157908,1.9934 0.236843,2.6645 0.434213,0.6711 1.046062,1.1644 1.835559,1.4802 0.789479,0.2764 1.697387,0.3948 2.723737,0.3554 1.026317,-0.079 2.032911,-0.2763 3.019788,-0.5922 0.986839,-0.3158 1.894753,-0.7499 2.72373,-1.3026 0.828945,-0.592 1.421057,-1.2434 1.776349,-1.954 m -8.585676,-35.29012 c -1.263194,4.30274 -2.230316,8.3686 -2.901367,12.19758 -0.631597,3.78956 -1.125029,7.10541 -1.48029,9.94754 -0.315803,2.803 -0.513175,5.0137 -0.592116,6.6321 -0.07896,1.6184 -0.138167,2.3883 -0.177634,2.3092 0.71053,-0.4341 1.361856,-1.2631 1.953981,-2.4868 0.631578,-1.2237 1.20396,-2.6448 1.717135,-4.2635 0.513156,-1.65806 0.967109,-3.45416 1.361867,-5.38842 0.394727,-1.93422 0.710523,-3.86846 0.947381,-5.80273 0.27631,-1.93421 0.473684,-3.76978 0.592119,-5.50669 0.118409,-1.73683 0.138145,-3.21711 0.05924,-4.44085 -0.03951,-1.26315 -0.197386,-2.19079 -0.473697,-2.78295 -0.236857,-0.63154 -0.572389,-0.76971 -1.006594,-0.41448"
         style="font-family:Talking to the Moon;-inkscape-font-specification:Talking to the Moon"
         id="path3013"
         inkscape:connector-curvature="0"
         sodipodi:nodetypes="cccccscccccsccscccccccccsscccccccccccccccccccc" />
      <path
         d="m 103.7582,1046.5764 c -4.460621,-3.829 -7.658034,-7.3422 -9.592273,-10.5395 -1.894772,-3.1975 -2.822415,-6.0003 -2.782937,-8.408 0.07894,-2.408 0.967116,-4.3818 2.664523,-5.9214 1.736857,-1.5394 4.006636,-2.5855 6.809327,-3.1382 0.35525,-0.2763 0.71053,-0.9472 1.06581,-2.013 0.35525,-1.0659 0.67105,-2.1909 0.94738,-3.375 0.27631,-1.2238 0.49342,-2.3489 0.65133,-3.3753 0.15788,-1.0657 0.23683,-1.7565 0.23684,-2.0723 -0.51317,0.8684 -1.28293,1.8355 -2.30925,2.9013 -0.98686,1.0265 -2.111881,2.033 -3.375047,3.02 -1.223723,0.9866 -2.506643,1.875 -3.84876,2.6644 -1.302661,0.7895 -2.565835,1.3618 -3.789539,1.7171 -1.18423,0.3158 -2.250039,0.3553 -3.19742,0.1184 -0.907913,-0.2369 -1.55924,-0.9078 -1.953985,-2.0131 0,-1.3817 0.236845,-2.9212 0.71054,-4.6185 0.47369,-1.6974 1.105281,-3.4344 1.894773,-5.2107 0.828956,-1.7763 1.776336,-3.5526 2.842152,-5.3292 1.065802,-1.77654 2.190818,-3.43446 3.375063,-4.97397 1.223689,-1.57897 2.486873,-2.98031 3.789538,-4.20403 1.302637,-1.22368 2.585545,-2.1908 3.848755,-2.90136 1.3421,-0.63157 2.40791,-0.74999 3.19742,-0.35528 0.78946,0.3553 1.38159,1.08557 1.77634,2.19083 0.39473,1.06584 0.63157,2.40796 0.71055,4.02639 0.079,1.579 0.0591,3.27639 -0.0593,5.09222 -0.11845,1.7766 -0.31583,3.5728 -0.59212,5.3886 -0.23687,1.8158 -0.47371,3.4738 -0.71054,4.9738 -0.23686,1.4606 -0.45397,2.7039 -0.65133,3.7302 -0.19738,0.987 -0.27634,1.5593 -0.23683,1.7172 0.079,-0.079 0.35524,-0.296 0.82894,-0.6513 0.47367,-0.3552 1.02632,-0.7302 1.65794,-1.125 0.63156,-0.4341 1.28288,-0.8289 1.95397,-1.1842 0.67103,-0.3947 1.24342,-0.6119 1.71714,-0.6514 0.47366,-0.039 0.78946,0.1382 0.94739,0.533 0.15786,0.3552 0.0394,1.046 -0.35527,2.0724 -0.0395,0.1184 -0.37503,0.3552 -1.0066,0.7105 -0.59215,0.3158 -1.28294,0.6907 -2.07241,1.125 -0.78951,0.4342 -1.579,0.9277 -2.36846,1.4804 -0.7895,0.5132 -1.38162,1.0263 -1.77635,1.5395 -0.31581,1.8947 -0.43423,3.9474 -0.35527,6.1579 0.079,2.25 0.23683,4.4803 0.4737,6.6909 0.23682,2.25 0.47367,4.3816 0.71054,6.3949 0.2763,2.0132 0.43419,3.6908 0.47368,5.0329 0.0394,1.3816 -0.0987,2.3487 -0.41447,2.9014 -0.31582,0.5921 -0.92767,0.5526 -1.83556,-0.1185 m -2.01319,-25.2832 c -2.171112,0.5132 -3.789563,1.2236 -4.855346,2.1315 -1.026359,0.9475 -1.677677,2.0132 -1.953983,3.1974 -0.236864,1.1843 -0.138177,2.4672 0.296061,3.8488 0.434199,1.3816 1.065791,2.7631 1.894767,4.1448 0.828938,1.4211 1.796061,2.8224 2.901361,4.204 1.10526,1.3816 2.21055,2.6448 3.31585,3.7896 -0.67109,-3.0396 -1.12504,-5.6843 -1.36187,-7.9343 -0.23686,-2.2105 -0.37502,-4.1447 -0.41448,-5.8027 -0.0395,-1.658 -0.0197,-3.0987 0.0593,-4.3224 0.11841,-1.1844 0.15788,-2.27 0.11842,-3.2567 m -13.677872,-7.1055 c 0.315796,1.0264 1.02633,1.4211 2.131616,1.1843 1.105275,-0.2764 2.368457,-0.9672 3.78954,-2.0724 1.421071,-1.1448 2.88161,-2.6052 4.381649,-4.3816 1.539491,-1.7764 2.881617,-3.6711 4.026397,-5.6844 1.14474,-2.0528 1.99343,-4.10568 2.5461,-6.15837 0.55262,-2.09213 0.57235,-3.98688 0.0592,-5.6843 -1.02636,-0.19736 -2.17112,0.13817 -3.43429,1.00659 -1.26319,0.86846 -2.546108,2.05268 -3.848754,3.55269 -1.302655,1.46057 -2.56584,3.11849 -3.789528,4.97399 -1.184244,1.8554 -2.230311,3.6713 -3.138213,5.4476 -0.90792,1.7369 -1.618456,3.3159 -2.131617,4.7369 -0.513175,1.4211 -0.710541,2.4475 -0.592118,3.079"
         style="font-family:Talking to the Moon;-inkscape-font-specification:Talking to the Moon"
         id="path3015"
         inkscape:connector-curvature="0" />
      <path
         d="m 120.45586,1019.6353 c -2.13163,-0.2763 -3.90797,-0.9672 -5.32904,-2.0725 -1.42108,-1.1053 -2.50663,-2.4672 -3.25663,-4.0856 -0.75002,-1.6184 -1.18423,-3.3949 -1.30266,-5.329 -0.11842,-1.9736 0.0592,-3.9474 0.53291,-5.9212 0.51317,-1.974 1.28291,-3.86884 2.30925,-5.68467 1.0658,-1.85528 2.38819,-3.45398 3.96718,-4.79614 2.25002,-2.13159 4.04611,-3.23687 5.38824,-3.31585 1.38159,-0.1184 2.44739,0.39477 3.19744,1.5395 0.74998,1.14479 1.26316,2.68428 1.53949,4.6185 0.31578,1.93427 0.51315,3.84878 0.59212,5.74356 -0.35529,0.5923 -1.14478,0.9872 -2.36847,1.1845 -1.22372,0.1974 -2.56584,0.3357 -4.02638,0.4146 -1.46057,0.04 -2.88164,0.079 -4.26323,0.1183 -1.34214,0.04 -2.329,0.1976 -2.96058,0.4738 -0.4737,2.3684 -0.61187,4.4606 -0.41448,6.2765 0.23684,1.7763 0.67106,3.2763 1.30265,4.5 0.67106,1.1842 1.51976,2.0527 2.54609,2.6053 1.02634,0.5132 2.11188,0.7105 3.25664,0.5921 1.14474,-0.1579 2.28951,-0.6514 3.43428,-1.4803 1.18421,-0.8684 2.26975,-2.1117 3.25662,-3.7302 0.86843,0.7105 1.22371,1.5197 1.06581,2.4276 -0.15791,0.8684 -0.65134,1.7171 -1.48028,2.546 -0.7895,0.7895 -1.81584,1.5001 -3.079,2.1317 -1.26319,0.6315 -2.56585,1.0461 -3.90797,1.2435 m 4.26324,-21.73112 c 0.15789,-2.01316 0.079,-3.49344 -0.23685,-4.44085 -0.27633,-0.94738 -0.69083,-1.50001 -1.24345,-1.65793 -0.55265,-0.19735 -1.20397,-0.079 -1.95397,0.35527 -0.71054,0.43423 -1.44082,1.0461 -2.19083,1.83555 -0.75002,0.78952 -1.46056,1.67769 -2.13162,2.66453 -0.63159,0.98687 -1.14476,1.91453 -1.5395,2.78294 0.27632,0.0395 0.6908,0.0592 1.24344,0.0592 0.55264,-0.0394 1.16449,-0.079 1.83556,-0.11844 0.71053,-0.079 1.42107,-0.15787 2.13162,-0.23685 0.71053,-0.1184 1.36185,-0.23682 1.95398,-0.35525 0.59211,-0.11842 1.08553,-0.25657 1.48029,-0.41449 0.39473,-0.15788 0.61184,-0.31578 0.65133,-0.47371"
         style="font-family:Talking to the Moon;-inkscape-font-specification:Talking to the Moon"
         id="path3017"
         inkscape:connector-curvature="0" />
      <path
         d="m 131.70607,1018.5102 c 0.11842,-0.3553 0.27631,-0.9868 0.47368,-1.8948 0.19738,-0.9474 0.41449,-2.0526 0.65134,-3.3158 0.23685,-1.2631 0.47369,-2.6052 0.71053,-4.0264 0.23685,-1.4606 0.43422,-2.8817 0.59213,-4.2632 0.19736,-1.3816 0.35526,-2.6448 0.47369,-3.7898 0.15789,-1.1449 0.25657,-2.05281 0.29606,-2.7239 0.079,-0.5921 0.13814,-1.24342 0.17762,-1.95397 0.079,-0.75 0.2171,-1.4408 0.41449,-2.07241 0.23684,-0.63157 0.55264,-1.12499 0.94738,-1.48029 0.43421,-0.39473 1.04607,-0.51314 1.83556,-0.35527 0.39475,0.079 0.59211,0.45399 0.59212,1.12502 0.0394,0.63162 -0.0198,1.34215 -0.17764,2.13162 -0.11843,0.75003 -0.27633,1.46057 -0.47369,2.13162 -0.15791,0.67108 -0.23686,1.04608 -0.23684,1.12501 0.2763,-0.31577 0.80921,-0.94737 1.59869,-1.89477 0.82897,-0.94735 1.75661,-1.97369 2.78296,-3.079 1.06579,-1.10525 2.17108,-2.19079 3.31585,-3.25663 1.18421,-1.10526 2.26975,-1.93422 3.25663,-2.48689 1.02632,-0.55261 1.89475,-0.73024 2.60532,-0.53291 0.7105,0.15793 1.14472,0.92768 1.30264,2.30926 -2e-5,0.98688 -0.0395,1.87505 -0.11842,2.66451 -0.079,0.78951 -0.17766,1.53954 -0.29606,2.25004 -0.079,0.67109 -0.17766,1.36189 -0.29606,2.07241 -0.11844,0.67108 -0.19738,1.4211 -0.23684,2.25004 1.30263,-3.00003 2.60529,-5.07244 3.90797,-6.21721 1.30262,-1.14474 2.42764,-1.5 3.37504,-1.06581 0.98683,0.43423 1.75658,1.579 2.30926,3.43427 0.55262,1.85533 0.74997,4.26326 0.59211,7.22426 -2e-5,0.2368 -2e-5,0.7303 0,1.4802 0.0394,0.7106 0.0591,1.579 0.0592,2.6054 -4e-5,0.9869 -4e-5,2.0526 0,3.1974 -4e-5,1.1448 -4e-5,2.2303 0,3.2566 -4e-5,0.9869 -0.0198,1.8553 -0.0592,2.6054 -2e-5,0.7499 -2e-5,1.2236 0,1.421 1.53947,-0.5526 2.72371,-0.8094 3.5527,-0.7698 0.82892,0 1.34209,0.1382 1.5395,0.4145 0.23681,0.2764 0.19734,0.6316 -0.11842,1.0659 -0.27636,0.3948 -0.78952,0.7499 -1.53951,1.0657 -0.71056,0.2764 -1.61847,0.4343 -2.72372,0.4738 -1.06584,0 -2.26981,-0.2567 -3.61192,-0.7698 0.15788,-1.4211 0.29604,-3.0395 0.4145,-4.8553 0.11838,-1.8159 0.19733,-3.6711 0.23684,-5.5659 0.079,-1.8948 0.0986,-3.7304 0.0592,-5.5066 -0.0395,-1.8162 -0.13819,-3.3756 -0.29606,-4.67825 -0.15793,-1.3421 -0.39477,-2.34869 -0.71054,-3.01977 -0.27635,-0.71052 -0.65134,-0.92763 -1.12501,-0.65134 -1.26322,1.4211 -2.36849,3.15798 -3.31586,5.21066 -0.90793,2.0531 -1.69741,4.2044 -2.36846,6.4544 -0.67109,2.25 -1.24345,4.5001 -1.71713,6.7501 -0.47372,2.2502 -0.86845,4.2632 -1.18424,6.0397 -0.11843,0.1974 -0.33554,0.3947 -0.65133,0.5921 -0.3158,0.1973 -0.65133,0.3157 -1.00659,0.3552 -0.31581,0.079 -0.61187,0.059 -0.88817,-0.059 -0.23687,-0.1184 -0.35529,-0.4143 -0.35527,-0.8881 l 3.84875,-27.82985 c -2.13163,0.98689 -4.06588,2.60533 -5.80273,4.85534 -1.73689,2.21059 -3.25664,4.67791 -4.5593,7.40181 -1.26318,2.6843 -2.28951,5.408 -3.079,8.1713 -0.78949,2.7631 -1.32239,5.1711 -1.5987,7.2238 -0.67107,0.9078 -1.24345,1.3421 -1.71713,1.3026 -0.43423,0 -0.98687,-0.5526 -1.65794,-1.6579"
         style="font-family:Talking to the Moon;-inkscape-font-specification:Talking to the Moon"
         id="path3019"
         inkscape:connector-curvature="0" />
      <path
         d="m 176.58842,1019.6353 c -2.13162,-0.2763 -3.90796,-0.9672 -5.32903,-2.0725 -1.42109,-1.1053 -2.50662,-2.4672 -3.25665,-4.0856 -0.75,-1.6184 -1.18422,-3.3949 -1.30264,-5.329 -0.11844,-1.9736 0.0592,-3.9474 0.5329,-5.9212 0.51316,-1.974 1.28292,-3.86884 2.30925,-5.68467 1.0658,-1.85528 2.38819,-3.45398 3.96717,-4.79614 2.25004,-2.13159 4.04611,-3.23687 5.38826,-3.31585 1.38158,-0.1184 2.44739,0.39477 3.19743,1.5395 0.74998,1.14479 1.26315,2.68428 1.53949,4.6185 0.31578,1.93427 0.51316,3.84878 0.59212,5.74356 -0.3553,0.5923 -1.14477,0.9872 -2.36848,1.1845 -1.22371,0.1974 -2.56585,0.3357 -4.02637,0.4146 -1.46056,0.04 -2.88164,0.079 -4.26324,0.1183 -1.34213,0.04 -2.32899,0.1976 -2.96057,0.4738 -0.4737,2.3684 -0.61186,4.4606 -0.41448,6.2765 0.23683,1.7763 0.67105,3.2763 1.30265,4.5 0.67106,1.1842 1.51976,2.0527 2.5461,2.6053 1.02632,0.5132 2.11187,0.7105 3.25664,0.5921 1.14474,-0.1579 2.28948,-0.6514 3.43427,-1.4803 1.1842,-0.8684 2.26976,-2.1117 3.25663,-3.7302 0.86841,0.7105 1.22369,1.5197 1.06581,2.4276 -0.15793,0.8684 -0.65135,1.7171 -1.48029,2.546 -0.78951,0.7895 -1.81583,1.5001 -3.07901,2.1317 -1.26319,0.6315 -2.56584,1.0461 -3.90796,1.2435 m 4.26324,-21.73112 c 0.15787,-2.01316 0.079,-3.49344 -0.23685,-4.44085 -0.27633,-0.94738 -0.69081,-1.50001 -1.24345,-1.65793 -0.55264,-0.19735 -1.20397,-0.079 -1.95398,0.35527 -0.71054,0.43423 -1.44081,1.0461 -2.19082,1.83555 -0.75002,0.78952 -1.46056,1.67769 -2.13162,2.66453 -0.63159,0.98687 -1.14476,1.91453 -1.5395,2.78294 0.27631,0.0395 0.6908,0.0592 1.24345,0.0592 0.55263,-0.0394 1.16448,-0.079 1.83555,-0.11844 0.71054,-0.079 1.42108,-0.15787 2.13162,-0.23685 0.71053,-0.1184 1.36186,-0.23682 1.95399,-0.35525 0.5921,-0.11842 1.08552,-0.25657 1.48028,-0.41449 0.39473,-0.15788 0.61184,-0.31578 0.65133,-0.47371"
         style="font-family:Talking to the Moon;-inkscape-font-specification:Talking to the Moon"
         id="path3021"
         inkscape:connector-curvature="0" />
      <path
         d="m 187.83863,1018.6879 c 0,0 0,-0.06 0,-0.1777 0,-0.1579 0,-0.4935 0,-1.0066 0.0394,-0.5526 0.079,-1.4013 0.11842,-2.5461 0.079,-1.1447 0.15789,-2.7236 0.23684,-4.7369 0.11842,-2.0526 0.25659,-4.6185 0.41449,-7.6975 0.19737,-3.07939 0.41448,-6.84919 0.65131,-11.30982 -0.19736,-0.78945 -0.079,-1.42104 0.35528,-1.89477 0.47369,-0.51313 0.98685,-0.78946 1.53951,-0.82896 0.55262,-0.079 1.02633,0.0987 1.42107,0.53291 0.39475,0.43424 0.41448,1.16452 0.0592,2.19082 -0.079,0.43425 -0.15792,1.34216 -0.23686,2.72372 -0.079,1.34217 -0.1579,2.92114 -0.23684,4.73693 -0.079,1.81597 -0.1579,3.75047 -0.23684,5.80317 -0.0395,2.0527 -0.0987,4.0066 -0.17765,5.862 -0.079,1.8157 -0.17763,3.3948 -0.29605,4.7369 -0.079,1.3421 -0.15791,2.2303 -0.23685,2.6644 -0.11842,0.5526 -0.29605,1.0462 -0.5329,1.4804 -0.23684,0.3947 -0.51317,0.6514 -0.82895,0.7697 -0.27634,0.158 -0.59213,0.158 -0.9474,0 -0.31579,-0.1973 -0.67107,-0.6315 -1.0658,-1.3026 m 2.19081,-37.95506 c -0.55263,-0.35523 -0.86842,-0.74997 -0.94736,-1.18424 -0.0395,-0.47365 0.0592,-0.84865 0.29605,-1.12501 0.27631,-0.31576 0.65131,-0.51313 1.12502,-0.59212 0.47368,-0.079 0.96712,0.0791 1.4803,0.47368 0.51314,0.3948 0.78946,0.80928 0.82894,1.24345 0.0394,0.39478 -0.0592,0.73033 -0.29606,1.00661 -0.23684,0.27635 -0.59211,0.45398 -1.0658,0.53289 -0.4737,0.0791 -0.94739,-0.0394 -1.42109,-0.35526"
         style="font-family:Talking to the Moon;-inkscape-font-specification:Talking to the Moon"
         id="path3023"
         inkscape:connector-curvature="0" />
      <path
         d="m 194.70715,1019.5169 c 0.11842,-0.75 0.29605,-2.0331 0.53292,-3.8489 0.27631,-1.8552 0.55263,-4.0263 0.82894,-6.5132 0.3158,-2.5263 0.59212,-5.2896 0.82897,-8.2898 0.27632,-3.00027 0.45395,-6.05953 0.5329,-9.17802 0.71055,-0.35524 1.26318,-0.45393 1.65793,-0.29605 0.43422,0.15792 0.75,0.61187 0.94739,1.36185 0.19736,0.71057 0.29604,1.73691 0.29605,3.079 -10e-6,1.34215 -0.0394,3.00008 -0.11842,4.97392 1.57897,-2.17122 3.09872,-4.22389 4.55929,-6.15816 1.46053,-1.9342 3.21715,-3.61187 5.26983,-5.03297 1.26316,-0.86841 2.36844,-1.14473 3.31584,-0.82897 0.98685,0.31584 1.8158,0.94742 2.48689,1.89478 0.67104,0.94741 1.16447,2.05269 1.48029,3.31584 0.35524,1.26321 0.55262,2.40796 0.59212,3.43428 -3e-5,1.1053 -0.0198,2.3882 -0.0592,3.849 -0.0395,1.4212 -0.079,2.8818 -0.11843,4.3819 -2e-5,1.4999 0.0198,2.9803 0.0592,4.4408 0.0394,1.4211 0.13813,2.704 0.29606,3.8486 0.19734,1.1054 0.45394,2.0134 0.76975,2.7238 0.35524,0.7106 0.84867,1.0658 1.48028,1.0658 -0.19739,0.8289 -0.53291,1.4014 -1.00659,1.7172 -0.47371,0.2763 -0.9474,0.3552 -1.42107,0.2369 -0.47371,-0.158 -0.92768,-0.4737 -1.36187,-0.9475 -0.39476,-0.5132 -0.63161,-1.1249 -0.71053,-1.8355 -0.39478,-1.2632 -0.63162,-2.9013 -0.71054,-4.9145 -0.079,-2.0133 -0.11845,-4.1053 -0.11843,-6.2765 -2e-5,-2.171 -0.0198,-4.2633 -0.0592,-6.27681 -2e-5,-2.01318 -0.13818,-3.6711 -0.41449,-4.97377 -0.27634,-1.3421 -0.75002,-2.1908 -1.42107,-2.5461 -0.67108,-0.35524 -1.65794,0.0791 -2.96058,1.30266 -1.69741,1.65795 -3.19743,3.45403 -4.50008,5.38825 -1.26318,1.93437 -2.3882,3.96767 -3.37505,6.09917 -0.98687,2.1316 -1.85531,4.3421 -2.60532,6.6317 -0.71054,2.2501 -1.36186,4.5396 -1.95397,6.8686 -0.11843,0.5527 -0.27632,0.9473 -0.4737,1.1842 -0.1579,0.2369 -0.35527,0.3749 -0.59212,0.4144 -0.23684,0 -0.5329,-0.039 -0.88817,-0.1183 -0.31579,-0.08 -0.67105,-0.1382 -1.0658,-0.1776"
         style="font-family:Talking to the Moon;-inkscape-font-specification:Talking to the Moon"
         id="path3025"
         inkscape:connector-curvature="0" />
    </g>
  </g>
</svg>
