<?xml version="1.0" encoding="UTF-8" standalone="no"?>
<!-- Created with Inkscape (http://www.inkscape.org/) -->

<svg
   xmlns:dc="http://purl.org/dc/elements/1.1/"
   xmlns:cc="http://creativecommons.org/ns#"
   xmlns:rdf="http://www.w3.org/1999/02/22-rdf-syntax-ns#"
   xmlns:svg="http://www.w3.org/2000/svg"
   xmlns="http://www.w3.org/2000/svg"
   xmlns:sodipodi="http://sodipodi.sourceforge.net/DTD/sodipodi-0.dtd"
   xmlns:inkscape="http://www.inkscape.org/namespaces/inkscape"
   width="142"
   height="90"
   id="svg2"
   version="1.1"
   inkscape:version="0.48.4 r9939"
   sodipodi:docname="category_label_intim_de-hdpi.svg">
  <defs
     id="defs4" />
  <sodipodi:namedview
     id="base"
     pagecolor="#ffffff"
     bordercolor="#666666"
     borderopacity="1.0"
     inkscape:pageopacity="0.0"
     inkscape:pageshadow="2"
     inkscape:zoom="7.9999999"
     inkscape:cx="55.770993"
     inkscape:cy="50.316878"
     inkscape:document-units="px"
     inkscape:current-layer="text2985"
     showgrid="false"
     inkscape:window-width="1400"
     inkscape:window-height="1001"
     inkscape:window-x="0"
     inkscape:window-y="0"
     inkscape:window-maximized="1"
     showguides="true"
     inkscape:guide-bbox="true">
    <sodipodi:guide
       orientation="1,0"
       position="10,140.5"
       id="guide2997" />
    <sodipodi:guide
       orientation="0,1"
       position="-25,10"
       id="guide2999" />
    <sodipodi:guide
       orientation="0,1"
       position="27,80"
       id="guide3001" />
  </sodipodi:namedview>
  <metadata
     id="metadata7">
    <rdf:RDF>
      <cc:Work
         rdf:about="">
        <dc:format>image/svg+xml</dc:format>
        <dc:type
           rdf:resource="http://purl.org/dc/dcmitype/StillImage" />
        <dc:title />
      </cc:Work>
    </rdf:RDF>
  </metadata>
  <g
     inkscape:label="Ebene 1"
     inkscape:groupmode="layer"
     id="layer1"
     transform="translate(0,-962.36218)">
    <g
       style="font-size:96.52788544px;font-style:normal;font-variant:normal;font-weight:normal;font-stretch:normal;line-height:125%;letter-spacing:0px;word-spacing:0px;fill:#000000;fill-opacity:1;stroke:none;font-family:eufm10;-inkscape-font-specification:eufm10"
       id="text2985">
      <rect
         style="fill:#ffffff;fill-opacity:1;stroke:none"
         id="rect3027"
         width="279.5"
         height="125"
         x="-29"
         y="947.86218" />
      <g
         style="font-size:51.74700165px;line-height:125%;fill:#000000;font-family:eufm10;-inkscape-font-specification:eufm10"
         id="text2993">
        <path
           d="m 56.942596,977.19894 0.960149,0 0.379007,0.37901 c -3.116318,0.75805 -6.384191,4.66603 -9.803632,11.72393 l -3.461591,8.43921 c 1.229631,2e-5 3.149928,-1.46547 5.760897,-4.39648 l 0.202136,0.17687 0,0.20214 c -0.808584,2.03824 -2.535167,3.69744 -5.179753,4.97762 -0.955355,-0.0772 -1.435614,0.6682 -2.324573,2.50146 -5.238735,11.1344 -11.900818,16.7015 -19.986268,16.7015 l -2.097169,0 c -5.205024,0 -8.851904,-2.872 -10.94065,-8.6161 l -0.404274,-3.6637 c 3e-6,-5.4913 2.880448,-9.65199 8.641345,-12.48192 1.364416,-0.38741 2.518279,-0.58112 3.461592,-0.58114 l 1.743429,0 c 3.68898,2e-5 6.308333,2.18141 7.858065,6.54417 0.269497,0.5559 0.404254,1.57499 0.404274,3.05729 -2e-5,4.1775 -2.248789,7.1927 -6.746313,9.0456 l -2.299306,0.3791 -1.339155,0 c -2.358269,0 -4.152231,-0.7075 -5.381891,-2.1225 l 0.379007,-0.379 0.202136,0 c 1.600243,1.0275 3.133112,1.5413 4.598611,1.5413 l 1.541292,0 c 3.874273,0 6.569427,-2.3667 8.085469,-7.1 l 0,-1.5413 c -1.8e-5,-3.13314 -1.347595,-5.24715 -4.042734,-6.34208 -0.505356,-0.25265 -1.212834,-0.37898 -2.122436,-0.37901 l -1.920299,0 c -4.68284,3e-5 -8.203384,2.61938 -10.561644,7.85809 -0.25267,0.4211 -0.505341,1.7013 -0.758012,3.8406 10e-7,4.7165 2.299303,7.9254 6.897915,9.6267 l 2.324573,0.379 2.299305,0 c 6.687339,0 12.44823,-5.9546 17.28269,-17.86379 -2.76256,2e-5 -4.489143,-1.98766 -5.179753,-5.96303 l 0,-0.75801 c -2.3e-5,-7.02422 6.080917,-12.01868 18.242839,-14.98339 l 3.284722,-0.20214 m -19.228256,15.18553 0,0.96014 c 0.353714,2.93101 1.381241,4.3965 3.082585,4.39648 l 0.176869,0 4.244872,-7.85807 c 1.431767,-3.18362 4.297923,-6.67913 8.879726,-10.92403 l 1.085149,-0.80089 0.01563,9.9e-4 -0.176869,0 c -4.649183,0.60645 -8.75087,2.2067 -12.305073,4.80075 -3.335283,2.94786 -5.002909,6.0894 -5.002884,9.42463 m -0.96015,-8.08547 0.202137,0 0,0.20213 c -1.41498,2.47621 -2.956271,4.32913 -4.623878,5.55876 -1.39813,1.86979 -2.097186,2.9647 -2.097168,3.28472 -0.774874,3e-5 -1.162303,-0.26106 -1.162286,-0.78327 1.280181,-2.7962 3.840577,-5.55031 7.681195,-8.26234 m 15.766665,0.78328 0,0.379 c -2.156163,5.50826 -3.562696,8.26237 -4.219604,8.26234 l 0,-0.37901 c 2.425602,-5.50819 3.832136,-8.2623 4.219604,-8.26233 m -6.923183,15.16022 0.202137,0.2022 -0.78328,1.7181 -0.379006,0 0,-0.1768 c 0.421085,-1.1623 0.741135,-1.7435 0.960149,-1.7435 m -6.34204,10.9659 0,0.1769 c -4.093291,5.8957 -7.933885,8.8435 -11.521793,8.8435 l -1.162286,0 c -1.41497,-0.2021 -2.122448,-0.4632 -2.122436,-0.7833 2.437669,0.2053 4.450986,-0.025 6.746313,-1.1623 2.847034,-1.7869 5.630355,-4.6282 8.060202,-7.0748 m -16.524677,3.2595 c 0.218971,0 0.412685,0.3201 0.581143,0.9602 l -0.202137,0.2021 -0.379006,0 -0.379006,-0.4043 0,-0.379 0.379006,-0.379"
           style="font-style:italic;font-weight:bold;font-family:Eutemia I;-inkscape-font-specification:Eutemia I Bold Italic"
           id="path2990"
           inkscape:connector-curvature="0"
           sodipodi:nodetypes="ccccccccccssccccsccccscccsscsccsccccsccscccccccccccccccccccccccccccccccccsccccccccccc" />
        <path
           d="m 50.954296,1002.3902 0.682211,0 0,0.1769 -0.859081,1.3897 0.17687,1.2381 c -8e-6,1.0949 -0.412704,2.6109 -1.238088,4.5481 l 0,0.1768 0.17687,0 c 3.032041,-4.6828 5.306077,-7.0747 6.822114,-7.1758 l 0.859081,0.1768 c 0.08421,-0.3537 0.555861,-0.5306 1.414957,-0.5306 l 0.505342,0.5306 c -0.690649,1.6003 -1.330748,3.5206 -1.920299,5.7609 -2.442497,4.1438 -3.663739,6.7127 -3.663728,7.7065 l 0.17687,0.5053 c 0.258158,0.293 0.568134,0.1715 0.884348,0 1.819217,-1.5328 3.746848,-4.2855 5.650318,-7.0649 l 0.243161,-0.3316 0.110578,0.1547 0.328472,0.3537 c -1.128613,2.173 -3.283648,5.1531 -6.332529,7.7472 -0.490696,0.137 -0.804786,0.097 -1.061218,0 l -0.884348,-0.6822 c -1.044382,3.2679 -1.566568,5.8283 -1.56656,7.6812 l 0,1.5918 c 0.320041,2.0888 1.313879,3.1331 2.981517,3.1332 2.54354,-10e-5 5.920904,-2.9142 10.132103,-8.7425 0.454786,-0.7243 0.800103,-1.7181 1.035951,-2.9815 -0.185314,-0.6906 -0.589587,-1.0359 -1.21282,-1.0359 l 0,-0.3285 c 0.18527,-0.4716 0.589543,-0.7075 1.21282,-0.7075 l 0.530609,0.7075 0,0.5053 c -2.3e-5,3.689 -2.855201,7.8834 -8.565544,12.5831 -1.886622,0.9432 -3.402646,1.4149 -4.548076,1.4149 l -0.328472,0 c -2.105599,-0.3032 -3.158393,-1.7687 -3.158387,-4.3965 l 0,-1.2128 c -6e-6,-2.3751 0.993832,-6.0978 2.981517,-11.168 -9e-6,-1.9203 1.339145,-4.8345 4.017468,-8.7424 l 0,-0.1769 -0.17687,-0.1769 -0.17687,0 c -2.139291,0.8254 -4.640731,3.5037 -7.504326,8.0349 -1.953992,2.9142 -3.065743,4.3713 -3.335256,4.3713 -0.570293,0.2934 -1.125773,0.608 -2.097168,0.3284 l -0.17687,0 -0.151602,-0.1516 -0.17687,0 c 0.842236,-2.8636 3.107849,-7.4117 6.796847,-13.6442 l -0.176869,-0.1769 c -0.241521,-0.1569 -0.501052,-0.2508 -0.859081,0 -1.078067,0.657 -3.175234,3.1079 -6.291506,7.3527 l -0.353739,-0.3537 c 3.419477,-5.3566 5.75247,-8.0349 6.998984,-8.0349 l 0.859081,0 0.530609,0.3537 0.707479,-0.7075"
           style="font-style:italic;font-weight:bold;font-family:Eutemia I;-inkscape-font-specification:Eutemia I Bold Italic"
           id="path2992"
           inkscape:connector-curvature="0"
           sodipodi:nodetypes="cccccccccccccccccccccccsccccccccscscssccccccccccccccccsccc" />
        <path
           d="m 88.172721,972.42346 0.227404,0 0.480074,0.48008 c -1.633965,0.84228 -3.310013,2.19828 -5.028151,4.068 -3.318431,4.4302 -5.870404,8.89405 -7.655928,13.39156 l 0,0.25267 11.016451,0 0.480075,0.45481 c -0.269542,0.64012 -0.83384,0.96017 -1.692895,0.96015 l -11.243855,0.73274 c -7.007414,13.93063 -10.511114,21.58653 -10.51111,22.96783 l 0,0.2274 0.227404,0.7074 1.440224,0 c 2.055049,-1.3475 4.842849,-4.4554 8.363407,-9.3235 l 0.480075,0 0,0.9601 c -4.497552,6.3673 -7.605401,9.551 -9.323557,9.551 l -0.707478,0 -1.440224,-0.4548 c -2.391952,7.159 -3.587926,12.9704 -3.587927,17.4343 l 0,1.9203 c 10e-7,5.2724 1.591826,7.9085 4.77548,7.9086 5.727198,-10e-5 11.70707,-5.6683 17.939634,-17.0048 0.808525,-2.1224 1.212798,-3.79 1.21282,-5.0029 l 0,-0.9601 c -2.2e-5,-1.3644 -0.480097,-2.3246 -1.440224,-2.8805 l -0.960149,0 c -0.539051,0 -1.094927,0.2443 -1.667628,0.7328 l -0.480075,0 0,-0.7328 c 0.757994,-0.9433 1.549695,-1.4149 2.375107,-1.4149 l 0.732745,0 c 1.130932,0 3.072001,1.6194 3.107852,5.7356 -2.4e-5,3.9417 -3.267898,9.5173 -9.803631,16.7268 -4.093279,3.8406 -7.285352,5.7609 -9.576227,5.7609 l -1.667628,0 c -3.015207,0 -5.087106,-2.4004 -6.215704,-7.2011 l -0.252671,-3.1078 c 3e-6,-4.4808 1.184571,-10.562 4.21662,-19.3044 -0.35436,-0.9307 -0.255059,-1.8048 -0.148619,-2.678 0.488496,-2.5099 1.68447,-5.7019 3.587927,-9.5762 l -4.19098,6.3475 -0.480075,-0.4801 c 3.739525,-5.1881 7.138801,-11.2072 9.446535,-14.9636 l 0.732746,-1.66762 c -0.724333,-0.26949 -1.364432,-0.82537 -1.920299,-1.66763 l 0.707479,-0.70748 2.653044,0 c 1.93713,-4.80072 3.368931,-7.20109 4.295406,-7.20112 0.791685,3e-5 1.66761,-0.87589 2.627777,-2.62778 3.301545,-5.57556 6.257791,-8.36336 8.868749,-8.36341"
           style="font-style:italic;font-weight:bold;font-family:Eutemia I;-inkscape-font-specification:Eutemia I Bold Italic"
           id="path2994"
           inkscape:connector-curvature="0"
           sodipodi:nodetypes="ccccccccccsccccccsccsscccccscccssccssccccccccccccccc" />
        <path
           d="m 86.07555,991.52538 0.909616,0 c 0.606398,0.35377 0.909602,0.83384 0.909615,1.44023 -0.45482,1.68449 -0.934894,2.52673 -1.440224,2.52671 l -0.909615,0 c -0.387439,2e-5 -0.690644,-0.59797 -0.909616,-1.79397 0.370575,-1.16226 0.850649,-1.88658 1.440224,-2.17297 m -2.703578,10.86482 0.176869,0 0.17687,0.1769 0.202137,0 c -4.110118,7.4791 -6.165173,12.0019 -6.16517,13.5684 -3e-6,0.2695 0.303202,0.4464 0.909615,0.5306 0.97699,-0.1684 3.149957,-2.5182 6.518909,-7.0495 l 0.35374,0 0,0.7075 -3.082585,4.1691 0.176869,0 3.859617,-3.7679 0.397841,0.232 -0.209921,0.4754 c -4.009053,4.228 -6.422647,6.3199 -7.48386,6.3199 -2.290885,0 -3.436325,-1.2044 -3.436325,-3.6132 0.05053,-1.078 1.019105,-3.5542 2.905716,-7.4285 l -3.082585,3.8153 -0.353739,-0.379 c 1.027527,-1.7518 2.89729,-4.2785 5.609294,-7.5801 l 2.526709,-0.1769"
           style="font-style:italic;font-weight:bold;font-family:Eutemia I;-inkscape-font-specification:Eutemia I Bold Italic"
           id="path2996"
           inkscape:connector-curvature="0"
           sodipodi:nodetypes="cccccccccccccccccccccscccccc" />
        <path
           d="m 110.58463,1001.0258 0.55588,0 0.35374,0.3537 0,0.3791 -0.90962,1.9708 0.17687,1.4655 c -2e-5,1.4149 -1.56658,4.8513 -4.69968,10.309 l 0,0.379 0.17687,0.1768 c 3.41946,-1.7518 5.23027,-3.0826 5.43243,-3.9922 l 1.61709,-1.8192 0.20214,0 0,0.2021 c -3e-5,0.3538 -0.36219,1.0781 -1.08649,2.173 l 0.35374,0 c 5.42397,-2.5435 9.64357,-3.8153 12.65881,-3.8153 3.46998,0 5.7019,1.5665 6.69578,4.6997 l 0.17687,1.0864 c -4e-5,1.634 -0.53907,2.7205 -1.61709,3.2595 l -0.37901,-0.3537 c 0.72428,-0.9602 1.08644,-2.0467 1.08649,-3.2595 l 0,-0.5306 c -5e-5,-2.2404 -1.62556,-3.5711 -4.87655,-3.9922 l -0.55588,0 c -4.36282,0 -9.60152,1.8108 -15.71613,5.4324 -1.61711,2.0382 -3.12471,3.0573 -4.52281,3.0573 l -2.52671,2.3751 -0.55587,0 -0.35374,-0.379 c -2e-5,-0.4716 0.36215,-1.137 1.08648,-1.9961 l -0.17687,-0.1768 1.26336,-3.2342 c -2e-5,-2.3077 1.14542,-5.0282 3.43632,-8.1613 0.23581,-0.4716 0.35372,-1.137 0.35374,-1.9961 l -0.35374,-0.3537 -0.379,0 c -3.40266,3.7732 -6.59473,8.237 -9.57623,13.3915 l -2.880448,0.1769 0,-0.1769 c 3.25102,-6.0641 4.876535,-10.2247 4.876548,-12.4819 l 0,-0.7328 c -3.032061,3.2848 -6.165177,7.6307 -9.399358,13.0379 -0.741171,0.2358 -1.827655,0.3537 -3.259454,0.3537 l 0,-0.1769 6.872648,-14.1243 -0.909615,0 c -2.055061,1.7182 -4.682499,5.0584 -6.585108,7.9148 l 0.09149,-0.221 -0.379007,-0.3537 c 3.470011,-5.5588 5.937761,-8.4266 7.403258,-8.4266 l 0.732746,0 0.176869,0.1769 0.17687,0 1.288621,-1.2634 0.530609,0 0,0.3791 -1.263354,1.7939 0.353739,1.6424 -0.17687,1.6171 c 2.981505,-2.8973 4.851266,-4.346 5.609286,-4.346 l 0.35374,0 c 0.92645,0 1.4739,0.6065 1.64236,1.8193 l 0,1.2633 -0.55587,2.9057 c 3.38577,-4.1101 5.49978,-6.1651 6.34204,-6.1651 l 1.61709,-1.2634"
           style="font-style:italic;font-weight:bold;font-family:Eutemia I;-inkscape-font-specification:Eutemia I Bold Italic"
           id="path2998"
           inkscape:connector-curvature="0"
           sodipodi:nodetypes="cccccccccccccccscccccccscccccccccccccccscccccccccscccccccccssccccc" />
      </g>
    </g>
  </g>
</svg>
