<?xml version="1.0" encoding="UTF-8" standalone="no"?>
<!-- Created with Inkscape (http://www.inkscape.org/) -->

<svg
   xmlns:dc="http://purl.org/dc/elements/1.1/"
   xmlns:cc="http://creativecommons.org/ns#"
   xmlns:rdf="http://www.w3.org/1999/02/22-rdf-syntax-ns#"
   xmlns:svg="http://www.w3.org/2000/svg"
   xmlns="http://www.w3.org/2000/svg"
   xmlns:xlink="http://www.w3.org/1999/xlink"
   xmlns:sodipodi="http://sodipodi.sourceforge.net/DTD/sodipodi-0.dtd"
   xmlns:inkscape="http://www.inkscape.org/namespaces/inkscape"
   width="200"
   height="200"
   id="svg2"
   version="1.1"
   inkscape:version="0.48.4 r9939"
   sodipodi:docname="Category_box_tile01_crop.svg">
  <defs
     id="defs4" />
  <sodipodi:namedview
     id="base"
     pagecolor="#ffffff"
     bordercolor="#666666"
     borderopacity="1.0"
     inkscape:pageopacity="0.0"
     inkscape:pageshadow="2"
     inkscape:zoom="1.0088899"
     inkscape:cx="218.11388"
     inkscape:cy="-246.27737"
     inkscape:document-units="px"
     inkscape:current-layer="g3761"
     showgrid="true"
     showguides="true"
     inkscape:guide-bbox="true"
     inkscape:window-width="1400"
     inkscape:window-height="1001"
     inkscape:window-x="0"
     inkscape:window-y="0"
     inkscape:window-maximized="1">
    <inkscape:grid
       type="xygrid"
       id="grid2985"
       empspacing="5"
       visible="true"
       enabled="true"
       snapvisiblegridlinesonly="true"
       spacingx="10px"
       spacingy="10px"
       dotted="false" />
    <sodipodi:guide
       orientation="0,1"
       position="10,430"
       id="guide3830" />
  </sodipodi:namedview>
  <metadata
     id="metadata7">
    <rdf:RDF>
      <cc:Work
         rdf:about="">
        <dc:format>image/svg+xml</dc:format>
        <dc:type
           rdf:resource="http://purl.org/dc/dcmitype/StillImage" />
        <dc:title></dc:title>
      </cc:Work>
    </rdf:RDF>
  </metadata>
  <g
     inkscape:label="Ebene 1"
     inkscape:groupmode="layer"
     id="layer1"
     transform="translate(0,-852.36218)">
    <g
       id="g3761"
       inkscape:tile-cx="150"
       inkscape:tile-cy="902.36218"
       inkscape:tile-w="100"
       inkscape:tile-h="100"
       inkscape:tile-x0="100"
       inkscape:tile-y0="852.36218"
       transform="translate(-200,-200)">
      <g
         id="g486"
         transform="matrix(1.25,0,0,-1.25,300.46724,1141.2163)">
        <path
           inkscape:connector-curvature="0"
           d="m 0,0 c 0.273,-0.687 -0.062,-1.469 -0.75,-1.742 -0.689,-0.272 -1.469,0.062 -1.742,0.752 -0.272,0.687 0.062,1.467 0.75,1.74 C -1.055,1.025 -0.275,0.687 0,0 m 0.059,-3.779 c -1.813,-0.719 -3.868,0.164 -4.588,1.978 -0.721,1.813 0.164,3.865 1.976,4.588 C -0.74,3.51 1.314,2.625 2.037,0.812 2.756,-1.004 1.873,-3.057 0.059,-3.779 m 5.777,1.431 -0.785,0.338 c 0.211,0.928 0.217,1.887 0.017,2.811 L 5.906,1.133 C 6.078,1.201 6.162,1.396 6.094,1.568 L 5.504,3.049 C 5.436,3.221 5.242,3.303 5.068,3.234 L 4.207,2.891 C 3.703,3.686 3.031,4.361 2.24,4.867 l 0.362,0.84 C 2.637,5.787 2.637,5.881 2.605,5.963 2.574,6.045 2.508,6.113 2.426,6.146 L 0.965,6.777 C 0.795,6.85 0.596,6.77 0.521,6.604 L 0.15,5.738 C -0.742,5.941 -1.67,5.949 -2.564,5.766 L -2.912,6.643 C -2.982,6.814 -3.18,6.898 -3.348,6.83 L -4.828,6.24 C -5,6.172 -5.084,5.977 -5.018,5.805 L -4.668,4.93 C -5.449,4.445 -6.121,3.795 -6.637,3.025 l -0.84,0.362 C -7.645,3.461 -7.842,3.383 -7.916,3.213 L -8.547,1.752 C -8.58,1.668 -8.582,1.576 -8.549,1.494 -8.516,1.412 -8.451,1.346 -8.369,1.309 l 0.82,-0.354 C -7.77,0.051 -7.793,-0.896 -7.613,-1.811 l -0.785,-0.314 c -0.172,-0.068 -0.258,-0.262 -0.19,-0.434 l 0.59,-1.478 c 0.068,-0.172 0.264,-0.258 0.436,-0.188 l 0.757,0.301 c 0.487,-0.801 1.143,-1.488 1.926,-2.015 l -0.332,-0.774 c -0.074,-0.168 0.004,-0.365 0.176,-0.439 l 1.459,-0.631 c 0.084,-0.033 0.176,-0.035 0.258,-0.002 0.082,0.033 0.148,0.098 0.183,0.18 l 0.322,0.744 c 0.938,-0.231 1.915,-0.25 2.858,-0.057 L 0.342,-7.662 C 0.41,-7.834 0.605,-7.92 0.777,-7.852 l 1.481,0.59 c 0.172,0.067 0.254,0.264 0.187,0.436 l -0.299,0.744 c 0.815,0.502 1.506,1.184 2.028,1.986 l 0.767,-0.33 c 0.164,-0.07 0.371,0.012 0.442,0.176 l 0.631,1.461 c 0.072,0.172 -0.008,0.367 -0.178,0.441 m -19.303,-13.144 c 0,-1.297 -1.051,-2.346 -2.346,-2.346 -1.294,0 -2.347,1.049 -2.347,2.346 0,1.295 1.053,2.346 2.347,2.346 1.295,0 2.346,-1.051 2.346,-2.346 m -2.346,-6.186 c -3.416,0 -6.183,2.772 -6.183,6.186 0,3.416 2.767,6.183 6.183,6.183 3.415,0 6.182,-2.767 6.182,-6.183 0,-3.414 -2.767,-6.186 -6.182,-6.186 m 12.682,8.164 -1.625,0 c -0.305,1.618 -0.959,3.151 -1.918,4.487 l 1.127,1.131 c 0.111,0.109 0.172,0.257 0.172,0.414 0,0.156 -0.061,0.304 -0.172,0.416 L -7.516,-5.1 c -0.228,0.231 -0.599,0.231 -0.828,0 l -1.162,-1.16 c -1.324,0.905 -2.828,1.522 -4.4,1.801 l 0,1.65 c 0,0.323 -0.264,0.586 -0.586,0.586 l -2.787,0 c -0.325,0 -0.588,-0.263 -0.588,-0.586 l 0,-1.65 c -1.586,-0.281 -3.1,-0.902 -4.432,-1.822 l -1.131,1.129 c -0.23,0.232 -0.601,0.232 -0.828,0 l -1.971,-1.967 c -0.109,-0.111 -0.171,-0.26 -0.171,-0.416 0,-0.156 0.062,-0.305 0.171,-0.414 l 1.108,-1.108 c -0.945,-1.332 -1.594,-2.853 -1.897,-4.457 l -1.48,0 c -0.322,0 -0.586,-0.261 -0.586,-0.586 l 0,-2.785 c 0,-0.326 0.264,-0.586 0.586,-0.586 l 1.43,0 c 0.271,-1.617 0.894,-3.164 1.824,-4.525 l -1.037,-1.037 c -0.229,-0.229 -0.229,-0.602 0,-0.83 l 1.97,-1.971 c 0.108,-0.109 0.26,-0.172 0.415,-0.172 0.156,0 0.304,0.063 0.416,0.172 l 1.005,1.006 c 1.373,-0.983 2.948,-1.649 4.608,-1.942 l 0,-1.406 c 0,-0.324 0.263,-0.588 0.588,-0.588 l 2.787,0 c 0.322,0 0.586,0.264 0.586,0.588 l 0,1.406 c 1.644,0.291 3.211,0.948 4.576,1.922 l 1.039,-1.039 c 0.219,-0.22 0.609,-0.22 0.826,0 l 1.971,1.971 c 0.23,0.229 0.23,0.602 0,0.83 l -1.059,1.059 c 0.946,1.371 1.573,2.925 1.846,4.556 l 1.576,0 c 0.324,0 0.586,0.264 0.586,0.586 l 0,2.787 c 0,0.323 -0.26,0.584 -0.586,0.584"
           style="fill:#000000;fill-opacity:1;fill-rule:nonzero;stroke:none"
           id="path488" />
      </g>
      <g
         id="g20"
         transform="matrix(1.25,0,0,-1.25,231.56087,1160.2439)">
        <path
           inkscape:connector-curvature="0"
           d="m 0,0 -16.838,0 0,-3.664 14.432,0 c 0.381,0 0.687,-0.309 0.687,-0.688 l 0,-21.762 1.719,0 L 0,0 z m -3.094,-5.039 -16.836,0 0,-3.458 4.086,1.187 c 0.365,0.106 0.746,-0.103 0.852,-0.468 l 1.443,-4.96 1.072,1.172 c 0.079,0.086 0.19,0.134 0.305,0.134 l 0.002,0 c 0.117,0 0.229,-0.048 0.309,-0.134 l 4.211,-4.621 c 0.002,-0.003 0.005,-0.006 0.007,-0.009 0.151,-0.178 0.272,-0.358 0.385,-0.543 l 0.285,-0.559 c 0.145,-0.373 0.221,-0.761 0.221,-1.159 0,-1.701 -1.287,-3.106 -2.936,-3.299 l -0.218,-0.02 c -0.057,-0.003 -0.114,-0.004 -0.17,-0.004 -0.305,0 -0.6,0.05 -0.883,0.13 l 0.756,-2.601 c 0.857,-0.013 1.875,0.288 1.875,0.288 l 0,-0.945 -1.684,0 1.815,-6.244 5.105,0 0,26.113 -0.002,0 z m -5.738,-28.859 -7.285,25.078 -16.17,-4.7 7.287,-25.078 16.168,4.7 z m 10.207,34.585 0,-27.489 c 0,-0.379 -0.311,-0.685 -0.688,-0.685 l -2.406,0 0,-4.354 c 0,-0.379 -0.306,-0.686 -0.687,-0.686 l -5.393,0 0.479,-1.648 c 0.105,-0.364 -0.106,-0.746 -0.469,-0.851 l -17.488,-5.081 c -0.364,-0.107 -0.746,0.104 -0.852,0.467 l -7.67,26.398 c -0.105,0.364 0.104,0.746 0.469,0.851 l 12.025,3.495 0,4.544 c 0,0.38 0.309,0.688 0.688,0.688 l 2.406,0 0,4.352 c 0,0.38 0.309,0.688 0.688,0.688 l 18.21,0 C 1.066,1.375 1.375,1.067 1.375,0.687 m -17.287,-21.134 c 0.111,-0.39 0.15,-0.783 0.111,-1.19 l -0.113,-0.613 c -0.057,-0.199 -0.127,-0.399 -0.215,-0.604 -0.002,-0.006 -0.006,-0.012 -0.01,-0.018 l -2.736,-5.55 c -0.051,-0.103 -0.143,-0.182 -0.254,-0.214 l -0.002,0 c -0.111,-0.033 -0.23,-0.016 -0.33,0.045 l -5.287,3.234 c -0.002,0.002 -0.008,0.004 -0.01,0.006 -0.191,0.127 -0.359,0.265 -0.515,0.41 l -0.428,0.453 c -0.24,0.316 -0.418,0.665 -0.529,1.045 -0.471,1.618 0.363,3.311 1.88,3.952 l 0.204,0.08 c 0.052,0.017 0.105,0.034 0.162,0.051 0.736,0.213 1.502,0.167 2.199,-0.129 0.428,0.622 1.053,1.073 1.787,1.286 0.059,0.017 0.117,0.032 0.176,0.047 l 0.215,0.04 c 1.619,0.266 3.224,-0.715 3.695,-2.331"
           style="fill:#000000;fill-opacity:1;fill-rule:nonzero;stroke:none"
           id="path22" />
      </g>
      <g
         id="g476"
         transform="matrix(1.0058536,-0.31293548,-0.31293548,-1.0058536,281.76953,1211.6305)">
        <path
           inkscape:connector-curvature="0"
           d="m 0,0 c 0,0.76 -0.783,1.39 -1.619,2.003 0.096,-0.656 0.16,-1.319 0.16,-2.003 0,-0.681 -0.064,-1.346 -0.16,-2.002 C -0.783,-1.389 0,-0.759 0,0 m -3.09,-6.538 c -0.619,-1.164 -1.4,-2.227 -2.31,-3.166 1.033,0.007 2.025,0.05 2.457,0.644 0.427,0.588 0.164,1.54 -0.147,2.522 m -22.332,-3.168 c -0.91,0.939 -1.691,2.003 -2.31,3.168 -0.311,-0.982 -0.575,-1.935 -0.147,-2.522 0.432,-0.594 1.426,-0.638 2.457,-0.646 m -3.781,7.704 c -0.094,0.656 -0.16,1.319 -0.16,2.002 0,0.682 0.066,1.347 0.16,2.003 C -30.037,1.39 -30.822,0.76 -30.822,0 c 0,-0.759 0.785,-1.389 1.619,-2.002 m 1.471,8.541 c 0.619,1.164 1.4,2.227 2.31,3.166 -1.031,-0.007 -2.025,-0.05 -2.457,-0.644 -0.428,-0.588 -0.164,-1.54 0.147,-2.522 m 6.171,5.97 c 1.165,0.573 2.415,0.989 3.731,1.22 -0.709,0.508 -1.406,0.982 -2.016,0.982 -0.113,0 -0.22,-0.017 -0.328,-0.052 -0.711,-0.228 -1.06,-1.166 -1.387,-2.15 m 8.569,1.22 c 1.316,-0.23 2.568,-0.645 3.728,-1.218 -0.324,0.982 -0.674,1.92 -1.386,2.15 -0.106,0.033 -0.213,0.05 -0.325,0.05 -0.611,0 -1.308,-0.474 -2.017,-0.982 M -5.107,0 c 0,5.683 -4.622,10.305 -10.305,10.305 -5.682,0 -10.303,-4.622 -10.303,-10.305 0,-5.682 4.621,-10.304 10.303,-10.304 5.683,0 10.305,4.622 10.305,10.304 M -5.4,9.706 c 0.91,-0.938 1.691,-2.002 2.31,-3.166 0.311,0.981 0.574,1.934 0.147,2.521 -0.432,0.594 -1.424,0.638 -2.457,0.645 m 7.589,-9.707 c 0,-1.936 -1.576,-3.085 -2.728,-3.924 -0.264,-0.192 -0.627,-0.458 -0.844,-0.651 0.061,-0.302 0.213,-0.776 0.313,-1.087 0.425,-1.333 1.009,-3.158 -0.102,-4.687 -1.117,-1.535 -3.045,-1.542 -4.451,-1.546 -0.34,-10e-4 -0.816,-0.002 -1.113,-0.037 -0.121,-0.269 -0.266,-0.712 -0.369,-1.031 -0.03,-0.094 -0.065,-0.196 -0.098,-0.295 l 0,-10.177 -8.299,6.567 -8.48,-6.567 0,11.251 c -0.036,0.093 -0.069,0.181 -0.102,0.254 -0.297,0.033 -0.773,0.034 -1.115,0.035 -1.405,0.006 -3.332,0.012 -4.449,1.548 -1.112,1.528 -0.528,3.354 -0.1,4.687 0.098,0.31 0.25,0.786 0.311,1.087 -0.217,0.192 -0.583,0.459 -0.846,0.65 -1.151,0.84 -2.729,1.989 -2.729,3.924 0,1.936 1.578,3.085 2.729,3.924 0.263,0.192 0.631,0.459 0.846,0.651 -0.061,0.303 -0.213,0.777 -0.311,1.087 -0.428,1.334 -1.012,3.159 0.1,4.687 1.117,1.536 3.044,1.542 4.449,1.546 0.342,0.001 0.818,0.002 1.115,0.037 0.119,0.269 0.266,0.713 0.369,1.032 0.44,1.345 1.043,3.187 2.865,3.779 0.323,0.104 0.659,0.156 1.004,0.156 1.36,0 2.467,-0.797 3.446,-1.502 0.281,-0.203 0.716,-0.515 0.99,-0.662 0.271,0.147 0.709,0.459 0.99,0.662 0.979,0.705 2.084,1.502 3.447,1.502 0.344,0 0.68,-0.052 1.002,-0.157 1.825,-0.591 2.426,-2.434 2.866,-3.78 0.103,-0.318 0.248,-0.762 0.369,-1.031 0.297,-0.034 0.773,-0.035 1.113,-0.036 1.406,-0.006 3.334,-0.012 4.451,-1.547 C -0.061,8.819 -0.645,6.993 -1.07,5.661 -1.17,5.351 -1.322,4.875 -1.383,4.574 -1.166,4.382 -0.801,4.115 -0.539,3.923 0.613,3.084 2.189,1.934 2.189,-0.001 m -11.585,2.07 -3.877,-2.816 1.48,-4.557 -3.875,2.816 -3.879,-2.816 1.483,4.557 -3.879,2.816 4.795,0 1.48,4.558 1.48,-4.558 4.792,0 z"
           style="fill:#000000;fill-opacity:1;fill-rule:nonzero;stroke:none"
           id="path478" />
      </g>
      <g
         id="g464"
         transform="matrix(0.78878044,0.22967534,0.22967534,-0.78878044,236.36052,1114.6823)">
        <path
           inkscape:connector-curvature="0"
           d="m 0,0 c 0,-0.474 0.385,-0.859 0.859,-0.859 0.473,0 0.862,0.385 0.862,0.859 0,0.474 -0.389,0.86 -0.862,0.86 C 0.385,0.86 0,0.474 0,0 m -0.793,0 c 0,0.912 0.74,1.653 1.652,1.653 0.912,0 1.655,-0.741 1.655,-1.653 0,-0.91 -0.743,-1.652 -1.655,-1.652 -0.912,0 -1.652,0.741 -1.652,1.652 m 4.1,-3.966 c 0,-0.219 0.177,-0.396 0.396,-0.396 0.219,0 0.397,0.177 0.397,0.396 0,0.219 -0.178,0.397 -0.397,0.397 -0.219,0 -0.396,-0.179 -0.396,-0.397 m -0.793,0 c 0,0.655 0.531,1.191 1.189,1.191 0.656,0 1.19,-0.535 1.19,-1.191 0,-0.655 -0.534,-1.189 -1.19,-1.189 -0.658,0 -1.189,0.534 -1.189,1.189 m -5.356,-1.189 c 0,-0.219 0.178,-0.398 0.397,-0.398 0.218,0 0.396,0.179 0.396,0.398 0,0.218 -0.178,0.396 -0.396,0.396 -0.219,0 -0.397,-0.178 -0.397,-0.396 m -0.793,0 c 0,0.655 0.533,1.189 1.19,1.189 0.656,0 1.189,-0.533 1.189,-1.189 0,-0.657 -0.533,-1.191 -1.189,-1.191 -0.657,0 -1.19,0.534 -1.19,1.191 m 20.674,-13.294 c 0,-1.99 -1.617,-3.61 -3.607,-3.61 l -27.985,0 c -1.99,0 -3.609,1.62 -3.609,3.61 0,0.193 0.037,0.385 0.105,0.564 l 9.692,25.402 c 0.004,0.039 0.01,0.081 0.013,0.12 l 0,14.554 -1.144,0 c -0.877,0 -1.586,0.71 -1.586,1.588 0,0.876 0.709,1.586 1.586,1.586 l 2.73,0 c 0.879,0 1.588,-0.71 1.588,-1.586 l 0,-16.264 c 0,-0.092 -0.008,-0.183 -0.021,-0.273 0,-0.193 -0.047,-0.454 -0.117,-0.633 l -5.838,-15.3 21.05,0 L 3.863,6.592 C 3.799,6.757 3.764,6.93 3.756,7.106 L 3.742,7.201 C 3.736,7.265 3.732,7.327 3.732,7.388 l 0,16.391 c 0,0.876 0.709,1.586 1.586,1.586 l 2.803,0 c 0.877,0 1.586,-0.71 1.586,-1.586 0,-0.878 -0.709,-1.588 -1.586,-1.588 l -1.217,0 0,-14.66 10.026,-25.398 c 0.072,-0.186 0.109,-0.383 0.109,-0.582"
           style="fill:#000000;fill-opacity:1;fill-rule:nonzero;stroke:none"
           id="path466" />
      </g>
      <g
         id="g3713"
         transform="matrix(0.9256633,0.37834833,-0.37834833,0.9256633,442.18929,-63.85415)">
        <g
           transform="matrix(0.85044885,0,0,-0.85044885,388.03967,1158.3676)"
           id="g616">
          <path
             id="path618"
             style="fill:#000000;fill-opacity:1;fill-rule:nonzero;stroke:none"
             d="m 0,0 -3.055,0 c -0.914,0 -1.648,0.739 -1.648,1.646 0,0.912 0.734,1.651 1.648,1.651 L 0,3.297 C 0.91,3.297 1.65,2.558 1.65,1.646 1.65,0.739 0.91,0 0,0 m -18.629,-16.739 c -5.254,0 -9.519,4.263 -9.519,9.518 0,5.26 4.265,9.524 9.519,9.524 5.26,0 9.525,-4.264 9.525,-9.524 0,-5.255 -4.265,-9.518 -9.525,-9.518 m 19.943,22.074 -30.175,0 c -1.387,0 -2.514,-1.124 -2.514,-2.51 l 0,-20.085 c 0,-1.387 1.127,-2.511 2.514,-2.511 l 30.177,0 c 1.387,0 2.51,1.124 2.51,2.511 l 0,20.085 C 3.824,4.211 2.703,5.335 1.314,5.335"
             inkscape:connector-curvature="0" />
        </g>
        <path
           id="path620"
           style="fill:#000000;fill-opacity:1;fill-rule:nonzero;stroke:none"
           d="m 364.36003,1150.9196 6.13939,0 0,2.2273 -6.13939,0 0,-2.2273 z"
           inkscape:connector-curvature="0" />
        <g
           transform="matrix(0.85044885,0,0,-0.85044885,372.11374,1160.644)"
           id="g622">
          <path
             id="path624"
             style="fill:#000000;fill-opacity:1;fill-rule:nonzero;stroke:none"
             d="m 0,0 c 2.506,0 4.539,-2.032 4.539,-4.542 0,-2.506 -2.033,-4.54 -4.539,-4.54 -2.506,0 -4.539,2.034 -4.539,4.54 C -4.539,-2.032 -2.506,0 0,0"
             inkscape:connector-curvature="0" />
        </g>
      </g>
      <g
         id="g456"
         transform="matrix(1.25,0,0,-1.25,318.85891,1107.8722)">
        <path
           inkscape:connector-curvature="0"
           d="m 0,0 0,0.012 0,13.59 -11.002,5.724 0,-12.347 c -1.512,1.201 -3.822,1.082 -5.443,-0.374 -1.785,-1.609 -2.047,-4.23 -0.584,-5.855 1.463,-1.625 4.095,-1.641 5.881,-0.032 1.005,0.905 1.527,2.131 1.531,3.32 l 0,10.157 8.187,-3.847 0,-7.362 c -1.509,1.162 -3.793,1.032 -5.398,-0.41 -1.785,-1.608 -2.047,-4.227 -0.586,-5.852 1.463,-1.627 4.098,-1.642 5.887,-0.036 0.996,0.902 1.521,2.124 1.527,3.308 L 0,0 z"
           style="fill:#000000;fill-opacity:1;fill-rule:nonzero;stroke:none"
           id="path458" />
      </g>
      <g
         id="g72"
         transform="matrix(0.85693309,0,0,-0.85693309,283.1568,1064.7747)">
        <path
           inkscape:connector-curvature="0"
           d="M 0,0 C -3.422,3.139 -8.969,3.139 -12.391,0 L -14.713,-2.131 -17.037,0 c -3.42,3.139 -8.969,3.139 -12.391,0 -3.849,-3.531 -3.849,-9.258 0,-12.793 L -14.713,-26.295 0,-12.793 C 3.848,-9.258 3.848,-3.531 0,0"
           style="fill:#000000;fill-opacity:1;fill-rule:nonzero;stroke:none"
           id="path74" />
      </g>
      <g
         id="g286"
         transform="matrix(0.75720766,0,0,-0.75720766,322.18062,1199.9797)">
        <path
           inkscape:connector-curvature="0"
           d="m 0,0 c -0.005,0 -0.018,-0.002 -0.021,-0.002 -0.067,0.011 -0.277,0.079 -0.44,0.145 L -0.62,0.204 -0.788,0.189 c -0.06,-0.006 -0.146,-0.018 -0.243,-0.03 0.006,0.01 0.019,0.03 0.024,0.033 0.049,0.075 0.096,0.147 0.286,0.208 0.349,0.116 0.536,0.279 0.601,0.364 0.1,0.03 0.339,0.078 0.53,0.109 L 0.707,0.676 C 0.795,0.573 0.919,0.457 1.098,0.345 L -0.028,0.021 0,0 z m -0.225,-22.5 c -3.657,0 -7.143,1.257 -9.941,3.562 0.14,0.086 0.251,0.171 0.32,0.229 l 0.367,0.308 -0.326,0.984 0.475,1.498 0.039,0.238 c 0,0.571 -0.225,1.232 -0.83,1.35 -0.069,0.027 -0.247,0.31 -0.353,0.384 -0.3,0.219 -0.539,0.542 -0.831,0.542 l -0.002,0 c -0.054,0 -0.206,-0.085 -0.298,-0.025 -0.082,0.052 -0.189,0.036 -0.305,0.095 -0.069,0.031 -0.184,0.049 -0.17,0.027 -0.11,0.164 -0.261,0.403 -0.397,0.749 -0.109,0.303 -0.205,0.455 -0.717,1.029 -0.336,0.381 -0.416,0.465 -0.725,0.609 l -0.131,0.06 c -0.132,0.065 -0.217,0.131 -0.303,0.191 -0.133,0.096 -0.3,0.218 -0.541,0.316 -0.202,0.083 -0.268,0.133 -0.465,0.3 -0.07,0.064 -0.152,0.133 -0.253,0.199 -0.194,0.993 -0.293,2.013 -0.293,3.035 l 0.002,0.196 c 0.156,0.403 0.299,1.089 0.23,1.436 -0.003,0.085 0.052,0.361 0.085,0.521 0.057,0.285 0.107,0.568 0.101,0.706 0.031,0.118 0.24,0.441 0.352,0.613 0.149,0.229 0.276,0.44 0.333,0.582 0.06,0.142 0.385,0.644 0.582,0.944 l 0.325,0.513 c 0.088,0.136 0.287,0.452 0.21,0.802 0.372,0.262 0.85,0.602 0.911,0.654 0.076,0.077 0.714,0.773 0.061,1.984 -0.021,0.041 0.225,0.071 0.215,0.088 0.056,0.101 0.387,0.267 0.387,0.491 l 0,0.052 c 0,0.43 0.168,0.768 0.547,0.768 l 0.234,0 c 0.085,0 0.168,0.246 0.245,0.26 l 0.577,-0.14 1.191,0.502 0.128,0.265 c 10e-4,0.001 0.126,0.244 0.391,0.434 0.397,0.283 0.516,0.462 0.7,0.768 l -0.566,0.424 0.667,-0.3 c 0.08,0.076 0.234,0.598 0.641,1.033 0.473,0.507 0.745,0.984 0.712,0.984 l 0.295,0 0.21,-0.132 c 0.063,0.071 0.328,0.184 0.533,0.46 2.715,0.996 5.71,1.119 8.533,0.543 C 2.554,8.623 2.205,8.462 1.671,8.208 1.542,8.146 1.426,8.064 1.357,8.04 1.234,8.012 1.052,7.925 0.858,7.839 0.742,7.787 0.524,7.686 0.499,7.675 0.019,7.675 -0.396,7.277 -0.728,6.846 -1.141,6.093 -1.041,5.641 -0.907,5.418 l 0.27,-0.48 0.196,0 c -0.255,0 -0.494,-0.376 -0.643,-0.504 l -0.712,0.879 -0.674,1.418 -1.177,-1.014 0,-0.527 -0.721,0.247 -0.73,-1.524 1.041,-1.435 0.413,0.363 0,-0.099 0.662,0.168 C -3,2.744 -3.033,2.579 -2.977,2.428 L -4.911,1.979 -4.744,1.26 c 0.029,-0.116 0.036,-0.343 0.047,-0.48 -0.265,-1.052 -0.026,-1.373 0.069,-1.496 l 0.173,-0.191 C -4.698,-1.155 -4.859,-1.43 -4.941,-1.565 -5.05,-1.693 -5.25,-1.92 -5.293,-2.257 -5.357,-2.336 -5.498,-2.466 -5.599,-2.532 l -0.127,-0.08 c -0.462,-0.284 -0.896,-0.568 -1.115,-0.932 -0.272,-0.457 -0.443,-0.859 -0.51,-1.195 -0.074,-0.376 -0.074,-0.667 -0.074,-1.109 0,-0.134 -0.007,-0.251 -0.013,-0.358 -0.015,-0.233 -0.031,-0.477 0.022,-0.793 0.114,-0.676 1.044,-1.89 1.057,-1.904 0.29,-0.365 0.634,-0.773 1.033,-1.008 0.206,-0.125 0.473,-0.346 0.583,-0.439 0.265,-0.311 0.883,-0.581 1.486,-0.349 0.169,0.065 0.34,0.095 0.506,0.136 0.304,0.067 0.652,0.143 0.993,0.335 0.078,0.044 0.15,0.086 0.214,0.116 0.264,-0.439 0.806,-0.656 1.354,-0.477 l 0.011,0.006 c 0.019,-0.113 0.036,-0.218 0.054,-0.315 0.021,-0.095 0.037,-0.18 0.036,-0.346 -0.012,-0.239 -0.034,-0.687 0.332,-1.053 0.071,-0.073 0.179,-0.158 0.295,-0.255 0.047,-0.038 0.122,-0.094 0.178,-0.147 0.024,-0.301 0.087,-0.806 0.245,-1.122 0.076,-0.147 0.096,-0.261 0.123,-0.211 -0.133,-0.266 -0.397,-0.987 -0.424,-1.076 -0.164,-0.737 -0.07,-1.016 -0.041,-1.098 0.114,-0.353 0.329,-0.682 0.655,-1.008 0.04,-0.04 0.059,-0.098 0.097,-0.242 0.046,-0.162 0.106,-0.385 0.261,-0.592 0.062,-0.089 0.205,-0.449 0.275,-0.668 l 0.088,-0.491 -0.001,-1.361 0.807,0.115 c 0,0 1.324,0.193 1.582,0.259 0.3,0.077 1.317,0.548 1.683,0.912 0.187,0.185 0.275,0.359 0.334,0.473 0.048,0.09 0.054,0.102 0.1,0.142 0.302,0.239 0.851,0.663 0.851,0.663 l 0.299,0.228 -0.067,1.028 0.508,0.685 0.431,0.438 c -0.101,-0.244 -0.228,-0.558 -0.275,-0.743 -0.086,-0.335 -0.03,-0.74 0.239,-1.081 l 0.313,-0.194 0.343,0 0.252,-0.094 c 0.263,0.087 0.47,0.215 0.675,0.41 0.063,0.059 0.121,0.087 0.159,0.114 0.385,0.253 0.757,0.901 0.847,1.249 l 0.244,0.903 c 0.07,0.281 0.142,0.824 0.142,1.081 0,0.254 -0.067,0.537 -0.082,0.592 l -0.441,1.782 -1.234,-2.32 c -0.182,-0.088 -0.311,-0.169 -0.428,-0.253 10e-4,0.106 -0.008,0.194 -0.021,0.24 -0.031,0.118 -0.093,0.664 -0.148,1.166 0.089,0.181 0.203,0.394 0.268,0.487 0.115,0.152 0.182,0.307 0.234,0.429 0.063,0.146 0.095,0.216 0.197,0.302 0.381,0.317 0.634,0.666 0.821,0.921 l 0.147,0.196 c 0.202,0.265 0.518,0.689 0.621,0.853 0.174,0.257 0.293,0.72 0.348,0.97 l 0.224,1.019 -0.844,-0.142 c 0.101,0.051 0.193,0.097 0.255,0.142 0.05,0.033 0.136,0.081 0.233,0.137 0.386,0.215 0.673,0.381 0.851,0.56 l 0.38,0.276 c 0.331,0.219 0.744,0.495 0.796,0.972 0.074,-0.059 0.151,-0.114 0.242,-0.156 0.06,-0.039 0.205,-0.197 0.323,-0.345 0.088,-0.205 0.307,-0.727 0.353,-0.908 0.031,-0.121 0.123,-0.35 0.222,-0.588 0.078,-0.183 0.163,-0.372 0.181,-0.389 0,-0.159 0.071,-0.636 0.338,-0.94 C 14.252,-16.603 7.689,-22.5 -0.225,-22.5 M 3.105,-0.627 3.574,-1.376 3.538,-1.381 3.339,-1.535 C 3.19,-1.655 2.069,-1.613 1.673,-1.45 1.662,-1.391 1.642,-1.307 1.621,-1.211 l 0.218,-0.163 0.298,0.05 c 0.499,0.084 0.817,0.406 0.968,0.697 m 1.657,0.321 c 0.099,-0.34 0.315,-0.711 0.654,-1.128 L 5.549,-1.618 C 5.607,-1.694 5.679,-1.777 5.75,-1.86 5.547,-1.805 5.29,-1.74 4.969,-1.67 l -0.442,1.342 c 0.09,0.003 0.168,0.011 0.235,0.022 M -0.225,10.78 c -9.704,0 -17.6,-7.894 -17.6,-17.6 0,-9.704 7.897,-17.599 17.602,-17.599 9.704,0 17.599,7.895 17.599,17.599 0,9.706 -7.896,17.6 -17.601,17.6"
           style="fill:#000000;fill-opacity:1;fill-rule:nonzero;stroke:none"
           id="path288" />
      </g>
      <g
         id="g426"
         transform="matrix(0.97124247,0,0,-0.97124247,360.91178,1116.3356)">
        <path
           inkscape:connector-curvature="0"
           d="m 0,0 3.796,0 0,9.39 L 0,0 z M 8.624,0 4.829,9.39 4.829,0 8.624,0 z m 13.118,0 3.795,0 0,9.39 L 21.742,0 z m 8.623,0 -3.792,9.39 0,-9.39 3.792,0 z M 15.701,19.152 c 1.144,0 1.036,-0.925 1.036,-2.069 l 0.069,-2.069 11.837,0 0,-2.073 -1.346,0 L 32.783,0 c 0,-2.003 -3.298,-3.623 -6.728,-3.623 -3.431,0 -6.729,1.62 -6.729,3.623 l 5.486,12.941 -7.938,0 0.624,-18.7 c 3.999,-0.293 7.003,-1.545 7.003,-3.043 l -17.6,0 c 0,1.498 3.004,2.75 7.003,3.043 l 0.623,18.7 -8.971,0 L 11.042,0 c 0,-2.003 -3.298,-3.623 -6.729,-3.623 -3.43,0 -6.73,1.62 -6.73,3.623 l 5.486,12.941 -1.344,0 0,2.073 12.872,0 0.07,2.069 c 0,1.144 -0.109,2.069 1.034,2.069"
           style="fill:#000000;fill-opacity:1;fill-rule:nonzero;stroke:none"
           id="path428" />
      </g>
      <g
         id="g3770"
         transform="translate(4,8)">
        <g
           transform="matrix(1.25,0,0,-1.25,374.7796,1201.0813)"
           id="g100">
          <path
             id="path102"
             style="fill:#000000;fill-opacity:1;fill-rule:nonzero;stroke:none"
             d="M 0,0 -1.874,-5.494 -3.747,0 C -4.099,1.035 -3.549,2.158 -2.512,2.512 -1.478,2.864 -0.352,2.313 0,1.276 0.145,0.847 0.134,0.399 0,0"
             inkscape:connector-curvature="0" />
        </g>
        <g
           transform="matrix(1.25,0,0,-1.25,353.71023,1217.468)"
           id="g104">
          <path
             id="path106"
             style="fill:#000000;fill-opacity:1;fill-rule:nonzero;stroke:none"
             d="M 0,0 5.495,-1.873 0,-3.746 c -1.037,-0.351 -2.158,0.197 -2.512,1.234 -0.351,1.033 0.2,2.16 1.233,2.512 0.432,0.146 0.881,0.135 1.279,0"
             inkscape:connector-curvature="0" />
        </g>
        <g
           transform="matrix(1.25,0,0,-1.25,370.09573,1238.5373)"
           id="g108">
          <path
             id="path110"
             style="fill:#000000;fill-opacity:1;fill-rule:nonzero;stroke:none"
             d="M 0,0 1.874,5.494 3.747,0 C 4.098,-1.035 3.549,-2.159 2.511,-2.511 1.479,-2.864 0.355,-2.312 0,-1.276 -0.144,-0.848 -0.133,-0.398 0,0"
             inkscape:connector-curvature="0" />
        </g>
        <g
           transform="matrix(1.25,0,0,-1.25,391.1651,1222.1456)"
           id="g112">
          <path
             id="path114"
             style="fill:#000000;fill-opacity:1;fill-rule:nonzero;stroke:none"
             d="M 0,0 -5.494,1.873 0,3.746 C 1.035,4.097 2.158,3.548 2.512,2.511 2.865,1.479 2.313,0.354 1.278,0 0.847,-0.146 0.399,-0.136 0,0"
             inkscape:connector-curvature="0" />
        </g>
        <g
           transform="matrix(1.25,0,0,-1.25,360.84885,1204.9106)"
           id="g116">
          <path
             id="path118"
             style="fill:#000000;fill-opacity:1;fill-rule:nonzero;stroke:none"
             d="m 0,0 2.561,-5.209 -5.208,2.562 C -3.629,-2.167 -4.033,-0.979 -3.553,0 -3.068,0.979 -1.884,1.385 -0.904,0.901 -0.496,0.702 -0.187,0.379 0,0"
             inkscape:connector-curvature="0" />
        </g>
        <g
           transform="matrix(1.25,0,0,-1.25,357.54023,1231.3961)"
           id="g120">
          <path
             id="path122"
             style="fill:#000000;fill-opacity:1;fill-rule:nonzero;stroke:none"
             d="M 0,0 5.208,2.561 2.647,-2.647 C 2.166,-3.626 0.98,-4.03 0,-3.55 c -0.979,0.483 -1.385,1.669 -0.904,2.647 0.2,0.41 0.526,0.716 0.904,0.903"
             inkscape:connector-curvature="0" />
        </g>
        <g
           transform="matrix(1.25,0,0,-1.25,384.02398,1234.7055)"
           id="g124">
          <path
             id="path126"
             style="fill:#000000;fill-opacity:1;fill-rule:nonzero;stroke:none"
             d="M 0,0 -2.561,5.208 2.649,2.647 C 3.629,2.167 4.031,0.98 3.552,0 3.066,-0.979 1.881,-1.383 0.904,-0.902 0.494,-0.702 0.187,-0.377 0,0"
             inkscape:connector-curvature="0" />
        </g>
        <g
           transform="matrix(1.25,0,0,-1.25,387.3296,1208.2163)"
           id="g128">
          <path
             id="path130"
             style="fill:#000000;fill-opacity:1;fill-rule:nonzero;stroke:none"
             d="m 0,0 -5.208,-2.563 2.561,5.211 C -2.165,3.627 -0.978,4.033 0,3.55 0.979,3.067 1.386,1.882 0.902,0.901 0.704,0.494 0.38,0.187 0,0"
             inkscape:connector-curvature="0" />
        </g>
        <g
           transform="matrix(1.25,0,0,-1.25,372.4376,1213.956)"
           id="g132">
          <path
             id="path134"
             style="fill:#000000;fill-opacity:1;fill-rule:nonzero;stroke:none"
             d="m 0,0 c -2.583,0 -4.682,-2.101 -4.682,-4.683 0,-2.583 2.099,-4.682 4.682,-4.682 2.583,0 4.681,2.099 4.681,4.682 C 4.681,-2.101 2.583,0 0,0 m 0,-13.11 c -4.646,0 -8.428,3.782 -8.428,8.427 0,4.646 3.782,8.428 8.428,8.428 4.646,0 8.428,-3.782 8.428,-8.428 0,-4.645 -3.782,-8.427 -8.428,-8.427"
             inkscape:connector-curvature="0" />
        </g>
      </g>
      <g
         id="g3811"
         transform="translate(-2,4)">
        <g
           transform="matrix(0.92459032,0,0,-0.92459032,358.3514,1074.2018)"
           id="g212">
          <path
             id="path214"
             style="fill:#000000;fill-opacity:1;fill-rule:nonzero;stroke:none"
             d="m 0,0 -29.332,0 c -0.735,0 -1.331,-0.598 -1.331,-1.33 0,-0.736 0.596,-1.334 1.331,-1.334 l 29.332,0 c 0.735,0 1.331,0.598 1.331,1.334 C 1.331,-0.598 0.735,0 0,0"
             inkscape:connector-curvature="0" />
        </g>
        <g
           transform="matrix(0.92459032,0,0,-0.92459032,358.90403,1064.2517)"
           id="g216">
          <path
             id="path218"
             style="fill:#000000;fill-opacity:1;fill-rule:nonzero;stroke:none"
             d="m 0,0 -0.657,-1.469 c -0.452,-1.008 -1.355,-1.84 -2.017,-1.857 -0.665,-0.022 -0.983,0.83 -0.711,1.898 l 0.635,2.504 c 0.273,1.07 1.181,1.67 2.031,1.342 C 0.128,2.092 0.452,1.01 0,0 M 3.839,3.07 C 3.699,3.408 3.429,3.674 3.087,3.805 l -2.818,1.09 c -1.032,0.398 -1.843,0.806 -1.816,0.916 0.03,0.109 0.078,0.996 -0.536,1.609 -0.362,0.361 -0.862,0.586 -1.412,0.586 l -23.538,0 c -0.552,0 -1.051,-0.225 -1.414,-0.586 -0.612,-0.613 -0.323,-2.27 -0.002,-3.324 l 2.833,-9.282 c 0.321,-1.056 0.554,-2.71 1.166,-3.324 0.362,-0.363 0.862,-0.586 1.414,-0.586 l 16.212,0 c 0.55,0 1.049,0.223 1.411,0.586 0.615,0.614 0.646,1.647 0.72,1.936 0.071,0.289 1.026,0.551 2.131,0.584 l 2.003,0.06 c 0.511,0.014 0.967,0.321 1.178,0.787 L 3.823,2.018 C 3.972,2.352 3.979,2.732 3.839,3.07"
             inkscape:connector-curvature="0" />
        </g>
        <g
           transform="matrix(0.92459032,0,0,-0.92459032,341.06322,1054.464)"
           id="g220">
          <path
             id="path222"
             style="fill:none;stroke:#000000;stroke-width:2.70254827;stroke-linecap:round;stroke-linejoin:round;stroke-miterlimit:10;stroke-opacity:1;stroke-dasharray:none"
             d="M 0,0 C 0,0 -1.164,1.229 0,2.945 1.167,4.664 1.629,8.328 -0.518,9.494"
             inkscape:connector-curvature="0" />
        </g>
        <g
           transform="matrix(0.92459032,0,0,-0.92459032,346.89424,1054.464)"
           id="g224">
          <path
             id="path226"
             style="fill:none;stroke:#000000;stroke-width:2.70254827;stroke-linecap:round;stroke-linejoin:round;stroke-miterlimit:10;stroke-opacity:1;stroke-dasharray:none"
             d="M 0,0 C 0,0 -1.164,1.229 0,2.945 1.167,4.664 1.629,8.328 -0.516,9.494"
             inkscape:connector-curvature="0" />
        </g>
      </g>
      <g
         id="g374"
         transform="matrix(0.77130424,0,0,-0.77130424,219.95883,1061.1903)">
        <path
           inkscape:connector-curvature="0"
           d="M 0,0 C -2.434,0 -4.4,1.97 -4.4,4.4 -4.4,6.834 -2.434,8.801 0,8.801 2.43,8.801 4.4,6.834 4.4,4.4 4.4,1.97 2.43,0 0,0 m 17.6,4.4 c 0,9.72 -7.88,17.601 -17.6,17.601 -9.72,0 -17.6,-7.881 -17.6,-17.601 0,-9.72 7.88,-17.6 17.6,-17.6 l 2.2,0 c 1.211,0 2.2,0.989 2.2,2.2 0,1.211 -0.989,2.2 -2.2,2.2 l -2.2,0 c -7.287,0 -13.2,5.909 -13.2,13.2 0,7.291 5.913,13.201 13.2,13.201 7.291,0 13.2,-5.91 13.2,-13.201 l 0,-6.6 c 0,-1.211 -0.989,-2.199 -2.2,-2.199 -1.211,0 -2.2,0.988 -2.2,2.199 l 0,6.6 c 0,4.858 -3.945,8.8 -8.8,8.8 -4.857,0 -8.8,-3.942 -8.8,-8.8 0,-4.855 3.943,-8.799 8.8,-8.799 1.65,0 3.179,0.482 4.495,1.271 C 4.95,-6.325 7.674,-8.8 11,-8.8 c 3.643,0 6.6,2.957 6.6,6.6 l 0,6.6 z"
           style="fill:#000000;fill-opacity:1;fill-rule:nonzero;stroke:none"
           id="path376" />
      </g>
      <g
         transform="matrix(1.25,0,0,-1.25,431.56087,1160.2439)"
         id="g3830">
        <path
           id="path3832"
           style="fill:#000000;fill-opacity:1;fill-rule:nonzero;stroke:none"
           d="m 0,0 -16.838,0 0,-3.664 14.432,0 c 0.381,0 0.687,-0.309 0.687,-0.688 l 0,-21.762 1.719,0 L 0,0 z m -3.094,-5.039 -16.836,0 0,-3.458 4.086,1.187 c 0.365,0.106 0.746,-0.103 0.852,-0.468 l 1.443,-4.96 1.072,1.172 c 0.079,0.086 0.19,0.134 0.305,0.134 l 0.002,0 c 0.117,0 0.229,-0.048 0.309,-0.134 l 4.211,-4.621 c 0.002,-0.003 0.005,-0.006 0.007,-0.009 0.151,-0.178 0.272,-0.358 0.385,-0.543 l 0.285,-0.559 c 0.145,-0.373 0.221,-0.761 0.221,-1.159 0,-1.701 -1.287,-3.106 -2.936,-3.299 l -0.218,-0.02 c -0.057,-0.003 -0.114,-0.004 -0.17,-0.004 -0.305,0 -0.6,0.05 -0.883,0.13 l 0.756,-2.601 c 0.857,-0.013 1.875,0.288 1.875,0.288 l 0,-0.945 -1.684,0 1.815,-6.244 5.105,0 0,26.113 -0.002,0 z m -5.738,-28.859 -7.285,25.078 -16.17,-4.7 7.287,-25.078 16.168,4.7 z m 10.207,34.585 0,-27.489 c 0,-0.379 -0.311,-0.685 -0.688,-0.685 l -2.406,0 0,-4.354 c 0,-0.379 -0.306,-0.686 -0.687,-0.686 l -5.393,0 0.479,-1.648 c 0.105,-0.364 -0.106,-0.746 -0.469,-0.851 l -17.488,-5.081 c -0.364,-0.107 -0.746,0.104 -0.852,0.467 l -7.67,26.398 c -0.105,0.364 0.104,0.746 0.469,0.851 l 12.025,3.495 0,4.544 c 0,0.38 0.309,0.688 0.688,0.688 l 2.406,0 0,4.352 c 0,0.38 0.309,0.688 0.688,0.688 l 18.21,0 C 1.066,1.375 1.375,1.067 1.375,0.687 m -17.287,-21.134 c 0.111,-0.39 0.15,-0.783 0.111,-1.19 l -0.113,-0.613 c -0.057,-0.199 -0.127,-0.399 -0.215,-0.604 -0.002,-0.006 -0.006,-0.012 -0.01,-0.018 l -2.736,-5.55 c -0.051,-0.103 -0.143,-0.182 -0.254,-0.214 l -0.002,0 c -0.111,-0.033 -0.23,-0.016 -0.33,0.045 l -5.287,3.234 c -0.002,0.002 -0.008,0.004 -0.01,0.006 -0.191,0.127 -0.359,0.265 -0.515,0.41 l -0.428,0.453 c -0.24,0.316 -0.418,0.665 -0.529,1.045 -0.471,1.618 0.363,3.311 1.88,3.952 l 0.204,0.08 c 0.052,0.017 0.105,0.034 0.162,0.051 0.736,0.213 1.502,0.167 2.199,-0.129 0.428,0.622 1.053,1.073 1.787,1.286 0.059,0.017 0.117,0.032 0.176,0.047 l 0.215,0.04 c 1.619,0.266 3.224,-0.715 3.695,-2.331"
           inkscape:connector-curvature="0" />
      </g>
      <g
         transform="matrix(0.77130424,0,0,-0.77130424,219.95883,1261.1903)"
         id="g3834">
        <path
           id="path3836"
           style="fill:#000000;fill-opacity:1;fill-rule:nonzero;stroke:none"
           d="M 0,0 C -2.434,0 -4.4,1.97 -4.4,4.4 -4.4,6.834 -2.434,8.801 0,8.801 2.43,8.801 4.4,6.834 4.4,4.4 4.4,1.97 2.43,0 0,0 m 17.6,4.4 c 0,9.72 -7.88,17.601 -17.6,17.601 -9.72,0 -17.6,-7.881 -17.6,-17.601 0,-9.72 7.88,-17.6 17.6,-17.6 l 2.2,0 c 1.211,0 2.2,0.989 2.2,2.2 0,1.211 -0.989,2.2 -2.2,2.2 l -2.2,0 c -7.287,0 -13.2,5.909 -13.2,13.2 0,7.291 5.913,13.201 13.2,13.201 7.291,0 13.2,-5.91 13.2,-13.201 l 0,-6.6 c 0,-1.211 -0.989,-2.199 -2.2,-2.199 -1.211,0 -2.2,0.988 -2.2,2.199 l 0,6.6 c 0,4.858 -3.945,8.8 -8.8,8.8 -4.857,0 -8.8,-3.942 -8.8,-8.8 0,-4.855 3.943,-8.799 8.8,-8.799 1.65,0 3.179,0.482 4.495,1.271 C 4.95,-6.325 7.674,-8.8 11,-8.8 c 3.643,0 6.6,2.957 6.6,6.6 l 0,6.6 z"
           inkscape:connector-curvature="0" />
      </g>
      <g
         transform="translate(-2,204)"
         id="g3838">
        <g
           id="g3840"
           transform="matrix(0.92459032,0,0,-0.92459032,358.3514,1074.2018)">
          <path
             inkscape:connector-curvature="0"
             d="m 0,0 -29.332,0 c -0.735,0 -1.331,-0.598 -1.331,-1.33 0,-0.736 0.596,-1.334 1.331,-1.334 l 29.332,0 c 0.735,0 1.331,0.598 1.331,1.334 C 1.331,-0.598 0.735,0 0,0"
             style="fill:#000000;fill-opacity:1;fill-rule:nonzero;stroke:none"
             id="path3842" />
        </g>
        <g
           id="g3844"
           transform="matrix(0.92459032,0,0,-0.92459032,358.90403,1064.2517)">
          <path
             inkscape:connector-curvature="0"
             d="m 0,0 -0.657,-1.469 c -0.452,-1.008 -1.355,-1.84 -2.017,-1.857 -0.665,-0.022 -0.983,0.83 -0.711,1.898 l 0.635,2.504 c 0.273,1.07 1.181,1.67 2.031,1.342 C 0.128,2.092 0.452,1.01 0,0 M 3.839,3.07 C 3.699,3.408 3.429,3.674 3.087,3.805 l -2.818,1.09 c -1.032,0.398 -1.843,0.806 -1.816,0.916 0.03,0.109 0.078,0.996 -0.536,1.609 -0.362,0.361 -0.862,0.586 -1.412,0.586 l -23.538,0 c -0.552,0 -1.051,-0.225 -1.414,-0.586 -0.612,-0.613 -0.323,-2.27 -0.002,-3.324 l 2.833,-9.282 c 0.321,-1.056 0.554,-2.71 1.166,-3.324 0.362,-0.363 0.862,-0.586 1.414,-0.586 l 16.212,0 c 0.55,0 1.049,0.223 1.411,0.586 0.615,0.614 0.646,1.647 0.72,1.936 0.071,0.289 1.026,0.551 2.131,0.584 l 2.003,0.06 c 0.511,0.014 0.967,0.321 1.178,0.787 L 3.823,2.018 C 3.972,2.352 3.979,2.732 3.839,3.07"
             style="fill:#000000;fill-opacity:1;fill-rule:nonzero;stroke:none"
             id="path3846" />
        </g>
        <g
           id="g3848"
           transform="matrix(0.92459032,0,0,-0.92459032,341.06322,1054.464)">
          <path
             inkscape:connector-curvature="0"
             d="M 0,0 C 0,0 -1.164,1.229 0,2.945 1.167,4.664 1.629,8.328 -0.518,9.494"
             style="fill:none;stroke:#000000;stroke-width:2.70254827;stroke-linecap:round;stroke-linejoin:round;stroke-miterlimit:10;stroke-opacity:1;stroke-dasharray:none"
             id="path3850" />
        </g>
        <g
           id="g3852"
           transform="matrix(0.92459032,0,0,-0.92459032,346.89424,1054.464)">
          <path
             inkscape:connector-curvature="0"
             d="M 0,0 C 0,0 -1.164,1.229 0,2.945 1.167,4.664 1.629,8.328 -0.516,9.494"
             style="fill:none;stroke:#000000;stroke-width:2.70254827;stroke-linecap:round;stroke-linejoin:round;stroke-miterlimit:10;stroke-opacity:1;stroke-dasharray:none"
             id="path3854" />
        </g>
      </g>
    </g>
    <use
       x="0"
       y="0"
       inkscape:tiled-clone-of="#g3761"
       xlink:href="#g3761"
       id="use3764"
       transform="translate(0,260)"
       width="744.09448"
       height="1052.3622" />
    <use
       x="0"
       y="0"
       inkscape:tiled-clone-of="#g3761"
       xlink:href="#g3761"
       transform="translate(0,459.99985)"
       id="use3766"
       width="744.09448"
       height="1052.3622" />
    <use
       x="0"
       y="0"
       inkscape:tiled-clone-of="#g3761"
       xlink:href="#g3761"
       transform="translate(0,659.99985)"
       id="use3768"
       width="744.09448"
       height="1052.3622" />
    <use
       x="0"
       y="0"
       inkscape:tiled-clone-of="#g3761"
       xlink:href="#g3761"
       transform="translate(200.00218,260)"
       id="use3770"
       width="744.09448"
       height="1052.3622" />
    <use
       x="0"
       y="0"
       inkscape:tiled-clone-of="#g3761"
       xlink:href="#g3761"
       transform="translate(200.00218,459.99985)"
       id="use3772"
       width="744.09448"
       height="1052.3622" />
    <use
       x="0"
       y="0"
       inkscape:tiled-clone-of="#g3761"
       xlink:href="#g3761"
       transform="translate(200.00218,659.99985)"
       id="use3774"
       width="744.09448"
       height="1052.3622" />
    <use
       x="0"
       y="0"
       inkscape:tiled-clone-of="#g3761"
       xlink:href="#g3761"
       transform="translate(400.00218,260)"
       id="use3776"
       width="744.09448"
       height="1052.3622" />
    <use
       x="0"
       y="0"
       inkscape:tiled-clone-of="#g3761"
       xlink:href="#g3761"
       transform="translate(400.00218,459.99985)"
       id="use3778"
       width="744.09448"
       height="1052.3622" />
    <use
       x="0"
       y="0"
       inkscape:tiled-clone-of="#g3761"
       xlink:href="#g3761"
       transform="translate(400.00218,659.99985)"
       id="use3780"
       width="744.09448"
       height="1052.3622" />
  </g>
</svg>
