<?xml version="1.0" encoding="UTF-8" standalone="no"?>
<!-- Created with Inkscape (http://www.inkscape.org/) -->

<svg
   xmlns:dc="http://purl.org/dc/elements/1.1/"
   xmlns:cc="http://creativecommons.org/ns#"
   xmlns:rdf="http://www.w3.org/1999/02/22-rdf-syntax-ns#"
   xmlns:svg="http://www.w3.org/2000/svg"
   xmlns="http://www.w3.org/2000/svg"
   xmlns:sodipodi="http://sodipodi.sourceforge.net/DTD/sodipodi-0.dtd"
   xmlns:inkscape="http://www.inkscape.org/namespaces/inkscape"
   width="230"
   height="149.3"
   id="svg3172"
   version="1.1"
   inkscape:version="0.48.4 r9939"
   sodipodi:docname="customize_activity-02.svg">
  <defs
     id="defs3174" />
  <sodipodi:namedview
     id="base"
     pagecolor="#ffffff"
     bordercolor="#666666"
     borderopacity="1.0"
     inkscape:pageopacity="0.0"
     inkscape:pageshadow="2"
     inkscape:zoom="0.35"
     inkscape:cx="-179.65947"
     inkscape:cy="354.87951"
     inkscape:document-units="px"
     inkscape:current-layer="layer2"
     showgrid="false"
     inkscape:window-width="1400"
     inkscape:window-height="1001"
     inkscape:window-x="0"
     inkscape:window-y="0"
     inkscape:window-maximized="1"
     showguides="true"
     inkscape:guide-bbox="true">
    <sodipodi:guide
       orientation="1,0"
       position="0,434.36559"
       id="guide3844" />
    <sodipodi:guide
       orientation="0,1"
       position="96.785714,149.28571"
       id="guide3846" />
    <sodipodi:guide
       orientation="0,1"
       position="0,0"
       id="guide3848" />
    <sodipodi:guide
       orientation="1,0"
       position="230.06224,122.98607"
       id="guide3850" />
  </sodipodi:namedview>
  <metadata
     id="metadata3177">
    <rdf:RDF>
      <cc:Work
         rdf:about="">
        <dc:format>image/svg+xml</dc:format>
        <dc:type
           rdf:resource="http://purl.org/dc/dcmitype/StillImage" />
        <dc:title></dc:title>
      </cc:Work>
    </rdf:RDF>
  </metadata>
  <g
     inkscape:groupmode="layer"
     id="layer2"
     inkscape:label="Ebene"
     style="display:inline"
     transform="translate(0,-435.7)">
    <path
       style="fill:#810e24;fill-opacity:1;stroke:none;display:inline"
       d="m -202.63178,-204.63397 0,727.26737 -2.33802,0 2.05299,319.8796 609.89124,-9.2384 c 9.23752,-374.931 -3.95276,-928.11546 1.23817,-1032.44054 l -270.17834,-5.46803 z"
       id="rect5705"
       inkscape:connector-curvature="0"
       sodipodi:nodetypes="cccccccc" />
    <path
       inkscape:connector-curvature="0"
       style="fill:#f5cdcd;fill-opacity:1;stroke:#f67b89;stroke-width:1.00000024;stroke-linejoin:miter;stroke-miterlimit:4;stroke-opacity:1;stroke-dasharray:none;stroke-dashoffset:5.5;display:inline"
       d="m -144.55288,172.3457 c 1.30051,4.28228 1.12651,8.56452 -0.4285,12.84685 -1.55534,4.28226 -4.43054,8.5645 -7.1881,12.84678 -2.7576,4.28228 -5.2771,8.56458 -6.30516,12.84682 -1.02803,4.28228 -0.51344,8.56456 1.28131,12.84688 1.79455,4.28227 4.79637,8.56451 7.50555,12.84678 2.70912,4.28226 5.00646,8.56458 5.74995,12.84685 0.74347,4.28226 -0.10601,8.56452 -2.11885,12.84679 -2.01268,4.28227 -5.10598,8.56454 -7.73494,12.84683 -2.62895,4.28234 -4.67713,8.56455 -5.12737,12.84685 -0.45014,4.28224 0.72435,8.56454 2.93159,12.84683 2.20715,4.28224 5.35567,8.56452 7.87363,12.84682 2.51796,4.28222 4.29296,8.56453 4.44461,12.84683 0.15174,4.28221 -1.33393,8.56453 -3.70984,12.84679 -2.37581,4.28229 -5.54261,8.56454 -7.92006,12.84682 -2.37738,4.28224 -3.85847,8.56456 -3.70983,12.8468 0.14877,4.28229 1.92797,8.56455 4.44466,12.84686 2.51669,4.28226 5.66466,8.56454 7.87365,12.84684 2.20901,4.28224 3.37876,8.56453 2.93152,12.84676 -0.44737,4.2823 -2.49932,8.56459 -5.12739,12.8469 -2.62802,4.28221 -5.72015,8.56451 -7.73491,12.84673 -2.01467,4.2823 -2.8594,8.56459 -2.11881,12.84686 0.74055,4.28228 4.70948,11.19491 7.40946,15.46981 2.76512,4.27477 5.47722,8.55709 6.77783,12.83934 1.30051,4.28228 1.12651,8.56454 -0.4285,12.84684 -1.55534,4.28226 -4.43054,8.56454 -7.1881,12.84683 -2.7576,4.28225 -5.2771,8.56456 -6.30516,12.84683 -1.02803,4.28225 -0.51344,8.56451 1.28131,12.84683 1.79455,4.28227 4.79637,8.56452 7.50555,12.84679 2.70912,4.28226 5.00646,8.56459 5.74995,12.84686 0.74347,4.28226 -0.10601,8.56452 -2.11885,12.84679 -2.01268,4.28224 -5.10598,8.56454 -7.73494,12.84683 -2.62895,4.28232 -4.67713,8.56452 -5.12737,12.84682 -0.45014,4.28227 0.72435,8.56457 2.93159,12.84687 2.20715,4.28222 5.35567,8.56449 7.87363,12.84679 2.51796,4.2822 4.29309,8.5645 4.44461,12.8468 0.15174,4.2822 -1.33393,8.5646 -3.70984,12.8469 -2.37581,4.2822 -5.54261,8.5645 -7.92006,12.8468 -2.37738,4.2822 -3.85847,8.5645 -3.70983,12.8467 0.14877,4.2823 1.92797,8.5646 4.44466,12.8469 2.51669,4.2823 5.66466,8.5646 7.87365,12.8469 2.20901,4.2822 3.37876,8.5645 2.93152,12.8467 -0.44737,4.2823 -2.49932,8.5646 -5.12739,12.8469 -2.62802,4.2822 -5.72015,8.5645 -7.73491,12.8467 -2.0145,4.2824 -2.8594,8.5646 -2.11881,12.8469 0.74055,4.2823 3.04146,8.5646 5.74994,12.8468 2.70853,4.2823 5.7087,8.5646 7.50548,12.8468 1.79682,4.2823 2.30662,8.5646 1.2813,12.8469 -1.02525,4.2823 -3.54787,8.5646 -6.30504,12.8468 -2.75732,4.2823 -5.63033,8.5645 -7.1881,12.8468 -1.5578,4.2823 -1.72671,8.5645 -0.42851,12.8468 1.29787,4.2823 4.01272,8.5646 6.78637,12.8469 l -40.49347,2.2787 c 3.30691,-4.001 6.40021,-8.2833 8.41287,-12.5656 2.01294,-4.2822 2.86235,-8.5645 2.11886,-12.8468 -0.74349,-4.2822 -3.04082,-8.5646 -5.74993,-12.8468 -2.70919,-4.2823 -6.55131,-9.4048 -8.47564,-15.5829 -1.25991,-4.1613 -1.091,-8.4436 0.46681,-12.7259 1.55775,-4.2823 4.43077,-8.5645 7.18809,-12.8468 2.75718,-4.2822 5.27982,-8.5645 6.30506,-12.8468 1.02531,-4.2823 0.51551,-8.5645 -1.28131,-12.8468 -1.79679,-4.2823 -4.79694,-8.5646 -7.50548,-12.8468 -2.7085,-4.2823 -5.00938,-8.5646 -5.74996,-12.8469 -0.74054,-4.2822 0.10431,-8.5645 2.11883,-12.8468 2.01473,-4.2823 5.10688,-8.5646 7.73491,-12.8468 2.62807,-4.2823 4.68001,-8.5645 5.12739,-12.8469 0.44724,-4.2822 -0.72253,-8.5645 -2.93152,-12.8467 -2.209,-4.2823 -5.35694,-8.5646 -7.87366,-12.8469 -2.51667,-4.2823 -4.29602,-8.5645 -4.44465,-12.8469 -0.14876,-4.2822 1.33246,-8.5645 3.70984,-12.8467 2.37744,-4.2823 5.54424,-8.56459 7.92008,-12.84684 2.37585,-4.28225 3.86172,-8.56456 3.70979,-12.84679 -0.15157,-4.28231 -1.92663,-8.56464 -4.44462,-12.84684 -2.51791,-4.28229 -5.66644,-8.56458 -7.87363,-12.8468 -2.20725,-4.28232 -3.38169,-8.56462 -2.93155,-12.84684 0.45023,-4.28229 2.49838,-8.56452 5.12737,-12.84684 2.62896,-4.28231 5.72226,-8.56459 7.73492,-12.84685 2.01294,-4.28227 2.86235,-8.56451 2.11886,-12.8468 -0.74349,-4.28227 -3.04082,-8.56455 -5.74993,-12.84682 -2.70919,-4.28228 -5.71103,-8.56453 -7.50557,-12.84682 -1.79477,-4.28229 -2.30936,-8.56457 -1.28131,-12.84683 1.02807,-4.28226 3.54758,-8.56457 6.30516,-12.84679 2.75754,-4.2823 5.63274,-8.56456 7.1881,-12.84685 1.55501,-4.28231 1.729,-8.56455 0.46761,-12.788 -1.81709,-5.14436 -5.76792,-11.23889 -8.47646,-15.52117 -2.7085,-4.28226 -5.00938,-8.56454 -5.74996,-12.84684 -0.74054,-4.28226 0.10431,-8.56454 2.11883,-12.84684 2.01473,-4.28224 5.10688,-8.56453 7.73491,-12.84674 2.62807,-4.28232 4.68001,-8.56457 5.12739,-12.84689 0.44724,-4.28224 -0.72253,-8.56455 -2.93152,-12.84679 -2.209,-4.28229 -5.35694,-8.56454 -7.87366,-12.84682 -2.51667,-4.28232 -4.29602,-8.56456 -4.44465,-12.84687 -0.14876,-4.28224 1.33246,-8.56452 3.70984,-12.84677 2.37744,-4.2823 5.54424,-8.56456 7.92008,-12.84684 2.37585,-4.28226 3.86172,-8.56456 3.70979,-12.84678 -0.15157,-4.28231 -1.92663,-8.56463 -4.44462,-12.84685 -2.51791,-4.28226 -5.66644,-8.56456 -7.87363,-12.84678 -2.20725,-4.28233 -3.38169,-8.56466 -2.93155,-12.84685 0.45023,-4.28232 2.49838,-8.56455 5.12737,-12.84684 2.62896,-4.2823 5.72226,-8.56459 7.73492,-12.84683 2.01294,-4.28228 2.86235,-8.56455 2.11886,-12.8468 -0.74349,-4.28229 -3.04082,-8.5646 -5.74993,-12.84686 -2.70919,-4.28226 -5.71103,-8.56451 -7.50557,-12.8468 -1.79477,-4.28229 -2.30936,-8.56458 -1.28131,-12.84681 1.02807,-4.28229 3.54758,-8.56459 6.30516,-12.84683 2.75754,-4.28231 5.63274,-8.56457 7.1881,-12.84685 1.55501,-4.28229 1.729,-8.56455 0.4285,-12.84682 -1.30061,-4.28225 -4.01271,-8.56452 -6.77636,-12.81509 -2.69846,-4.25053 -6.25979,-10.80158 -7.00031,-15.0839 -0.74063,-4.28226 0.1043,-8.56452 2.11877,-12.84684 2.01476,-4.28223 5.10692,-8.56454 7.73492,-12.84677 2.62808,-4.2823 4.68003,-8.56455 5.12741,-12.84687 0.44723,-4.28222 -0.72252,-8.56452 -2.93152,-12.84675 -2.209,-4.2823 -5.35698,-8.56457 -7.87366,-12.84685 -2.51668,-4.2823 -4.29603,-8.56458 -4.44468,-12.84688 -0.14878,-4.28223 1.33246,-8.56453 3.70987,-12.84674 2.37743,-4.28231 5.54424,-8.56458 7.92006,-12.84684 2.37587,-4.28227 3.86172,-8.56457 3.7098,-12.84682 -0.15143,-4.2823 -1.92662,-8.56461 -4.44462,-12.84684 -2.51792,-4.28226 -5.66646,-8.56456 -7.87362,-12.84679 -2.20723,-4.28231 -3.38169,-8.56461 -2.93156,-12.84684 0.45021,-4.2823 2.49838,-8.56455 5.12735,-12.84685 2.62897,-4.2823 5.72227,-8.56456 7.73492,-12.84684 2.01295,-4.28225 2.86233,-8.56451 2.11888,-12.84679 -0.7435,-4.28225 -3.04082,-8.56453 -5.74992,-12.84683 -2.70922,-4.28225 -5.71103,-8.56455 -7.50558,-12.8468 -1.79476,-4.28228 -2.30935,-8.56454 -1.2813,-12.84684 1.02805,-4.28226 3.54754,-8.56454 6.30515,-12.84679 2.75754,-4.28231 5.63276,-8.56453 7.1881,-12.84686 1.55497,-4.28227 1.729,-8.56453 0.42849,-12.84682 -1.30062,-4.28228 -4.01272,-8.56453 -6.78639,-12.84682 l 31.40946,3.26763 5.46022,35.47811 c 2.85605,4.13213 5.56815,8.41438 6.86876,12.69666 1.30051,4.2823 1.12651,8.56456 -0.4285,12.84683 -1.55534,4.2823 -4.43054,8.56452 -7.1881,12.84684 -2.7576,4.28225 -5.2771,8.56454 -6.30516,12.8468 -1.02803,4.28231 -0.51344,8.56458 1.28131,12.84684 1.79455,4.28226 4.79637,8.56456 7.50555,12.84679 2.70912,4.2823 5.00646,8.56458 5.74995,12.84683 0.74347,4.28229 -0.10601,8.56455 -2.11885,12.84681 -2.01268,4.28227 -5.10598,8.56453 -7.73494,12.84684 -2.62895,4.28231 -4.67713,8.56454 -5.12737,12.84684 -0.45014,4.28223 0.72435,8.56453 2.93159,12.84684 2.20715,4.28224 5.35567,8.56454 7.87363,12.84681 2.51796,4.28222 4.29309,8.56452 4.44461,12.84683 0.15174,4.28222 -1.33393,8.56453 -3.70984,12.8468 -2.37581,4.28226 -5.54261,8.56455 -7.92006,12.84685 -2.37738,4.28222 -3.85847,8.56454 -3.70983,12.84674 0.14877,4.28229 1.92797,8.56457 4.44466,12.84688 2.51669,4.28228 5.66466,8.56454 7.87365,12.84685 2.20901,4.28221 3.37876,8.56453 2.93152,12.84677 -0.44737,4.28229 -2.49932,8.56455 -5.12739,12.84687 -2.62802,4.28223 -5.72015,8.56453 -7.73491,12.84675 -2.0145,4.28231 -2.8594,8.56457 -2.11881,12.84683 0.74055,4.28233 4.71996,10.83283 7.41467,15.08366 2.75991,4.25076 5.47201,8.53307 6.77262,12.81534 z"
       title="t sin(5*t)"
       id="path5660"
       sodipodi:nodetypes="ccssccscscsscssssscscccccssccscscsscssssscsccsssccccccsccccsssccscssssscsscscsccscccsccscssssscsscscsccsccccccscssssscsscscsccsscccccccssccscscsscssssscscccc" />
    <path
       sodipodi:nodetypes="ccssccscscsscssssscscccccssccscscsscssssscsccsssccccccsccccsssccscssssscsscscsccscccsccscssssscsscscsccsccccccscssssscsscscsccsscccccccssccscscsscssssscscccc"
       id="path5658"
       title="t sin(5*t)"
       d="m 315.31423,168.23974 c 1.30052,4.28227 1.12649,8.56452 -0.42852,12.84684 -1.55533,4.28229 -4.43052,8.56453 -7.18807,12.84679 -2.75761,4.28227 -5.27712,8.56457 -6.30516,12.84686 -1.02805,4.28227 -0.51343,8.56451 1.28131,12.84684 1.79453,4.28225 4.79638,8.56453 7.50556,12.84679 2.70911,4.28225 5.00643,8.56458 5.74994,12.84684 0.74349,4.28226 -0.10601,8.56454 -2.11889,12.84678 -2.01265,4.28228 -5.10594,8.56456 -7.73492,12.84686 -2.62896,4.28228 -4.67713,8.56454 -5.12733,12.84683 -0.45015,4.28222 0.72432,8.56454 2.93157,12.84684 2.20714,4.28225 5.35568,8.56454 7.87362,12.84678 2.51797,4.28224 4.29299,8.56455 4.44462,12.84686 0.15175,4.28224 -1.33397,8.56454 -3.70982,12.8468 -2.37584,4.28226 -5.54264,8.56452 -7.92006,12.84684 -2.37739,4.28222 -3.85849,8.56452 -3.70986,12.84676 0.14861,4.2823 1.92799,8.56455 4.44466,12.8469 2.51669,4.28225 5.66467,8.56451 7.87365,12.84683 2.20902,4.28219 3.37876,8.56453 2.93153,12.84675 -0.44738,4.28228 -2.49932,8.56458 -5.12739,12.84687 -2.62803,4.28221 -5.72017,8.56455 -7.73493,12.84678 -2.01466,4.2823 -2.85938,8.56455 -2.11879,12.84682 0.74056,4.28231 4.7095,11.19492 7.40944,15.46982 2.76512,4.27479 5.47724,8.5571 6.77784,12.83935 1.30052,4.28226 1.12649,8.56454 -0.42852,12.84684 -1.55533,4.28228 -4.43052,8.56453 -7.18807,12.84679 -2.75761,4.28228 -5.27712,8.56458 -6.30516,12.84687 -1.02805,4.28226 -0.51343,8.56451 1.28131,12.84684 1.79453,4.28224 4.79638,8.56451 7.50556,12.84678 2.70911,4.28225 5.00643,8.56457 5.74994,12.84685 0.74349,4.28225 -0.10601,8.56453 -2.11889,12.8468 -2.01265,4.28225 -5.10594,8.56452 -7.73492,12.84684 -2.62896,4.28229 -4.67713,8.56453 -5.12733,12.84682 -0.45015,4.28222 0.72432,8.56455 2.93157,12.84685 2.20714,4.28223 5.35568,8.56454 7.87362,12.84675 2.51797,4.2823 4.29311,8.5646 4.44462,12.8469 0.15175,4.2822 -1.33397,8.5645 -3.70982,12.8468 -2.37584,4.2823 -5.54264,8.5645 -7.92006,12.8468 -2.37739,4.2823 -3.85849,8.5646 -3.70986,12.8468 0.14861,4.2823 1.92799,8.5645 4.44466,12.8469 2.51669,4.2822 5.66467,8.5645 7.87365,12.8468 2.20902,4.2822 3.37876,8.5645 2.93153,12.8468 -0.44738,4.2823 -2.49932,8.5645 -5.12739,12.8469 -2.62803,4.2822 -5.72017,8.5645 -7.73493,12.8467 -2.01448,4.2823 -2.85938,8.5646 -2.11879,12.8468 0.74056,4.2823 3.04144,8.5646 5.74996,12.8469 2.70852,4.2823 5.70866,8.5646 7.50546,12.8468 1.79684,4.2823 2.3066,8.5645 1.28131,12.8468 -1.02526,4.2823 -3.54788,8.5646 -6.30505,12.8468 -2.75732,4.2823 -5.63036,8.5645 -7.18809,12.8469 -1.55781,4.2822 -1.72676,8.5645 -0.42851,12.8468 1.29785,4.2822 4.01273,8.5646 6.78637,12.8468 l -40.49348,2.2788 c 3.30688,-4.0011 6.40019,-8.2833 8.41286,-12.5656 2.01294,-4.2823 2.86231,-8.5645 2.11888,-12.8468 -0.74352,-4.2823 -3.04085,-8.5646 -5.74994,-12.8469 -2.70922,-4.2822 -6.5513,-9.4048 -8.47564,-15.5828 -1.25991,-4.1614 -1.09099,-8.4437 0.46679,-12.7259 1.55778,-4.2823 4.4308,-8.5646 7.18812,-12.8468 2.7572,-4.2823 5.27978,-8.5646 6.30506,-12.8468 1.02527,-4.2823 0.51551,-8.5646 -1.28132,-12.8469 -1.79681,-4.2822 -4.79695,-8.5645 -7.50547,-12.8468 -2.70849,-4.2823 -5.0094,-8.5645 -5.74995,-12.8468 -0.7406,-4.2823 0.10431,-8.5646 2.11879,-12.8469 2.01476,-4.2822 5.10692,-8.5645 7.73493,-12.8467 2.62805,-4.2823 4.68002,-8.5646 5.12739,-12.8469 0.44723,-4.2822 -0.72251,-8.5646 -2.93149,-12.8468 -2.20904,-4.2823 -5.357,-8.5646 -7.8737,-12.8468 -2.51667,-4.2823 -4.296,-8.5646 -4.44466,-12.8469 -0.14877,-4.2822 1.33248,-8.5645 3.70987,-12.8468 2.37742,-4.28227 5.54421,-8.56452 7.92004,-12.8468 2.37589,-4.28226 3.86174,-8.56458 3.70983,-12.84678 -0.15159,-4.28232 -1.92662,-8.56462 -4.44461,-12.84687 -2.51796,-4.28224 -5.66648,-8.56453 -7.87365,-12.84678 -2.20723,-4.2823 -3.38168,-8.5646 -2.93155,-12.84684 0.45022,-4.28231 2.49838,-8.56453 5.12735,-12.84684 2.62895,-4.28231 5.72226,-8.56457 7.73493,-12.84684 2.01294,-4.28226 2.86231,-8.56454 2.11888,-12.8468 -0.74352,-4.28226 -3.04085,-8.56457 -5.74994,-12.84684 -2.70922,-4.28227 -5.71102,-8.56453 -7.50555,-12.84681 -1.79477,-4.28231 -2.30937,-8.56455 -1.28131,-12.84681 1.02802,-4.28228 3.54752,-8.56458 6.30514,-12.84682 2.75755,-4.28231 5.63277,-8.56457 7.18808,-12.84684 1.55501,-4.2823 1.72902,-8.56457 0.46764,-12.788 -1.81712,-5.14435 -5.76794,-11.23889 -8.47646,-15.52114 -2.70849,-4.2823 -5.0094,-8.56457 -5.74995,-12.84687 -0.7406,-4.28228 0.10431,-8.56451 2.11879,-12.84684 2.01476,-4.28221 5.10692,-8.56452 7.73493,-12.84677 2.62805,-4.28228 4.68002,-8.56453 5.12739,-12.84687 0.44723,-4.28224 -0.72251,-8.56453 -2.93149,-12.84675 -2.20904,-4.28231 -5.357,-8.56458 -7.8737,-12.84684 -2.51667,-4.28229 -4.296,-8.56456 -4.44466,-12.84688 -0.14877,-4.28223 1.33248,-8.56453 3.70987,-12.84676 2.37742,-4.28232 5.54421,-8.56457 7.92004,-12.84684 2.37589,-4.28227 3.86174,-8.56456 3.70983,-12.84679 -0.15159,-4.28232 -1.92662,-8.56462 -4.44461,-12.84685 -2.51796,-4.28226 -5.66648,-8.56459 -7.87365,-12.84679 -2.20723,-4.28231 -3.38168,-8.56462 -2.93155,-12.84684 0.45022,-4.28232 2.49838,-8.56455 5.12735,-12.84683 2.62895,-4.28231 5.72226,-8.56457 7.73493,-12.84686 2.01294,-4.28226 2.86231,-8.56454 2.11888,-12.84679 -0.74352,-4.28227 -3.04085,-8.56459 -5.74994,-12.84683 -2.70922,-4.28226 -5.71102,-8.56455 -7.50555,-12.84679 -1.79477,-4.28231 -2.30937,-8.56459 -1.28131,-12.84686 1.02802,-4.28229 3.54752,-8.56459 6.30514,-12.84681 2.75755,-4.2823 5.63277,-8.56456 7.18808,-12.84682 1.55501,-4.28231 1.72902,-8.56458 0.4285,-12.84683 -1.30062,-4.28229 -4.01271,-8.56456 -6.77635,-12.81513 -2.69842,-4.25051 -6.25976,-10.80157 -7.00032,-15.08388 -0.7406,-4.28227 0.1043,-8.56454 2.11878,-12.84684 2.01476,-4.28222 5.10691,-8.56453 7.73494,-12.84677 2.62804,-4.28229 4.68001,-8.56455 5.12739,-12.84685 0.4472,-4.28223 -0.72252,-8.56453 -2.93153,-12.84678 -2.209,-4.2823 -5.35696,-8.56456 -7.87366,-12.84683 -2.51666,-4.28231 -4.29605,-8.56457 -4.44467,-12.84687 -0.14862,-4.28223 1.33249,-8.56453 3.70985,-12.84676 2.37747,-4.2823 5.54425,-8.56456 7.92007,-12.84685 2.37587,-4.28227 3.86175,-8.56458 3.70984,-12.84679 -0.15144,-4.2823 -1.92667,-8.56462 -4.44465,-12.84684 -2.51793,-4.28228 -5.66644,-8.56458 -7.87362,-12.84679 -2.20722,-4.28231 -3.38169,-8.56464 -2.93156,-12.84687 0.45021,-4.2823 2.49841,-8.56452 5.12738,-12.84682 2.62892,-4.28231 5.72226,-8.56458 7.7349,-12.84684 2.01296,-4.28227 2.86235,-8.56453 2.11887,-12.84679 -0.74352,-4.28229 -3.04082,-8.56456 -5.74995,-12.84687 -2.70917,-4.2822 -5.711,-8.56451 -7.50555,-12.84678 -1.79474,-4.28226 -2.30934,-8.56453 -1.2813,-12.84684 1.02804,-4.28226 3.54753,-8.56452 6.30514,-12.8468 2.75758,-4.28231 5.63276,-8.56453 7.18807,-12.84684 1.55504,-4.28227 1.72905,-8.56453 0.42853,-12.84683 -1.3006,-4.28227 -4.01271,-8.56454 -6.78637,-12.8468 l 31.40947,3.26764 5.46021,35.47809 c 2.85602,4.13211 5.56814,8.41436 6.86874,12.69665 1.30052,4.28231 1.12649,8.56458 -0.42852,12.84684 -1.55533,4.2823 -4.43052,8.56452 -7.18807,12.84683 -2.75761,4.28226 -5.27712,8.56453 -6.30516,12.84679 -1.02805,4.28231 -0.51343,8.56458 1.28131,12.84685 1.79453,4.28228 4.79638,8.56458 7.50556,12.84679 2.70911,4.28232 5.00643,8.56458 5.74994,12.84684 0.74349,4.28227 -0.10601,8.56453 -2.11889,12.8468 -2.01265,4.28228 -5.10594,8.56455 -7.73492,12.84686 -2.62896,4.2823 -4.67713,8.56454 -5.12733,12.84684 -0.45015,4.28221 0.72432,8.56452 2.93157,12.84682 2.20714,4.28223 5.35568,8.56453 7.87362,12.8468 2.51797,4.28225 4.29311,8.56455 4.44462,12.84685 0.15175,4.28223 -1.33397,8.56454 -3.70982,12.8468 -2.37584,4.28225 -5.54264,8.56453 -7.92006,12.84683 -2.37739,4.28223 -3.85849,8.56453 -3.70986,12.84678 0.14861,4.28229 1.92799,8.56456 4.44466,12.84686 2.51669,4.28228 5.66467,8.56453 7.87365,12.84683 2.20902,4.28224 3.37876,8.56454 2.93153,12.84676 -0.44738,4.28232 -2.49932,8.56458 -5.12739,12.84689 -2.62803,4.28222 -5.72017,8.56451 -7.73493,12.84677 -2.01448,4.28228 -2.85938,8.56454 -2.11879,12.84683 0.74056,4.28229 4.71997,10.83281 7.41466,15.08363 2.7599,4.25078 5.47202,8.53308 6.77262,12.81535 z"
       style="fill:#f5cdcd;fill-opacity:1;stroke:#f67b89;stroke-width:1.00000024;stroke-linejoin:miter;stroke-miterlimit:4;stroke-opacity:1;stroke-dasharray:none;stroke-dashoffset:5.5;display:inline"
       inkscape:connector-curvature="0" />
    <path
       inkscape:connector-curvature="0"
       style="fill:#f5cdcd;fill-opacity:1;stroke:#f67b89;stroke-width:1.00000024;stroke-linejoin:miter;stroke-miterlimit:4;stroke-opacity:1;stroke-dasharray:none;stroke-dashoffset:5.5;display:inline"
       d="m 85.38067,170.29271 c 1.30054,4.28229 1.1265,8.56455 -0.42851,12.84685 -1.55533,4.28227 -4.4305,8.56454 -7.18808,12.8468 -2.7576,4.28226 -5.27711,8.56457 -6.30515,12.84684 -1.02806,4.28227 -0.51346,8.56451 1.2813,12.84681 1.79455,4.28231 4.79637,8.56455 7.50556,12.84684 2.7091,4.28226 5.00644,8.56456 5.74996,12.84682 0.74345,4.28226 -0.10602,8.56454 -2.1189,12.84681 -2.01265,4.28225 -5.10595,8.56452 -7.73491,12.84684 -2.62897,4.2823 -4.67713,8.56452 -5.12736,12.84685 -0.45013,4.28221 0.72435,8.56452 2.93158,12.84683 2.20716,4.28221 5.35568,8.56453 7.87361,12.84678 2.51798,4.28222 4.29298,8.56457 4.44461,12.84684 0.15191,4.28224 -1.33394,8.56455 -3.7098,12.84681 -2.37584,4.28226 -5.54263,8.56453 -7.92005,12.84683 -2.37742,4.28223 -3.85849,8.56454 -3.70988,12.84675 0.14863,4.28234 1.92802,8.56461 4.44466,12.84691 2.51671,4.28226 5.66467,8.56451 7.87365,12.84684 2.20902,4.28221 3.37877,8.56452 2.93156,12.84674 -0.4474,4.2823 -2.49934,8.56456 -5.12743,12.8469 -2.62799,4.28223 -5.72015,8.56453 -7.7349,12.84675 -2.01467,4.2823 -2.85938,8.56458 -2.11879,12.84682 0.74054,4.2823 4.7095,11.19494 7.40943,15.46978 2.76512,4.27484 5.47723,8.55715 6.77784,12.83941 1.30054,4.28226 1.1265,8.56452 -0.42851,12.84684 -1.55533,4.28226 -4.4305,8.56452 -7.18808,12.84678 -2.7576,4.28228 -5.27711,8.5646 -6.30515,12.84685 -1.02806,4.28227 -0.51346,8.56454 1.2813,12.84685 1.79455,4.28226 4.79637,8.56452 7.50556,12.8468 2.7091,4.28225 5.00644,8.56456 5.74996,12.84682 0.74345,4.28227 -0.10602,8.56455 -2.1189,12.84682 -2.01265,4.28226 -5.10595,8.56453 -7.73491,12.84682 -2.62897,4.28231 -4.67713,8.56453 -5.12736,12.84687 -0.45013,4.28218 0.72435,8.56448 2.93158,12.84683 2.20716,4.28222 5.35568,8.56456 7.87361,12.84676 2.51798,4.2823 4.2931,8.5646 4.44461,12.8469 0.15191,4.2822 -1.33394,8.5645 -3.7098,12.8468 -2.37584,4.2822 -5.54263,8.5645 -7.92005,12.8468 -2.37742,4.2822 -3.85849,8.5645 -3.70988,12.8468 0.14863,4.2823 1.92802,8.5645 4.44466,12.8468 2.51671,4.2823 5.66467,8.5646 7.87365,12.8468 2.20902,4.2823 3.37877,8.5646 2.93156,12.8469 -0.4474,4.2823 -2.49934,8.5645 -5.12743,12.8468 -2.62799,4.2822 -5.72015,8.5646 -7.7349,12.8468 -2.01451,4.2823 -2.85938,8.5645 -2.11879,12.8468 0.74054,4.2823 3.04143,8.5646 5.74994,12.8469 2.70851,4.2822 5.70866,8.5645 7.50549,12.8468 1.79678,4.2822 2.3066,8.5645 1.28129,12.8468 -1.02526,4.2823 -3.54788,8.5646 -6.30506,12.8468 -2.7573,4.2823 -5.63034,8.5645 -7.18811,12.8468 -1.5578,4.2823 -1.72671,8.5646 -0.4285,12.8468 1.29786,4.2823 4.01272,8.5647 6.78636,12.8469 l -40.49344,2.2787 c 3.30689,-4.001 6.40018,-8.2833 8.41284,-12.5655 2.01295,-4.2823 2.86234,-8.5646 2.11888,-12.8468 -0.7435,-4.2823 -3.04083,-8.5646 -5.74993,-12.8469 -2.7092,-4.2823 -6.5513,-9.4048 -8.47564,-15.5829 -1.25992,-4.1613 -1.09099,-8.4436 0.46681,-12.7259 1.55775,-4.2823 4.43076,-8.5645 7.18807,-12.8467 2.75719,-4.2823 5.27983,-8.5646 6.30509,-12.8469 1.02529,-4.2823 0.51548,-8.5645 -1.2813,-12.8468 -1.79681,-4.2823 -4.79697,-8.5646 -7.50551,-12.8468 -2.70849,-4.2823 -5.0094,-8.5646 -5.74993,-12.8469 -0.74057,-4.2822 0.10432,-8.5645 2.1188,-12.8468 2.01476,-4.2822 5.10692,-8.5646 7.73491,-12.8468 2.62808,-4.2823 4.68003,-8.5645 5.12742,-12.8468 0.44722,-4.2823 -0.72255,-8.5646 -2.93154,-12.8468 -2.20902,-4.2823 -5.35697,-8.5646 -7.87367,-12.8468 -2.51665,-4.2824 -4.29601,-8.5646 -4.44464,-12.8469 -0.14877,-4.2822 1.33244,-8.5646 3.70986,-12.8468 2.37742,-4.2823 5.54421,-8.56454 7.92003,-12.84682 2.37589,-4.28225 3.86176,-8.56455 3.7098,-12.84681 -0.15158,-4.2823 -1.92661,-8.56461 -4.44459,-12.84684 -2.51792,-4.28223 -5.66646,-8.56458 -7.87361,-12.84678 -2.20725,-4.2823 -3.38173,-8.56461 -2.93159,-12.84682 0.45022,-4.28231 2.49841,-8.56456 5.12736,-12.84688 2.62897,-4.28228 5.72226,-8.56457 7.73492,-12.84682 2.01295,-4.28228 2.86234,-8.56453 2.11888,-12.84679 -0.7435,-4.28229 -3.04083,-8.56458 -5.74993,-12.84683 -2.7092,-4.28228 -5.71103,-8.56455 -7.50558,-12.84684 -1.79476,-4.28231 -2.30934,-8.56455 -1.2813,-12.84683 1.02805,-4.28225 3.54756,-8.56455 6.30516,-12.84678 2.75755,-4.2823 5.63276,-8.56456 7.18808,-12.84684 1.55503,-4.28232 1.729,-8.56457 0.46764,-12.78801 -1.81711,-5.14435 -5.76794,-11.23889 -8.47648,-15.52118 -2.70849,-4.28224 -5.0094,-8.5645 -5.74993,-12.84683 -0.74057,-4.28227 0.10432,-8.56455 2.1188,-12.84686 2.01476,-4.2822 5.10692,-8.56451 7.73491,-12.84672 2.62808,-4.28233 4.68003,-8.56459 5.12742,-12.8469 0.44722,-4.2822 -0.72255,-8.56453 -2.93154,-12.84677 -2.20902,-4.28232 -5.35697,-8.56456 -7.87367,-12.84682 -2.51665,-4.28232 -4.29601,-8.56458 -4.44464,-12.84688 -0.14877,-4.28222 1.33244,-8.56453 3.70986,-12.84674 2.37742,-4.28234 5.54421,-8.56458 7.92003,-12.84688 2.37589,-4.28225 3.86176,-8.56455 3.7098,-12.84679 -0.15158,-4.28229 -1.92661,-8.5646 -4.44459,-12.84683 -2.51792,-4.28225 -5.66646,-8.56457 -7.87361,-12.8468 -2.20725,-4.2823 -3.38173,-8.56462 -2.93159,-12.84684 0.45022,-4.2823 2.49841,-8.56453 5.12736,-12.84684 2.62897,-4.2823 5.72226,-8.56458 7.73492,-12.84682 2.01295,-4.28227 2.86234,-8.56454 2.11888,-12.84682 -0.7435,-4.28228 -3.04083,-8.56458 -5.74993,-12.84683 -2.7092,-4.28228 -5.71103,-8.56454 -7.50558,-12.84679 -1.79476,-4.28231 -2.30934,-8.56458 -1.2813,-12.84684 1.02805,-4.28227 3.54756,-8.56459 6.30516,-12.84684 2.75755,-4.28229 5.63276,-8.56455 7.18808,-12.84682 1.55503,-4.2823 1.729,-8.56456 0.4285,-12.84682 -1.30061,-4.28228 -4.0127,-8.56453 -6.77635,-12.8151 -2.69846,-4.25055 -6.25977,-10.80159 -7.00032,-15.08389 -0.7406,-4.28226 0.1043,-8.56453 2.11879,-12.84686 2.01477,-4.28222 5.10691,-8.56451 7.73493,-12.84675 2.62804,-4.2823 4.68,-8.56457 5.12739,-12.84688 0.44722,-4.28221 -0.72251,-8.56452 -2.93152,-12.84674 -2.209,-4.28231 -5.35696,-8.5646 -7.87366,-12.84686 -2.51668,-4.2823 -4.29604,-8.56457 -4.44467,-12.84688 -0.14878,-4.28221 1.33248,-8.56451 3.70985,-12.84674 2.37743,-4.2823 5.54424,-8.56458 7.92007,-12.84683 2.37589,-4.28229 3.86171,-8.5646 3.70981,-12.84681 -0.15158,-4.28232 -1.92663,-8.56463 -4.44461,-12.84684 -2.51794,-4.28228 -5.66648,-8.56458 -7.87363,-12.84681 -2.20722,-4.28231 -3.38168,-8.56461 -2.93157,-12.84685 0.45022,-4.28231 2.49841,-8.56453 5.12735,-12.84684 2.62896,-4.2823 5.72228,-8.56456 7.73493,-12.84682 2.01294,-4.28227 2.86235,-8.56453 2.11889,-12.8468 -0.74351,-4.28226 -3.04085,-8.56455 -5.74995,-12.84686 -2.70916,-4.28222 -5.71101,-8.56453 -7.50556,-12.84678 -1.79474,-4.28226 -2.30937,-8.56453 -1.28131,-12.84684 1.02804,-4.28226 3.54753,-8.56452 6.30514,-12.84678 2.75758,-4.28232 5.63275,-8.56457 7.1881,-12.84686 1.55501,-4.28226 1.72904,-8.56454 0.42849,-12.84683 -1.30058,-4.28229 -4.01271,-8.56454 -6.78636,-12.84679 l 31.40947,3.26763 5.46021,35.47808 c 2.85602,4.13211 5.56813,8.4144 6.86874,12.69666 1.30054,4.2823 1.1265,8.56456 -0.42851,12.84684 -1.55533,4.2823 -4.4305,8.56452 -7.18808,12.84683 -2.7576,4.28226 -5.27711,8.56453 -6.30515,12.84679 -1.02806,4.28232 -0.51346,8.56459 1.2813,12.84685 1.79455,4.28226 4.79637,8.56458 7.50556,12.84679 2.7091,4.2823 5.00644,8.56458 5.74996,12.84684 0.74345,4.28227 -0.10602,8.56453 -2.1189,12.84682 -2.01265,4.28225 -5.10595,8.56451 -7.73491,12.84683 -2.62897,4.28231 -4.67713,8.56453 -5.12736,12.84683 -0.45013,4.28223 0.72435,8.56454 2.93158,12.84684 2.20716,4.28223 5.35568,8.56455 7.87361,12.84682 2.51798,4.28221 4.2931,8.56453 4.44461,12.84683 0.15191,4.28221 -1.33394,8.56452 -3.7098,12.84679 -2.37584,4.28226 -5.54263,8.56453 -7.92005,12.84684 -2.37742,4.28225 -3.85849,8.56454 -3.70988,12.84677 0.14863,4.2823 1.92802,8.56457 4.44466,12.84688 2.51671,4.28224 5.66467,8.56451 7.87365,12.84683 2.20902,4.28222 3.37877,8.56453 2.93156,12.84676 -0.4474,4.2823 -2.49934,8.56457 -5.12743,12.84686 -2.62799,4.28225 -5.72015,8.56455 -7.7349,12.84676 -2.01451,4.28233 -2.85938,8.56457 -2.11879,12.84684 0.74054,4.28232 4.71993,10.83284 7.41467,15.08364 2.75988,4.25079 5.47199,8.53308 6.7726,12.81535 z"
       title="t sin(5*t)"
       id="path5643"
       sodipodi:nodetypes="ccssccscscsscssssscscccccssccscscsscssssscsccsssccccccsccccsssccscssssscsscscsccscccsccscssssscsscscsccsccccccscssssscsscscsccsscccccccssccscscsscssssscscccc" />
    <path
       style="fill:none;stroke:#000000;stroke-width:1.00000024px;stroke-linecap:butt;stroke-linejoin:miter;stroke-opacity:1;display:inline"
       d="m 405.37323,807.9158 0,-872.72278"
       id="path3047"
       inkscape:connector-curvature="0"
       sodipodi:nodetypes="cc" />
    <path
       sodipodi:nodetypes="cc"
       inkscape:connector-curvature="0"
       id="path3049"
       d="m 290.40642,810.7895 0,-872.72282"
       style="fill:none;stroke:#f67b89;stroke-width:1.00000024px;stroke-linecap:butt;stroke-linejoin:miter;stroke-opacity:1;display:inline" />
    <path
       style="fill:none;stroke:#000000;stroke-width:1.00000024px;stroke-linecap:butt;stroke-linejoin:miter;stroke-opacity:1;display:inline"
       d="m 175.43965,812.0213 0,-947.3405"
       id="path3051"
       inkscape:connector-curvature="0"
       sodipodi:nodetypes="cc" />
    <path
       sodipodi:nodetypes="cc"
       inkscape:connector-curvature="0"
       id="path3053"
       d="m 60.47287,814.8955 0,-968.85197"
       style="fill:none;stroke:#f67b89;stroke-width:1.00000024px;stroke-linecap:butt;stroke-linejoin:miter;stroke-opacity:1;display:inline" />
    <path
       style="fill:none;stroke:#000000;stroke-width:1.00000024px;stroke-linecap:butt;stroke-linejoin:miter;stroke-opacity:1;display:inline"
       d="m -54.493925,816.1273 0,-974.2298"
       id="path3055"
       inkscape:connector-curvature="0"
       sodipodi:nodetypes="cc" />
    <path
       sodipodi:nodetypes="cc"
       inkscape:connector-curvature="0"
       id="path3057"
       d="m -169.46072,817.7696 0,-937.25701"
       style="fill:none;stroke:#f67b89;stroke-width:1.00000024px;stroke-linecap:butt;stroke-linejoin:miter;stroke-opacity:1;display:inline" />
  </g>
</svg>
