<?xml version="1.0" encoding="UTF-8" standalone="no"?>
<svg
xmlns="http://www.w3.org/2000/svg"
xmlns:dc="http://purl.org/dc/elements/1.1/"
xmlns:cc="http://creativecommons.org/ns#"
xmlns:rdf="http://www.w3.org/1999/02/22-rdf-syntax-ns#"
xmlns:svg="http://www.w3.org/2000/svg"
xmlns:xlink="http://www.w3.org/1999/xlink"
xmlns:sodipodi="http://sodipodi.sourceforge.net/DTD/sodipodi-0.dtd"
xmlns:inkscape="http://www.inkscape.org/namespaces/inkscape"
width="383.0px"
height="495.0px"
viewBox="2.5 2.5 383.0 495.0"
sodipodi:docname="frame01_highlight_06-xxhdpi.svg">
<g
sodipodi:insensitive="true"
id="frame_frame01-highlight_6"
inkscape:groupmode="layer"
inkscape:label="frame01_highlight_06-xxhdpi"
style="opacity:1.0;display:inline">
<path
sodipodi:nodetypes="ccccccc"
style="fill:#efefab;fill-opacity:0.84313725;fill-rule:evenodd;stroke:none;stroke-width:1px;stroke-linecap:butt;stroke-linejoin:miter;stroke-opacity:1"
d="m
35.191954,383.64727
c
0.23,2.23843
0.189531,10.33146
0.258311,11.71359
0.197712,4.07946
0.115748,11.7776
-0.130928,16.53934
-0.498601,5.09726
-1.550538,11.42275
-2.61283,16.05376
-2.371707,-5.36598
-2.726635,-17.40559
-2.607698,-29.50649
-0.257514,-8.63138
-0.05501,-17.85344
2.256156,-24.61139
0.710767,3.18643
2.40271,5.55665
2.836989,9.81119
z"
id="path11713"
inkscape:connector-curvature="0"/>
<path
sodipodi:nodetypes="cccccccc"
style="display:inline;opacity:1;fill:#efefab;fill-opacity:0.84313725;fill-rule:evenodd;stroke:none;stroke-width:1px;stroke-linecap:butt;stroke-linejoin:miter;stroke-opacity:1"
d="m
350.50914,38.18796
c
-2.23877,0.22667
-11.18865,-0.22135
-12.57088,-0.15463
-4.07975,0.19164
-11.77776,0.0982
-16.53913,-0.15556
-5.09651,-0.50619
-9.53121,-2.73625
-14.0288,-4.46461
7.88465,-0.22527
18.64588,-0.31199
30.74659,-0.17503
6.32275,-0.0932
16.72212,-0.41713
19.22047,1.32671
0.50746,1.56489
0.84968,6.45059
0.77822,8.39314
-2.62154,-4.55875
-3.35129,-5.19796
-7.60647,-4.77002
z"
id="path12820-8-5"
inkscape:connector-curvature="0"/>
</g>
</svg>
