<?xml version="1.0" encoding="UTF-8" standalone="no"?>
<svg
xmlns="http://www.w3.org/2000/svg"
xmlns:dc="http://purl.org/dc/elements/1.1/"
xmlns:cc="http://creativecommons.org/ns#"
xmlns:rdf="http://www.w3.org/1999/02/22-rdf-syntax-ns#"
xmlns:svg="http://www.w3.org/2000/svg"
xmlns:xlink="http://www.w3.org/1999/xlink"
xmlns:sodipodi="http://sodipodi.sourceforge.net/DTD/sodipodi-0.dtd"
xmlns:inkscape="http://www.inkscape.org/namespaces/inkscape"
width="383.0px"
height="495.0px"
viewBox="2.5 2.5 383.0 495.0"
sodipodi:docname="frame01_highlight_13-xxhdpi.svg">
<g
id="frame_frame01-highlight_12"
inkscape:groupmode="layer"
inkscape:label="frame01_highlight_13-xxhdpi"
style="opacity:1.0;display:inline"
sodipodi:insensitive="true">
<path
sodipodi:nodetypes="cccccccc"
style="opacity:1;fill:#efefab;fill-opacity:0.84313725;fill-rule:evenodd;stroke:none;stroke-width:1px;stroke-linecap:butt;stroke-linejoin:miter;stroke-opacity:1"
d="m
138.77361,486.67919
c
-3.76579,-1.58115
-10.43083,-5.16981
-14.62048,-7.44616
-5.7792,-2.57084
-7.68142,-4.6109
-11.96262,-6.47205
6.06535,-1.14359
11.96934,0.16592
25.28776,7.75476
5.60002,2.50451
4.23749,2.52314
11.5685,5.50754
1.41633,0.71707
8.6002,3.45807
11.52468,6.80021
-2.26327,0.39577
-5.41946,0.52558
-10.11265,-1.02608
-4.59997,-1.59826
-10.40858,-4.58414
-11.68519,-5.11822
z"
id="path18322"
inkscape:connector-curvature="0"/>
<path
sodipodi:nodetypes="ccccccc"
style="display:inline;opacity:1;fill:#efefab;fill-opacity:0.84313725;fill-rule:evenodd;stroke:none;stroke-width:1px;stroke-linecap:butt;stroke-linejoin:miter;stroke-opacity:1"
d="m
366.97814,162.6262
c
0.30919,1.46727
2.78846,8.96468
3.26668,10.26326
1.40642,3.83446
4.95617,11.0955
6.14213,15.71377
1.04567,5.01371
3.23325,9.68957
-0.56096,16.35598
-2.63065,-11.68287
-4.74574,-17.59167
-9.75373,-28.61266
-2.90517,-7.84788
-6.22218,-20.82598
-3.47264,-24.43552
2.5124,3.95278
3.2657,7.26891
4.37852,10.71517
z"
id="path8440-7"
inkscape:connector-curvature="0"/>
</g>
</svg>
