<?xml version="1.0" encoding="UTF-8" standalone="no"?>
<svg
xmlns="http://www.w3.org/2000/svg"
xmlns:dc="http://purl.org/dc/elements/1.1/"
xmlns:cc="http://creativecommons.org/ns#"
xmlns:rdf="http://www.w3.org/1999/02/22-rdf-syntax-ns#"
xmlns:svg="http://www.w3.org/2000/svg"
xmlns:xlink="http://www.w3.org/1999/xlink"
xmlns:sodipodi="http://sodipodi.sourceforge.net/DTD/sodipodi-0.dtd"
xmlns:inkscape="http://www.inkscape.org/namespaces/inkscape"
width="383.0px"
height="495.0px"
viewBox="2.5 2.5 383.0 495.0"
sodipodi:docname="frame01_highlight_07-xxhdpi.svg">
<g
sodipodi:insensitive="true"
id="frame_frame01-highlight_7"
inkscape:groupmode="layer"
inkscape:label="frame01_highlight_07-xxhdpi"
style="opacity:1.0;display:inline">
<path
sodipodi:nodetypes="ccccccc"
style="fill:#efefab;fill-opacity:0.84313725;fill-rule:evenodd;stroke:none;stroke-width:1px;stroke-linecap:butt;stroke-linejoin:miter;stroke-opacity:1"
d="m
35.867115,404.62777
c
0.23,2.23843
0.189531,10.33146
0.258311,11.71359
0.197712,4.07946
0.115748,11.7776
-0.130928,16.53934
-0.498601,5.09726
-1.830199,10.30411
-2.892491,14.93512
-1.159843,-7.88293
-2.260533,-18.05813
-2.141596,-30.15903
-0.139001,-8.56366
0.904057,-16.38652
1.790054,-23.95885
0.710767,3.18643
2.682371,6.67529
3.11665,10.92983
z"
id="path12820"
inkscape:connector-curvature="0"/>
<path
sodipodi:nodetypes="ccccccccc"
style="display:inline;opacity:1;fill:#efefab;fill-opacity:0.84313725;fill-rule:evenodd;stroke:none;stroke-width:1px;stroke-linecap:butt;stroke-linejoin:miter;stroke-opacity:1"
d="m
353.18658,56.78759
c
-0.23,-2.23843
-0.0497,-8.6535
-0.11848,-10.03563
-0.1089,-2.24702
-0.13212,-5.34639
-0.86846,-8.456
-1.75953,-0.16092
-2.84023,-0.49103
-7.29723,-0.5791
-4.25563,-0.6693
-4.69522,-1.82106
-6.89564,-4.91393
5.56684,0.36678
13.81587,-0.73687
19.10344,-0.22242
0.6794,2.06901
0.77024,5.06762
0.9111,8.6931
0.139,8.56366
1.00696,14.84839
0.12096,22.42072
-0.71076,-3.18643
-4.52141,-2.6522
-4.95569,-6.90674
z"
id="path13919-4"
inkscape:connector-curvature="0"/>
</g>
</svg>
