<?xml version="1.0" encoding="UTF-8" standalone="no"?>
<svg
xmlns="http://www.w3.org/2000/svg"
xmlns:dc="http://purl.org/dc/elements/1.1/"
xmlns:cc="http://creativecommons.org/ns#"
xmlns:rdf="http://www.w3.org/1999/02/22-rdf-syntax-ns#"
xmlns:svg="http://www.w3.org/2000/svg"
xmlns:xlink="http://www.w3.org/1999/xlink"
xmlns:sodipodi="http://sodipodi.sourceforge.net/DTD/sodipodi-0.dtd"
xmlns:inkscape="http://www.inkscape.org/namespaces/inkscape"
width="383.0px"
height="495.0px"
viewBox="2.5 2.5 383.0 495.0"
sodipodi:docname="frame01_highlight_01-xxhdpi.svg">
<g
sodipodi:insensitive="true"
id="frame_frame01-highlight_1"
inkscape:groupmode="layer"
inkscape:label="frame01_highlight_01-xxhdpi"
style="opacity:1.0;display:inline">
<path
style="fill:none;fill-rule:evenodd;stroke:#efefab;stroke-width:4;stroke-linecap:butt;stroke-linejoin:miter;stroke-miterlimit:4;stroke-dasharray:none;stroke-opacity:1"
d="m
-166.81665,28.50042
c
-3.37676,7.87855
-6.08726,16.55025
5.00967,41.65938
18.3232,51.52798
14.62883,79.86304
14.50168,132.88814
l
1.05467,23.46636
c
24.63889,2.32724
63.165471,-3.51074
91.75609,11.07401
13.96321,5.51472
31.16044,17.4975
40.07738,12.91968"
id="path6819"
inkscape:connector-curvature="0"
sodipodi:nodetypes="cccccc"/>
<path
style="fill:none;fill-rule:evenodd;stroke:#000000;stroke-width:1;stroke-linecap:butt;stroke-linejoin:miter;stroke-miterlimit:4;stroke-dasharray:none;stroke-opacity:1"
d="m
215.15223,-221.45584
c
4.53902,-8.36933
18.46288,-7.71551
29.9365,-0.95321
19.53179,8.46429
32.8539,18.23687
71.3116,17.30056
l
42.18671,-1.05467
c
-3.06847,24.4809
-2.98432,50.53812
-2.10933,76.99075
2.41434,33.77711
5.63983,47.24018
15.60935,71.9084
4.04341,13.42826
12.72113,28.67173
2.32,39.88639"
id="path6821"
inkscape:connector-curvature="0"
sodipodi:nodetypes="ccccccc"/>
<path
style="fill:#efefab;fill-opacity:1;fill-rule:evenodd;stroke:none;stroke-width:1px;stroke-linecap:butt;stroke-linejoin:miter;stroke-opacity:1"
d="m
-276.20339,62.37287
2.98305,-29.08474
14.16949,-24.61017
-2.98305,25.35593
-0.74576,56.67797
-8.94916,13.42373
z"
id="path6827"
inkscape:connector-curvature="0"/>
</g>
</svg>
