<?xml version="1.0" encoding="UTF-8" standalone="no"?>
<svg
xmlns="http://www.w3.org/2000/svg"
xmlns:dc="http://purl.org/dc/elements/1.1/"
xmlns:cc="http://creativecommons.org/ns#"
xmlns:rdf="http://www.w3.org/1999/02/22-rdf-syntax-ns#"
xmlns:svg="http://www.w3.org/2000/svg"
xmlns:xlink="http://www.w3.org/1999/xlink"
xmlns:sodipodi="http://sodipodi.sourceforge.net/DTD/sodipodi-0.dtd"
xmlns:inkscape="http://www.inkscape.org/namespaces/inkscape"
width="383.0px"
height="495.0px"
viewBox="2.5 2.5 383.0 495.0"
sodipodi:docname="frame01_highlight_12-xxhdpi.svg">
<g
sodipodi:insensitive="true"
id="frame_frame01-highlight_11"
inkscape:groupmode="layer"
inkscape:label="frame01_highlight_12-xxhdpi"
style="opacity:1.0;display:inline">
<path
sodipodi:nodetypes="cccccccc"
style="opacity:1;fill:#efefab;fill-opacity:0.84313725;fill-rule:evenodd;stroke:none;stroke-width:1px;stroke-linecap:butt;stroke-linejoin:miter;stroke-opacity:1"
d="m
98.522581,466.32616
c
2.182839,0.0192
11.808959,2.35205
13.131799,2.75837
3.90267,1.20428
10.04341,4.11159
14.43608,5.96616
4.62227,2.20575
8.63511,6.98674
12.27922,10.13887
-6.38551,-2.34461
-14.66177,-6.05498
-26.13497,-10.42187
-5.97915,-2.05809
-6.279,-1.83491
-13.046537,-3.49936
-1.479811,-0.57474
-8.274025,-2.23217
-12.007486,-2.69349
2.213551,-0.61579
5.240029,-2.47077
11.341894,-2.24868
z"
id="path17219"
inkscape:connector-curvature="0"/>
<path
sodipodi:nodetypes="ccccccc"
style="display:inline;opacity:1;fill:#efefab;fill-opacity:0.84313725;fill-rule:evenodd;stroke:none;stroke-width:1px;stroke-linecap:butt;stroke-linejoin:miter;stroke-opacity:1"
d="m
364.4422,167.7018
c
-0.20437,-1.4855
-3.16105,-9.62754
-3.54596,-10.95676
-1.13097,-3.92455
-2.47334,-11.66315
-3.32881,-16.35391
-0.68749,-5.07523
-1.43149,-15.13967
0.35012,-19.17971
2.3258,8.99265
4.21181,19.53301
7.26935,30.95727
2.10549,8.30196
3.92556,15.02905
4.50357,22.38541
-2.38637,-1.55915
-3.8468,-2.8118
-5.24826,-6.8523
z"
id="path9523-0"
inkscape:connector-curvature="0"/>
</g>
</svg>
