<?xml version="1.0" encoding="UTF-8" standalone="no"?>
<svg
xmlns="http://www.w3.org/2000/svg"
xmlns:dc="http://purl.org/dc/elements/1.1/"
xmlns:cc="http://creativecommons.org/ns#"
xmlns:rdf="http://www.w3.org/1999/02/22-rdf-syntax-ns#"
xmlns:svg="http://www.w3.org/2000/svg"
xmlns:xlink="http://www.w3.org/1999/xlink"
xmlns:sodipodi="http://sodipodi.sourceforge.net/DTD/sodipodi-0.dtd"
xmlns:inkscape="http://www.inkscape.org/namespaces/inkscape"
width="383.0px"
height="495.0px"
viewBox="2.5 2.5 383.0 495.0"
sodipodi:docname="frame01_highlight_14-xxhdpi.svg">
<g
id="frame_frame01-highlight_13"
inkscape:groupmode="layer"
inkscape:label="frame01_highlight_14-xxhdpi"
style="opacity:1.0;display:inline"
sodipodi:insensitive="true">
<path
sodipodi:nodetypes="cccccccc"
style="opacity:1;fill:#efefab;fill-opacity:0.84313725;fill-rule:evenodd;stroke:none;stroke-width:1px;stroke-linecap:butt;stroke-linejoin:miter;stroke-opacity:1"
d="m
159.90453,493.19405
c
2.91416,0.24091
5.13631,0.37576
8.77443,-0.78186
4.66075,-1.53964
8.47554,-7.22287
3.42112,-10.72654
-0.74178,3.05471
-0.70439,4.90736
-5.47363,6.87181
-3.687,0.53451
-8.65071,0.92112
-15.98086,-2.06539
-1.51432,-0.47646
-7.9513,-2.99965
-11.06054,-2.27005
1.3428,1.86438
5.31803,3.97008
9.75992,6.13878
4.40776,2.07023
6.32174,2.48242
10.55956,2.83325
z"
id="path19429"
inkscape:connector-curvature="0"/>
<path
sodipodi:nodetypes="ccccccc"
style="display:inline;opacity:1;fill:#efefab;fill-opacity:0.84313725;fill-rule:evenodd;stroke:none;stroke-width:1px;stroke-linecap:butt;stroke-linejoin:miter;stroke-opacity:1"
d="m
377.64556,193.49928
c
4.45949,12.54872
3.58399,19.41969
2.54619,25.05672
-0.70451,3.10526
-3.95754,6.82398
-6.74111,7.29073
-2.28752,0.50309
-4.01532,-1.8847
-5.07251,-4.7211
8.1382,2.31868
6.28905,-14.59446
5.03343,-20.04573
-1.5159,-7.44908
-2.07872,-9.75283
-3.65353,-18.43776
2.3126,2.9618
5.88728,6.58022
7.88753,10.85714
z"
id="path7365-6"
inkscape:connector-curvature="0"/>
</g>
</svg>
