<?xml version="1.0" encoding="UTF-8" standalone="no"?>
<svg
xmlns="http://www.w3.org/2000/svg"
xmlns:dc="http://purl.org/dc/elements/1.1/"
xmlns:cc="http://creativecommons.org/ns#"
xmlns:rdf="http://www.w3.org/1999/02/22-rdf-syntax-ns#"
xmlns:svg="http://www.w3.org/2000/svg"
xmlns:xlink="http://www.w3.org/1999/xlink"
xmlns:sodipodi="http://sodipodi.sourceforge.net/DTD/sodipodi-0.dtd"
xmlns:inkscape="http://www.inkscape.org/namespaces/inkscape"
width="383.0px"
height="495.0px"
viewBox="2.5 2.5 383.0 495.0"
sodipodi:docname="frame01_highlight_10-xxhdpi.svg">
<g
sodipodi:insensitive="true"
id="frame_frame01-highlight_9"
inkscape:groupmode="layer"
inkscape:label="frame01_highlight_10-xxhdpi"
style="opacity:1.0;display:inline">
<path
sodipodi:nodetypes="cccccccc"
style="opacity:1;fill:#efefab;fill-opacity:0.84313725;fill-rule:evenodd;stroke:none;stroke-width:1px;stroke-linecap:butt;stroke-linejoin:miter;stroke-opacity:1"
d="m
40.476443,463.44048
c
2.23877,-0.22667
11.188649,0.22135
12.57088,0.15463
4.07975,-0.19164
11.777759,-0.0982
16.539126,0.15556
5.096512,0.50619
9.531216,2.73625
14.028805,4.46461
-7.884648,0.22527
-18.645878,0.31199
-30.746588,0.17503
-6.322758,0.0932
-16.722127,0.41713
-19.220473,-1.32671
-0.507463,-1.56489
-0.849685,-6.45059
-0.778219,-8.39314
2.621539,4.55875
3.351287,5.19796
7.606469,4.77002
z"
id="path12820-8"
inkscape:connector-curvature="0"/>
<path
sodipodi:nodetypes="ccccccc"
style="display:inline;opacity:1;fill:#efefab;fill-opacity:0.84313725;fill-rule:evenodd;stroke:none;stroke-width:1px;stroke-linecap:butt;stroke-linejoin:miter;stroke-opacity:1"
d="m
353.28148,120.16534
c
-0.23,-2.23843
-0.18953,-10.33146
-0.25831,-11.71359
-0.19772,-4.07946
-0.11575,-11.7776
0.13092,-16.53934
0.49861,-5.09726
1.55054,-11.42275
2.61283,-16.05376
2.37171,5.36598
2.72664,17.40559
2.6077,29.50649
0.25752,8.63138
0.055,17.85344
-2.25615,24.61139
-0.71077,-3.18643
-2.40271,-5.55665
-2.83699,-9.81119
z"
id="path11713-4"
inkscape:connector-curvature="0"/>
</g>
</svg>
