<?xml version="1.0" encoding="UTF-8" standalone="no"?>
<svg
xmlns="http://www.w3.org/2000/svg"
xmlns:dc="http://purl.org/dc/elements/1.1/"
xmlns:cc="http://creativecommons.org/ns#"
xmlns:rdf="http://www.w3.org/1999/02/22-rdf-syntax-ns#"
xmlns:svg="http://www.w3.org/2000/svg"
xmlns:xlink="http://www.w3.org/1999/xlink"
xmlns:sodipodi="http://sodipodi.sourceforge.net/DTD/sodipodi-0.dtd"
xmlns:inkscape="http://www.inkscape.org/namespaces/inkscape"
width="383.0px"
height="495.0px"
viewBox="2.5 2.5 383.0 495.0"
sodipodi:docname="frame01_highlight_04-xxhdpi.svg">
<g
sodipodi:insensitive="true"
id="frame_frame01-highlight_4"
inkscape:groupmode="layer"
inkscape:label="frame01_highlight_04-xxhdpi"
style="opacity:1.0;display:inline">
<path
sodipodi:nodetypes="ccccccc"
style="fill:#efefab;fill-opacity:0.84313725;fill-rule:evenodd;stroke:none;stroke-width:1px;stroke-linecap:butt;stroke-linejoin:miter;stroke-opacity:1"
d="m
23.003062,315.80263
c
0.23574,1.48085
3.363954,9.55853
3.776902,10.87932
1.213711,3.89975
2.71946,11.60823
3.673941,16.27984
0.794671,5.05956
1.751371,15.10601
0.05561,19.18283
-2.515462,-8.94145
-4.623984,-19.43956
-7.922458,-30.7966
-2.280608,-8.25557
-4.242546,-14.94266
-4.976005,-22.28515
2.418806,1.50833
3.905409,2.72981
5.392012,6.73976
z"
id="path9523"
inkscape:connector-curvature="0"/>
<path
sodipodi:nodetypes="cccccccc"
style="display:inline;opacity:1;fill:#efefab;fill-opacity:0.84313725;fill-rule:evenodd;stroke:none;stroke-width:1px;stroke-linecap:butt;stroke-linejoin:miter;stroke-opacity:1"
d="m
290.04822,36.93136
c
-2.18284,-0.0192
-11.80896,-2.35205
-13.1318,-2.75837
-3.90267,-1.20428
-10.04341,-4.11159
-14.43608,-5.96616
-4.62227,-2.20575
-8.63511,-6.98674
-12.27922,-10.13887
6.38551,2.34461
14.66177,6.05498
26.13497,10.42187
5.97915,2.05809
6.279,1.83491
13.04654,3.49936
1.47981,0.57474
8.27403,2.23217
12.00749,2.69349
-2.21355,0.61579
-5.24003,2.47077
-11.3419,2.24868
z"
id="path17219-3"
inkscape:connector-curvature="0"/>
</g>
</svg>
