<?xml version="1.0" encoding="UTF-8" standalone="no"?>
<svg
xmlns="http://www.w3.org/2000/svg"
xmlns:dc="http://purl.org/dc/elements/1.1/"
xmlns:cc="http://creativecommons.org/ns#"
xmlns:rdf="http://www.w3.org/1999/02/22-rdf-syntax-ns#"
xmlns:svg="http://www.w3.org/2000/svg"
xmlns:xlink="http://www.w3.org/1999/xlink"
xmlns:sodipodi="http://sodipodi.sourceforge.net/DTD/sodipodi-0.dtd"
xmlns:inkscape="http://www.inkscape.org/namespaces/inkscape"
width="383.0px"
height="495.0px"
viewBox="2.5 2.5 383.0 495.0"
sodipodi:docname="frame01_highlight_09-xxhdpi.svg">
<g
sodipodi:insensitive="true"
id="frame_frame01-highlight_8"
inkscape:groupmode="layer"
inkscape:label="frame01_highlight_09-xxhdpi"
style="opacity:1.0;display:inline">
<path
sodipodi:nodetypes="ccccccccc"
style="fill:#efefab;fill-opacity:0.84313725;fill-rule:evenodd;stroke:none;stroke-width:1px;stroke-linecap:butt;stroke-linejoin:miter;stroke-opacity:1"
d="m
36.100166,444.20404
c
0.23,2.23843
0.0497,8.6535
0.118481,10.03563
0.108902,2.24702
0.132114,5.34639
0.868455,8.456
1.759537,0.16092
2.840235,0.49103
7.297228,0.5791
4.255636,0.6693
4.695224,1.82106
6.895644,4.91393
-5.566835,-0.36678
-13.815865,0.73687
-19.103441,0.22242
-0.679395,-2.06901
-0.770242,-5.06762
-0.911098,-8.6931
-0.139001,-8.56366
-1.00696,-14.84839
-0.120963,-22.42072
0.710767,3.18643
4.521415,2.6522
4.955694,6.90674
z"
id="path13919"
inkscape:connector-curvature="0"/>
<path
sodipodi:nodetypes="ccccccc"
style="display:inline;opacity:1;fill:#efefab;fill-opacity:0.84313725;fill-rule:evenodd;stroke:none;stroke-width:1px;stroke-linecap:butt;stroke-linejoin:miter;stroke-opacity:1"
d="m
353.56296,100.06297
c
-0.23,-2.238433
-0.18953,-10.33146
-0.25831,-11.71359
-0.19771,-4.07946
-0.11575,-11.7776
0.13093,-16.53934
0.4986,-5.09726
1.8302,-10.30411
2.89249,-14.93512
1.15984,7.88293
2.26053,18.05813
2.1416,30.15903
0.139,8.56366
-0.90406,16.38652
-1.79006,23.95885
-0.71076,-3.18643
-2.68237,-6.67529
-3.11665,-10.92983
z"
id="path12820-9"
inkscape:connector-curvature="0"/>
</g>
</svg>
