<?xml version="1.0" encoding="UTF-8" standalone="no"?>
<svg
xmlns="http://www.w3.org/2000/svg"
xmlns:dc="http://purl.org/dc/elements/1.1/"
xmlns:cc="http://creativecommons.org/ns#"
xmlns:rdf="http://www.w3.org/1999/02/22-rdf-syntax-ns#"
xmlns:svg="http://www.w3.org/2000/svg"
xmlns:xlink="http://www.w3.org/1999/xlink"
xmlns:sodipodi="http://sodipodi.sourceforge.net/DTD/sodipodi-0.dtd"
xmlns:inkscape="http://www.inkscape.org/namespaces/inkscape"
width="383.0px"
height="495.0px"
viewBox="2.5 2.5 383.0 495.0"
sodipodi:docname="frame01_highlight_08-xxhdpi.svg">
<g
sodipodi:insensitive="true"
id="frame_frame01-highlight_14"
inkscape:groupmode="layer"
inkscape:label="frame01_highlight_08-xxhdpi"
style="opacity:1.0;display:inline">
<path
sodipodi:nodetypes="ccccccc"
style="fill:#efefab;fill-opacity:0.84313725;fill-rule:evenodd;stroke:none;stroke-width:1px;stroke-linecap:butt;stroke-linejoin:miter;stroke-opacity:1"
d="m
35.867115,424.62777
c
0.23,2.23843
0.189531,10.33146
0.258311,11.71359
0.197712,4.07946
0.115748,11.7776
-0.130928,16.53934
-0.498601,5.09726
-1.830199,10.30411
-2.892491,14.93512
-1.159843,-7.88293
-2.260533,-18.05813
-2.141596,-30.15903
-0.139001,-8.56366
0.904057,-16.38652
1.790054,-23.95885
0.710767,3.18643
2.682371,6.67529
3.11665,10.92983
z"
id="path21443"
inkscape:connector-curvature="0"/>
<path
sodipodi:nodetypes="ccccccc"
style="display:inline;opacity:1;fill:#efefab;fill-opacity:0.84313725;fill-rule:evenodd;stroke:none;stroke-width:1px;stroke-linecap:butt;stroke-linejoin:miter;stroke-opacity:1"
d="m
353.08075,80.23079
c
-0.23,-2.23843
-0.18953,-10.33146
-0.25831,-11.71359
-0.19772,-4.07946
-0.11575,-11.7776
0.13092,-16.53934
0.4986,-5.09726
1.8302,-10.30411
2.89249,-14.93512
1.15985,7.88293
2.26054,18.05813
2.1416,30.15903
0.139,8.56366
-0.90406,16.38652
-1.79005,23.95885
-0.71077,-3.18643
-2.68237,-6.67529
-3.11665,-10.92983
z"
id="path21443-4"
inkscape:connector-curvature="0"/>
</g>
</svg>
