<?xml version="1.0" encoding="UTF-8" standalone="no"?>
<svg
xmlns="http://www.w3.org/2000/svg"
xmlns:dc="http://purl.org/dc/elements/1.1/"
xmlns:cc="http://creativecommons.org/ns#"
xmlns:rdf="http://www.w3.org/1999/02/22-rdf-syntax-ns#"
xmlns:svg="http://www.w3.org/2000/svg"
xmlns:xlink="http://www.w3.org/1999/xlink"
xmlns:sodipodi="http://sodipodi.sourceforge.net/DTD/sodipodi-0.dtd"
xmlns:inkscape="http://www.inkscape.org/namespaces/inkscape"
width="383.0px"
height="495.0px"
viewBox="2.5 2.5 383.0 495.0"
sodipodi:docname="frame01_highlight_03-xxhdpi.svg">
<g
sodipodi:insensitive="true"
id="frame_frame01-highlight_3"
inkscape:groupmode="layer"
inkscape:label="frame01_highlight_03-xxhdpi"
style="opacity:1.0;display:inline">
<path
sodipodi:nodetypes="ccccccc"
style="fill:#efefab;fill-opacity:0.84313725;fill-rule:evenodd;stroke:none;stroke-width:1px;stroke-linecap:butt;stroke-linejoin:miter;stroke-opacity:1"
d="m
20.244337,322.09442
c
-0.346492,-1.45891
-3.016028,-8.8907
-3.527183,-10.17667
-1.503694,-3.79738
-5.237339,-10.96559
-6.540614,-15.55214
-1.1731068,-4.98543
-3.4791375,-9.60402
0.143946,-16.36496
2.927538,11.61203
5.192524,17.46501
10.479764,28.35479
3.104231,7.77129
6.750915,20.66064
4.094266,24.33908
-2.612336,-3.88746
-3.449894,-7.18332
-4.650179,-10.6001
z"
id="path8440"
inkscape:connector-curvature="0"/>
<path
sodipodi:nodetypes="cccccccc"
style="display:inline;opacity:1;fill:#efefab;fill-opacity:0.84313725;fill-rule:evenodd;stroke:none;stroke-width:1px;stroke-linecap:butt;stroke-linejoin:miter;stroke-opacity:1"
d="m
251.13157,17.3996
c
3.76579,1.58115
10.43083,5.16981
14.62048,7.44616
5.7792,2.57084
7.68142,4.6109
11.96262,6.47205
-6.06535,1.14359
-11.96934,-0.16592
-25.28776,-7.75476
-5.60002,-2.50451
-4.23749,-2.52314
-11.5685,-5.50754
-1.41633,-0.71707
-8.6002,-3.45807
-11.52468,-6.80021
2.26327,-0.39577
5.41946,-0.52558
10.11265,1.02608
4.59997,1.59826
10.40858,4.58414
11.68519,5.11822
z"
id="path18322-2"
inkscape:connector-curvature="0"/>
</g>
</svg>
