<?xml version="1.0" encoding="UTF-8" standalone="no"?>
<svg
xmlns="http://www.w3.org/2000/svg"
xmlns:dc="http://purl.org/dc/elements/1.1/"
xmlns:cc="http://creativecommons.org/ns#"
xmlns:rdf="http://www.w3.org/1999/02/22-rdf-syntax-ns#"
xmlns:svg="http://www.w3.org/2000/svg"
xmlns:xlink="http://www.w3.org/1999/xlink"
xmlns:sodipodi="http://sodipodi.sourceforge.net/DTD/sodipodi-0.dtd"
xmlns:inkscape="http://www.inkscape.org/namespaces/inkscape"
width="383.0px"
height="495.0px"
viewBox="2.5 2.5 383.0 495.0"
sodipodi:docname="frame01_highlight_11-xxhdpi.svg">
<g
sodipodi:insensitive="true"
id="frame_frame01-highlight_10"
inkscape:groupmode="layer"
inkscape:label="frame01_highlight_11-xxhdpi"
style="opacity:1.0;display:inline">
<path
sodipodi:nodetypes="cccccccc"
style="opacity:1;fill:#efefab;fill-opacity:0.84313725;fill-rule:evenodd;stroke:none;stroke-width:1px;stroke-linecap:butt;stroke-linejoin:miter;stroke-opacity:1"
d="m
66.34887,463.34067
c
2.250176,-0.0134
11.512741,0.49034
12.89507,0.55499
4.079539,0.19609
11.404414,1.085
16.120263,1.78912
5.025547,0.98719
11.447847,3.78088
15.201947,7.41947
-6.67981,-0.61491
-17.436148,-3.06706
-29.699521,-3.94626
-6.303105,-0.50679
-10.662879,-0.895
-17.631734,-0.82448
-1.576243,-0.18875
-4.485626,-0.13872
-6.763385,-0.87828
2.149029,-1.89975
5.600773,-4.09205
9.87736,-4.11456
z"
id="path16120"
inkscape:connector-curvature="0"/>
<path
sodipodi:nodetypes="ccccccc"
style="display:inline;opacity:1;fill:#efefab;fill-opacity:0.84313725;fill-rule:evenodd;stroke:none;stroke-width:1px;stroke-linecap:butt;stroke-linejoin:miter;stroke-opacity:1"
d="m
357.45538,143.11211
c
-0.0321,-1.49915
-1.65923,-10.11379
-1.88863,-11.47848
-0.67182,-4.02862
-1.48761,-11.68385
-1.79759,-16.44189
-0.0989,-5.12063
0.81777,-10.3112
2.35851,-16.52599
2.63842,8.60284
2.52381,20.22224
4.24635,31.92246
1.13613,8.4891
1.22629,13.56673
0.29094,21.93192
-1.07729,-3.08188
-2.2824,-5.23309
-3.20958,-9.40802
z"
id="path10614-8"
inkscape:connector-curvature="0"/>
</g>
</svg>
