<?xml version="1.0" encoding="UTF-8" standalone="no"?>
<svg
xmlns="http://www.w3.org/2000/svg"
xmlns:dc="http://purl.org/dc/elements/1.1/"
xmlns:cc="http://creativecommons.org/ns#"
xmlns:rdf="http://www.w3.org/1999/02/22-rdf-syntax-ns#"
xmlns:svg="http://www.w3.org/2000/svg"
xmlns:xlink="http://www.w3.org/1999/xlink"
xmlns:sodipodi="http://sodipodi.sourceforge.net/DTD/sodipodi-0.dtd"
xmlns:inkscape="http://www.inkscape.org/namespaces/inkscape"
width="383.0px"
height="495.0px"
viewBox="2.5 2.5 383.0 495.0"
sodipodi:docname="frame01_highlight_05-xxhdpi.svg">
<g
sodipodi:insensitive="true"
id="frame_frame01-highlight_5"
inkscape:groupmode="layer"
inkscape:label="frame01_highlight_05-xxhdpi"
style="opacity:1.0;display:inline">
<path
sodipodi:nodetypes="ccccccc"
style="fill:#efefab;fill-opacity:0.84313725;fill-rule:evenodd;stroke:none;stroke-width:1px;stroke-linecap:butt;stroke-linejoin:miter;stroke-opacity:1"
d="m
31.577003,348.7525
c
0.03206,1.49915
1.659235,10.11379
1.888633,11.47848
0.671816,4.02862
1.48761,11.68385
1.797585,16.44189
0.09887,5.12063
-0.817761,10.3112
-2.358505,16.52599
-2.638421,-8.60284
-2.523812,-20.22224
-4.246348,-31.92246
-1.136128,-8.4891
-1.226288,-13.56673
-0.290946,-21.93192
1.077295,3.08188
2.282406,5.23309
3.209581,9.40802
z"
id="path10614"
inkscape:connector-curvature="0"/>
<path
sodipodi:nodetypes="cccccccc"
style="display:inline;opacity:1;fill:#efefab;fill-opacity:0.84313725;fill-rule:evenodd;stroke:none;stroke-width:1px;stroke-linecap:butt;stroke-linejoin:miter;stroke-opacity:1"
d="m
316.16827,38.71851
c
-2.25017,0.0134
-11.51274,-0.49034
-12.89507,-0.55499
-4.07954,-0.19609
-11.40441,-1.085
-16.12026,-1.78912
-5.02555,-0.98719
-11.44785,-3.78088
-15.20195,-7.41947
6.67981,0.61491
17.43615,3.06706
29.69952,3.94626
6.30311,0.50679
10.66288,0.895
17.63174,0.82448
1.57624,0.18875
4.48562,0.13872
6.76338,0.87828
-2.14903,1.89975
-5.60077,4.09205
-9.87736,4.11456
z"
id="path16120-8"
inkscape:connector-curvature="0"/>
</g>
</svg>
