<?xml version="1.0" encoding="UTF-8" standalone="no"?>
<svg
xmlns="http://www.w3.org/2000/svg"
xmlns:dc="http://purl.org/dc/elements/1.1/"
xmlns:cc="http://creativecommons.org/ns#"
xmlns:rdf="http://www.w3.org/1999/02/22-rdf-syntax-ns#"
xmlns:svg="http://www.w3.org/2000/svg"
xmlns:sodipodi="http://sodipodi.sourceforge.net/DTD/sodipodi-0.dtd"
xmlns:inkscape="http://www.inkscape.org/namespaces/inkscape"
width="1083.0px"
height="1018.0px"
viewBox="0.0 0.0 1083.0 1018.0"
sodipodi:docname="gentleman_tomodeselect_06-xxhdpi.svg">
<g
id="frame_toModeSelect_5"
inkscape:groupmode="layer"
inkscape:label="gentleman_tomodeselect_06-xxhdpi"
style="opacity:1.0;display:inline"
sodipodi:insensitive="true">
<path
style="fill:#707070;fill-opacity:1;stroke:none"
d="m
650.20265,662.04964
c
-12.71044,-51.69568
-20.89509,-58.1334
-31.1127,-84.90075
-13.14306,-27.46457
-20.72269,-56.04183
-26.89403,-84.90075
-5.26941,-17.60644
-5.80165,-34.42335
-2.63666,-50.62405
l
11.07401,-11.60134
46.21194,-2.63667
51.15139,138.16147
16.34735,160.30949
z"
id="path24970"
inkscape:connector-curvature="0"
sodipodi:nodetypes="ccccccccc"/>
<path
style="display:inline;fill:#393939;fill-opacity:1;stroke:none"
d="m
715.17315,349.66996
c
-1.17027,-1.14055
24.76125,-8.51985
28.59092,-7.32307
l
11.11318,26.58903
-40.66213,17.10793
c
-12.19975,-8.44253
-20.11742,-18.14448
0.95803,-36.37389
z"
id="path6813"
inkscape:connector-curvature="0"
sodipodi:nodetypes="ccccc"/>
<path
style="display:inline;fill:#393939;fill-opacity:1;stroke:none"
d="m
916.6355,339.34411
c
12.7493,-0.51152
35.5061,5.73737
40.0322,7.06373
12.6141,20.18116
-0.2742,28.16546
-1.2073,41.86748
l
-52.5631,-18.59558
z"
id="path6815"
inkscape:connector-curvature="0"
sodipodi:nodetypes="ccccc"/>
<path
sodipodi:nodetypes="ccccscccc"
inkscape:connector-curvature="0"
id="path6817"
d="m
770.65353,328.06349
c
-5.83959,-0.0694
-10.96159,1.47222
-15.40626,3.96598
-9.04016,5.8128
-3.74194,14.16473
2.81908,22.74025
l
25.2461,27.35005
c
0,0
107.29575,3.15578
109.39955,2.10384
2.1039,-1.05192
26.6487,-37.86928
25.5967,-39.27185
-0.8689,-1.36191
-8.0287,-11.38032
-10.4833,-11.92579
-3.9221,-1.88742
-7.2985,-2.05726
-10.9217,-2.54614
z"
style="display:inline;fill:#e3e3e3;fill-opacity:1;stroke:none"/>
<path
sodipodi:nodetypes="ccccc"
inkscape:connector-curvature="0"
id="path6819"
d="m
988.6318,756.82043
c
19.747,-15.9413
38.2734,-41.6473
57.1543,-64.5181
11.138,-11.0279
13.8486,-26.2697
11.9217,-43.8302
-2.9302,-44.5195
-0.7593,-86.12395
2.8051,-126.93223
0.778,-40.41194
13.9217,-100.9998
-1.0519,-115.71172
l
-31.7936,-9.43013
-55.5385,189.42696
-3.967,168.59992
z"
style="display:inline;fill:#717171;fill-opacity:1;stroke:#000000;stroke-width:1px;stroke-linecap:butt;stroke-linejoin:miter;stroke-opacity:1"/>
<path
sodipodi:nodetypes="ccccccccccc"
inkscape:connector-curvature="0"
d="m
699.14627,1142.9926
0.28728,-87.7752
c
1.74736,-22.5524
1.09692,-118.0836
5.24217,-117.4892
l
117.6602,-60.45477
160.51878,43.10117
c
15.99277,-8.1944
6.9802,92.7261
10.50687,135.4124
l
1.9636,93.7505
c
-69.87067,53.5896
-123.46747,18.9733
-137.08107,0.1789
l
-8.4636,-51.1134
-15.44475,49.8412
c
-31.41913,22.3933
-87.86214,42.6031
-135.18948,-5.4516
z"
style="display:inline;fill:#4e4e4e;fill-opacity:1;stroke:#000000;stroke-width:1px;stroke-linecap:butt;stroke-linejoin:miter;stroke-opacity:1"
id="path6821"/>
<path
sodipodi:nodetypes="ccccccc"
inkscape:connector-curvature="0"
id="path6823"
d="m
727.90834,151.43229
-12.273,-65.58338
c
-5.16065,-20.28818
4.49384,-38.52488
11.77715,-42.14997
15.86223,-14.81887
61.734,-26.87918
84.79537,-27.7694
33.26724,-3.22508
68.94484,-3.06153
96.20054,9.91765
12.9452,10.0338
20.8375,24.8604
18.5955,48.10055
l
-2.9752,57.64927"
style="display:inline;fill:#4e4e4e;fill-opacity:1;stroke:#000000;stroke-width:1px;stroke-linecap:butt;stroke-linejoin:miter;stroke-opacity:1"/>
<path
sodipodi:nodetypes="ccccccccc"
inkscape:connector-curvature="0"
id="path6825"
d="m
741.29706,245.64989
c
-26.39285,-2.63022
-35.14019,-8.52814
-44.13324,-14.38058
-11.79803,-8.16649
-14.47531,-18.6132
-10.41346,-30.74469
4.34349,-18.9417
20.18757,-31.41424
34.71158,-44.62939
20.37921,-13.00487
39.8317,-22.7765
63.96837,-26.77763
28.01647,-7.15946
57.19879,-10.58842
88.51449,-7.19029
22.7725,1.95233
45.3275,3.25211
73.8861,22.56263
15.478,11.04703
26.9611,24.2732
20.8269,47.1088
-12.9981,25.1445
-38.1571,34.8359
-49.34,34.95969"
style="display:inline;fill:#4e4e4e;fill-opacity:1;stroke:#000000;stroke-width:1px;stroke-linecap:butt;stroke-linejoin:miter;stroke-opacity:1"/>
<path
sodipodi:nodetypes="cc"
inkscape:connector-curvature="0"
id="path6869"
d="m
715.17315,349.66996
c
-1.17026,-1.14055
24.76125,-8.51985
28.59093,-7.32306"
style="display:inline;fill:none;stroke:#000000;stroke-width:1px;stroke-linecap:butt;stroke-linejoin:miter;stroke-opacity:1"/>
<path
sodipodi:nodetypes="cccccscccccc"
inkscape:connector-curvature="0"
d="m
778.2401,326.23074
c
-0.38931,8.3175
-0.55462,30.92145
-4.71088,41.90203
l
-0.19023,14.9037
52.59594,51.54432
c
0,0
35.41457,-1.05192
36.81717,-1.7532
1.4026,-0.70129
48.0376,-58.20651
44.5313,-60.661
-3.5064,-2.4545
-10.7761,-11.22411
-10.7761,-11.22411
m
0,0
c
-2.6411,-5.05108
-7.0032,-15.76103
-7.6862,-26.03381
l
-9.9396,-6.22163
-98.52965,-3.50643
-3.84726,5.51306"
style="display:inline;fill:#ffeede;fill-opacity:1;stroke:#000000;stroke-width:1px;stroke-linecap:butt;stroke-linejoin:miter;stroke-opacity:1"
id="path6871"/>
<path
sodipodi:nodetypes="cscccscsccccc"
inkscape:connector-curvature="0"
id="path6873"
d="m
864.2797,164.56434
c
-4.6498,-0.20093
-9.327,-0.27571
-14.0171,-0.23508
-14.07022,0.12186
-28.31138,1.33024
-42.87808,3.73066
-25.23077,5.65632
-77.25818,32.70654
-67.31941,71.64483
l
14.86931,55.27536
c
4.60744,13.51516
9.68882,25.61597
19.1009,36.46822
9.41207,10.85224
25.10936,26.07801
31.23726,30.00326
6.12818,3.92527
9.95268,7.943
16.83822,11.9014
6.88563,3.95839
25.5602,5.38127
36.7032,-0.49957
11.1421,-7.72076
20.93,-17.08405
28.7688,-28.76905
6.7704,-10.17707
14.0828,-19.38964
18.3369,-33.97039
5.419,-15.33504
8.814,-35.17491
10.9315,-57.77319
8.414,-68.70535
-3.2645,-89.16043
-52.5715,-87.77645"
style="display:inline;fill:#ffeede;fill-opacity:1;stroke:#000000;stroke-width:1px;stroke-linecap:butt;stroke-linejoin:miter;stroke-opacity:1"/>
<path
sodipodi:nodetypes="ccc"
inkscape:connector-curvature="0"
id="path6875"
d="m
764.6208,230.15674
c
-6.6592,-0.47691
-7.03195,1.78904
-6.66211,4.55834
0.26076,3.50813
4.61355,2.33345
7.5387,2.45449"
style="display:inline;fill:none;stroke:#000000;stroke-width:1px;stroke-linecap:butt;stroke-linejoin:miter;stroke-opacity:1"/>
<path
sodipodi:nodetypes="cc"
inkscape:connector-curvature="0"
id="path6877"
d="m
824.0941,318.3431
c
8.26983,6.06479
16.9494,7.37768
26.3856,-0.0876
l
2.1039,-13.41206
-14.72689,-6.31155
-16.12939,6.31155
z"
style="display:inline;fill:#ffc5c5;fill-opacity:1;stroke:#000000;stroke-width:1px;stroke-linecap:butt;stroke-linejoin:miter;stroke-opacity:1"/>
<path
sodipodi:nodetypes="ccccccccccccccc"
inkscape:connector-curvature="0"
id="path6879"
d="m
795.77992,293.97351
c
-7.35863,6.07952
-12.61021,12.92528
-4.73364,24.54492
8.65359,8.05701
26.04906,2.70823
31.9082,0
7.78903,-3.69574
12.01563,-8.0973
15.25289,-14.20099
2.41243,8.0845
8.91753,13.83107
14.90213,14.55163
11.9133,1.15865
19.1679,0.67675
26.6035,-4.78502
8.1041,-6.89333
6.6317,-16.30489
5.1294,-23.70461
-0.6945,5.8812
-1.7187,17.12361
-14.3762,15.69121
-4.0585,-0.387
-7.4661,-3.25319
-10.3438,-11.22054
-1.6724,-5.2332
-5.3512,-8.52402
-11.5713,-7.88943
-4.2958,0.23612
-7.0906,3.09275
-8.9412,7.18815
-2.65095,-6.56376
-7.58854,-7.90089
-13.4996,-7.01283
-9.75267,3.31056
-12.41885,9.49338
-16.12947,15.25291
-1.94371,1.54057
-4.57406,10.17272
-12.97366,9.292
-9.07816,-4.03509
-3.34389,-12.02456
-1.22725,-17.7074
z"
style="display:inline;fill:#9b9b9b;fill-opacity:1;stroke:#000000;stroke-width:1px;stroke-linecap:butt;stroke-linejoin:miter;stroke-opacity:1"/>
<path
sodipodi:nodetypes="cc"
inkscape:connector-curvature="0"
id="path6881"
d="m
916.6355,339.34411
c
12.7493,-0.51152
35.5061,5.73737
40.0322,7.06374"
style="display:inline;fill:none;stroke:#000000;stroke-width:1px;stroke-linecap:butt;stroke-linejoin:miter;stroke-opacity:1"/>
<path
style="fill:#707070;fill-opacity:1;stroke:none"
d="m
659.44067,657.79661
c
-19.76253,8.87469
-40.06616,25.03149
-60.0339,38.40678
l
40.48864,121.88408
c
8.00598,-7.04727
75.69664,-81.68375
75.69664,-81.68375
z"
id="path24966"
inkscape:connector-curvature="0"
sodipodi:nodetypes="ccccc"/>
<g
style="display:inline"
transform="matrix(0.94035175,0,0,0.94035701,-456.00354,-198.67793)"
id="g6883">
<path
style="fill:#f7f7f7;fill-opacity:1;stroke:#000000;stroke-width:1.06342888px;stroke-linecap:butt;stroke-linejoin:miter;stroke-opacity:1"
d="m
1475.5847,592.78814
c
8.2291,3.90623
15.9862,8.95021
25.1965,9.5317
l
28.7507,17.84336
-91.2288,224.1169
-39.55,135.26113
-47.4601,-77.51808
-55.37,-157.67282
-74.3541,-119.44112
15.5564,-10.54669
25.8393,-12.65601
c
71.8099,86.46723
142.7975,94.40494
212.6201,-8.91837
z"
id="path6885"
inkscape:connector-curvature="0"
sodipodi:nodetypes="ccccccccccc"/>
<path
style="fill:none;stroke:#000000;stroke-width:1.06342888px;stroke-linecap:butt;stroke-linejoin:miter;stroke-opacity:1"
d="m
1372.0943,707.64155
c
2.4008,15.85732
-1.9402,49.58052
-2.2638,69.07031
0.574,18.70064
0.5439,38.91144
2.9831,52.94916"
id="path6887"
inkscape:connector-curvature="0"
sodipodi:nodetypes="ccc"/>
<path
sodipodi:nodetypes="cccc"
inkscape:connector-curvature="0"
id="path6889"
d="m
1376.6503,680.47118
11.2925,-30.77729
c
4.9761,-9.90831
9.7585,-12.06579
14.238,-2.10933
l
4.2186,20.03868
-0.1452,12.50388
-31.9745,5.59322
z"
style="fill:#b9b9b9;fill-opacity:1;stroke:none"/>
<path
style="fill:#b9b9b9;fill-opacity:1;stroke:none"
d="m
1345.3814,679.28814
-0.2628,-11.34844
c
0.033,-6.12691
0.01,-13.40302
2.8692,-21.25536
3.555,-12.46475
8.4823,-9.89393
10.4243,1.42755
1.6351,11.35065
8.4089,24.588
12.1643,31.58133
l
3.0507,5.84068
z"
id="path6891"
inkscape:connector-curvature="0"
sodipodi:nodetypes="ccccccc"/>
<path
id="path6893"
style="fill:#f7f7f7;fill-opacity:1;stroke:none"
d="m
1423.1462,673.33345
c
8.4189,-13.88932
14.9835,-25.92438
28.0127,-44.424
6.0219,-7.88761
27.629,-35.15004
24.2308,-39.3901
-4.5245,-7.76116
-19.046,-20.76839
-25.1951,-24.32134
12.5917,12.34424
-35.8789,54.09495
-53.8829,75.65834
1.864,0.30729
3.8959,2.34253
5.8691,6.72821
l
4.2186,20.03868
4.0497,20.30236
12.6971,-14.59215
m
-77.9175,-5.18287
c
-0.077,-6.33779
-0.102,-13.6139
2.7591,-21.46624
1.3799,-4.83835
2.9666,-7.41128
4.4871,-8.32172
-10.9594,-7.28118
-77.4718,-63.39805
-64.8721,-73.39441
-9.5665,5.2715
-15.7078,14.41123
-19.8922,22.50029
-7.4894,12.31141
-5.1031,22.22064
5.8007,30.05803
l
35.2994,33.69088
c
4.4353,7.05061
11.5401,14.10123
13.2153,21.15184
l
17.7603,20.30236
5.4424,-24.52103"
inkscape:connector-curvature="0"
sodipodi:nodetypes="ccccccccccccccccccc"/>
<path
style="fill:none;stroke:#000000;stroke-width:1.06342888px;stroke-linecap:butt;stroke-linejoin:miter;stroke-opacity:1"
d="m
1304.5042,560.10837
c
-18.9962,-0.2257
-30.8514,15.57919
-36.7936,27.36013
-7.4894,12.31141
-5.1031,22.22064
5.8007,30.05803
l
35.2994,33.69088
c
4.4353,7.05061
11.5401,14.10123
13.2153,21.15184"
id="path6895"
inkscape:connector-curvature="0"
sodipodi:nodetypes="ccccc"/>
<path
style="fill:none;stroke:#000000;stroke-width:1.06342888px;stroke-linecap:butt;stroke-linejoin:miter;stroke-opacity:1"
d="m
1345.2287,668.15058
c
-0.077,-6.33779
-0.102,-13.6139
2.7591,-21.46624
3.555,-12.46475
8.4823,-9.89393
10.4243,1.42755
1.6351,11.35065
8.4089,24.588
12.2831,31.79997"
id="path6897"
inkscape:connector-curvature="0"
sodipodi:nodetypes="cccc"/>
<path
style="fill:none;stroke:#000000;stroke-width:1.06342888px;stroke-linecap:butt;stroke-linejoin:miter;stroke-opacity:1"
d="m
1376.6503,680.47118
11.2925,-30.77729
c
4.9761,-9.90831
9.7585,-12.06579
14.238,-2.10933
l
4.2186,20.03868"
id="path6899"
inkscape:connector-curvature="0"
sodipodi:nodetypes="cccc"/>
<path
style="fill:none;stroke:#000000;stroke-width:1.06342888px;stroke-linecap:butt;stroke-linejoin:miter;stroke-opacity:1"
d="m
1423.1462,673.33345
c
8.4189,-13.88932
14.9835,-25.92438
28.0127,-44.424
6.0219,-7.88761
27.629,-35.15004
24.2308,-39.3901
-4.5245,-7.76116
-19.046,-20.76839
-25.1951,-24.32134
12.5917,12.34424
-35.8789,54.09495
-53.6656,75.40874"
id="path6901"
inkscape:connector-curvature="0"
sodipodi:nodetypes="ccccc"/>
<path
style="fill:none;stroke:#000000;stroke-width:1.06342888px;stroke-linecap:butt;stroke-linejoin:miter;stroke-opacity:1"
d="m
1352.4569,638.12728
c
-10.9414,-7.04584
-75.4079,-59.64596
-65.0372,-73.46598"
id="path6903"
inkscape:connector-curvature="0"
sodipodi:nodetypes="cc"/>
<path
style="fill:none;stroke:#000000;stroke-width:1.06342888px;stroke-linecap:butt;stroke-linejoin:miter;stroke-opacity:1"
d="m
1450.5085,565.47458
c
-4.3022,-2.09611
-7.8928,-2.27672
-11.7458,-2.79661"
id="path6905"
inkscape:connector-curvature="0"
sodipodi:nodetypes="cc"/>
</g>
<g
transform="matrix(0.94035175,0,0,0.94035701,-456.00354,-217.48508)"
style="display:inline;fill:#4f4f4f;fill-opacity:1"
id="g6907">
<path
style="fill:#4e4e4e;fill-opacity:1;stroke:#000000;stroke-width:1.06342888px;stroke-linecap:butt;stroke-linejoin:miter;stroke-opacity:1"
d="m
1363.6497,682.13183
-8.226,-7.96234
c
-5.9661,-3.89862
-11.9322,-6.74034
-17.8983,-7.83051
-6.0409,-0.56756
-12.6183,-2.798
-15.2881,7.08475
-3.3511,10.69103
-2.1887,23.02332
-1.8644,35.05084
0.3406,8.21964
3.935,12.79509
13.0508,11.18645
10.3037,-1.42063
20.0039,-7.75346
29.0435,-11.38614
2.7188,-8.16737
2.6803,-16.98353
1.1825,-26.14305
z"
id="path6909"
inkscape:connector-curvature="0"
sodipodi:nodetypes="cccccccc"/>
<path
style="fill:#4e4e4e;fill-opacity:1;stroke:#000000;stroke-width:1.06342888px;stroke-linecap:butt;stroke-linejoin:miter;stroke-opacity:1"
d="m
1383.9877,684.49793
c
7.3335,-7.78515
15.4907,-14.47207
25.9712,-18.06119
6.1169,-1.57829
9.5255,-2.53584
12.7879,3.69134
2.2407,15.07296
2.1826,30.14592
-2.2412,45.21888
-2.1419,5.3467
-5.4276,4.77339
-9.6238,3.55951
-9.8911,-3.15693
-19.666,-4.56862
-27.8169,-11.20585
-1.4688,-2.43757
-2.5444,-5.15598
-2.2853,-8.82773
0.8589,-5.41558
0.3711,-10.4429
3.2081,-14.37496
z"
id="path6911"
inkscape:connector-curvature="0"
sodipodi:nodetypes="cccccccc"/>
<path
style="fill:#4e4e4e;fill-opacity:1;stroke:#000000;stroke-width:1.06342888px;stroke-linecap:butt;stroke-linejoin:miter;stroke-opacity:1"
d="m
1363.2899,682.12493
c
-6.6849,9.35725
-5.4817,19.01555
-1.3183,25.70752
4.4007,4.31019
16.957,3.61401
20.3023,0.13183
7.0205,-12.13494
2.7925,-21.37258
0.6591,-24.25735
-6.5477,-5.57286
-13.0954,-3.89988
-19.6431,-1.582
z"
id="path6913"
inkscape:connector-curvature="0"
sodipodi:nodetypes="ccccc"/>
<path
style="fill:#4f4f4f;fill-opacity:1;stroke:#000000;stroke-width:1.06342888px;stroke-linecap:butt;stroke-linejoin:miter;stroke-opacity:1"
d="m
1350.502,679.22459
11.2059,6.7235"
id="path6915"
inkscape:connector-curvature="0"
sodipodi:nodetypes="cc"/>
<path
style="fill:#4f4f4f;fill-opacity:1;stroke:#000000;stroke-width:1.06342888px;stroke-linecap:butt;stroke-linejoin:miter;stroke-opacity:1"
d="m
1350.502,708.09612
9.7557,-3.16401"
id="path6917"
inkscape:connector-curvature="0"/>
<path
style="fill:#4f4f4f;fill-opacity:1;stroke:#000000;stroke-width:1.06342888px;stroke-linecap:butt;stroke-linejoin:miter;stroke-opacity:1"
d="m
1385.0424,687.39826
9.7557,-5.1415"
id="path6919"
inkscape:connector-curvature="0"/>
<path
style="fill:#4f4f4f;fill-opacity:1;stroke:#000000;stroke-width:1.06342888px;stroke-linecap:butt;stroke-linejoin:miter;stroke-opacity:1"
d="m
1384.5151,703.61378
9.7557,2.63667"
id="path6921"
inkscape:connector-curvature="0"
sodipodi:nodetypes="cc"/>
</g>
<path
style="display:inline;fill:#717171;fill-opacity:1;stroke:#000000;stroke-width:1px;stroke-linecap:butt;stroke-linejoin:miter;stroke-opacity:1"
d="m
989.9918,374.06503
32.1775,7.13681
24.6687,7.79554
c
17.9458,6.13597
12.971,11.47321
8.766,32.60966
-2.7095,21.98094
-8.2441,45.66457
-16.5226,69.52974
l
-26.6061,89.31091
c
-7.3204,34.21154
-16.29543,68.46624
-20.29833,102.84064
-2.79227,20.3881
-4.03317,73.4933
-4.94777,110.3494
0.9701,24.1824
3.76007,56.6863
7.01277,84.8553
1.9466,13.9248
2.6825,30.91937
6.17693,42.11587
2.9726,6.2607
2.9467,12.4228
-1.33193,15.5008
-6.1239,4.9835
-11.31977,6.6765
-17.01467,10.0359
-13.9592,5.662
-27.6717,11.6955
-47.439,15.0988
-19.3278,3.6524
-38.4679,4.491
-57.4653,3.1866
-26.6951,1.4532
-37.209,-15.4163
-41.52986,-39.2986
-2.49739,-22.9872
-1.25265,-44.90507
-1.69856,-67.30597
l
-1.6931,-97.1489
c
1.96759,-27.6291
2.83628,-58.2018
5.07545,-79.9852
l
16.66417,-78.5049
c
7.9876,-22.72411
33.366,-63.22137
41.779,-80.27196
8.4129,-17.05059
18.2182,-45.82619
23.7949,-52.46988
12.2797,-15.66463
8.7664,-20.71018
20.7224,-39.61092
12.6784,-18.49027
19.2375,-28.6894
29.252,-49.25269"
id="path6923"
inkscape:connector-curvature="0"
sodipodi:nodetypes="ccccccccccccccccccczccc"/>
<path
sodipodi:nodetypes="cccccccccccccc"
inkscape:connector-curvature="0"
id="path6925"
d="m
890.0609,187.63169
c
-8.6623,-1.44124
-16.3794,-5.08811
-23.0584,-11.15736
-8.7071,-6.31284
-10.0294,-15.46878
4.9588,-13.14087
10.2939,-0.55955
19.5101,2.01705
25.4888,6.07431
9.9143,-0.13573
18.5403,8.38206
27.0744,13.51304
7.3439,6.09358
0.07,30.04657
-5.4272,40.92059
-0.6863,-14.47566
-7.2739,-30.3161
-29.0364,-36.20971
z
m
-157.93762,10.16558
c
5.31731,-8.24727
11.95882,-13.31639
20.57903,-13.63676
8.27782,-5.43965
12.59648,-12.63894
31.98418,-13.14088
7.86266,-3.46189
26.84639,-10.1224
22.06667,2.23147
-8.88303,8.92991
-19.14133,14.19217
-30.0007,17.85176
-29.85391,12.21923
-38.345,31.27459
-35.24993,53.95361
-4.78338,-15.05126
-15.06904,-37.21398
-9.37925,-47.2592
z"
style="display:inline;fill:#9b9b9b;fill-opacity:1;stroke:#000000;stroke-width:1px;stroke-linecap:butt;stroke-linejoin:miter;stroke-opacity:1"/>
<path
sodipodi:nodetypes="czccccccccccccc"
inkscape:connector-curvature="0"
id="path6927"
d="m
871.5181,602.88873
c
7.9876,-22.72413
22.1456,-58.31241
30.5585,-75.363
8.413,-17.05059
23.8284,-38.81336
29.4052,-45.45704
12.2797,-15.66463
10.1689,-11.59351
22.1249,-30.49424
12.6784,-18.49028
22.7439,-40.61122
32.7584,-61.1745
2.5959,-9.54089
9.02997,-13.2086
-2.1111,-24.53761
-5.8083,-4.98383
-10.3309,-9.68022
-27.3037,-19.18625
3.9794,9.90847
-1.2036,23.06481
-10.3953,40.21744
l
-28.7524,42.77828
-26.8718,40.67442
c
-6.7212,13.08037
-13.548,24.47232
-19.6358,47.68726
-5.9393,22.48325
-15.4731,43.63644
-19.4978,67.98193
-5.0244,18.48771
-8.0819,38.11871
-11.1353,58.24911
l
-3.3205,36.1993
z"
style="display:inline;fill:#717171;fill-opacity:1;stroke:#000000;stroke-width:1px;stroke-linecap:butt;stroke-linejoin:miter;stroke-opacity:1"/>
<path
sodipodi:nodetypes="cc"
inkscape:connector-curvature="0"
id="path24844"
d="m
639.89541,818.08747
c
8.00598,-7.04727
75.69664,-81.68375
75.69664,-81.68375"
style="fill:none;stroke:#000000;stroke-width:1px;stroke-linecap:butt;stroke-linejoin:miter;stroke-opacity:1"/>
<path
sodipodi:nodetypes="ccccc"
inkscape:connector-curvature="0"
id="path24846"
d="m
650.20265,662.04964
c
-12.71044,-51.69568
-20.89509,-58.1334
-31.1127,-84.90075
-13.14306,-27.46457
-20.72269,-56.04183
-26.89403,-84.90075
-5.26941,-17.60644
-5.80165,-34.42335
-2.63666,-50.62405
l
11.07401,-11.60134"
style="fill:none;stroke:#000000;stroke-width:1px;stroke-linecap:butt;stroke-linejoin:miter;stroke-opacity:1"/>
<path
sodipodi:nodetypes="cccccccccccccccsccccccc"
inkscape:connector-curvature="0"
id="path6929"
d="m
665.13083,601.24263
c
11.15784,39.9698
17.87223,82.7121
23.80265,125.949
8.18915,38.6789
9.04393,75.3983
9.40352,114.0771
-0.54409,18.4443
-3.55895,49.547
-5.43645,72.37807
-4.441,32.3414
0.45287,31.9436
17.83734,39.6713
18.54468,6.5358
35.92087,7.9114
53.8058,9.1685
23.83321,1.7668
35.30729,3.1177
59.80045,0.2645
4.4314,-1.0625
12.64829,-1.1311
17.71966,-4.114
6.7043,-5.6933
11.2502,-12.7451
13.2825,-25.4485
2.7406,-24.6536
2.4244,-45.20757
2.4684,-66.26577
l
-2.4684,-64.8552
-4.5548,-71.5553
c
-2.1754,-16.4784
-2.2004,-24.6658
-6.7735,-47.4844
l
-63.37079,-135.94399
-3.67329,1.73379
c
-6.04797,-16.42797
-21.37147,-41.36074
-48.19303,-77.28559
-14.52787,-19.45862
-17.3573,-50.49879
-62.85659,-79.72465
l
-24.03784,8.55137
-23.1855,11.66631
c
-7.04248,5.44886
-18.45412,9.39455
-21.71629,16.10361
0.42682,7.95916
-0.2618,14.75955
3.26584,26.23785
4.29299,9.99257
4.39661,13.94309
18.80308,44.43586
l
17.60226,32.23661"
style="display:inline;fill:#707070;fill-opacity:1;stroke:#000000;stroke-width:1px;stroke-linecap:butt;stroke-linejoin:miter;stroke-opacity:1"/>
<g
style="display:inline"
transform="matrix(0.94035175,0,0,0.94035701,-456.00354,-172.34793)"
id="g6931">
<circle
r="13.51695"
cy="1045.6526"
cx="1407.5339"
transform="matrix(-0.92413793,0,0,-0.92413793,2669.6538,2004.3951)"
id="circle6933"
style="fill:#4b4b4b;fill-opacity:1;stroke:#000000;stroke-width:1.15072525"/>
<circle
r="13.51695"
cy="1045.6526"
cx="1407.5339"
style="fill:none;stroke:#000000;stroke-width:11.014081"
id="circle6935"
transform="matrix(-0.09655175,0,0,-0.09655175,1507.7812,1138.841)"/>
<circle
r="13.51695"
cy="1045.6526"
cx="1407.5339"
transform="matrix(-0.09655175,0,0,-0.09655175,1501.7812,1138.841)"
id="circle6937"
style="fill:none;stroke:#000000;stroke-width:11.014081"/>
<path
inkscape:connector-curvature="0"
id="path6939"
d="m
1356.4068,1035.8767
-9.5084,2.6102
9.5084,2.6101"
style="fill:#0c0066;fill-opacity:1;stroke:#000000;stroke-width:1.06342888px;stroke-linecap:butt;stroke-linejoin:miter;stroke-opacity:1"
sodipodi:nodetypes="ccc"/>
</g>
<path
sodipodi:nodetypes="ccccc"
inkscape:connector-curvature="0"
id="path6941"
d="m
761.13228,233.99666
c
-1.68408,0.94252
-17.65623,13.8566
-20.33106,26.52969
-7.64788,22.76795
-1.10567,54.41558
0.74382,75.12614
l
8.42997,61.98526
3.0567,56.36707"
style="display:inline;fill:none;stroke:#000000;stroke-width:1px;stroke-linecap:butt;stroke-linejoin:miter;stroke-opacity:1"/>
<path
sodipodi:nodetypes="cccccccccc"
inkscape:connector-curvature="0"
id="path6943"
d="m
844.9462,687.65403
c
-1.9836,-2.9753
-63.23498,-106.29197
-63.23498,-106.29197
l
-44.62909,-83.30819
c
-27.18426,-36.73975
-56.13853,-74.98718
-68.1834,-102.89553
-5.0322,-5.37206
-0.66408,-10.99206
6.69436,-16.11617
13.57652,-10.78905
29.8872,-26.79851
39.17449,-29.00911
-11.24586,16.2245
-11.07133,30.74169
-0.49594,46.86086
l
46.53189,69.03762
c
21.2417,38.73047
52.76972,104.94059
63.79403,142.68949
8.37073,27.5218
19.63864,43.7467
20.34864,79.033
z"
style="display:inline;fill:#757575;fill-opacity:1;stroke:#000000;stroke-width:1px;stroke-linecap:butt;stroke-linejoin:miter;stroke-opacity:1"/>
<path
sodipodi:nodetypes="cccccccc"
inkscape:connector-curvature="0"
id="path24840"
d="m
574.26657,771.20775
c
-1.73083,-17.18569
-0.78074,-33.83521
7.38268,-49.04205
4.25212,-13.1499
11.53351,-23.27052
23.73002,-28.47602
23.85532,-5.15958
36.84512,4.40186
45.35071,20.03868
5.20393,24.22401
7.88585,48.58075
3.69134,73.29941
-3.0847,15.53127
-11.17549,31.39671
-26.49465,41.31848
-17.34548,6.77766
-28.50682,1.81026
-38.89475,-11.78778
-13.77284,-18.50433
-12.47338,-28.51823
-14.76535,-45.35072
z"
style="fill:#4f4f4f;fill-opacity:1;stroke:#000000;stroke-width:1px;stroke-linecap:butt;stroke-linejoin:miter;stroke-opacity:1"/>
<path
sodipodi:nodetypes="cc"
inkscape:connector-curvature="0"
id="path24842"
d="m
599.40677,696.20339
c
19.96774,-13.37529
40.27137,-29.53209
60.0339,-38.40678"
style="fill:none;stroke:#000000;stroke-width:1px;stroke-linecap:butt;stroke-linejoin:miter;stroke-opacity:1"/>
<path
inkscape:connector-curvature="0"
id="path7395"
d="m
655.52542,751.38983
-30.20339,30.94915
-34.67797,-49.22033
C
591.76271,731.62712
638,699.18644
638,699.18644
c
1.39992,0.46701
10.15444,7.46689
12.61913,14.93467
3.30409,10.01109
4.25655,25.91454
4.90629,37.26872
z"
style="fill:#ffeede;fill-opacity:1;fill-rule:evenodd;stroke:none;stroke-width:1px;stroke-linecap:butt;stroke-linejoin:miter;stroke-opacity:1"
sodipodi:nodetypes="ccccsc"/>
<path
style="fill:none;fill-rule:evenodd;stroke:#000000;stroke-width:1px;stroke-linecap:butt;stroke-linejoin:miter;stroke-opacity:1"
d="M
590.64406,733.11865
C
591.76271,731.62712
638,699.18644
638,699.18644"
id="path7372"
inkscape:connector-curvature="0"/>
<path
style="fill:none;fill-rule:evenodd;stroke:#000000;stroke-width:1px;stroke-linecap:butt;stroke-linejoin:miter;stroke-opacity:1"
d="m
625.32203,782.33898
30.20339,-30.94915"
id="path7374"
inkscape:connector-curvature="0"/>
<g
id="g7386"
transform="matrix(1.0336458,0.04541386,-0.04304535,1.0905204,21.593781,-109.13404)">
<path
style="fill:#ffeede;fill-opacity:1;fill-rule:evenodd;stroke:none;stroke-width:1px;stroke-linecap:butt;stroke-linejoin:miter;stroke-opacity:1"
d="m
609.66101,738.71187
c
-9.4024,-5.47455
-21.65233,-9.45294
-33.18644,-5.22034
-18.09938,6.11626
-29.93807,16.72937
-45.40881,32.9415
-18.44585,23.2664
-20.02044,31.86649
-24.32,51.70256
-1.40689,7.95295
-5.04141,14.04955
-2.63667,25.17887
2.71279,5.43768
5.0962,8.30284
7.47873,9.69498
-1.43734,9.16146
-2.09727,17.92111
4.10709,24.78717
7.90272,5.9218
13.18821,0.4548
16.27883,-4.27876
0.29995,-0.63761
0.58243,-1.30216
0.84921,-1.99094
l
0.006,1.30907
c
0.9582,4.8922
2.83389,8.4737
7.84865,7.5708
8.56785,-0.3782
9.33983,-5.68011
11.55932,-10.0678
0.57789,-1.41525
1.07497,-2.76989
1.50954,-3.99624
0.28845,5.8275
3.21801,8.13835
9.67727,5.86065
3.23454,-1.11202
5.57657,-2.18867
7.8305,-9.32203
1.10983,-9.88093
3.07516,-13.77335
4.84746,-19.01695
5.56576,-8.13403
11.72417,-15.08273
19.38983,-19.01695
6.28442,-2.71527
17.33643,-9.10698
21.51915,-14.27422
13.80508,-11.54691
14.38643,-23.5087
13.15882,-40.91222
z"
id="path7378"
inkscape:connector-curvature="0"
sodipodi:nodetypes="cccccccccccccccccccc"/>
<path
sodipodi:nodetypes="ccccccccc"
inkscape:connector-curvature="0"
id="path7364"
d="m
609.66101,738.71187
c
-9.4024,-5.47455
-21.65233,-9.45294
-33.18644,-5.22034
-18.09938,6.11626
-29.93807,16.72937
-45.40881,32.9415
-18.44585,23.2664
-20.02044,31.86649
-24.32,51.70256
-1.40689,7.95295
-5.04141,14.04955
-2.63667,25.17887
7.97013,15.97581
13.09712,9.74629
17.55192,6.14317
4.98402,-6.05572
4.79255,-9.29103
6.38034,-18.06374
-0.0629,-10.64013
5.22586,-23.95978
8.53492,-31.90236
3.17148,-4.5414
6.11567,-10.88756
12.67796,-15.66102"
style="fill:none;fill-rule:evenodd;stroke:#000000;stroke-width:0.94106793px;stroke-linecap:butt;stroke-linejoin:miter;stroke-opacity:1"/>
<path
sodipodi:nodetypes="cccccc"
inkscape:connector-curvature="0"
id="path7366"
d="m
511.84184,853.07007
c
-1.68842,9.06226
-2.36494,17.84537
3.85307,24.72654
7.90272,5.9218
13.18821,0.4548
16.27883,-4.27876
3.01152,-6.40156
4.26164,-15.51949
5.5441,-24.58755
0.64713,-4.62621
3.32167,-17.65338
8.75334,-25.94725
1.74729,-3.71508
7.88582,-11.68688
8.20339,-10.81356"
style="fill:none;fill-rule:evenodd;stroke:#000000;stroke-width:0.94106793px;stroke-linecap:butt;stroke-linejoin:miter;stroke-opacity:1"/>
<path
sodipodi:nodetypes="ccccc"
inkscape:connector-curvature="0"
id="path7368"
d="m
532.47457,870.71187
c
0.84908,5.92505
2.48623,10.72427
8.20339,9.69491
8.56785,-0.3782
9.33983,-5.68011
11.55932,-10.0678
3.76757,-9.22681
4.1005,-15.87763
5.22034,-23.11864
3.55323,-10.12101
7.14982,-19.06586
11.05461,-22.85886"
style="fill:none;fill-rule:evenodd;stroke:#000000;stroke-width:0.94106793px;stroke-linecap:butt;stroke-linejoin:miter;stroke-opacity:1"/>
<path
sodipodi:nodetypes="ccccccc"
inkscape:connector-curvature="0"
id="path7370"
d="m
553.72881,865.11865
c
-0.0999,6.69263
2.76765,9.52747
9.69492,7.08474
3.23454,-1.11202
5.57657,-2.18867
7.8305,-9.32203
1.10983,-9.88093
3.07516,-13.77335
4.84746,-19.01695
5.56576,-8.13403
11.72417,-15.08273
19.38983,-19.01695
6.28442,-2.71527
13.87634,-7.97859
21.34931,-13.76641
16.79256,-17.46035
14.63333,-27.32052
11.85975,-42.04272"
style="fill:none;fill-rule:evenodd;stroke:#000000;stroke-width:0.94106793px;stroke-linecap:butt;stroke-linejoin:miter;stroke-opacity:1"/>
</g>
<path
style="fill:none;fill-opacity:1;stroke:#000000;stroke-width:1px;stroke-linecap:butt;stroke-linejoin:miter;stroke-opacity:1"
d="m
605.37927,693.68968
c
23.85532,-5.15958
36.84512,4.40186
45.35071,20.03868
5.20393,24.22401
7.88585,48.58075
3.69134,73.29941
-3.0847,15.53127
-11.17549,31.39671
-26.49465,41.31848"
id="path7397"
inkscape:connector-curvature="0"
sodipodi:nodetypes="cccc"/>
</g>
</svg>
