<?xml version="1.0" encoding="UTF-8" standalone="no"?>
<svg
xmlns="http://www.w3.org/2000/svg"
xmlns:dc="http://purl.org/dc/elements/1.1/"
xmlns:cc="http://creativecommons.org/ns#"
xmlns:rdf="http://www.w3.org/1999/02/22-rdf-syntax-ns#"
xmlns:svg="http://www.w3.org/2000/svg"
xmlns:sodipodi="http://sodipodi.sourceforge.net/DTD/sodipodi-0.dtd"
xmlns:inkscape="http://www.inkscape.org/namespaces/inkscape"
width="1083.0px"
height="1018.0px"
viewBox="0.0 0.0 1083.0 1018.0"
sodipodi:docname="gentleman_tomodeselect_08-xxhdpi.svg">
<g
style="opacity:1.0;display:inline"
inkscape:label="gentleman_tomodeselect_08-xxhdpi"
inkscape:groupmode="layer"
id="frame_toModeSelect_7"
sodipodi:insensitive="true">
<path
style="fill:#707070;fill-opacity:1;stroke:none"
d="m
601.92371,426.61018
-10.14227,11.51409
c
-3.34577,14.41385
-5.2548,29.68976
0.0944,49.32057
3.78045,16.5574
7.85366,35.76603
10.90016,51.95646
4.6653,28.63597
3.70566,52.31351
4.27489,79.24278
-5.29605,41.13158
-3.86571,54.87264
4.10169,80.54237
l
92.03385,2.61017
-23.86441,-276.67796
z"
id="path24958"
inkscape:connector-curvature="0"
sodipodi:nodetypes="ccccccccc"/>
<g
transform="translate(-255.5347,-68.334123)"
id="g14065">
<path
sodipodi:nodetypes="ccccc"
inkscape:connector-curvature="0"
id="path4021-6-8"
d="m
970.70818,418.00439
c
-1.17027,-1.14055
24.76125,-8.51985
28.59092,-7.32307
l
11.1132,26.58903
-40.66215,17.10793
c
-12.19975,-8.44253
-20.11742,-18.14448
0.95803,-36.37389
z"
style="display:inline;fill:#393939;fill-opacity:1;stroke:none"/>
<path
sodipodi:nodetypes="ccccc"
inkscape:connector-curvature="0"
id="path4023-6-3"
d="m
1172.1705,407.67854
c
12.7493,-0.51152
35.5061,5.73737
40.0322,7.06373
12.6141,20.18116
-0.2742,28.16546
-1.2073,41.86748
l
-52.5631,-18.59558
z"
style="display:inline;fill:#393939;fill-opacity:1;stroke:none"/>
<path
style="display:inline;fill:#e3e3e3;fill-opacity:1;stroke:none"
d="m
1026.1886,396.39792
c
-5.8396,-0.0694
-10.9616,1.47222
-15.4063,3.96598
-9.0402,5.8128
-3.7419,14.16473
2.8191,22.74025
l
25.2461,27.35005
c
0,0
107.2957,3.15578
109.3995,2.10384
2.1039,-1.05192
26.6487,-37.86928
25.5967,-39.27185
-0.8689,-1.36191
-8.0287,-11.38032
-10.4833,-11.92579
-3.9221,-1.88742
-7.2985,-2.05726
-10.9217,-2.54614
z"
id="path3999-4-8"
inkscape:connector-curvature="0"
sodipodi:nodetypes="ccccscccc"/>
<path
style="display:inline;fill:#717171;fill-opacity:1;stroke:#000000;stroke-width:1px;stroke-linecap:butt;stroke-linejoin:miter;stroke-opacity:1"
d="m
1244.1668,825.15486
c
19.747,-15.9413
38.2734,-41.6473
57.1543,-64.5181
11.138,-11.0279
13.8486,-26.2697
11.9217,-43.8302
-2.9302,-44.5195
-0.7593,-86.12395
2.8051,-126.93223
0.778,-40.41194
13.9217,-100.9998
-1.0519,-115.71172
l
-31.7936,-9.43013
-55.5385,189.42696
-3.967,168.59992
z"
id="path3090-8-1"
inkscape:connector-curvature="0"
sodipodi:nodetypes="ccccc"/>
<path
id="path2989-4-5"
style="display:inline;fill:#4e4e4e;fill-opacity:1;stroke:#000000;stroke-width:1px;stroke-linecap:butt;stroke-linejoin:miter;stroke-opacity:1"
d="m
954.6813,1211.327
0.28728,-87.7752
c
1.74736,-22.5524
1.09692,-118.0836
5.24217,-117.4892
l
117.66025,-60.45474
160.5187,43.10117
c
15.9928,-8.1944
6.9802,92.72607
10.5069,135.41237
l
1.9636,93.7505
c
-69.8707,53.5896
-123.4675,18.9733
-137.0811,0.1789
l
-8.4636,-51.1134
-15.4447,49.8412
c
-31.4191,22.3933
-87.8622,42.6031
-135.1895,-5.4516
z"
inkscape:connector-curvature="0"
sodipodi:nodetypes="ccccccccccc"/>
<path
style="display:inline;fill:#4e4e4e;fill-opacity:1;stroke:#000000;stroke-width:1px;stroke-linecap:butt;stroke-linejoin:miter;stroke-opacity:1"
d="m
983.44337,219.76672
-12.273,-65.58338
c
-5.16065,-20.28818
4.49384,-38.52488
11.77715,-42.14997
15.86223,-14.818866
61.73398,-26.879177
84.79538,-27.769397
33.2672,-3.22508
68.9448,-3.06153
96.2005,9.917651
12.9452,10.033796
20.8375,24.860396
18.5955,48.100546
l
-2.9752,57.64927"
id="path3042-9-3"
inkscape:connector-curvature="0"
sodipodi:nodetypes="ccccccc"/>
<path
style="display:inline;fill:#4e4e4e;fill-opacity:1;stroke:#000000;stroke-width:1px;stroke-linecap:butt;stroke-linejoin:miter;stroke-opacity:1"
d="m
996.83209,313.98432
c
-26.39285,-2.63022
-35.14019,-8.52814
-44.13324,-14.38058
-11.79803,-8.16649
-14.47531,-18.6132
-10.41346,-30.74469
4.34349,-18.9417
20.18757,-31.41424
34.71158,-44.62939
20.37921,-13.00487
39.83173,-22.7765
63.96833,-26.77763
28.0165,-7.15946
57.1988,-10.58842
88.5145,-7.19029
22.7725,1.95233
45.3275,3.25211
73.8861,22.56263
15.478,11.04703
26.9611,24.2732
20.8269,47.1088
-12.9981,25.1445
-38.1571,34.8359
-49.34,34.95969"
id="path3040-1-0"
inkscape:connector-curvature="0"
sodipodi:nodetypes="ccccccccc"/>
<path
style="display:inline;fill:none;stroke:#000000;stroke-width:1px;stroke-linecap:butt;stroke-linejoin:miter;stroke-opacity:1"
d="m
970.70818,418.00439
c
-1.17026,-1.14055
24.76125,-8.51985
28.59093,-7.32306"
id="path3139-8-0"
inkscape:connector-curvature="0"
sodipodi:nodetypes="cc"/>
<path
id="path3034-6-2"
style="display:inline;fill:#ffeede;fill-opacity:1;stroke:#000000;stroke-width:1px;stroke-linecap:butt;stroke-linejoin:miter;stroke-opacity:1"
d="m
1033.7751,394.56517
c
-0.3893,8.3175
-0.5546,30.92145
-4.7108,41.90203
l
-0.1903,14.9037
52.596,51.54432
c
0,0
35.4145,-1.05192
36.8171,-1.7532
1.4026,-0.70129
48.0376,-58.20651
44.5313,-60.661
-3.5064,-2.4545
-10.7761,-11.22411
-10.7761,-11.22411
m
0,0
c
-2.6411,-5.05108
-7.0032,-15.76103
-7.6862,-26.03381
l
-9.9396,-6.22163
-98.5296,-3.50643
-3.8473,5.51306"
inkscape:connector-curvature="0"
sodipodi:nodetypes="cccccscccccc"/>
<path
style="display:inline;fill:#ffeede;fill-opacity:1;stroke:#000000;stroke-width:1px;stroke-linecap:butt;stroke-linejoin:miter;stroke-opacity:1"
d="m
1119.8147,232.89877
c
-4.6498,-0.20093
-9.327,-0.27571
-14.0171,-0.23508
-14.0702,0.12186
-28.3113,1.33024
-42.878,3.73066
-25.2308,5.65632
-77.25823,32.70654
-67.31946,71.64483
l
14.86936,55.27536
c
4.6074,13.51516
9.6888,25.61597
19.1009,36.46822
9.412,10.85224
25.1093,26.07801
31.2372,30.00326
6.1282,3.92527
9.9527,7.943
16.8382,11.9014
6.8857,3.95839
25.5602,5.38127
36.7032,-0.49957
11.1421,-7.72076
20.93,-17.08405
28.7688,-28.76905
6.7704,-10.17707
14.0828,-19.38964
18.3369,-33.97039
5.419,-15.33504
8.814,-35.17491
10.9315,-57.77319
8.414,-68.70535
-3.2645,-89.16043
-52.5715,-87.77645"
id="path3038-1-4"
inkscape:connector-curvature="0"
sodipodi:nodetypes="cscccscsccccc"/>
<path
style="display:inline;fill:none;stroke:#000000;stroke-width:1px;stroke-linecap:butt;stroke-linejoin:miter;stroke-opacity:1"
d="m
1020.1558,298.49117
c
-6.6592,-0.47691
-7.0319,1.78904
-6.6621,4.55834
0.2608,3.50813
4.6136,2.33345
7.5387,2.45449"
id="path3046-6-1"
inkscape:connector-curvature="0"
sodipodi:nodetypes="ccc"/>
<path
style="display:inline;fill:#ffc5c5;fill-opacity:1;stroke:#000000;stroke-width:1px;stroke-linecap:butt;stroke-linejoin:miter;stroke-opacity:1"
d="m
1079.6291,386.67753
c
8.2699,6.06479
16.9494,7.37768
26.3856,-0.0876
l
2.1039,-13.41206
-14.7269,-6.31155
-16.1293,6.31155
z"
id="path3836-9-0"
inkscape:connector-curvature="0"
sodipodi:nodetypes="cc"/>
<path
style="display:inline;fill:#9b9b9b;fill-opacity:1;stroke:#000000;stroke-width:1px;stroke-linecap:butt;stroke-linejoin:miter;stroke-opacity:1"
d="m
1051.315,362.30794
c
-7.3587,6.07952
-12.6103,12.92528
-4.7337,24.54492
8.6536,8.05701
26.0491,2.70823
31.9082,0
7.789,-3.69574
12.0156,-8.0973
15.2529,-14.20099
2.4124,8.0845
8.9175,13.83107
14.9021,14.55163
11.9133,1.15865
19.1679,0.67675
26.6035,-4.78502
8.1041,-6.89333
6.6317,-16.30489
5.1294,-23.70461
-0.6945,5.8812
-1.7187,17.12361
-14.3762,15.69121
-4.0585,-0.387
-7.4661,-3.25319
-10.3438,-11.22054
-1.6724,-5.2332
-5.3512,-8.52402
-11.5713,-7.88943
-4.2958,0.23612
-7.0906,3.09275
-8.9412,7.18815
-2.6509,-6.56376
-7.5885,-7.90089
-13.4996,-7.01283
-9.7526,3.31056
-12.4188,9.49338
-16.1294,15.25291
-1.9437,1.54057
-4.5741,10.17272
-12.9737,9.292
-9.0782,-4.03509
-3.3439,-12.02456
-1.2272,-17.7074
z"
id="path3834-4-7"
inkscape:connector-curvature="0"
sodipodi:nodetypes="ccccccccccccccc"/>
<path
style="display:inline;fill:none;stroke:#000000;stroke-width:1px;stroke-linecap:butt;stroke-linejoin:miter;stroke-opacity:1"
d="m
1172.1705,407.67854
c
12.7493,-0.51152
35.5061,5.73737
40.0322,7.06374"
id="path3838-4-1"
inkscape:connector-curvature="0"
sodipodi:nodetypes="cc"/>
<g
id="g3985-8-5"
transform="matrix(0.94035175,0,0,0.94035701,-200.4685,-130.3435)"
style="display:inline">
<path
sodipodi:nodetypes="ccccccccccc"
inkscape:connector-curvature="0"
id="path3840-2-4"
d="m
1475.5847,592.78814
c
8.2291,3.90623
15.9862,8.95021
25.1965,9.5317
l
28.7507,17.84336
-91.2288,224.1169
-39.55,135.26113
-47.4601,-77.51808
-55.37,-157.67282
-74.3541,-119.44112
15.5564,-10.54669
25.8393,-12.65601
c
71.8099,86.46723
142.7975,94.40494
212.6201,-8.91837
z"
style="fill:#f7f7f7;fill-opacity:1;stroke:#000000;stroke-width:1.06342888px;stroke-linecap:butt;stroke-linejoin:miter;stroke-opacity:1"/>
<path
sodipodi:nodetypes="ccc"
inkscape:connector-curvature="0"
id="path3121-9-3"
d="m
1372.0943,707.64155
c
2.4008,15.85732
-1.9402,49.58052
-2.2638,69.07031
0.574,18.70064
0.5439,38.91144
2.9831,52.94916"
style="fill:none;stroke:#000000;stroke-width:1.06342888px;stroke-linecap:butt;stroke-linejoin:miter;stroke-opacity:1"/>
<path
style="fill:#b9b9b9;fill-opacity:1;stroke:none"
d="m
1376.6503,680.47118
11.2925,-30.77729
c
4.9761,-9.90831
9.7585,-12.06579
14.238,-2.10933
l
4.2186,20.03868
-0.1452,12.50388
-31.9745,5.59322
z"
id="path3957-4-7"
inkscape:connector-curvature="0"
sodipodi:nodetypes="cccc"/>
<path
sodipodi:nodetypes="ccccccc"
inkscape:connector-curvature="0"
id="path3961-7-8"
d="m
1345.3814,679.28814
-0.2628,-11.34844
c
0.033,-6.12691
0.01,-13.40302
2.8692,-21.25536
3.555,-12.46475
8.4823,-9.89393
10.4243,1.42755
1.6351,11.35065
8.4089,24.588
12.1643,31.58133
l
3.0507,5.84068
z"
style="fill:#b9b9b9;fill-opacity:1;stroke:none"/>
<path
sodipodi:nodetypes="ccccccccccccccccccc"
inkscape:connector-curvature="0"
d="m
1423.1462,673.33345
c
8.4189,-13.88932
14.9835,-25.92438
28.0127,-44.424
6.0219,-7.88761
27.629,-35.15004
24.2308,-39.3901
-4.5245,-7.76116
-19.046,-20.76839
-25.1951,-24.32134
12.5917,12.34424
-35.8789,54.09495
-53.8829,75.65834
1.864,0.30729
3.8959,2.34253
5.8691,6.72821
l
4.2186,20.03868
4.0497,20.30236
12.6971,-14.59215
m
-77.9175,-5.18287
c
-0.077,-6.33779
-0.102,-13.6139
2.7591,-21.46624
1.3799,-4.83835
2.9666,-7.41128
4.4871,-8.32172
-10.9594,-7.28118
-77.4718,-63.39805
-64.8721,-73.39441
-9.5665,5.2715
-15.7078,14.41123
-19.8922,22.50029
-7.4894,12.31141
-5.1031,22.22064
5.8007,30.05803
l
35.2994,33.69088
c
4.4353,7.05061
11.5401,14.10123
13.2153,21.15184
l
17.7603,20.30236
5.4424,-24.52103"
style="fill:#f7f7f7;fill-opacity:1;stroke:none"
id="path3952-4-4"/>
<path
sodipodi:nodetypes="ccccc"
inkscape:connector-curvature="0"
id="path3141-5-5"
d="m
1304.5042,560.10837
c
-18.9962,-0.2257
-30.8514,15.57919
-36.7936,27.36013
-7.4894,12.31141
-5.1031,22.22064
5.8007,30.05803
l
35.2994,33.69088
c
4.4353,7.05061
11.5401,14.10123
13.2153,21.15184"
style="fill:none;stroke:#000000;stroke-width:1.06342888px;stroke-linecap:butt;stroke-linejoin:miter;stroke-opacity:1"/>
<path
sodipodi:nodetypes="cccc"
inkscape:connector-curvature="0"
id="path3143-9-9"
d="m
1345.2287,668.15058
c
-0.077,-6.33779
-0.102,-13.6139
2.7591,-21.46624
3.555,-12.46475
8.4823,-9.89393
10.4243,1.42755
1.6351,11.35065
8.4089,24.588
12.2831,31.79997"
style="fill:none;stroke:#000000;stroke-width:1.06342888px;stroke-linecap:butt;stroke-linejoin:miter;stroke-opacity:1"/>
<path
sodipodi:nodetypes="cccc"
inkscape:connector-curvature="0"
id="path3145-7-2"
d="m
1376.6503,680.47118
11.2925,-30.77729
c
4.9761,-9.90831
9.7585,-12.06579
14.238,-2.10933
l
4.2186,20.03868"
style="fill:none;stroke:#000000;stroke-width:1.06342888px;stroke-linecap:butt;stroke-linejoin:miter;stroke-opacity:1"/>
<path
sodipodi:nodetypes="ccccc"
inkscape:connector-curvature="0"
id="path3147-1-5"
d="m
1423.1462,673.33345
c
8.4189,-13.88932
14.9835,-25.92438
28.0127,-44.424
6.0219,-7.88761
27.629,-35.15004
24.2308,-39.3901
-4.5245,-7.76116
-19.046,-20.76839
-25.1951,-24.32134
12.5917,12.34424
-35.8789,54.09495
-53.6656,75.40874"
style="fill:none;stroke:#000000;stroke-width:1.06342888px;stroke-linecap:butt;stroke-linejoin:miter;stroke-opacity:1"/>
<path
sodipodi:nodetypes="cc"
inkscape:connector-curvature="0"
id="path3149-4-4"
d="m
1352.4569,638.12728
c
-10.9414,-7.04584
-75.4079,-59.64596
-65.0372,-73.46598"
style="fill:none;stroke:#000000;stroke-width:1.06342888px;stroke-linecap:butt;stroke-linejoin:miter;stroke-opacity:1"/>
<path
sodipodi:nodetypes="cc"
inkscape:connector-curvature="0"
id="path3842-3-0"
d="m
1450.5085,565.47458
c
-4.3022,-2.09611
-7.8928,-2.27672
-11.7458,-2.79661"
style="fill:none;stroke:#000000;stroke-width:1.06342888px;stroke-linecap:butt;stroke-linejoin:miter;stroke-opacity:1"/>
</g>
<g
id="g3854-0-9"
style="display:inline;fill:#4f4f4f;fill-opacity:1"
transform="matrix(0.94035175,0,0,0.94035701,-200.4685,-149.15065)">
<path
sodipodi:nodetypes="cccccccc"
inkscape:connector-curvature="0"
id="path3123-0-5"
d="m
1363.6497,682.13183
-8.226,-7.96234
c
-5.9661,-3.89862
-11.9322,-6.74034
-17.8983,-7.83051
-6.0409,-0.56756
-12.6183,-2.798
-15.2881,7.08475
-3.3511,10.69103
-2.1887,23.02332
-1.8644,35.05084
0.3406,8.21964
3.935,12.79509
13.0508,11.18645
10.3037,-1.42063
20.0039,-7.75346
29.0435,-11.38614
2.7188,-8.16737
2.6803,-16.98353
1.1825,-26.14305
z"
style="fill:#4e4e4e;fill-opacity:1;stroke:#000000;stroke-width:1.06342888px;stroke-linecap:butt;stroke-linejoin:miter;stroke-opacity:1"/>
<path
sodipodi:nodetypes="cccccccc"
inkscape:connector-curvature="0"
id="path3135-7-7"
d="m
1383.9877,684.49793
c
7.3335,-7.78515
15.4907,-14.47207
25.9712,-18.06119
6.1169,-1.57829
9.5255,-2.53584
12.7879,3.69134
2.2407,15.07296
2.1826,30.14592
-2.2412,45.21888
-2.1419,5.3467
-5.4276,4.77339
-9.6238,3.55951
-9.8911,-3.15693
-19.666,-4.56862
-27.8169,-11.20585
-1.4688,-2.43757
-2.5444,-5.15598
-2.2853,-8.82773
0.8589,-5.41558
0.3711,-10.4429
3.2081,-14.37496
z"
style="fill:#4e4e4e;fill-opacity:1;stroke:#000000;stroke-width:1.06342888px;stroke-linecap:butt;stroke-linejoin:miter;stroke-opacity:1"/>
<path
sodipodi:nodetypes="ccccc"
inkscape:connector-curvature="0"
id="path3133-2-0"
d="m
1363.2899,682.12493
c
-6.6849,9.35725
-5.4817,19.01555
-1.3183,25.70752
4.4007,4.31019
16.957,3.61401
20.3023,0.13183
7.0205,-12.13494
2.7925,-21.37258
0.6591,-24.25735
-6.5477,-5.57286
-13.0954,-3.89988
-19.6431,-1.582
z"
style="fill:#4e4e4e;fill-opacity:1;stroke:#000000;stroke-width:1.06342888px;stroke-linecap:butt;stroke-linejoin:miter;stroke-opacity:1"/>
<path
sodipodi:nodetypes="cc"
inkscape:connector-curvature="0"
id="path3125-1-9"
d="m
1350.502,679.22459
11.2059,6.7235"
style="fill:#4f4f4f;fill-opacity:1;stroke:#000000;stroke-width:1.06342888px;stroke-linecap:butt;stroke-linejoin:miter;stroke-opacity:1"/>
<path
inkscape:connector-curvature="0"
id="path3127-8-7"
d="m
1350.502,708.09612
9.7557,-3.16401"
style="fill:#4f4f4f;fill-opacity:1;stroke:#000000;stroke-width:1.06342888px;stroke-linecap:butt;stroke-linejoin:miter;stroke-opacity:1"/>
<path
inkscape:connector-curvature="0"
id="path3129-3-3"
d="m
1385.0424,687.39826
9.7557,-5.1415"
style="fill:#4f4f4f;fill-opacity:1;stroke:#000000;stroke-width:1.06342888px;stroke-linecap:butt;stroke-linejoin:miter;stroke-opacity:1"/>
<path
sodipodi:nodetypes="cc"
inkscape:connector-curvature="0"
id="path3131-6-7"
d="m
1384.5151,703.61378
9.7557,2.63667"
style="fill:#4f4f4f;fill-opacity:1;stroke:#000000;stroke-width:1.06342888px;stroke-linecap:butt;stroke-linejoin:miter;stroke-opacity:1"/>
</g>
<path
sodipodi:nodetypes="ccccccccccccccccccczccc"
inkscape:connector-curvature="0"
id="path3914-0-1"
d="m
1245.5268,442.39946
32.1775,7.13681
24.6687,7.79554
c
17.9458,6.13597
12.971,11.47321
8.766,32.60966
-2.7095,21.98094
-8.2441,45.66457
-16.5226,69.52974
l
-26.6061,89.31091
c
-7.3204,34.21154
-16.2954,68.46624
-20.2983,102.84064
-2.7923,20.3881
-4.0332,73.4933
-4.9478,110.3494
0.9701,24.1824
3.7601,56.6863
7.0128,84.8553
1.9466,13.9248
2.6825,30.91937
6.1769,42.11587
2.9726,6.2607
2.9467,12.42277
-1.3319,15.50077
-6.1239,4.9835
-11.3198,6.6765
-17.0147,10.0359
-13.9592,5.662
-27.6717,11.6955
-47.439,15.0988
-19.3278,3.6524
-38.4679,4.491
-57.4653,3.1866
-26.6951,1.4532
-37.209,-15.4163
-41.5298,-39.29857
-2.4974,-22.9872
-1.2527,-44.90507
-1.6986,-67.30597
l
-1.6931,-97.1489
c
1.9676,-27.6291
2.8363,-58.2018
5.0755,-79.9852
l
16.6641,-78.5049
c
7.9876,-22.72411
33.366,-63.22137
41.779,-80.27196
8.4129,-17.05059
18.2182,-45.82619
23.7949,-52.46988
12.2797,-15.66463
8.7664,-20.71018
20.7224,-39.61092
12.6784,-18.49027
19.2375,-28.6894
29.252,-49.25269"
style="display:inline;fill:#717171;fill-opacity:1;stroke:#000000;stroke-width:1px;stroke-linecap:butt;stroke-linejoin:miter;stroke-opacity:1"/>
<path
style="display:inline;fill:#9b9b9b;fill-opacity:1;stroke:#000000;stroke-width:1px;stroke-linecap:butt;stroke-linejoin:miter;stroke-opacity:1"
d="m
1145.5959,255.96612
c
-8.6623,-1.44124
-16.3794,-5.08811
-23.0584,-11.15736
-8.7071,-6.31284
-10.0294,-15.46878
4.9588,-13.14087
10.2939,-0.55955
19.5101,2.01705
25.4888,6.07431
9.9143,-0.13573
18.5403,8.38206
27.0744,13.51304
7.3439,6.09358
0.07,30.04657
-5.4272,40.92059
-0.6863,-14.47566
-7.2739,-30.3161
-29.0364,-36.20971
z
M
987.65831,266.1317
c
5.31731,-8.24727
11.95882,-13.31639
20.57899,-13.63676
8.2779,-5.43965
12.5965,-12.63894
31.9842,-13.14088
7.8627,-3.46189
26.8464,-10.1224
22.0667,2.23147
-8.883,8.92991
-19.1413,14.19217
-30.0007,17.85176
-29.8539,12.21923
-38.34501,31.27459
-35.24994,53.95361
-4.78338,-15.05126
-15.06904,-37.21398
-9.37925,-47.2592
z"
id="path3036-1-0"
inkscape:connector-curvature="0"
sodipodi:nodetypes="cccccccccccccc"/>
<path
style="display:inline;fill:#717171;fill-opacity:1;stroke:#000000;stroke-width:1px;stroke-linecap:butt;stroke-linejoin:miter;stroke-opacity:1"
d="m
1127.0531,671.22316
c
7.9876,-22.72413
22.1456,-58.31241
30.5585,-75.363
8.413,-17.05059
23.8284,-38.81336
29.4052,-45.45704
12.2797,-15.66463
10.1689,-11.59351
22.1249,-30.49424
12.6784,-18.49028
22.7439,-40.61122
32.7584,-61.1745
2.5959,-9.54089
9.03,-13.2086
-2.1111,-24.53761
-5.8083,-4.98383
-10.3309,-9.68022
-27.3037,-19.18625
3.9794,9.90847
-1.2036,23.06481
-10.3953,40.21744
l
-28.7524,42.77828
-26.8718,40.67442
c
-6.7212,13.08037
-13.548,24.47232
-19.6358,47.68726
-5.9393,22.48325
-15.4731,43.63644
-19.4978,67.98193
-5.0244,18.48771
-8.0819,38.11871
-11.1353,58.24911
l
-3.3205,36.1993
z"
id="path3067-3-3"
inkscape:connector-curvature="0"
sodipodi:nodetypes="czccccccccccccc"/>
<path
style="display:inline;fill:#707070;fill-opacity:1;stroke:#000000;stroke-width:1px;stroke-linecap:butt;stroke-linejoin:miter;stroke-opacity:1"
d="m
920.66586,669.57706
c
11.15784,39.9698
17.87223,82.7121
23.80265,125.949
8.18915,38.6789
9.04393,75.3983
9.40352,114.0771
-0.54409,18.4443
-3.55895,49.547
-5.43645,72.37807
-4.441,32.34137
0.45287,31.94357
17.83734,39.67127
18.54468,6.5358
35.92088,7.9114
53.80578,9.1685
23.8332,1.7668
35.3073,3.1177
59.8005,0.2645
4.4314,-1.0625
12.6483,-1.1311
17.7196,-4.114
6.7043,-5.6933
11.2502,-12.7451
13.2825,-25.4485
2.7406,-24.65357
2.4244,-45.20754
2.4684,-66.26574
l
-2.4684,-64.8552
-4.5548,-71.5553
c
-2.1754,-16.4784
-2.2004,-24.6658
-6.7735,-47.4844
l
-63.3708,-135.94399
-3.6732,1.73379
c
-6.048,-16.42797
-21.3715,-41.36074
-48.19308,-77.28559
-14.52787,-19.45862
-17.3573,-50.49879
-62.85659,-79.72465
l
-24.03784,8.55137
-23.1855,11.66631
c
-7.04248,5.44886
-18.45412,9.39455
-21.71629,16.10361
0.42682,7.95916
-0.2618,14.75955
3.26584,26.23785
4.29299,9.99257
4.39661,13.94309
18.80308,44.43586
l
17.60226,32.23661"
id="path2991-8-1"
inkscape:connector-curvature="0"
sodipodi:nodetypes="cccccccccccccccsccccccc"/>
<g
id="g3865-4-0"
transform="matrix(0.94035175,0,0,0.94035701,-200.4685,-104.0135)"
style="display:inline">
<circle
style="fill:#4b4b4b;fill-opacity:1;stroke:#000000;stroke-width:1.15072525"
id="path3844-4-5"
transform="matrix(-0.92413793,0,0,-0.92413793,2669.6538,2004.3951)"
cx="1407.5339"
cy="1045.6526"
r="13.51695"/>
<circle
transform="matrix(-0.09655175,0,0,-0.09655175,1507.7812,1138.841)"
id="path3846-7-5"
style="fill:none;stroke:#000000;stroke-width:11.014081"
cx="1407.5339"
cy="1045.6526"
r="13.51695"/>
<circle
style="fill:none;stroke:#000000;stroke-width:11.014081"
id="path3848-3-3"
transform="matrix(-0.09655175,0,0,-0.09655175,1501.7812,1138.841)"
cx="1407.5339"
cy="1045.6526"
r="13.51695"/>
<path
sodipodi:nodetypes="ccc"
style="fill:#0c0066;fill-opacity:1;stroke:#000000;stroke-width:1.06342888px;stroke-linecap:butt;stroke-linejoin:miter;stroke-opacity:1"
d="m
1356.4068,1035.8767
-9.5084,2.6102
9.5084,2.6101"
id="path3850-4-8"
inkscape:connector-curvature="0"/>
</g>
<path
style="display:inline;fill:none;stroke:#000000;stroke-width:1px;stroke-linecap:butt;stroke-linejoin:miter;stroke-opacity:1"
d="m
1016.6673,302.33109
c
-1.6841,0.94252
-17.65622,13.8566
-20.33105,26.52969
-7.64788,22.76795
-1.10567,54.41558
0.74382,75.12614
l
8.42993,61.98526
3.0567,56.36707"
id="path3048-3-5"
inkscape:connector-curvature="0"
sodipodi:nodetypes="ccccc"/>
<path
style="display:inline;fill:#757575;fill-opacity:1;stroke:#000000;stroke-width:1px;stroke-linecap:butt;stroke-linejoin:miter;stroke-opacity:1"
d="m
1100.4812,755.98846
c
-1.9836,-2.9753
-63.2349,-106.29197
-63.2349,-106.29197
L
992.61716,566.3883
c
-27.18426,-36.73975
-56.13853,-74.98718
-68.1834,-102.89553
-5.0322,-5.37206
-0.66408,-10.99206
6.69436,-16.11617
13.57652,-10.78905
29.8872,-26.79851
39.17449,-29.00911
-11.24586,16.2245
-11.07133,30.74169
-0.49594,46.86086
l
46.53193,69.03762
c
21.2417,38.73047
52.7697,104.94059
63.794,142.68949
8.3707,27.5218
19.6386,43.7467
20.3486,79.033
z"
id="path3111-4-4"
inkscape:connector-curvature="0"
sodipodi:nodetypes="cccccccccc"/>
</g>
<path
sodipodi:nodetypes="cccccccc"
inkscape:connector-curvature="0"
id="path24856"
d="m
597.2627,431.36442
-5.48126,6.75985
c
-3.34577,14.41385
-5.2548,29.68976
0.0944,49.32057
3.78045,16.5574
7.85366,35.76603
10.90016,51.95646
4.6653,28.63597
3.70566,52.31351
4.27489,79.24278
-5.29605,41.13158
-3.86571,54.87264
4.10169,80.54237
8.01398,24.90811
16.50059,48.55585
23.11864,77.18644
5.46893,24.13307
12.0565,49.5895
17.52542,55.93219"
style="fill:none;stroke:#000000;stroke-width:1px;stroke-linecap:butt;stroke-linejoin:miter;stroke-opacity:1"/>
<path
style="fill:#707070;fill-opacity:1;stroke:none"
d="m
607.05089,618.64408
c
-5.29605,41.13158
-3.86571,54.87264
4.10169,80.54237
8.01398,24.90811
16.50059,48.55585
23.11864,77.18644
5.46893,24.13307
12.0565,49.5895
17.52542,55.93219
l
76.07163,-78.53448
c
-5.05486,-24.79231
-31.39602,-48.37928
-44.74964,-65.02483
0,0
-76.63697,-97.03096
-76.06774,-70.10169
z"
id="path24954"
inkscape:connector-curvature="0"
sodipodi:nodetypes="ccccccc"/>
<path
sodipodi:nodetypes="ccccccccc"
inkscape:connector-curvature="0"
id="path24858"
d="m
645.08836,781.75135
c
-0.22705,-18.28512
5.64996,-32.57912
14.53875,-44.90389
6.58499,-7.21162
15.18006,-12.41315
29.45762,-11.9322
22.32342,0.86394
34.76333,15.17841
40.22983,33.89085
3.76425,16.67483
6.61047,46.68272
-4.06034,69.77016
-6.79459,13.75546
-15.957,22.77526
-28.71186,24.61017
-17.54349,2.13106
-26.54518,-1.37934
-35.22404,-8.11291
-13.34407,-11.80791
-14.02433,-27.43899
-15.48782,-37.00573
-1.30924,-12.53268
-1.11139,-19.44645
-0.74214,-26.31645
z"
style="fill:#4f4f4f;fill-opacity:1;stroke:#000000;stroke-width:1px;stroke-linecap:butt;stroke-linejoin:miter;stroke-opacity:1"/>
<path
sodipodi:nodetypes="cc"
inkscape:connector-curvature="0"
id="path24860"
d="m
727.86827,753.7706
c
-5.05486,-24.79231
-31.39602,-48.37928
-44.74964,-65.02483"
style="fill:none;stroke:#000000;stroke-width:1px;stroke-linecap:butt;stroke-linejoin:miter;stroke-opacity:1"/>
<path
sodipodi:nodetypes="cccccc"
inkscape:connector-curvature="0"
id="path7474"
d="m
662.41435,795.34459
-0.76838,-3.38792
c
-2.70114,-13.43526
-5.35172,-25.21976
-10.50191,-39.63463
7.40013,-19.87059
20.58314,-27.22573
36.39962,-27.59333
4.91493,12.11917
18.99526,28.28747
29.13428,39.52553
z"
style="fill:#ffeede;fill-opacity:1;fill-rule:evenodd;stroke:none;stroke-width:1px;stroke-linecap:butt;stroke-linejoin:miter;stroke-opacity:1"/>
<path
style="fill:none;fill-rule:evenodd;stroke:#000000;stroke-width:1px;stroke-linecap:butt;stroke-linejoin:miter;stroke-opacity:1"
d="m
662.04147,794.19784
c
-2.70114,-13.43526
-5.93366,-27.83382
-11.08385,-42.24869"
id="path7447"
inkscape:connector-curvature="0"
sodipodi:nodetypes="cc"/>
<path
style="fill:none;fill-rule:evenodd;stroke:#000000;stroke-width:1px;stroke-linecap:butt;stroke-linejoin:miter;stroke-opacity:1"
d="m
712.24862,758.86071
c
-10.13902,-11.23806
-19.79001,-22.01283
-24.70494,-34.132"
id="path7449"
inkscape:connector-curvature="0"
sodipodi:nodetypes="cc"/>
<g
id="g7467"
transform="matrix(1.0994196,0,0,1.0993876,62.110349,-91.591173)">
<path
sodipodi:nodetypes="csccccccccccsccscc"
inkscape:connector-curvature="0"
id="path7459"
d="m
542.59501,789.92811
c
-1.60628,9.05934
0.28857,23.93268
6.50508,39.28028
2.62511,6.48101
14.1209,19.6131
19.07061,25.31811
13.25973,10.65577
19.74533,19.3568
43.35835,25.30654
4.53757,1.25552
8.15074,2.28556
11.15408,-1.88547
2.72727,0.99574
5.66377,1.98738
8.76763,2.94562
7.8975,1.58351
10.39204,-1.65579
9.89247,-5.92789
2.72749,0.95231
5.4799,1.44606
8.31929,1.33086
3.1859,-0.22682
5.34387,-1.68716
6.0456,-4.89498
0.63847,-4.15444
0.65937,-7.84573
-1.89574,-9.73047
3.50245,-0.84317
6.2146,-1.75476
4.53241,-9.25354
-2.10517,-6.04357
-4.18006,-8.44721
-16.14028,-15.16126
-3.16375,-2.28883
-9.63571,-6.04259
-11.71009,-8.60759
-11.24885,-13.90935
-11.60717,-16.47097
-17.96371,-28.62913
-3.60693,-14.73693
-11.42137,-25.5522
-22.16463,-33.31325
-7.90556,-2.88189
-13.06889,-5.17175
-15.97776,-9.18455
-1.41157,-1.94727
-4.26229,-1.55002
-5.58182,-1.95684
z"
style="fill:#ffeede;fill-opacity:1;fill-rule:evenodd;stroke:none;stroke-width:1px;stroke-linecap:butt;stroke-linejoin:miter;stroke-opacity:1"/>
<path
style="fill:none;fill-rule:evenodd;stroke:#000000;stroke-width:0.90958405px;stroke-linecap:butt;stroke-linejoin:miter;stroke-opacity:1"
d="m
546.15621,780.00733
c
-2.0047,3.10341
-3.52846,8.60982
-3.71337,10.86825
-1.31977,9.12744
0.65286,23.5089
6.65725,38.33281
2.62512,6.48101
14.1209,19.6131
19.07061,25.31811
13.25973,10.65577
19.74533,19.3568
43.35835,25.30654
4.53757,1.25552
8.94174,2.02189
12.0117,-2.10385"
id="path7451"
inkscape:connector-curvature="0"
sodipodi:nodetypes="ccsccc"/>
<path
style="fill:none;fill-rule:evenodd;stroke:#000000;stroke-width:0.90958405px;stroke-linecap:butt;stroke-linejoin:miter;stroke-opacity:1"
d="m
572.65303,838.44282
c
9.34321,12.93678
14.08453,21.4096
31.9037,30.3217
8.96468,6.18222
17.92935,9.38152
26.89403,12.12867
7.8975,1.58351
10.39204,-1.65579
9.86489,-6.01909"
id="path7453"
inkscape:connector-curvature="0"
sodipodi:nodetypes="cccc"/>
<path
style="fill:none;fill-rule:evenodd;stroke:#000000;stroke-width:0.90958405px;stroke-linecap:butt;stroke-linejoin:miter;stroke-opacity:1"
d="m
589.88185,836.5839
c
7.32685,13.45571
14.08795,18.04403
29.44023,27.96194
10.11348,3.91677
19.6052,12.18587
30.34044,11.75032
3.1859,-0.22682
5.34387,-1.68716
6.0456,-4.89498
0.62809,-4.08692
0.87185,-7.41924
-1.53298,-9.23147"
id="path7455"
inkscape:connector-curvature="0"
sodipodi:nodetypes="ccccc"/>
<path
style="fill:none;fill-rule:evenodd;stroke:#000000;stroke-width:0.90958405px;stroke-linecap:butt;stroke-linejoin:miter;stroke-opacity:1"
d="m
596.44154,818.35889
c
7.63573,13.41804
10.76388,19.90914
26.12953,30.71817
6.69575,5.62514
17.67391,12.29194
27.86371,13.88678
3.76302,-0.58567
9.91289,-1.61831
7.91001,-10.54667
-1.00289,-3.41499
-0.86368,-6.06096
-12.8239,-12.77501
-3.16375,-2.28883
-12.8667,-8.74016
-15.02647,-11.23367
-11.00903,-12.7102
-11.12753,-16.7108
-17.96371,-28.3893
-3.11011,-12.70707
-8.90272,-22.32011
-17.32679,-29.70271
-1.34568,-1.17931
-2.81847,-2.90129
-6.57657,-4.44995
-3.16076,-0.93798
-4.55221,-0.50114
-7.29492,-3.60833"
id="path7457"
inkscape:connector-curvature="0"
sodipodi:nodetypes="cccccscscc"/>
</g>
<path
style="fill:none;fill-opacity:1;stroke:#000000;stroke-width:1px;stroke-linecap:butt;stroke-linejoin:miter;stroke-opacity:1"
d="m
645.8305,808.0678
c
-1.30924,-12.53268
-1.11139,-19.44645
-0.74214,-26.31645
-0.22705,-18.28512
5.64996,-32.57912
14.53875,-44.90389
6.58499,-7.21162
15.18006,-12.41315
29.45762,-11.9322
22.32342,0.86394
34.76333,15.17841
40.22983,33.89085"
id="path7478"
inkscape:connector-curvature="0"
sodipodi:nodetypes="ccccc"/>
</g>
</svg>
