<?xml version="1.0" encoding="UTF-8" standalone="no"?>
<svg
   xmlns:dc="http://purl.org/dc/elements/1.1/"
   xmlns:cc="http://creativecommons.org/ns#"
   xmlns:rdf="http://www.w3.org/1999/02/22-rdf-syntax-ns#"
   xmlns:svg="http://www.w3.org/2000/svg"
   xmlns="http://www.w3.org/2000/svg"
   xmlns:sodipodi="http://sodipodi.sourceforge.net/DTD/sodipodi-0.dtd"
   xmlns:inkscape="http://www.inkscape.org/namespaces/inkscape"
   width="150"
   height="65"
   viewBox="75 68 150 65"
   sodipodi:docname="main_activity_gentleman_eyes_03-xxhdpi.svg"
   id="svg2"
   version="1.1"
   inkscape:version="0.91 r13725">
  <metadata
     id="metadata18">
    <rdf:RDF>
      <cc:Work
         rdf:about="">
        <dc:format>image/svg+xml</dc:format>
        <dc:type
           rdf:resource="http://purl.org/dc/dcmitype/StillImage" />
        <dc:title></dc:title>
      </cc:Work>
    </rdf:RDF>
  </metadata>
  <sodipodi:namedview
     pagecolor="#ffffff"
     bordercolor="#666666"
     borderopacity="1"
     objecttolerance="10"
     gridtolerance="10"
     guidetolerance="10"
     inkscape:pageopacity="0"
     inkscape:pageshadow="2"
     inkscape:window-width="732"
     inkscape:window-height="480"
     id="namedview16"
     showgrid="false"
     inkscape:zoom="2.2800001"
     inkscape:cx="0.21929953"
     inkscape:cy="32.5"
     inkscape:window-x="0"
     inkscape:window-y="0"
     inkscape:window-maximized="0"
     inkscape:current-layer="frame_blink_3"
     units="px" />
  <defs
     id="defs6" />
  <g
     id="frame_blink_3"
     inkscape:groupmode="layer"
     inkscape:label="frame_blink_3"
     sodipodi:insensitive="true"
     style="display:inline;opacity:1">
    <ellipse
       transform="translate(-679.67375,-520.06176)"
       style="display:inline;fill:none;stroke:#000000;stroke-width:1;stroke-linejoin:miter;stroke-miterlimit:4;stroke-dasharray:none;stroke-dashoffset:5.5;stroke-opacity:1"
       id="ellipse4086"
       cx="792.80908"
       cy="621.23364"
       rx="27.92462"
       ry="27.924776" />
    <path
       style="display:inline;fill:#ffffff;fill-opacity:1;stroke:none"
       d="m 180.52713,91.296136 c -1.29329,4.077711 -0.90262,9.296074 2.57808,14.866994 5.77049,6.12 14.09993,6.7528 21.605,1.6564 1.75205,-1.59986 5.01396,-4.57321 5.34311,-9.333567 -9.23796,-2.418534 -26.12042,-6.473693 -29.52619,-7.189827 z"
       id="path4088"
       inkscape:connector-curvature="0"
       sodipodi:nodetypes="ccccc" />
    <path
       style="display:inline;fill:none;stroke:#000000;stroke-width:1px;stroke-linecap:butt;stroke-linejoin:miter;stroke-opacity:1"
       d="m 180.50712,91.273011 c -1.53275,4.440282 -1.36825,10.169369 2.58513,14.891919 5.77049,6.12 15.98756,6.3621 21.62821,1.6385 1.71075,-1.56205 4.82536,-4.76346 5.26415,-9.470483"
       id="path4090"
       inkscape:connector-curvature="0"
       sodipodi:nodetypes="cccc" />
    <path
       transform="matrix(0.98361151,-0.18030083,0.18030083,0.98361151,-780.46221,-350.30183)"
       style="display:inline;fill:#000000;fill-opacity:1;stroke:#000000;stroke-width:1;stroke-linejoin:miter;stroke-miterlimit:4;stroke-dashoffset:5.5;stroke-opacity:1"
       d="m 883.13845,616.43988 c 0,3.01255 -2.44214,5.4547 -5.45467,5.4547 -3.01254,0 -5.45468,-2.44215 -5.45468,-5.4547 0,-2.032 1.11109,-3.80448 2.75887,-4.74306 2.77907,1.38111 5.9157,2.59325 8.03685,3.63011 0.0745,0.35931 0.11363,0.73156 0.11363,1.11295 z"
       id="ellipse4092"
       inkscape:connector-curvature="0"
       sodipodi:nodetypes="sssccs" />
    <path
       style="display:inline;fill:#ffffff;fill-opacity:1;stroke:none"
       d="m 98.305586,103.01082 c 0.938252,5.00568 4.820124,7.79115 6.849024,9.05961 7.98508,3.5204 15.78472,1.477 20.18318,-5.3144 2.06447,-5.21161 1.87721,-9.737579 0.46083,-13.229608 -2.71677,0.022 -27.454022,9.677358 -27.493034,9.484398 z"
       id="path4094"
       inkscape:connector-curvature="0"
       sodipodi:nodetypes="ccccc" />
    <path
       transform="matrix(0.96194645,0,0,0.96194645,-650.46946,-496.95682)"
       style="display:inline;fill:#000000;fill-opacity:1;stroke:#000000;stroke-width:1.03955889;stroke-linejoin:miter;stroke-miterlimit:4;stroke-dashoffset:5.5;stroke-opacity:1"
       d="m 799.33486,621.64661 c 0,3.01255 -2.44214,5.4547 -5.45467,5.4547 -3.01253,0 -5.45467,-2.44215 -5.45467,-5.4547 0,-0.49 0.0646,-0.96492 0.18578,-1.41669 3.16167,-1.13525 4.15505,-1.37694 8.48446,-2.98989 1.35738,0.99222 2.2391,2.59643 2.2391,4.40658 z"
       id="ellipse4096"
       inkscape:connector-curvature="0"
       sodipodi:nodetypes="sssccs" />
    <path
       sodipodi:nodetypes="cc"
       inkscape:connector-curvature="0"
       id="path4098"
       d="m 173.48806,89.6176 c 11.54012,2.724205 22.31846,5.036079 43.64497,10.5014"
       style="display:inline;fill:none;stroke:#000000;stroke-width:1px;stroke-linecap:butt;stroke-linejoin:miter;stroke-opacity:1" />
    <path
       style="display:inline;fill:none;stroke:#000000;stroke-width:1px;stroke-linecap:butt;stroke-linejoin:miter;stroke-opacity:1"
       d="M 133.81396,90.507695 C 121.10924,95.849431 106.43747,99.182321 88.279,107.204"
       id="path4100"
       inkscape:connector-curvature="0"
       sodipodi:nodetypes="cc" />
    <path
       style="display:inline;fill:none;stroke:#000000;stroke-width:1px;stroke-linecap:butt;stroke-linejoin:miter;stroke-opacity:1"
       d="m 125.83935,93.66793 c 1.36891,3.474166 1.52846,7.95244 -0.50986,13.098 -4.39847,6.7914 -12.19494,8.8219 -20.18002,5.3015 -2.0373,-1.27369 -5.949157,-4.06728 -6.868704,-9.10916"
       id="path4102"
       inkscape:connector-curvature="0"
       sodipodi:nodetypes="cccc" />
  </g>
</svg>
