<?xml version="1.0" encoding="UTF-8" standalone="no"?>
<svg
   xmlns:dc="http://purl.org/dc/elements/1.1/"
   xmlns:cc="http://creativecommons.org/ns#"
   xmlns:rdf="http://www.w3.org/1999/02/22-rdf-syntax-ns#"
   xmlns:svg="http://www.w3.org/2000/svg"
   xmlns="http://www.w3.org/2000/svg"
   xmlns:sodipodi="http://sodipodi.sourceforge.net/DTD/sodipodi-0.dtd"
   xmlns:inkscape="http://www.inkscape.org/namespaces/inkscape"
   width="150"
   height="65"
   viewBox="75 68 150 65"
   sodipodi:docname="main_activity_gentleman_eyes_01-xxhdpi.svg"
   id="svg2"
   version="1.1"
   inkscape:version="0.91 r13725">
  <metadata
     id="metadata18">
    <rdf:RDF>
      <cc:Work
         rdf:about="">
        <dc:format>image/svg+xml</dc:format>
        <dc:type
           rdf:resource="http://purl.org/dc/dcmitype/StillImage" />
        <dc:title></dc:title>
      </cc:Work>
    </rdf:RDF>
  </metadata>
  <sodipodi:namedview
     pagecolor="#ffffff"
     bordercolor="#666666"
     borderopacity="1"
     objecttolerance="10"
     gridtolerance="10"
     guidetolerance="10"
     inkscape:pageopacity="0"
     inkscape:pageshadow="2"
     inkscape:window-width="732"
     inkscape:window-height="480"
     id="namedview16"
     showgrid="false"
     inkscape:zoom="2.2800001"
     inkscape:cx="28.508772"
     inkscape:cy="32.5"
     inkscape:window-x="0"
     inkscape:window-y="0"
     inkscape:window-maximized="0"
     inkscape:current-layer="frame_blink_1"
     units="px" />
  <defs
     id="defs6" />
  <g
     id="frame_blink_1"
     inkscape:groupmode="layer"
     inkscape:label="frame_blink_1"
     style="display:inline;opacity:1">
    <ellipse
       transform="translate(-679.67375,-520.06176)"
       style="display:inline;fill:none;stroke:#000000;stroke-width:1;stroke-linejoin:miter;stroke-miterlimit:4;stroke-dasharray:none;stroke-dashoffset:5.5;stroke-opacity:1"
       id="path3044-7"
       cx="792.80908"
       cy="621.23364"
       rx="27.92462"
       ry="27.924776" />
    <path
       style="display:inline;fill:#ffffff;fill-opacity:1;stroke:none"
       d="m 181.33045,89.309925 c -2.1399,4.2911 -2.30062,10.3305 1.77476,16.853205 5.77049,6.12 14.09993,6.7528 21.605,1.6564 2.17602,-1.987 6.61201,-6.6451 4.93485,-13.661605 l -1.15854,-3.2233 c -0.0576,-0.1212 -0.0942,-0.2376 -0.15583,-0.3598 l -1.75347,-0.2761 c -8.30791,-2.6547 -15.90904,-3.7693 -23.21391,-3.7515 l -0.15517,-0.031 c -0.009,0.01 -0.0147,0.024 -0.0233,0.034 z"
       id="path3828-7"
       inkscape:connector-curvature="0"
       sodipodi:nodetypes="ccccccccccc" />
    <path
       style="display:inline;fill:none;stroke:#000000;stroke-width:1px;stroke-linecap:butt;stroke-linejoin:miter;stroke-opacity:1"
       d="m 183.2015,86.507725 c -3.68962,4.1841 -5.73316,12.9391 -0.10925,19.657205 5.77049,6.12 15.98756,6.3621 21.62821,1.6385 2.52858,-2.3088 8.12411,-8.199005 3.61316,-17.238805"
       id="path3052-2"
       inkscape:connector-curvature="0"
       sodipodi:nodetypes="cccc" />
    <ellipse
       style="display:inline;fill:#000000;fill-opacity:1;stroke:#000000;stroke-width:1;stroke-linejoin:miter;stroke-miterlimit:4;stroke-dasharray:none;stroke-dashoffset:5.5;stroke-opacity:1"
       id="path3054-9"
       cx="877.68378"
       cy="616.43988"
       rx="5.4546723"
       ry="5.4547029"
       transform="matrix(0.98361151,-0.18030083,0.18030083,0.98361151,-780.46221,-350.30183)" />
    <path
       style="display:inline;fill:#ffffff;fill-opacity:1;stroke:none"
       d="m 121.83261,88.211525 c -0.01,-0.01 -0.0181,-0.02 -0.0281,-0.028 l -0.14129,0.057 c -6.91479,1.2502 -13.91352,3.6231 -21.3139,7.5758 l -1.611295,0.5654 c -0.0362,0.1263 -0.0516,0.2429 -0.085,0.3675 l -0.53704,3.279005 c -0.35839,6.9155 4.637615,10.5411 7.038625,12.0422 7.98508,3.5204 15.78472,1.477 20.18318,-5.3144 2.72537,-6.880005 1.52655,-12.565105 -1.24378,-16.254005 z"
       id="path3899-7"
       inkscape:connector-curvature="0"
       sodipodi:nodetypes="ccccccccccc" />
    <ellipse
       id="path3824-6"
       style="display:inline;fill:#000000;fill-opacity:1;stroke:#000000;stroke-width:1.03955889;stroke-linejoin:miter;stroke-miterlimit:4;stroke-dasharray:none;stroke-dashoffset:5.5;stroke-opacity:1"
       cx="793.88019"
       cy="621.64661"
       rx="5.4546723"
       ry="5.4547029"
       transform="matrix(0.96194645,0,0,0.96194645,-650.46946,-496.95682)" />
    <path
       sodipodi:nodetypes="cc"
       inkscape:connector-curvature="0"
       id="path3826-9"
       d="m 173.48806,86.217625 c 15.14201,0.2724 31.23437,-1.4761 43.64497,10.5014"
       style="display:inline;fill:none;stroke:#000000;stroke-width:1px;stroke-linecap:butt;stroke-linejoin:miter;stroke-opacity:1" />
    <path
       style="display:inline;fill:none;stroke:#000000;stroke-width:1px;stroke-linecap:butt;stroke-linejoin:miter;stroke-opacity:1"
       d="m 133.31375,87.107325 c -14.54591,0.2588 -28.84251,4.4169 -45.534965,16.696305"
       id="path3830-8"
       inkscape:connector-curvature="0"
       sodipodi:nodetypes="cc" />
    <path
       style="display:inline;fill:none;stroke:#000000;stroke-width:1px;stroke-linecap:butt;stroke-linejoin:miter;stroke-opacity:1"
       d="m 121.81677,88.185525 c 4.21675,3.319 6.90059,10.028 3.51272,18.580405 -4.39847,6.7914 -12.19494,8.8219 -20.18002,5.3015 -2.79295,-1.7461 -9.108905,-6.3487 -6.408595,-15.684405"
       id="path3832-9"
       inkscape:connector-curvature="0"
       sodipodi:nodetypes="cccc" />
  </g>
</svg>
