<?xml version="1.0" encoding="UTF-8" standalone="no"?>
<svg
   xmlns:dc="http://purl.org/dc/elements/1.1/"
   xmlns:cc="http://creativecommons.org/ns#"
   xmlns:rdf="http://www.w3.org/1999/02/22-rdf-syntax-ns#"
   xmlns:svg="http://www.w3.org/2000/svg"
   xmlns="http://www.w3.org/2000/svg"
   xmlns:sodipodi="http://sodipodi.sourceforge.net/DTD/sodipodi-0.dtd"
   xmlns:inkscape="http://www.inkscape.org/namespaces/inkscape"
   width="150"
   height="65"
   viewBox="75 68 150 65"
   sodipodi:docname="main_activity_gentleman_eyes_02-xxhdpi.svg"
   id="svg2"
   version="1.1"
   inkscape:version="0.91 r13725">
  <metadata
     id="metadata18">
    <rdf:RDF>
      <cc:Work
         rdf:about="">
        <dc:format>image/svg+xml</dc:format>
        <dc:type
           rdf:resource="http://purl.org/dc/dcmitype/StillImage" />
        <dc:title></dc:title>
      </cc:Work>
    </rdf:RDF>
  </metadata>
  <sodipodi:namedview
     pagecolor="#ffffff"
     bordercolor="#666666"
     borderopacity="1"
     objecttolerance="10"
     gridtolerance="10"
     guidetolerance="10"
     inkscape:pageopacity="0"
     inkscape:pageshadow="2"
     inkscape:window-width="732"
     inkscape:window-height="480"
     id="namedview16"
     showgrid="false"
     inkscape:zoom="2.2800001"
     inkscape:cx="0.21929953"
     inkscape:cy="32.5"
     inkscape:window-x="0"
     inkscape:window-y="0"
     inkscape:window-maximized="0"
     inkscape:current-layer="frame_blink_2"
     units="px" />
  <defs
     id="defs6" />
  <g
     style="display:inline;opacity:1"
     sodipodi:insensitive="true"
     id="frame_blink_2"
     inkscape:groupmode="layer"
     inkscape:label="frame_blink_2">
    <ellipse
       transform="translate(-679.67375,-520.06176)"
       style="display:inline;fill:none;stroke:#000000;stroke-width:1;stroke-linejoin:miter;stroke-miterlimit:4;stroke-dasharray:none;stroke-dashoffset:5.5;stroke-opacity:1"
       id="ellipse3222"
       cx="792.80908"
       cy="621.23364"
       rx="27.92462"
       ry="27.924776" />
    <path
       style="display:inline;fill:#ffffff;fill-opacity:1;stroke:none"
       d="m 181.33045,89.309925 c -2.1399,4.2911 -2.30062,10.3305 1.77476,16.853205 5.77049,6.12 14.09993,6.7528 21.605,1.6564 2.17602,-1.987 6.68106,-6.09267 5.0039,-13.109178 -7.80244,-2.937656 -22.70402,-5.088807 -28.38366,-5.400427 z"
       id="path3224"
       inkscape:connector-curvature="0"
       sodipodi:nodetypes="ccccc" />
    <path
       style="display:inline;fill:none;stroke:#000000;stroke-width:1px;stroke-linecap:butt;stroke-linejoin:miter;stroke-opacity:1"
       d="m 181.55003,88.897787 c -2.50143,4.602544 -3.16216,11.647473 1.54222,17.267143 5.77049,6.12 15.98756,6.3621 21.62821,1.6385 2.09934,-1.91687 6.31276,-6.30243 5.10116,-12.909558"
       id="path3226"
       inkscape:connector-curvature="0"
       sodipodi:nodetypes="cccc" />
    <ellipse
       style="display:inline;fill:#000000;fill-opacity:1;stroke:#000000;stroke-width:1;stroke-linejoin:miter;stroke-miterlimit:4;stroke-dasharray:none;stroke-dashoffset:5.5;stroke-opacity:1"
       id="ellipse3228"
       cx="877.68378"
       cy="616.43988"
       rx="5.4546723"
       ry="5.4547029"
       transform="matrix(0.98361151,-0.18030083,0.18030083,0.98361151,-780.46221,-350.30183)" />
    <path
       style="display:inline;fill:#ffffff;fill-opacity:1;stroke:none"
       d="m 98.115985,100.02823 c -0.35839,6.9155 4.637615,10.5411 7.038625,12.0422 7.98508,3.5204 15.78472,1.477 20.18318,-5.3144 2.72537,-6.880005 1.52655,-12.565105 -1.24378,-16.254005 -14.41519,4.320019 -21.2696,7.65411 -25.978025,9.526205 z"
       id="path3230"
       inkscape:connector-curvature="0"
       sodipodi:nodetypes="ccccc" />
    <ellipse
       id="ellipse3232"
       style="display:inline;fill:#000000;fill-opacity:1;stroke:#000000;stroke-width:1.03955889;stroke-linejoin:miter;stroke-miterlimit:4;stroke-dasharray:none;stroke-dashoffset:5.5;stroke-opacity:1"
       cx="793.88019"
       cy="621.64661"
       rx="5.4546723"
       ry="5.4547029"
       transform="matrix(0.96194645,0,0,0.96194645,-650.46946,-496.95682)" />
    <path
       sodipodi:nodetypes="cc"
       inkscape:connector-curvature="0"
       id="path3234"
       d="m 173.48806,88.217625 c 14.64343,1.394215 29.75692,1.848166 43.64497,10.5014"
       style="display:inline;fill:none;stroke:#000000;stroke-width:1px;stroke-linecap:butt;stroke-linejoin:miter;stroke-opacity:1" />
    <path
       style="display:inline;fill:none;stroke:#000000;stroke-width:1px;stroke-linecap:butt;stroke-linejoin:miter;stroke-opacity:1"
       d="m 133.31375,89.107325 c -13.882,1.918576 -28.03618,6.432719 -45.534965,16.696305"
       id="path3236"
       inkscape:connector-curvature="0"
       sodipodi:nodetypes="cc" />
    <path
       style="display:inline;fill:none;stroke:#000000;stroke-width:1px;stroke-linecap:butt;stroke-linejoin:miter;stroke-opacity:1"
       d="m 124.21404,90.690695 c 2.6749,3.692675 3.7967,9.306642 1.11545,16.075235 -4.39847,6.7914 -12.19494,8.8219 -20.18002,5.3015 -2.40011,-1.50051 -7.401881,-5.11047 -7.047794,-12.0208"
       id="path3238"
       inkscape:connector-curvature="0"
       sodipodi:nodetypes="cccc" />
  </g>
</svg>
