<?xml version="1.0" encoding="UTF-8" standalone="no"?>
<svg
   xmlns:dc="http://purl.org/dc/elements/1.1/"
   xmlns:cc="http://creativecommons.org/ns#"
   xmlns:rdf="http://www.w3.org/1999/02/22-rdf-syntax-ns#"
   xmlns:svg="http://www.w3.org/2000/svg"
   xmlns="http://www.w3.org/2000/svg"
   xmlns:sodipodi="http://sodipodi.sourceforge.net/DTD/sodipodi-0.dtd"
   xmlns:inkscape="http://www.inkscape.org/namespaces/inkscape"
   width="150"
   height="65"
   viewBox="75 68 150 65"
   sodipodi:docname="main_activity_gentleman_eyes_04-xxhdpi.svg"
   id="svg2"
   version="1.1"
   inkscape:version="0.91 r13725">
  <metadata
     id="metadata18">
    <rdf:RDF>
      <cc:Work
         rdf:about="">
        <dc:format>image/svg+xml</dc:format>
        <dc:type
           rdf:resource="http://purl.org/dc/dcmitype/StillImage" />
        <dc:title></dc:title>
      </cc:Work>
    </rdf:RDF>
  </metadata>
  <sodipodi:namedview
     pagecolor="#ffffff"
     bordercolor="#666666"
     borderopacity="1"
     objecttolerance="10"
     gridtolerance="10"
     guidetolerance="10"
     inkscape:pageopacity="0"
     inkscape:pageshadow="2"
     inkscape:window-width="732"
     inkscape:window-height="480"
     id="namedview16"
     showgrid="false"
     inkscape:zoom="2.2800001"
     inkscape:cx="0.21929953"
     inkscape:cy="32.5"
     inkscape:window-x="0"
     inkscape:window-y="0"
     inkscape:window-maximized="0"
     inkscape:current-layer="frame_blink_4"
     units="px" />
  <defs
     id="defs6" />
  <g
     style="display:inline;opacity:1"
     sodipodi:insensitive="true"
     id="frame_blink_4"
     inkscape:groupmode="layer"
     inkscape:label="frame_blink_4">
    <ellipse
       transform="translate(-679.67375,-520.06176)"
       style="display:inline;fill:none;stroke:#000000;stroke-width:1;stroke-linejoin:miter;stroke-miterlimit:4;stroke-dasharray:none;stroke-dashoffset:5.5;stroke-opacity:1"
       id="ellipse4203"
       cx="792.80908"
       cy="621.23364"
       rx="27.92462"
       ry="27.924776" />
    <path
       style="display:inline;fill:#ffffff;fill-opacity:1;stroke:none"
       d="m 179.90525,94.431267 c -0.30376,3.477711 0.55791,7.503223 3.19996,11.731863 5.77049,6.12 14.09993,6.7528 21.605,1.6564 1.36006,-1.24192 3.62996,-3.3115 4.73154,-6.40217 -7.32084,0.51512 -24.51009,-3.373873 -29.5365,-6.986093 z"
       id="path4205"
       inkscape:connector-curvature="0"
       sodipodi:nodetypes="ccccc" />
    <path
       style="display:inline;fill:none;stroke:#000000;stroke-width:1px;stroke-linecap:butt;stroke-linejoin:miter;stroke-opacity:1"
       d="m 179.77459,94.293354 c -0.55428,3.837256 0.21438,8.164516 3.31766,11.871576 5.77049,6.12 15.98756,6.3621 21.62821,1.6385 1.29861,-1.18573 3.40614,-3.31609 4.53816,-6.33256"
       id="path4207"
       inkscape:connector-curvature="0"
       sodipodi:nodetypes="cccc" />
    <path
       transform="matrix(0.98361151,-0.18030083,0.18030083,0.98361151,-780.46221,-350.30183)"
       style="display:inline;fill:#000000;fill-opacity:1;stroke:#000000;stroke-width:1;stroke-linejoin:miter;stroke-miterlimit:4;stroke-dashoffset:5.5;stroke-opacity:1"
       d="m 881.79361,620.02648 c -0.99991,1.14484 -2.47041,1.8681 -4.10983,1.8681 -3.01254,0 -5.45468,-2.44215 -5.45468,-5.4547 0,-0.1503 0.006,-0.29919 0.018,-0.44642 2.92513,1.28172 5.5476,2.84696 9.54651,4.03302 z"
       id="path4209"
       inkscape:connector-curvature="0"
       sodipodi:nodetypes="csscc" />
    <path
       style="display:inline;fill:#ffffff;fill-opacity:1;stroke:none"
       d="m 99.612136,106.58875 c 1.589944,2.81928 4.060514,4.55516 5.542474,5.48168 7.98508,3.5204 15.78472,1.477 20.18318,-5.3144 1.38004,-3.48381 1.75388,-6.66123 1.427,-9.428236 -1.97842,2.676436 -27.871945,9.902266 -27.152654,9.260956 z"
       id="path4211"
       inkscape:connector-curvature="0"
       sodipodi:nodetypes="ccccc" />
    <path
       transform="matrix(0.96194645,0,0,0.96194645,-650.46946,-496.95682)"
       style="display:inline;fill:#000000;fill-opacity:1;stroke:#000000;stroke-width:1.03955889;stroke-linejoin:miter;stroke-miterlimit:4;stroke-dashoffset:5.5;stroke-opacity:1"
       d="m 799.32604,621.95946 c -0.16211,2.86697 -2.53832,5.14185 -5.44585,5.14185 -1.71003,0 -3.23628,-0.7869 -4.23639,-2.01835 3.08351,-0.73824 7.24346,-2.2566 9.68224,-3.1235 z"
       id="path4213"
       inkscape:connector-curvature="0"
       sodipodi:nodetypes="cscc" />
    <path
       sodipodi:nodetypes="cc"
       inkscape:connector-curvature="0"
       id="path4215"
       d="m 173.48806,91.2176 c 9.13054,4.33537 15.80824,10.45073 43.64497,10.5014"
       style="display:inline;fill:none;stroke:#000000;stroke-width:1px;stroke-linecap:butt;stroke-linejoin:miter;stroke-opacity:1" />
    <path
       style="display:inline;fill:none;stroke:#000000;stroke-width:1px;stroke-linecap:butt;stroke-linejoin:miter;stroke-opacity:1"
       d="M 134.31396,91.907695 C 122.00621,101.99814 107.27191,105.00994 88.779,108.604"
       id="path4217"
       inkscape:connector-curvature="0"
       sodipodi:nodetypes="cc" />
    <path
       style="display:inline;fill:none;stroke:#000000;stroke-width:1px;stroke-linecap:butt;stroke-linejoin:miter;stroke-opacity:1"
       d="m 126.73412,97.176764 c 0.36198,2.804766 0.002,6.038056 -1.40463,9.589166 -4.39847,6.7914 -12.19494,8.8219 -20.18002,5.3015 -1.51059,-0.9444 -4.05177,-2.7244 -5.639596,-5.63692"
       id="path4219"
       inkscape:connector-curvature="0"
       sodipodi:nodetypes="cccc" />
  </g>
</svg>
