<?xml version="1.0" encoding="UTF-8" standalone="no"?>
<svg
   xmlns:dc="http://purl.org/dc/elements/1.1/"
   xmlns:cc="http://creativecommons.org/ns#"
   xmlns:rdf="http://www.w3.org/1999/02/22-rdf-syntax-ns#"
   xmlns:svg="http://www.w3.org/2000/svg"
   xmlns="http://www.w3.org/2000/svg"
   xmlns:sodipodi="http://sodipodi.sourceforge.net/DTD/sodipodi-0.dtd"
   xmlns:inkscape="http://www.inkscape.org/namespaces/inkscape"
   width="150"
   height="65"
   viewBox="75 68 150 65"
   sodipodi:docname="main_activity_gentleman_eyes_05-xxhdpi.svg"
   id="svg2"
   version="1.1"
   inkscape:version="0.91 r13725">
  <metadata
     id="metadata16">
    <rdf:RDF>
      <cc:Work
         rdf:about="">
        <dc:format>image/svg+xml</dc:format>
        <dc:type
           rdf:resource="http://purl.org/dc/dcmitype/StillImage" />
        <dc:title></dc:title>
      </cc:Work>
    </rdf:RDF>
  </metadata>
  <sodipodi:namedview
     pagecolor="#ffffff"
     bordercolor="#666666"
     borderopacity="1"
     objecttolerance="10"
     gridtolerance="10"
     guidetolerance="10"
     inkscape:pageopacity="0"
     inkscape:pageshadow="2"
     inkscape:window-width="732"
     inkscape:window-height="480"
     id="namedview14"
     showgrid="false"
     inkscape:zoom="2.2800001"
     inkscape:cx="0.21929953"
     inkscape:cy="32.5"
     inkscape:window-x="0"
     inkscape:window-y="0"
     inkscape:window-maximized="0"
     inkscape:current-layer="frame_blink_5"
     units="px" />
  <defs
     id="defs6" />
  <g
     id="frame_blink_5"
     inkscape:groupmode="layer"
     inkscape:label="frame_blink_5"
     sodipodi:insensitive="true"
     style="display:inline;opacity:1">
    <ellipse
       transform="translate(-679.67375,-520.06176)"
       style="display:inline;fill:none;stroke:#000000;stroke-width:1;stroke-linejoin:miter;stroke-miterlimit:4;stroke-dasharray:none;stroke-dashoffset:5.5;stroke-opacity:1"
       id="ellipse4338"
       cx="792.80908"
       cy="621.23364"
       rx="27.92462"
       ry="27.924776" />
    <path
       style="display:inline;fill:#ffffff;fill-opacity:1;stroke:none"
       d="m 180.07189,98.463127 c 0.40149,2.426933 1.36058,5.022753 3.03332,7.700003 5.77049,6.12 14.09993,6.7528 21.605,1.6564 0.83355,-0.76115 2.00886,-1.83318 3.0475,-3.26062 -4.59624,1.43682 -16.93421,0.62077 -27.68582,-6.095783 z"
       id="path4340"
       inkscape:connector-curvature="0"
       sodipodi:nodetypes="ccccc" />
    <path
       style="display:inline;fill:none;stroke:#000000;stroke-width:1px;stroke-linecap:butt;stroke-linejoin:miter;stroke-opacity:1"
       d="m 179.70278,98.289314 c 0.29871,2.682026 1.32996,5.415396 3.38947,7.875616 5.77049,6.12 15.98756,6.3621 21.62821,1.6385 0.80291,-0.73312 1.91506,-1.82735 2.91467,-3.26886"
       id="path4342"
       inkscape:connector-curvature="0"
       sodipodi:nodetypes="cccc" />
    <path
       style="display:inline;fill:#ffffff;fill-opacity:1;stroke:none"
       d="m 101.84093,109.48717 c 1.19175,1.18845 2.42891,2.0301 3.31368,2.58326 7.98508,3.5204 15.78472,1.477 20.18318,-5.3144 0.64063,-1.61721 1.06443,-3.1684 1.30196,-4.64316 -6.17101,5.00307 -18.18298,6.87199 -24.79882,7.3743 z"
       id="path4346"
       inkscape:connector-curvature="0"
       sodipodi:nodetypes="ccccc" />
    <path
       sodipodi:nodetypes="cc"
       inkscape:connector-curvature="0"
       id="path4350"
       d="m 174.17166,92.7801 c 11.27021,14.54722 30.30957,13.6752 41.25239,10.20843"
       style="display:inline;fill:none;stroke:#000000;stroke-width:1px;stroke-linecap:butt;stroke-linejoin:miter;stroke-opacity:1" />
    <path
       style="display:inline;fill:none;stroke:#000000;stroke-width:1px;stroke-linecap:butt;stroke-linejoin:miter;stroke-opacity:1"
       d="m 133.82568,94.153789 c -10.408,16.179151 -27.8688,15.579711 -42.800587,15.231461"
       id="path4352"
       inkscape:connector-curvature="0"
       sodipodi:nodetypes="cc" />
    <path
       style="display:inline;fill:none;stroke:#000000;stroke-width:1px;stroke-linecap:butt;stroke-linejoin:miter;stroke-opacity:1"
       d="m 126.60039,102.30557 c -0.24213,1.42006 -0.65675,2.90992 -1.2709,4.46036 -4.39847,6.7914 -12.19494,8.8219 -20.18002,5.3015 -0.87136,-0.54476 -2.08564,-1.36756 -3.26205,-2.52539"
       id="path4354"
       inkscape:connector-curvature="0"
       sodipodi:nodetypes="cccc" />
  </g>
</svg>
