<?xml version="1.0" encoding="UTF-8" standalone="no"?>
<!-- Created with Inkscape (http://www.inkscape.org/) -->

<svg
   xmlns:dc="http://purl.org/dc/elements/1.1/"
   xmlns:cc="http://creativecommons.org/ns#"
   xmlns:rdf="http://www.w3.org/1999/02/22-rdf-syntax-ns#"
   xmlns:svg="http://www.w3.org/2000/svg"
   xmlns="http://www.w3.org/2000/svg"
   xmlns:sodipodi="http://sodipodi.sourceforge.net/DTD/sodipodi-0.dtd"
   xmlns:inkscape="http://www.inkscape.org/namespaces/inkscape"
   width="298"
   height="193"
   id="svg2"
   version="1.1"
   inkscape:version="0.48.4 r9939"
   sodipodi:docname="menu_card_new_de.svg">
  <defs
     id="defs4">
    <inkscape:path-effect
       effect="envelope"
       id="path-effect3881"
       is_visible="true"
       yy="true"
       xx="true"
       bendpath1="m 0.51393408,631.8761 299.97213592,0"
       bendpath2="m 300.48607,631.8761 0,199.97209"
       bendpath3="m 0.51393408,831.84819 299.97213592,0"
       bendpath4="m 0.51393408,631.8761 0,199.97209" />
    <inkscape:path-effect
       effect="envelope"
       id="path-effect3874"
       is_visible="true"
       yy="true"
       xx="true"
       bendpath1="M 0.51393408,851.8761 C 100.8201,859.43719 200.35703,862.77417 301.91464,870.44753"
       bendpath2="m 298.92175,873.3758 c -5.48736,41.49677 -2.90751,111.36598 -0.19285,154.2297"
       bendpath3="M 0.51393408,1051.8482 C 99.484576,1047.0023 199.2883,1036.7984 300.48607,1034.7053"
       bendpath4="m 0.51393408,851.8761 c -8.68767528,66.65737 -6.48208318,133.31473 0,199.9721"
       bendpath2-nodetypes="cc"
       bendpath1-nodetypes="cc"
       bendpath3-nodetypes="cc"
       bendpath4-nodetypes="cc" />
  </defs>
  <sodipodi:namedview
     id="base"
     pagecolor="#ffffff"
     bordercolor="#666666"
     borderopacity="1.0"
     inkscape:pageopacity="0.0"
     inkscape:pageshadow="2"
     inkscape:zoom="0.7"
     inkscape:cx="-65.80915"
     inkscape:cy="338.71524"
     inkscape:document-units="px"
     inkscape:current-layer="layer1"
     showgrid="false"
     inkscape:window-width="1400"
     inkscape:window-height="1001"
     inkscape:window-x="0"
     inkscape:window-y="30"
     inkscape:window-maximized="1" />
  <metadata
     id="metadata7">
    <rdf:RDF>
      <cc:Work
         rdf:about="">
        <dc:format>image/svg+xml</dc:format>
        <dc:type
           rdf:resource="http://purl.org/dc/dcmitype/StillImage" />
        <dc:title />
      </cc:Work>
    </rdf:RDF>
  </metadata>
  <g
     inkscape:label="Ebene 1"
     inkscape:groupmode="layer"
     id="layer1"
     transform="translate(0,-859.36218)">
    <g
       id="g3876"
       inkscape:path-effect="#path-effect3881">
      <rect
         style="fill:#ffffff;fill-opacity:1;stroke:#000000;stroke-width:1;stroke-linejoin:miter;stroke-miterlimit:4;stroke-opacity:1;stroke-dasharray:none;stroke-dashoffset:5.5"
         id="rect3782"
         width="299.97214"
         height="199.97209"
         x="0.51393408"
         y="631.8761"
         rx="22.220156"
         ry="22.21912"
         d="m 22.733576,631.24486 c 85.177274,0 170.354554,0 255.531824,0 12.30997,0 22.22016,9.90972 22.22016,22.21911 0,51.84462 0,103.68924 0,155.53386 0,12.30939 -9.91019,22.21912 -22.22016,22.21912 -85.17727,0 -170.35455,0 -255.531824,0 -12.309966,0 -22.22015534,-9.90973 -22.22015534,-22.21912 0,-51.84462 0,-103.68924 0,-155.53386 0,-12.30939 9.91018934,-22.21911 22.22015534,-22.21911 z" />
      <text
         xml:space="preserve"
         style="font-size:40px;font-style:normal;font-variant:normal;font-weight:normal;font-stretch:normal;line-height:125%;letter-spacing:0px;word-spacing:0px;fill:#000000;fill-opacity:1;stroke:none;font-family:eufm10;-inkscape-font-specification:eufm10"
         x="41.109375"
         y="744.78406"
         id="text3784"
         sodipodi:linespacing="125%"><tspan
           sodipodi:role="line"
           id="tspan3786"
           x="41.109375"
           y="744.78406"
           style="font-size:64px;font-style:normal;font-variant:normal;font-weight:bold;font-stretch:normal;fill:#4d4d4d;font-family:Gardiner;-inkscape-font-specification:Gardiner Bold">Neues Spiel</tspan></text>
    </g>
    <g
       id="g3847"
       transform="matrix(0.96862092,0,0,0.96862092,7.4135911,254.90454)">
      <path
         style="font-size:medium;font-style:normal;font-variant:normal;font-weight:normal;font-stretch:normal;text-indent:0;text-align:start;text-decoration:none;line-height:normal;letter-spacing:normal;word-spacing:normal;text-transform:none;direction:ltr;block-progression:tb;writing-mode:lr-tb;text-anchor:start;baseline-shift:baseline;color:#000000;fill:#000000;fill-opacity:1;fill-rule:nonzero;stroke:none;stroke-width:1;marker:none;visibility:visible;display:inline;overflow:visible;enable-background:accumulate;font-family:Sans;-inkscape-font-specification:Sans"
         d="m 22.90625,852.125 c -12.602471,-0.88871 -24.0630559,8.45387 -25.28125,21 -0.8024842,8.26475 -1.4677516,16.53105 -1.96875,24.8125 -1.0709807,17.7032 -1.4445858,35.45869 -1.3125,53.21875 0.096376,12.95858 0.4496566,25.92504 1.03125,38.875 0.581588,12.94985 1.3838524,25.88625 2.4375,38.81255 0.512655,6.2891 3.5617713,11.7455 8.0625,15.5312 4.500297,3.7853 10.443092,5.8952 16.71875,5.4688 21.249145,-1.4436 42.563469,-2.6064 63.875,-3.875 21.31129,-1.2687 42.61982,-2.6169 63.90625,-4.0626 21.28618,-1.4454 42.54206,-2.982 63.75,-4.5312 21.20769,-1.5491 42.37992,-3.0961 63.46875,-4.7188 6.21494,-0.4782 11.58898,-3.1573 15.34375,-7 3.75414,-3.8419 5.91788,-8.849 5.5625,-14.125 -0.72369,-10.7437 -1.20967,-21.13397 -1.5625,-31.3437 -0.35284,-10.20969 -0.58179,-20.2454 -0.6875,-30.21875 -0.14488,-13.66824 -0.0557,-27.25816 0.71875,-41.09375 0.36227,-6.47252 0.87157,-12.97836 1.59375,-19.59375 0.55422,-5.07679 -1.3352,-9.91293 -4.875,-13.65625 -3.54108,-3.74466 -8.75863,-6.41158 -14.9375,-6.96875 -20.97455,-1.89134 -42.12148,-3.54181 -63.375,-4.96875 -21.25337,-1.42693 -42.59296,-2.63337 -64,-3.8125 -21.40689,-1.17912 -42.88228,-2.3304 -64.3125,-3.59375 C 65.632428,855.0179 44.243974,853.62969 22.90625,852.125 z m -0.09375,1 c 21.34145,1.50495 42.784734,2.89266 64.21875,4.15625 21.43387,1.26357 42.87544,2.41469 64.28125,3.59375 21.40566,1.17905 42.75327,2.38601 64,3.8125 21.24658,1.42648 42.3775,3.07815 63.34375,4.96875 5.94383,0.53597 10.94518,3.09533 14.3125,6.65625 3.36858,3.56226 5.11411,8.07706 4.59375,12.84375 -0.72444,6.63607 -1.23068,13.20078 -1.59375,19.6875 -0.77616,13.86721 -0.86375,27.44482 -0.71875,41.125 0.10579,9.98163 0.3344,20.03275 0.6875,30.25 0.35309,10.21721 0.83787,20.61735 1.5625,31.37505 0.33436,4.9638 -1.69771,9.7075 -5.28125,13.375 -3.58291,3.6667 -8.71198,6.2277 -14.6875,6.6874 -21.08641,1.6226 -42.26124,3.1697 -63.46875,4.7188 -21.20728,1.5492 -42.46656,3.0859 -63.75,4.5312 -21.28321,1.4454 -42.59729,2.794 -63.90625,4.0626 -21.308719,1.2685 -42.617463,2.4309 -63.875,3.875 -6.01062,0.4083 -11.69202,-1.5953 -16,-5.2188 -4.3075489,-3.6233 -7.22834736,-8.8588 -7.71875,-14.875 -1.0525668,-12.913 -1.856405,-25.8423 -2.4375,-38.78125 -0.5810896,-12.93874 -0.934976,-25.89891 -1.03125,-38.84375 -0.1319422,-17.74074 0.2430853,-35.44768 1.3125,-53.125 0.5002708,-8.26943 1.1674436,-16.52864 1.96875,-24.78125 1.16447107,-11.99283 12.117701,-20.9449 24.1875,-20.09375 z"
         id="rect3004"
         inkscape:connector-curvature="0" />
    </g>
    <g
       id="g3993"
       transform="translate(8.828125,0.20312238)">
      <g
         style="font-size:40px;font-style:normal;font-variant:normal;font-weight:normal;font-stretch:normal;line-height:125%;letter-spacing:0px;word-spacing:0px;fill:#000000;fill-opacity:1;stroke:none;font-family:eufm10;-inkscape-font-specification:eufm10"
         id="text3906">
        <path
           d="m 356.6875,933.20593 c -4e-5,0.7917 -0.28129,1.26045 -0.84375,1.40625 -0.56254,0.12504 -1.13546,0.25004 -1.71875,0.375 -0.75004,0.4167 -1.30212,1.32295 -1.65625,2.71875 l -6.21875,24.125 c 1.93747,3.4375 2.90622,5.17709 2.90625,5.21875 -3e-5,0.22917 -0.71878,0.34375 -2.15625,0.34375 -1.58336,0 -2.43753,-0.11458 -2.5625,-0.34375 l -14.90625,-27.4375 -6,23.3125 c -0.0833,0.33334 -0.12501,0.66667 -0.125,1 -10e-6,1.39584 1.29166,2.09375 3.875,2.09375 0.20832,0 0.31249,0.0937 0.3125,0.28125 -10e-6,0.9375 -0.23959,1.40625 -0.71875,1.40625 -0.52084,0 -1.32293,-0.0521 -2.40625,-0.15625 -1.06251,-0.10416 -1.86459,-0.15625 -2.40625,-0.15625 -0.56251,0 -1.39584,0.0521 -2.5,0.15625 -1.08334,0.10417 -1.89584,0.15625 -2.4375,0.15625 -0.22917,0 -0.34375,-0.10416 -0.34375,-0.3125 0,-0.5625 0.14583,-0.97916 0.4375,-1.25 0.6875,-0.0417 1.6875,-0.32291 3,-0.84375 0.58333,-0.43749 1.02083,-1.22916 1.3125,-2.375 l 6.625,-25.78125 c -1.08334,-1.66663 -2.97918,-2.49996 -5.6875,-2.5 -0.79167,4e-5 -1.18751,-0.12496 -1.1875,-0.375 -10e-6,-0.8958 0.24999,-1.34371 0.75,-1.34375 0.41666,4e-5 1.05208,0.0521 1.90625,0.15625 0.87499,0.1042 1.53124,0.15629 1.96875,0.15625 0.45832,4e-5 1.14582,-0.0521 2.0625,-0.15625 0.91665,-0.10413 1.60415,-0.15621 2.0625,-0.15625 0.24998,4e-5 0.48957,0.20837 0.71875,0.625 l 14.15625,25.71875 5.5625,-21.5625 c 0.10413,-0.3958 0.15622,-0.72913 0.15625,-1 -3e-5,-1.3958 -1.30212,-2.09371 -3.90625,-2.09375 -0.2292,4e-5 -0.34378,-0.10413 -0.34375,-0.3125 -3e-5,-0.91663 0.26039,-1.37496 0.78125,-1.375 0.49997,4e-5 1.24997,0.0521 2.25,0.15625 0.99997,0.1042 1.74997,0.15629 2.25,0.15625 0.5208,4e-5 1.29163,-0.0521 2.3125,-0.15625 1.04163,-0.10413 1.82288,-0.15621 2.34375,-0.15625 0.24996,4e-5 0.37496,0.0938 0.375,0.28125"
           style="font-size:64px;font-weight:bold;font-family:Gardiner;-inkscape-font-specification:Gardiner Bold"
           id="path2994"
           inkscape:connector-curvature="0" />
        <path
           d="m 370.0625,949.89343 c -2e-5,4.06252 -4.21876,6.59376 -12.65625,7.59375 -0.125,0.87501 -0.1875,1.78126 -0.1875,2.71875 0,3.00001 1.46874,4.50001 4.40625,4.5 0.93749,1e-5 1.95832,-0.49999 3.0625,-1.5 1.10415,-0.99999 1.62499,-1.49999 1.5625,-1.5 0.12499,1e-5 0.31249,0.13542 0.5625,0.40625 0.27082,0.25001 0.40623,0.43751 0.40625,0.5625 -2e-5,0.14584 -0.0417,0.27084 -0.125,0.375 -2.14585,2.89584 -4.64584,4.34375 -7.5,4.34375 -1.83334,0 -3.32292,-0.65625 -4.46875,-1.96875 -1.08334,-1.22916 -1.625,-2.78124 -1.625,-4.65625 0,-3.60415 1.07291,-6.8854 3.21875,-9.84375 2.35416,-3.27081 5.27082,-4.90623 8.75,-4.90625 1.27082,2e-5 2.33332,0.32294 3.1875,0.96875 0.93748,0.70836 1.40623,1.6771 1.40625,2.90625 m -3.25,0.28125 c -10e-6,-1.49998 -0.6146,-2.24998 -1.84375,-2.25 -1.56251,2e-5 -3.06251,0.9271 -4.5,2.78125 -1.10417,1.43752 -1.96876,3.08335 -2.59375,4.9375 5.95832,-0.68748 8.93749,-2.5104 8.9375,-5.46875"
           style="font-size:64px;font-weight:bold;font-family:Gardiner;-inkscape-font-specification:Gardiner Bold"
           id="path2996"
           inkscape:connector-curvature="0" />
        <path
           d="m 402.875,949.23718 c -3e-5,3.97918 -1.36462,8.00001 -4.09375,12.0625 -2.70836,4.0625 -5.41669,6.09375 -8.125,6.09375 -1.81252,0 -3.14585,-1.04166 -4,-3.125 -2.20835,2.08334 -4.20835,3.125 -6,3.125 -1.41668,0 -2.58334,-0.4375 -3.5,-1.3125 -0.89584,-0.89583 -1.34376,-2.05208 -1.34375,-3.46875 -10e-6,-4.52082 1.94791,-8.8854 5.84375,-13.09375 l -5.28125,0 c -0.58334,2e-5 -1.13542,0.16669 -1.65625,0.5 -0.58334,0.37502 -0.875,0.83335 -0.875,1.375 0,0.0625 0.25,0.93752 0.75,2.625 -0.1875,0.89585 -0.77084,1.34376 -1.75,1.34375 -1.04167,1e-5 -1.5625,-0.55207 -1.5625,-1.65625 0,-1.14582 0.57291,-2.61456 1.71875,-4.40625 1.20833,-1.91664 2.34374,-2.87498 3.40625,-2.875 0.47916,2e-5 1.19791,0.0417 2.15625,0.125 0.97916,0.0834 1.70832,0.12502 2.1875,0.125 0.45832,2e-5 1.12499,-0.0416 2,-0.125 0.89582,-0.0833 1.5729,-0.12498 2.03125,-0.125 0.49998,2e-5 0.74998,0.17711 0.75,0.53125 -2e-5,0.16669 -0.0729,0.32294 -0.21875,0.46875 l -0.0937,0.0937 c -3.95834,3.95835 -5.93751,8.32293 -5.9375,13.09375 -10e-6,0.91668 0.21874,1.69792 0.65625,2.34375 0.49999,0.77084 1.17707,1.15626 2.03125,1.15625 1.27082,10e-6 2.65624,-0.66666 4.15625,-2 -0.0833,-0.54166 -0.12502,-1.02082 -0.125,-1.4375 -2e-5,-3.70832 0.67707,-7.04165 2.03125,-10 1.37498,-2.95831 2.96873,-4.43748 4.78125,-4.4375 1.37498,2e-5 2.06247,1.07294 2.0625,3.21875 -3e-5,3.37502 -2.01044,7.51043 -6.03125,12.40625 0.66665,1.50001 1.53123,2.25001 2.59375,2.25 1.79164,10e-6 3.71872,-1.37499 5.78125,-4.125 2.06247,-2.74999 3.09372,-5.39582 3.09375,-7.9375 -3e-5,-0.66665 -0.31253,-1.33331 -0.9375,-2 -0.62503,-0.66665 -0.93753,-1.30206 -0.9375,-1.90625 -3e-5,-0.54164 0.19789,-1.03123 0.59375,-1.46875 0.41664,-0.43748 0.8958,-0.65623 1.4375,-0.65625 1.60413,2e-5 2.40622,1.07294 2.40625,3.21875 m -10.125,1.03125 c -2e-5,-0.74998 -0.31252,-1.12498 -0.9375,-1.125 -0.79169,2e-5 -1.59377,0.94794 -2.40625,2.84375 -0.85419,2.00002 -1.28127,3.95835 -1.28125,5.875 -2e-5,0.62501 0.0521,1.28126 0.15625,1.96875 2.97915,-3.74999 4.46873,-6.93748 4.46875,-9.5625"
           style="font-size:64px;font-weight:bold;font-family:Gardiner;-inkscape-font-specification:Gardiner Bold"
           id="path2998"
           inkscape:connector-curvature="0" />
        <path
           d="m 440.03125,948.48718 c -2e-5,0.27085 -0.0833,0.59377 -0.25,0.96875 -0.20835,0.43752 -0.43752,0.65627 -0.6875,0.65625 l -2.46875,0.0313 c 0.33332,0.85419 0.49998,1.71877 0.5,2.59375 -2e-5,2.25002 -0.83335,4.22918 -2.5,5.9375 -1.66668,1.68751 -3.62501,2.53126 -5.875,2.53125 -0.50001,1e-5 -0.98959,-0.0417 -1.46875,-0.125 -0.66667,0.62501 -1.00001,1.15626 -1,1.59375 -10e-6,0.45834 0.74999,1.11459 2.25,1.96875 l 5.34375,3.03125 c 2.33332,1.33333 3.49998,2.86458 3.5,4.59375 -2e-5,2.08333 -0.9896,3.67708 -2.96875,4.78125 -1.60418,0.89583 -3.54168,1.34374 -5.8125,1.34375 -2.37501,-10e-6 -4.55209,-0.45834 -6.53125,-1.375 -2.5,-1.14584 -3.75,-2.77084 -3.75,-4.875 0,-1.52083 0.66667,-2.86458 2,-4.03125 1.10416,-0.97916 2.47916,-1.6875 4.125,-2.125 -0.91667,-0.6875 -1.375,-1.34374 -1.375,-1.96875 0,-0.89583 0.88541,-2.02083 2.65625,-3.375 -2.60417,-1.04166 -3.90625,-3.0729 -3.90625,-6.09375 0,-2.27082 0.82291,-4.2604 2.46875,-5.96875 1.64583,-1.70831 3.60416,-2.56248 5.875,-2.5625 2.06249,2e-5 3.79165,0.69794 5.1875,2.09375 l 4.25,0 c 0.29165,2e-5 0.43748,0.12502 0.4375,0.375 m -6.28125,3.28125 c -10e-6,-2.56248 -1.14585,-3.84373 -3.4375,-3.84375 -1.62501,2e-5 -2.93751,0.88544 -3.9375,2.65625 -0.83334,1.47918 -1.25001,3.10418 -1.25,4.875 -10e-6,2.56251 1.15624,3.84376 3.46875,3.84375 1.62499,1e-5 2.92707,-0.88541 3.90625,-2.65625 0.83332,-1.47915 1.24999,-3.10415 1.25,-4.875 m 0.28125,21.46875 c -2e-5,-0.95834 -0.9271,-1.97917 -2.78125,-3.0625 -1.18751,-0.6875 -2.95834,-1.72917 -5.3125,-3.125 -1.16667,0.29167 -2.16667,0.85417 -3,1.6875 -0.9375,0.91667 -1.40625,1.9375 -1.40625,3.0625 0,1.5625 0.92708,2.78125 2.78125,3.65625 1.45833,0.68749 3.08332,1.03124 4.875,1.03125 1.20832,-10e-6 2.2604,-0.23959 3.15625,-0.71875 1.12499,-0.58334 1.68748,-1.42709 1.6875,-2.53125"
           style="font-size:64px;font-weight:bold;font-family:Gardiner;-inkscape-font-specification:Gardiner Bold"
           id="path3000"
           inkscape:connector-curvature="0" />
        <path
           d="m 459.28125,960.79968 c -2e-5,0.0625 -0.0625,0.18751 -0.1875,0.375 -2.81252,4.10417 -5.14585,6.15625 -7,6.15625 -1.22918,0 -1.84376,-0.78125 -1.84375,-2.34375 -10e-6,-1.24999 0.37499,-3.03124 1.125,-5.34375 -3.68751,5.16667 -7.08334,7.75 -10.1875,7.75 -0.70834,0 -1.29167,-0.26041 -1.75,-0.78125 -0.4375,-0.52083 -0.65625,-1.14583 -0.65625,-1.875 0,-3.83332 1.76041,-7.58332 5.28125,-11.25 3.54166,-3.68748 7.04165,-5.53123 10.5,-5.53125 0.29165,2e-5 0.65623,0.0313 1.09375,0.0937 0.54165,-1.47914 1.04165,-2.21873 1.5,-2.21875 1.24998,2e-5 1.87498,0.23961 1.875,0.71875 -2e-5,0.0625 -0.0208,0.15627 -0.0625,0.28125 -1.04169,2.75002 -2.08335,5.50002 -3.125,8.25 -1.41668,3.93751 -2.12501,6.61459 -2.125,8.03125 -10e-6,0.56251 0.16665,0.84376 0.5,0.84375 0.60415,10e-6 1.43748,-0.68749 2.5,-2.0625 1.06248,-1.37499 1.64581,-2.06249 1.75,-2.0625 0.12498,10e-6 0.29165,0.13543 0.5,0.40625 0.20831,0.25001 0.31248,0.43751 0.3125,0.5625 m -5.34375,-9.1875 c -2e-5,-0.64581 -0.5521,-0.96873 -1.65625,-0.96875 -2.06251,2e-5 -4.29168,1.3646 -6.6875,4.09375 -2.39584,2.72918 -3.59375,5.28126 -3.59375,7.65625 0,1.10417 0.51041,1.65626 1.53125,1.65625 1.31249,10e-6 3.38541,-1.73958 6.21875,-5.21875 2.79165,-3.41665 4.18748,-5.8229 4.1875,-7.21875"
           style="font-size:64px;font-weight:bold;font-family:Gardiner;-inkscape-font-specification:Gardiner Bold"
           id="path3002"
           inkscape:connector-curvature="0" />
        <path
           d="m 496.4375,960.76843 c -4e-5,0.66668 -1.26045,1.93751 -3.78125,3.8125 -2.52086,1.875 -4.15628,2.8125 -4.90625,2.8125 -1.20836,0 -1.81253,-0.5 -1.8125,-1.5 -3e-5,-0.70833 0.30206,-1.79166 0.90625,-3.25 l 3.96875,-9.59375 c 0.5208,-1.24998 0.78122,-2.1979 0.78125,-2.84375 -3e-5,-0.87498 -0.58336,-1.31248 -1.75,-1.3125 -1.77086,2e-5 -3.77086,1.28127 -6,3.84375 -1.79169,2.04168 -3.15627,4.13543 -4.09375,6.28125 -0.56252,1.75001 -1.54168,4.31251 -2.9375,7.6875 -0.20835,0.41667 -0.45835,0.625 -0.75,0.625 -1.58335,0 -2.37501,-0.34375 -2.375,-1.03125 -10e-6,-0.125 0.0208,-0.23958 0.0625,-0.34375 l 3.625,-9.375 c 1.02082,-2.64582 1.53123,-4.56248 1.53125,-5.75 -2e-5,-1.29165 -0.45835,-1.93748 -1.375,-1.9375 -1.54168,2e-5 -3.3646,1.32294 -5.46875,3.96875 -1.62501,2.08335 -2.88543,4.13543 -3.78125,6.15625 -0.52084,1.16668 -1.30209,3.07292 -2.34375,5.71875 -0.75,1.91667 -1.29167,2.875 -1.625,2.875 -0.35417,0 -0.8125,-0.125 -1.375,-0.375 -0.625,-0.29166 -0.9375,-0.59375 -0.9375,-0.90625 0,-0.14583 0.0208,-0.27083 0.0625,-0.375 l 4.75,-11.46875 c 0.74999,-1.81248 1.12499,-3.12498 1.125,-3.9375 -10e-6,-0.74998 -0.30209,-1.12498 -0.90625,-1.125 -0.54167,2e-5 -1.21876,0.6146 -2.03125,1.84375 -0.79167,1.22918 -1.27084,1.84377 -1.4375,1.84375 -0.10417,2e-5 -0.29167,-0.0833 -0.5625,-0.25 -0.27084,-0.16665 -0.40625,-0.29165 -0.40625,-0.375 0,-0.68748 0.79166,-1.92706 2.375,-3.71875 1.60416,-1.79164 2.73958,-2.68748 3.40625,-2.6875 1.52082,2e-5 2.28124,0.89586 2.28125,2.6875 -10e-6,1.04169 -0.29168,2.41669 -0.875,4.125 3.64582,-4.58331 6.89582,-6.87498 9.75,-6.875 1.68748,2e-5 2.53123,1.08336 2.53125,3.25 -2e-5,0.64585 -0.13544,1.69794 -0.40625,3.15625 3.87497,-4.27081 7.23955,-6.40623 10.09375,-6.40625 2.16663,2e-5 3.24997,1.16669 3.25,3.5 -3e-5,1.02085 -0.27087,2.1771 -0.8125,3.46875 l -4.0625,9.75 c -0.1042,0.25001 -0.15628,0.51042 -0.15625,0.78125 -3e-5,0.33334 0.0937,0.50001 0.28125,0.5 0.49997,1e-5 1.4583,-0.66666 2.875,-2 1.43747,-1.35416 2.2708,-2.04166 2.5,-2.0625 l 0.21875,0.0625 c 0.3958,0.33334 0.59371,0.58334 0.59375,0.75"
           style="font-size:64px;font-weight:bold;font-family:Gardiner;-inkscape-font-specification:Gardiner Bold"
           id="path3004"
           inkscape:connector-curvature="0" />
        <path
           d="m 515.5625,949.89343 c -2e-5,4.06252 -4.21876,6.59376 -12.65625,7.59375 -0.125,0.87501 -0.1875,1.78126 -0.1875,2.71875 0,3.00001 1.46874,4.50001 4.40625,4.5 0.93749,1e-5 1.95832,-0.49999 3.0625,-1.5 1.10415,-0.99999 1.62499,-1.49999 1.5625,-1.5 0.12499,1e-5 0.31249,0.13542 0.5625,0.40625 0.27082,0.25001 0.40624,0.43751 0.40625,0.5625 -10e-6,0.14584 -0.0417,0.27084 -0.125,0.375 -2.14585,2.89584 -4.64584,4.34375 -7.5,4.34375 -1.83334,0 -3.32292,-0.65625 -4.46875,-1.96875 -1.08333,-1.22916 -1.625,-2.78124 -1.625,-4.65625 0,-3.60415 1.07291,-6.8854 3.21875,-9.84375 2.35416,-3.27081 5.27082,-4.90623 8.75,-4.90625 1.27082,2e-5 2.33332,0.32294 3.1875,0.96875 0.93748,0.70836 1.40623,1.6771 1.40625,2.90625 m -3.25,0.28125 c -10e-6,-1.49998 -0.6146,-2.24998 -1.84375,-2.25 -1.56251,2e-5 -3.06251,0.9271 -4.5,2.78125 -1.10417,1.43752 -1.96876,3.08335 -2.59375,4.9375 5.95832,-0.68748 8.93749,-2.5104 8.9375,-5.46875"
           style="font-size:64px;font-weight:bold;font-family:Gardiner;-inkscape-font-specification:Gardiner Bold"
           id="path3006"
           inkscape:connector-curvature="0" />
      </g>
    </g>
    <g
       style="font-size:40px;font-style:normal;font-variant:normal;font-weight:normal;font-stretch:normal;line-height:125%;letter-spacing:0px;word-spacing:0px;fill:#000000;fill-opacity:1;stroke:none;font-family:eufm10;-inkscape-font-specification:eufm10"
       id="text3784-8"
       transform="translate(-4,0)">
      <path
         d="m 82.015625,934.09656 c -4.1e-5,0.7917 -0.281291,1.26045 -0.84375,1.40625 -0.56254,0.12503 -1.135456,0.25003 -1.71875,0.375 -0.750038,0.4167 -1.30212,1.32295 -1.65625,2.71875 l -6.21875,24.125 c 1.937468,3.4375 2.906217,5.17708 2.90625,5.21875 -3.3e-5,0.22916 -0.718783,0.34375 -2.15625,0.34375 -1.583363,0 -2.437529,-0.11459 -2.5625,-0.34375 l -14.90625,-27.4375 -6,23.3125 c -0.08334,0.33334 -0.125008,0.66667 -0.125,1 -8e-6,1.39583 1.291658,2.09375 3.875,2.09375 0.208322,0 0.312488,0.0937 0.3125,0.28125 -1.2e-5,0.9375 -0.239595,1.40625 -0.71875,1.40625 -0.520844,0 -1.322926,-0.0521 -2.40625,-0.15625 -1.062508,-0.10417 -1.86459,-0.15625 -2.40625,-0.15625 -0.562506,0 -1.395838,0.0521 -2.5,0.15625 -1.083336,0.10416 -1.895835,0.15625 -2.4375,0.15625 -0.229168,0 -0.343751,-0.10417 -0.34375,-0.3125 -10e-7,-0.5625 0.145832,-0.97917 0.4375,-1.25 0.687498,-0.0417 1.687497,-0.32292 3,-0.84375 0.583328,-0.4375 1.020828,-1.22917 1.3125,-2.375 l 6.625,-25.78125 c -1.083345,-1.66664 -2.979176,-2.49997 -5.6875,-2.5 -0.791673,3e-5 -1.187506,-0.12497 -1.1875,-0.375 -6e-6,-0.8958 0.249994,-1.34372 0.75,-1.34375 0.41666,3e-5 1.052076,0.0521 1.90625,0.15625 0.874991,0.1042 1.53124,0.15628 1.96875,0.15625 0.458323,3e-5 1.145822,-0.0521 2.0625,-0.15625 0.916654,-0.10413 1.604153,-0.15622 2.0625,-0.15625 0.249985,3e-5 0.489569,0.20837 0.71875,0.625 l 14.15625,25.71875 5.5625,-21.5625 c 0.104132,-0.39581 0.156215,-0.72914 0.15625,-1 -3.5e-5,-1.3958 -1.302117,-2.09372 -3.90625,-2.09375 -0.229197,3e-5 -0.343781,-0.10414 -0.34375,-0.3125 -3.1e-5,-0.91664 0.260386,-1.37497 0.78125,-1.375 0.499968,3e-5 1.249967,0.0521 2.25,0.15625 0.999965,0.1042 1.749965,0.15628 2.25,0.15625 0.520797,3e-5 1.291629,-0.0521 2.3125,-0.15625 1.041627,-0.10413 1.822877,-0.15622 2.34375,-0.15625 0.249959,3e-5 0.374959,0.0938 0.375,0.28125"
         style="font-size:64px;font-weight:bold;font-family:Gardiner;-inkscape-font-specification:Gardiner Bold;fill:#4d4d4d;fill-opacity:1"
         id="path3021"
         inkscape:connector-curvature="0" />
      <path
         d="m 95.390625,950.78406 c -1.8e-5,4.06251 -4.218763,6.59376 -12.65625,7.59375 -0.125005,0.87501 -0.187505,1.78126 -0.1875,2.71875 -5e-6,3 1.468744,4.5 4.40625,4.5 0.93749,0 1.958322,-0.5 3.0625,-1.5 1.104153,-1 1.624986,-1.5 1.5625,-1.5 0.124986,0 0.312486,0.13542 0.5625,0.40625 0.270819,0.25 0.406235,0.4375 0.40625,0.5625 -1.5e-5,0.14584 -0.04168,0.27084 -0.125,0.375 -2.145846,2.89583 -4.645843,4.34375 -7.5,4.34375 -1.833339,0 -3.322921,-0.65625 -4.46875,-1.96875 -1.083335,-1.22917 -1.625001,-2.78125 -1.625,-4.65625 -10e-7,-3.60416 1.072914,-6.88541 3.21875,-9.84375 2.35416,-3.27082 5.270824,-4.90623 8.75,-4.90625 1.270819,2e-5 2.333318,0.32294 3.1875,0.96875 0.937483,0.70835 1.406232,1.6771 1.40625,2.90625 m -3.25,0.28125 c -1.4e-5,-1.49998 -0.614597,-2.24998 -1.84375,-2.25 -1.562511,2e-5 -3.06251,0.9271 -4.5,2.78125 -1.104174,1.43751 -1.968756,3.08334 -2.59375,4.9375 5.958322,-0.68749 8.937486,-2.5104 8.9375,-5.46875"
         style="font-size:64px;font-weight:bold;font-family:Gardiner;-inkscape-font-specification:Gardiner Bold;fill:#4d4d4d;fill-opacity:1"
         id="path3023"
         inkscape:connector-curvature="0" />
      <path
         d="m 117.54688,947.90906 c -3e-5,0.20835 -0.0313,0.41668 -0.0937,0.625 l -4.75,13.40625 c -0.29169,0.83334 -0.43752,1.64584 -0.4375,2.4375 -2e-5,0.35417 0.10414,0.53125 0.3125,0.53125 0.43748,0 1.21873,-0.67708 2.34375,-2.03125 1.14581,-1.375 1.76039,-2.06249 1.84375,-2.0625 0.10414,1e-5 0.24997,0.11459 0.4375,0.34375 0.18747,0.22917 0.28122,0.39584 0.28125,0.5 -3e-5,0.79167 -1.06253,2.09375 -3.1875,3.90625 -2.10419,1.8125 -3.6771,2.71875 -4.71875,2.71875 -0.91669,0 -1.37502,-0.42709 -1.375,-1.28125 -2e-5,-0.70833 0.28123,-1.86458 0.84375,-3.46875 l 2.59375,-7.40625 c -2.04169,2.47917 -4.18752,4.83334 -6.4375,7.0625 -3.43751,3.39583 -5.833343,5.09375 -7.187505,5.09375 -0.937502,0 -1.406252,-0.69792 -1.40625,-2.09375 -2e-6,-0.70833 0.270831,-1.71875 0.8125,-3.03125 l 4.562505,-11.09375 c 0.20832,-0.49999 0.31249,-0.85415 0.3125,-1.0625 -1e-5,-0.33332 -0.18751,-0.49998 -0.5625,-0.5 -0.33334,2e-5 -1.00001,0.57293 -2.000005,1.71875 -1.000004,1.12501 -1.562503,1.68751 -1.6875,1.6875 -0.145836,1e-5 -0.312503,-0.11457 -0.5,-0.34375 -0.187502,-0.24999 -0.281252,-0.4479 -0.28125,-0.59375 -2e-6,-0.0625 0.07291,-0.18749 0.21875,-0.375 2.958325,-3.62498 5.374995,-5.43748 7.250005,-5.4375 0.99998,2e-5 1.49998,0.45835 1.5,1.375 -2e-5,0.91668 -0.41668,2.37501 -1.25,4.375 l -3.5625,8.53125 c -0.27084,0.64584 -0.40626,1.25 -0.40625,1.8125 -1e-5,0.375 0.10416,0.5625 0.3125,0.5625 1.06249,0 3.34374,-2.09375 6.84375,-6.28125 3.27081,-3.91665 5.21873,-6.62499 5.84375,-8.125 0.16664,-0.49998 0.33331,-0.99998 0.5,-1.5 0.27081,-0.66665 0.61456,-0.99998 1.03125,-1 0.35414,2e-5 0.74997,0.0833 1.1875,0.25 0.54164,0.20835 0.81247,0.45835 0.8125,0.75"
         style="font-size:64px;font-weight:bold;font-family:Gardiner;-inkscape-font-specification:Gardiner Bold;fill:#4d4d4d;fill-opacity:1"
         id="path3025"
         inkscape:connector-curvature="0" />
      <path
         d="m 136.64062,950.78406 c -1e-5,4.06251 -4.21876,6.59376 -12.65624,7.59375 -0.12501,0.87501 -0.18751,1.78126 -0.1875,2.71875 -1e-5,3 1.46874,4.5 4.40624,4.5 0.93749,0 1.95833,-0.5 3.0625,-1.5 1.10416,-1 1.62499,-1.5 1.5625,-1.5 0.12499,0 0.31249,0.13542 0.5625,0.40625 0.27082,0.25 0.40624,0.4375 0.40625,0.5625 -1e-5,0.14584 -0.0417,0.27084 -0.125,0.375 -2.14584,2.89583 -4.64584,4.34375 -7.49999,4.34375 -1.83334,0 -3.32293,-0.65625 -4.46875,-1.96875 -1.08334,-1.22917 -1.62501,-2.78125 -1.625,-4.65625 -1e-5,-3.60416 1.07291,-6.88541 3.21875,-9.84375 2.35416,-3.27082 5.27082,-4.90623 8.74999,-4.90625 1.27082,2e-5 2.33332,0.32294 3.1875,0.96875 0.93749,0.70835 1.40624,1.6771 1.40625,2.90625 m -3.25,0.28125 c -1e-5,-1.49998 -0.61459,-2.24998 -1.84375,-2.25 -1.56251,2e-5 -3.0625,0.9271 -4.49999,2.78125 -1.10418,1.43751 -1.96876,3.08334 -2.59375,4.9375 5.95832,-0.68749 8.93748,-2.5104 8.93749,-5.46875"
         style="font-size:64px;font-weight:bold;font-family:Gardiner;-inkscape-font-specification:Gardiner Bold;fill:#4d4d4d;fill-opacity:1"
         id="path3027"
         inkscape:connector-curvature="0" />
      <path
         d="m 149.82812,949.22156 c -1e-5,1.16668 -0.59376,1.75001 -1.78125,1.75 -0.43751,1e-5 -1.00001,-0.21873 -1.6875,-0.65625 -0.6875,-0.43748 -1.22917,-0.65623 -1.625,-0.65625 -0.64584,2e-5 -1.26042,0.14585 -1.84375,0.4375 -0.70833,0.37502 -1.0625,0.85418 -1.0625,1.4375 0,0.77085 0.98958,2.1771 2.96875,4.21875 1.99999,2.04167 2.99999,3.71876 3,5.03125 -1e-5,1.77084 -0.87501,3.46875 -2.625,5.09375 -1.75,1.60417 -3.52083,2.40625 -5.3125,2.40625 -0.97916,0 -1.83333,-0.22917 -2.5625,-0.6875 -0.85416,-0.52083 -1.28124,-1.25 -1.28125,-2.1875 10e-6,-1.22916 0.48959,-1.84375 1.46875,-1.84375 0.52084,0 1.17709,0.34375 1.96875,1.03125 0.79167,0.66667 1.48958,1 2.09375,1 0.77083,0 1.5,-0.25 2.1875,-0.75 0.77083,-0.54167 1.15625,-1.1875 1.15625,-1.9375 0,-0.75 -1,-2.15624 -3,-4.21875 -2,-2.08332 -3,-3.83332 -3,-5.25 0,-0.18749 0.0417,-0.45832 0.125,-0.8125 0.39584,-1.68749 1.19792,-3.06248 2.40625,-4.125 1.22917,-1.06248 2.6875,-1.59373 4.375,-1.59375 0.91666,2e-5 1.76041,0.15627 2.53125,0.46875 0.99999,0.43752 1.49999,1.0521 1.5,1.84375"
         style="font-size:64px;font-weight:bold;font-family:Gardiner;-inkscape-font-specification:Gardiner Bold;fill:#4d4d4d;fill-opacity:1"
         id="path3029"
         inkscape:connector-curvature="0" />
      <path
         d="m 189.70312,936.37781 c -2e-5,0.18753 -0.15627,1.01045 -0.46875,2.46875 -0.31252,1.43753 -0.50002,2.20836 -0.5625,2.3125 -0.18752,0.29169 -0.57293,0.43752 -1.15625,0.4375 -0.50002,2e-5 -0.75002,-0.14581 -0.75,-0.4375 -2e-5,-0.16664 0.0208,-0.41664 0.0625,-0.75 0.0416,-0.33331 0.0625,-0.58331 0.0625,-0.75 -2e-5,-1.24997 -0.4271,-2.26039 -1.28125,-3.03125 -0.83335,-0.79164 -1.87501,-1.18747 -3.125,-1.1875 -1.75001,3e-5 -3.19792,0.6042 -4.34375,1.8125 -1.14584,1.18753 -1.71876,2.66669 -1.71875,4.4375 -1e-5,1.89586 0.92708,3.90627 2.78125,6.03125 1.70832,1.79168 3.41666,3.57293 5.125,5.34375 1.85415,2.12501 2.78123,4.13543 2.78125,6.03125 -2e-5,0.41667 -0.0104,0.80209 -0.0313,1.15625 -0.14585,2.70834 -1.33335,4.875 -3.5625,6.5 -2.04168,1.47916 -4.46876,2.21875 -7.28125,2.21875 -3.47917,0 -6.1875,-0.67709 -8.125,-2.03125 -0.29166,-0.20833 -0.4375,-0.4375 -0.4375,-0.6875 0,-0.16667 0.23959,-1.05208 0.71875,-2.65625 0.47917,-1.60416 0.76042,-2.46875 0.84375,-2.59375 0.1875,-0.27083 0.5625,-0.40624 1.125,-0.40625 0.52083,1e-5 0.78125,0.10417 0.78125,0.3125 0,0.3125 -0.10417,0.78125 -0.3125,1.40625 -0.20833,0.60417 -0.3125,1.07292 -0.3125,1.40625 0,2.16667 1.63542,3.25 4.90625,3.25 1.97916,0 3.65624,-0.48958 5.03125,-1.46875 1.56249,-1.125 2.34374,-2.63541 2.34375,-4.53125 -1e-5,-1.85416 -0.92709,-3.82291 -2.78125,-5.90625 -1.70834,-1.79165 -3.41667,-3.58332 -5.125,-5.375 -1.85417,-2.20831 -2.78125,-4.36456 -2.78125,-6.46875 0,-2.85414 0.94791,-5.19789 2.84375,-7.03125 1.89583,-1.8333 4.27083,-2.74997 7.125,-2.75 1.27082,3e-5 2.70832,0.28128 4.3125,0.84375 2.20832,0.77086 3.31248,1.46878 3.3125,2.09375"
         style="font-size:64px;font-weight:bold;font-family:Gardiner;-inkscape-font-specification:Gardiner Bold;fill:#4d4d4d;fill-opacity:1"
         id="path3031"
         inkscape:connector-curvature="0" />
      <path
         d="m 209.79687,952.44031 c -2e-5,1.12501 -0.1771,2.27084 -0.53125,3.4375 -0.89585,2.91667 -2.56251,5.69792 -5,8.34375 -2.50001,2.70833 -4.70834,4.0625 -6.625,4.0625 -1.33334,0 -2.38542,-0.52084 -3.15625,-1.5625 l -2.4375,8.375 c -0.125,0.43749 -0.1875,0.82291 -0.1875,1.15625 0,0.83332 0.52083,1.31249 1.5625,1.4375 1.0625,0.14582 1.59375,0.31249 1.59375,0.5 0,0.97915 -0.30208,1.46874 -0.90625,1.46875 0,-10e-6 -0.44792,-0.0521 -1.34375,-0.15625 -0.89583,-0.10418 -1.83333,-0.15626 -2.8125,-0.15625 -0.99999,-10e-6 -1.97916,0.0521 -2.9375,0.15625 -0.95833,0.10415 -1.43749,0.15624 -1.4375,0.15625 -0.31249,-10e-6 -0.46874,-0.15626 -0.46875,-0.46875 10e-6,-0.20835 0.0833,-0.51043 0.25,-0.90625 0.0625,-0.16668 0.56251,-0.38543 1.5,-0.65625 0.83334,-0.25001 1.46876,-1.11459 1.90625,-2.59375 l 7,-24.3125 c -0.85417,0.22918 -2.45833,0.81251 -4.8125,1.75 -0.0417,0.0208 -0.125,0.0313 -0.25,0.0313 -0.52083,10e-6 -0.78125,-0.3229 -0.78125,-0.96875 0,-0.66665 2.16667,-1.67707 6.5,-3.03125 l 1.03125,-3.4375 c 0.1875,-0.60415 0.52083,-0.95831 1,-1.0625 0.0417,2e-5 0.56249,2e-5 1.5625,0 0.54166,2e-5 0.81249,0.18752 0.8125,0.5625 -1e-5,0.33335 -0.27084,1.34377 -0.8125,3.03125 2.02083,-0.45831 3.70832,-0.68748 5.0625,-0.6875 1.47915,2e-5 2.65624,0.56252 3.53125,1.6875 0.79165,1.04168 1.18748,2.32293 1.1875,3.84375 m -3.6875,1.1875 c -1e-5,-1.10415 -0.29168,-2.04165 -0.875,-2.8125 -0.58334,-0.79165 -1.41668,-1.18748 -2.5,-1.1875 -0.95834,2e-5 -2.09376,0.1146 -3.40625,0.34375 l -3.71875,12.84375 c -0.0625,0.20834 -0.0937,0.51042 -0.0937,0.90625 0,1.79167 0.67708,2.6875 2.03125,2.6875 1.22916,0 2.70833,-1.08333 4.4375,-3.25 1.74999,-2.1875 2.97916,-4.51041 3.6875,-6.96875 0.29165,-1.02082 0.43749,-1.87499 0.4375,-2.5625"
         style="font-size:64px;font-weight:bold;font-family:Gardiner;-inkscape-font-specification:Gardiner Bold;fill:#4d4d4d;fill-opacity:1"
         id="path3033"
         inkscape:connector-curvature="0" />
      <path
         d="m 223.95312,937.31531 c -1e-5,0.60419 -0.21876,1.12503 -0.65625,1.5625 -0.43751,0.43753 -0.95834,0.65628 -1.5625,0.65625 -0.60417,3e-5 -1.12501,-0.21872 -1.5625,-0.65625 -0.4375,-0.43747 -0.65625,-0.95831 -0.65625,-1.5625 0,-0.60414 0.21875,-1.12497 0.65625,-1.5625 0.43749,-0.43747 0.95833,-0.65622 1.5625,-0.65625 0.60416,3e-5 1.12499,0.21878 1.5625,0.65625 0.43749,0.43753 0.65624,0.95836 0.65625,1.5625 m -0.6875,24.46875 c -1e-5,0.0833 -0.0417,0.19792 -0.125,0.34375 -0.75001,1.3125 -1.92709,2.625 -3.53125,3.9375 -1.8125,1.47917 -3.36458,2.21875 -4.65625,2.21875 -1.5,0 -2.25,-0.66667 -2.25,-2 0,-0.72917 0.20834,-1.64583 0.625,-2.75 l 4.1875,-11.03125 c 0.25,-0.66665 0.375,-1.18749 0.375,-1.5625 0,-0.39582 -0.16667,-0.59373 -0.5,-0.59375 -0.45833,2e-5 -1.10417,0.35418 -1.9375,1.0625 -0.8125,0.70835 -1.25,1.06251 -1.3125,1.0625 -0.14583,1e-5 -0.33333,-0.11457 -0.5625,-0.34375 -0.22916,-0.24999 -0.34375,-0.4479 -0.34375,-0.59375 0,-0.14582 0.0625,-0.30207 0.1875,-0.46875 0.66667,-0.87498 1.63542,-1.7604 2.90625,-2.65625 1.4375,-0.99998 2.60416,-1.49998 3.5,-1.5 1.29166,2e-5 1.93749,0.59377 1.9375,1.78125 -1e-5,0.91668 -0.32292,2.22918 -0.96875,3.9375 l -3.78125,10.03125 c -0.29167,0.77084 -0.4375,1.30209 -0.4375,1.59375 0,0.4375 0.21875,0.65625 0.65625,0.65625 0.875,0 1.92708,-0.66667 3.15625,-2 1.22916,-1.35416 1.86458,-2.03124 1.90625,-2.03125 0.12499,1e-5 0.31249,0.125 0.5625,0.375 0.27083,0.22917 0.40624,0.40625 0.40625,0.53125"
         style="font-size:64px;font-weight:bold;font-family:Gardiner;-inkscape-font-specification:Gardiner Bold;fill:#4d4d4d;fill-opacity:1"
         id="path3035"
         inkscape:connector-curvature="0" />
      <path
         d="m 242.01562,950.78406 c -1e-5,4.06251 -4.21876,6.59376 -12.65625,7.59375 -0.125,0.87501 -0.1875,1.78126 -0.1875,2.71875 0,3 1.46875,4.5 4.40625,4.5 0.93749,0 1.95833,-0.5 3.0625,-1.5 1.10416,-1 1.62499,-1.5 1.5625,-1.5 0.12499,0 0.31249,0.13542 0.5625,0.40625 0.27082,0.25 0.40624,0.4375 0.40625,0.5625 -1e-5,0.14584 -0.0417,0.27084 -0.125,0.375 -2.14584,2.89583 -4.64584,4.34375 -7.5,4.34375 -1.83333,0 -3.32292,-0.65625 -4.46875,-1.96875 -1.08333,-1.22917 -1.625,-2.78125 -1.625,-4.65625 0,-3.60416 1.07292,-6.88541 3.21875,-9.84375 2.35416,-3.27082 5.27083,-4.90623 8.75,-4.90625 1.27082,2e-5 2.33332,0.32294 3.1875,0.96875 0.93749,0.70835 1.40624,1.6771 1.40625,2.90625 m -3.25,0.28125 c -1e-5,-1.49998 -0.61459,-2.24998 -1.84375,-2.25 -1.56251,2e-5 -3.0625,0.9271 -4.5,2.78125 -1.10417,1.43751 -1.96875,3.08334 -2.59375,4.9375 5.95833,-0.68749 8.93749,-2.5104 8.9375,-5.46875"
         style="font-size:64px;font-weight:bold;font-family:Gardiner;-inkscape-font-specification:Gardiner Bold;fill:#4d4d4d;fill-opacity:1"
         id="path3037"
         inkscape:connector-curvature="0" />
      <path
         d="m 255.89062,932.56531 c -1e-5,0.0417 -0.0208,0.13545 -0.0625,0.28125 l -8.6875,29.875 c -0.14583,0.5 -0.21875,0.90625 -0.21875,1.21875 0,0.64583 0.22917,0.96875 0.6875,0.96875 0.5625,0 1.46875,-0.67708 2.71875,-2.03125 1.27083,-1.35416 1.97916,-2.03124 2.125,-2.03125 0.14583,1e-5 0.31249,0.11459 0.5,0.34375 0.20833,0.22917 0.31249,0.41667 0.3125,0.5625 -1e-5,0.60417 -1.14584,1.84375 -3.4375,3.71875 -2.27083,1.875 -3.83333,2.8125 -4.6875,2.8125 -1.375,0 -2.0625,-0.63542 -2.0625,-1.90625 0,-0.75 0.16667,-1.69792 0.5,-2.84375 l 7.53125,-25.875 c 0.10416,-0.35414 0.15625,-0.71872 0.15625,-1.09375 0,-0.68747 -0.40625,-1.1458 -1.21875,-1.375 -0.79167,-0.22914 -1.1875,-0.42705 -1.1875,-0.59375 0,-0.72913 0.27083,-1.17705 0.8125,-1.34375 0.625,-0.0625 1.55208,-0.18747 2.78125,-0.375 0.56249,-0.10413 1.23958,-0.29163 2.03125,-0.5625 0.22916,-0.0833 0.47916,-0.16663 0.75,-0.25 0.43749,3e-5 0.65624,0.1667 0.65625,0.5"
         style="font-size:64px;font-weight:bold;font-family:Gardiner;-inkscape-font-specification:Gardiner Bold;fill:#4d4d4d;fill-opacity:1"
         id="path3039"
         inkscape:connector-curvature="0" />
    </g>
    <path
       style="font-size:medium;font-style:normal;font-variant:normal;font-weight:normal;font-stretch:normal;text-indent:0;text-align:start;text-decoration:none;line-height:normal;letter-spacing:normal;word-spacing:normal;text-transform:none;direction:ltr;block-progression:tb;writing-mode:lr-tb;text-anchor:start;baseline-shift:baseline;color:#000000;fill:#ffffff;fill-opacity:1;fill-rule:nonzero;stroke:none;stroke-width:1;marker:none;visibility:visible;display:inline;overflow:visible;enable-background:accumulate;font-family:Sans;-inkscape-font-specification:Sans"
       d="m 27.012699,860.05806 c -11.28218,0.3294 -21.0812797,9.01333 -22.1874997,20.40625 -0.7773,8.00541 -1.42097,16.00966 -1.90625,24.03125 -1.03737,17.1477 -1.40919,34.3285 -1.28125,51.5312 0.0934,12.552 0.43666,25.1127 1,37.6563 0.56334,12.54354 1.32317,25.07314 2.34375,37.59384 0.49657,6.0917 3.453,11.3955 7.8124997,15.0624 4.35908,3.6666 10.14002,5.6944 16.21875,5.2813 20.58237,-1.3983 41.20095,-2.5212 61.84375,-3.75 20.642561,-1.2289 41.287761,-2.5371 61.906241,-3.9375 20.61824,-1.4 41.20755,-2.8744 61.75,-4.375 20.54221,-1.5005 41.04167,-3.022 61.46875,-4.5938 6.01991,-0.4631 11.23805,-3.0591 14.875,-6.7812 3.63634,-3.7213 5.75048,-8.5457 5.40625,-13.6562 -0.70098,-10.4066 -1.1895,-20.48574 -1.53125,-30.37514 -0.34177,-9.8893 -0.55386,-19.6208 -0.65625,-29.2812 -0.14033,-13.2394 -0.0627,-26.3798 0.6875,-39.78125 0.3509,-6.26942 0.83173,-12.5922 1.53125,-19.00001 0.53683,-4.91748 -1.29003,-9.59289 -4.71876,-13.21875 -3.42995,-3.62715 -8.48376,-6.21031 -14.46874,-6.75 -20.31639,-1.83199 -40.7884,-3.43033 -61.375,-4.81249 -20.58646,-1.38216 -41.26468,-2.54537 -62,-3.6875 -20.73515,-1.14212 -41.52348,-2.24504 -62.281241,-3.46875 -20.75762,-1.22371 -41.48808,-2.57378 -62.15625,-4.03126 -0.76294,-0.0538 -1.5291,-0.0845 -2.28125,-0.0625 z"
       id="rect3004-9"
       inkscape:connector-curvature="0"
       sodipodi:nodetypes="csssssssscsccssssssssssccc" />
  </g>
</svg>
