<?xml version="1.0" encoding="UTF-8" standalone="no"?>
<!-- Created with Inkscape (http://www.inkscape.org/) -->

<svg
   xmlns:dc="http://purl.org/dc/elements/1.1/"
   xmlns:cc="http://creativecommons.org/ns#"
   xmlns:rdf="http://www.w3.org/1999/02/22-rdf-syntax-ns#"
   xmlns:svg="http://www.w3.org/2000/svg"
   xmlns="http://www.w3.org/2000/svg"
   xmlns:sodipodi="http://sodipodi.sourceforge.net/DTD/sodipodi-0.dtd"
   xmlns:inkscape="http://www.inkscape.org/namespaces/inkscape"
   width="330"
   height="230"
   id="svg2"
   version="1.1"
   inkscape:version="0.91 r13725"
   sodipodi:docname="menu_card_continue_en-xhdpi.svg">
  <defs
     id="defs4">
    <inkscape:path-effect
       effect="envelope"
       id="path-effect3881"
       is_visible="true"
       yy="true"
       xx="true"
       bendpath1="m 0.51393408,631.8761 299.97213592,0"
       bendpath2="m 300.48607,631.8761 0,199.97209"
       bendpath3="m 0.51393408,831.84819 299.97213592,0"
       bendpath4="m 0.51393408,631.8761 0,199.97209" />
    <inkscape:path-effect
       effect="envelope"
       id="path-effect3874"
       is_visible="true"
       yy="true"
       xx="true"
       bendpath1="M 0.51393408,851.8761 C 100.8201,859.43719 200.35703,862.77417 301.91464,870.44753"
       bendpath2="m 298.92175,873.3758 c -5.48736,41.49677 -2.90751,111.36598 -0.19285,154.2297"
       bendpath3="M 0.51393408,1051.8482 C 99.484576,1047.0023 199.2883,1036.7984 300.48607,1034.7053"
       bendpath4="m 0.51393408,851.8761 c -8.68767528,66.65737 -6.48208318,133.31473 0,199.9721"
       bendpath2-nodetypes="cc"
       bendpath1-nodetypes="cc"
       bendpath3-nodetypes="cc"
       bendpath4-nodetypes="cc" />
  </defs>
  <sodipodi:namedview
     id="base"
     pagecolor="#ffffff"
     bordercolor="#666666"
     borderopacity="1.0"
     inkscape:pageopacity="0.0"
     inkscape:pageshadow="2"
     inkscape:zoom="0.7"
     inkscape:cx="-309.25207"
     inkscape:cy="-11.732911"
     inkscape:document-units="px"
     inkscape:current-layer="layer1"
     showgrid="false"
     inkscape:window-width="1920"
     inkscape:window-height="1017"
     inkscape:window-x="-8"
     inkscape:window-y="-8"
     inkscape:window-maximized="1" />
  <metadata
     id="metadata7">
    <rdf:RDF>
      <cc:Work
         rdf:about="">
        <dc:format>image/svg+xml</dc:format>
        <dc:type
           rdf:resource="http://purl.org/dc/dcmitype/StillImage" />
        <dc:title />
      </cc:Work>
    </rdf:RDF>
  </metadata>
  <g
     inkscape:label="Ebene 1"
     inkscape:groupmode="layer"
     id="layer1"
     transform="translate(0,-822.36218)">
    <g
       id="g3876"
       inkscape:path-effect="#path-effect3881"
       transform="translate(0,-40)">
      <rect
         style="fill:#ffffff;fill-opacity:1;stroke:#000000;stroke-width:1;stroke-linejoin:miter;stroke-miterlimit:4;stroke-dasharray:none;stroke-dashoffset:5.5;stroke-opacity:1"
         id="rect3782"
         width="299.97214"
         height="199.97209"
         x="0.51393408"
         y="631.8761"
         rx="22.220156"
         ry="22.21912"
         d="m 6.8169672,631.24486 c 24.1629238,0 48.3258478,0 72.4887728,0 3.492067,0 6.30337,9.90972 6.30337,22.21911 0,18.68431 0,136.84955 0,155.53386 0,12.30939 -2.811303,22.21912 -6.30337,22.21912 0,0 -72.4887728,0 -72.4887728,0 -3.4920673,0 -6.30337059,-9.90973 -6.30337059,-22.21912 0,0 0,-155.53386 0,-155.53386 0,-12.30939 2.81130329,-22.21911 6.30337059,-22.21911 z" />
      <text
         xml:space="preserve"
         style="font-style:normal;font-variant:normal;font-weight:normal;font-stretch:normal;font-size:40px;line-height:125%;font-family:eufm10;-inkscape-font-specification:eufm10;letter-spacing:0px;word-spacing:0px;fill:#000000;fill-opacity:1;stroke:none"
         x="41.109375"
         y="744.78406"
         id="text3784"
         sodipodi:linespacing="125%"><tspan
           sodipodi:role="line"
           id="tspan3786"
           x="41.109375"
           y="744.78406"
           style="font-style:normal;font-variant:normal;font-weight:bold;font-stretch:normal;font-size:64px;font-family:Gardiner;-inkscape-font-specification:'Gardiner Bold';fill:#4d4d4d">Neues Spiel</tspan></text>
    </g>
    <g
       id="g3847"
       transform="matrix(0.96862092,0,0,0.96862092,7.4135911,254.90454)">
      <path
         style="color:#000000;font-style:normal;font-variant:normal;font-weight:normal;font-stretch:normal;font-size:medium;line-height:normal;font-family:Sans;-inkscape-font-specification:Sans;text-indent:0;text-align:start;text-decoration:none;text-decoration-line:none;letter-spacing:normal;word-spacing:normal;text-transform:none;direction:ltr;block-progression:tb;writing-mode:lr-tb;baseline-shift:baseline;text-anchor:start;display:inline;overflow:visible;visibility:visible;fill:#000000;fill-opacity:1;fill-rule:nonzero;stroke:none;stroke-width:1;marker:none;enable-background:accumulate"
         d="m 22.90625,852.125 c -12.602471,-0.88871 -24.0630559,8.45387 -25.28125,21 -0.8024842,8.26475 -1.4677516,16.53105 -1.96875,24.8125 -1.0709807,17.7032 -1.4445858,35.45869 -1.3125,53.21875 0.096376,12.95858 0.4496566,25.92504 1.03125,38.875 0.581588,12.94985 1.3838524,25.88625 2.4375,38.81255 0.512655,6.2891 3.5617713,11.7455 8.0625,15.5312 4.500297,3.7853 10.443092,5.8952 16.71875,5.4688 21.249145,-1.4436 42.563469,-2.6064 63.875,-3.875 21.31129,-1.2687 42.61982,-2.6169 63.90625,-4.0626 21.28618,-1.4454 42.54206,-2.982 63.75,-4.5312 21.20769,-1.5491 42.37992,-3.0961 63.46875,-4.7188 6.21494,-0.4782 11.58898,-3.1573 15.34375,-7 3.75414,-3.8419 5.91788,-8.849 5.5625,-14.125 -0.72369,-10.7437 -1.20967,-21.13397 -1.5625,-31.3437 -0.35284,-10.20969 -0.58179,-20.2454 -0.6875,-30.21875 -0.14488,-13.66824 -0.0557,-27.25816 0.71875,-41.09375 0.36227,-6.47252 0.87157,-12.97836 1.59375,-19.59375 0.55422,-5.07679 -1.3352,-9.91293 -4.875,-13.65625 -3.54108,-3.74466 -8.75863,-6.41158 -14.9375,-6.96875 -20.97455,-1.89134 -42.12148,-3.54181 -63.375,-4.96875 -21.25337,-1.42693 -42.59296,-2.63337 -64,-3.8125 -21.40689,-1.17912 -42.88228,-2.3304 -64.3125,-3.59375 C 65.632428,855.0179 44.243974,853.62969 22.90625,852.125 Z m -0.09375,1 c 21.34145,1.50495 42.784734,2.89266 64.21875,4.15625 21.43387,1.26357 42.87544,2.41469 64.28125,3.59375 21.40566,1.17905 42.75327,2.38601 64,3.8125 21.24658,1.42648 42.3775,3.07815 63.34375,4.96875 5.94383,0.53597 10.94518,3.09533 14.3125,6.65625 3.36858,3.56226 5.11411,8.07706 4.59375,12.84375 -0.72444,6.63607 -1.23068,13.20078 -1.59375,19.6875 -0.77616,13.86721 -0.86375,27.44482 -0.71875,41.125 0.10579,9.98163 0.3344,20.03275 0.6875,30.25 0.35309,10.21721 0.83787,20.61735 1.5625,31.37505 0.33436,4.9638 -1.69771,9.7075 -5.28125,13.375 -3.58291,3.6667 -8.71198,6.2277 -14.6875,6.6874 -21.08641,1.6226 -42.26124,3.1697 -63.46875,4.7188 -21.20728,1.5492 -42.46656,3.0859 -63.75,4.5312 -21.28321,1.4454 -42.59729,2.794 -63.90625,4.0626 -21.308719,1.2685 -42.617463,2.4309 -63.875,3.875 -6.01062,0.4083 -11.69202,-1.5953 -16,-5.2188 -4.3075489,-3.6233 -7.22834736,-8.8588 -7.71875,-14.875 -1.0525668,-12.913 -1.856405,-25.8423 -2.4375,-38.78125 -0.5810896,-12.93874 -0.934976,-25.89891 -1.03125,-38.84375 -0.1319422,-17.74074 0.2430853,-35.44768 1.3125,-53.125 0.5002708,-8.26943 1.1674436,-16.52864 1.96875,-24.78125 1.16447107,-11.99283 12.117701,-20.9449 24.1875,-20.09375 z"
         id="rect3004"
         inkscape:connector-curvature="0" />
    </g>
    <path
       style="opacity:1;fill:#fcfcfc;fill-opacity:1;stroke:none;stroke-width:5;stroke-linejoin:miter;stroke-miterlimit:4;stroke-dasharray:none;stroke-opacity:1"
       d="M 43.013672 19.195312 C 31.731492 19.524712 21.932392 28.208642 20.826172 39.601562 C 20.048872 47.606972 19.405202 55.611223 18.919922 63.632812 C 17.882552 80.780503 17.510732 97.961262 17.638672 115.16406 C 17.732072 127.71596 18.075332 140.27671 18.638672 152.82031 C 19.202012 165.36377 19.961832 177.89336 20.982422 190.41406 C 21.478992 196.50576 24.435422 201.80966 28.794922 205.47656 C 33.154002 209.14316 38.934942 211.17091 45.013672 210.75781 C 65.596032 209.35951 86.214621 208.23661 106.85742 207.00781 C 127.49998 205.77891 148.14324 204.47071 168.76172 203.07031 C 189.37996 201.67031 209.96927 200.19591 230.51172 198.69531 C 251.05393 197.19481 271.55339 195.67336 291.98047 194.10156 C 298.00038 193.63846 303.21852 191.04241 306.85547 187.32031 C 310.49181 183.59901 312.60595 178.77454 312.26172 173.66406 C 311.56074 163.25746 311.07222 153.17836 310.73047 143.28906 C 310.3887 133.39976 310.17661 123.66821 310.07422 114.00781 C 309.93389 100.76851 310.01152 87.628002 310.76172 74.226562 C 311.11262 67.957143 311.59345 61.634372 312.29297 55.226562 C 312.8298 50.309083 311.00295 45.633672 307.57422 42.007812 C 304.14427 38.380662 299.09045 35.797502 293.10547 35.257812 C 272.78908 33.425822 252.31707 31.827472 231.73047 30.445312 C 211.14401 29.063153 190.46579 27.899942 169.73047 26.757812 C 148.99532 25.615693 128.20893 24.512772 107.45117 23.289062 C 86.693551 22.065353 65.963082 20.715292 45.294922 19.257812 C 44.531982 19.204012 43.765812 19.173312 43.013672 19.195312 z "
       transform="translate(0,822.36218)"
       id="rect4156" />
    <path
       d="m 107.40625,923.06533 c -4e-5,0.14587 -0.1667,0.9792 -0.5,2.5 -0.31254,1.52086 -0.50003,2.33336 -0.5625,2.4375 -0.14587,0.31253 -0.48962,0.46878 -1.03125,0.46875 -0.5417,3e-5 -0.81253,-0.12497 -0.8125,-0.375 -3e-5,-0.16664 0.0208,-0.41664 0.0625,-0.75 0.0625,-0.35414 0.0937,-0.61456 0.0937,-0.78125 -3e-5,-1.5208 -0.70836,-2.94789 -2.125,-4.28125 -1.89586,-1.79163 -4.406276,-2.68746 -7.531248,-2.6875 -4.604187,4e-5 -8.541683,1.88545 -11.8125,5.65625 -3.104177,3.60419 -4.656259,7.75002 -4.65625,12.4375 -9e-6,3.91668 1.21874,7.13543 3.65625,9.65625 2.437485,2.52084 5.614566,3.78125 9.53125,3.78125 1.854143,0 3.666641,-0.64583 5.4375,-1.9375 0.937472,-0.68749 2.302054,-2.27083 4.093748,-4.75 0.12497,-0.18749 0.29164,-0.28124 0.5,-0.28125 0.16664,10e-6 0.3958,0.10418 0.6875,0.3125 0.31247,0.20834 0.46872,0.38543 0.46875,0.53125 -3e-5,0.12501 -0.27086,0.95834 -0.8125,2.5 -0.52086,1.52084 -0.84378,2.41667 -0.96875,2.6875 -0.20836,0.4375 -0.51045,0.77084 -0.90625,1 -2.270859,1.29167 -5.437523,1.9375 -9.499998,1.9375 -4.937516,0 -8.979178,-1.67708 -12.125,-5.03125 -3.083339,-3.27082 -4.625004,-7.39582 -4.625,-12.375 -4e-6,-4.91664 1.937494,-9.13539 5.8125,-12.65625 3.999986,-3.6458 8.937481,-5.46871 14.8125,-5.46875 5.333303,4e-5 9.541638,1.6667 12.624998,5 0.12496,0.12503 0.18746,0.28128 0.1875,0.46875"
       style="font-style:normal;font-variant:normal;font-weight:bold;font-stretch:normal;font-size:64px;line-height:125%;font-family:Gardiner;-inkscape-font-specification:'Gardiner Bold';letter-spacing:0px;word-spacing:0px;fill:#4d4d4d;fill-opacity:1;stroke:none"
       id="path2994"
       inkscape:connector-curvature="0" />
    <path
       d="m 124.75001,938.81533 c -3e-5,3.60418 -1.08336,6.76043 -3.25,9.46875 -2.20836,2.77084 -4.7396,4.15625 -7.59376,4.15625 -2.20834,0 -3.98959,-0.75 -5.34375,-2.25 -1.33333,-1.49999 -2,-3.36458 -2,-5.59375 0,-3.37499 1.02083,-6.41665 3.0625,-9.125 2.22916,-2.93748 4.97916,-4.40623 8.25,-4.40625 2.12499,2e-5 3.8229,0.77086 5.09376,2.3125 1.18748,1.45835 1.78122,3.27085 1.78125,5.4375 m -3.625,-1.0625 c -2e-5,-1.24998 -0.27085,-2.3229 -0.81251,-3.21875 -0.66668,-1.04165 -1.58335,-1.56248 -2.75,-1.5625 -1.72918,2e-5 -3.38542,1.34377 -4.96875,4.03125 -1.5625,2.68752 -2.34375,5.5521 -2.34375,8.59375 0,1.25001 0.26041,2.33334 0.78125,3.25 0.625,1.12501 1.51041,1.6875 2.65625,1.6875 1.79166,0 3.47916,-1.35416 5.0625,-4.0625 1.58332,-2.70832 2.37499,-5.61457 2.37501,-8.71875"
       style="font-style:normal;font-variant:normal;font-weight:bold;font-stretch:normal;font-size:64px;line-height:125%;font-family:Gardiner;-inkscape-font-specification:'Gardiner Bold';letter-spacing:0px;word-spacing:0px;fill:#4d4d4d;fill-opacity:1;stroke:none"
       id="path2996"
       inkscape:connector-curvature="0" />
    <path
       d="m 150.5625,945.90908 c -2e-5,0.12501 -0.0625,0.26043 -0.1875,0.40625 -1.10418,1.31251 -2.37502,2.56251 -3.81249,3.75 -1.93752,1.58334 -3.44794,2.375 -4.53125,2.375 -1.16669,0 -1.75002,-0.52083 -1.75,-1.5625 -2e-5,-0.70833 0.28123,-1.77083 0.84375,-3.1875 l 4.15625,-10.53125 c 0.24998,-0.62498 0.37498,-1.20831 0.375,-1.75 -2e-5,-0.89581 -0.37502,-1.34373 -1.125,-1.34375 -1.93752,2e-5 -4.20835,1.64585 -6.8125,4.9375 -2.08335,2.60418 -3.64585,5.15626 -4.6875,7.65625 -0.35418,1.18751 -1.01043,2.90626 -1.96875,5.15625 -0.27084,0.5 -0.59376,0.75 -0.96875,0.75 -0.39584,0 -0.81251,-0.11458 -1.25,-0.34375 -0.50001,-0.27083 -0.75001,-0.58333 -0.75,-0.9375 -1e-5,-0.16666 0.0417,-0.35416 0.125,-0.5625 l 3.8125,-9.59375 c 1.06249,-2.66665 1.59374,-4.55206 1.59375,-5.65625 -1e-5,-0.66665 -0.21876,-0.99998 -0.65625,-1 -0.75001,2e-5 -1.54168,0.62502 -2.375,1.875 -0.81251,1.25002 -1.28126,1.87502 -1.40625,1.875 -0.77084,2e-5 -1.15626,-0.27082 -1.15625,-0.8125 -1e-5,-0.10415 0.0208,-0.1979 0.0625,-0.28125 0.56249,-1.16665 1.40624,-2.3854 2.53125,-3.65625 1.39582,-1.56248 2.55207,-2.34373 3.46875,-2.34375 1.43749,2e-5 2.15623,0.98961 2.15625,2.96875 -2e-5,0.95835 -0.20835,2.3021 -0.625,4.03125 3.74998,-4.70831 7.24998,-7.06248 10.5,-7.0625 2.18747,2e-5 3.28122,1.02086 3.28124,3.0625 -2e-5,0.60419 -0.1771,1.35419 -0.53125,2.25 l -4.12499,10.40625 c -0.27086,0.68751 -0.40627,1.28126 -0.40625,1.78125 -2e-5,0.33334 0.10414,0.50001 0.3125,0.5 0.58331,10e-6 1.51039,-0.67708 2.78125,-2.03125 1.29164,-1.35416 2.03122,-2.03124 2.21874,-2.03125 0.12498,10e-6 0.30206,0.12501 0.53125,0.375 0.24998,0.22918 0.37498,0.40626 0.375,0.53125"
       style="font-style:normal;font-variant:normal;font-weight:bold;font-stretch:normal;font-size:64px;line-height:125%;font-family:Gardiner;-inkscape-font-specification:'Gardiner Bold';letter-spacing:0px;word-spacing:0px;fill:#4d4d4d;fill-opacity:1;stroke:none"
       id="path2998"
       inkscape:connector-curvature="0" />
    <path
       d="m 167.5,932.15908 c -1e-5,0.29169 -0.0938,0.63544 -0.28125,1.03125 -0.20834,0.47919 -0.43751,0.71877 -0.6875,0.71875 l -4.46875,0 -3.6875,12.59375 c -0.1875,0.64584 -0.28125,1.17709 -0.28125,1.59375 0,0.64584 0.26042,0.96876 0.78125,0.96875 1.04166,10e-6 2.23958,-0.43749 3.59375,-1.3125 1.37499,-0.89583 2.02083,-1.34374 1.9375,-1.34375 0.10416,10e-6 0.28124,0.12501 0.53125,0.375 0.24999,0.22917 0.37499,0.39584 0.375,0.5 -1e-5,0.10417 -0.0938,0.25001 -0.28125,0.4375 -3.1875,3.14584 -5.83334,4.71875 -7.9375,4.71875 -1.75,0 -2.625,-0.77083 -2.625,-2.3125 0,-0.56249 0.11459,-1.23958 0.34375,-2.03125 l 4.09375,-14.1875 -3.21875,0 c -0.29167,2e-5 -0.4375,-0.1354 -0.4375,-0.40625 0,-0.31248 0.0937,-0.67706 0.28125,-1.09375 0.1875,-0.43748 0.41667,-0.65623 0.6875,-0.65625 l 3.3125,0 1.125,-3.875 c 0.125,-0.45831 0.42708,-0.68747 0.90625,-0.6875 l 1.6875,0 c 0.37499,3e-5 0.56249,0.16669 0.5625,0.5 -1e-5,0.22919 -0.37501,1.58336 -1.125,4.0625 l 4.40625,0 c 0.27082,2e-5 0.40624,0.13544 0.40625,0.40625"
       style="font-style:normal;font-variant:normal;font-weight:bold;font-stretch:normal;font-size:64px;line-height:125%;font-family:Gardiner;-inkscape-font-specification:'Gardiner Bold';letter-spacing:0px;word-spacing:0px;fill:#4d4d4d;fill-opacity:1;stroke:none"
       id="path3000"
       inkscape:connector-curvature="0" />
    <path
       d="m 180.21875,921.47158 c -1e-5,0.6042 -0.21876,1.12503 -0.65625,1.5625 -0.43751,0.43753 -0.95834,0.65628 -1.5625,0.65625 -0.60417,3e-5 -1.12501,-0.21872 -1.5625,-0.65625 -0.4375,-0.43747 -0.65625,-0.9583 -0.65625,-1.5625 0,-0.60413 0.21875,-1.12497 0.65625,-1.5625 0.43749,-0.43746 0.95833,-0.65621 1.5625,-0.65625 0.60416,4e-5 1.12499,0.21879 1.5625,0.65625 0.43749,0.43753 0.65624,0.95837 0.65625,1.5625 m -0.6875,24.46875 c -1e-5,0.0833 -0.0417,0.19793 -0.125,0.34375 -0.75001,1.31251 -1.92709,2.62501 -3.53125,3.9375 -1.8125,1.47917 -3.36458,2.21875 -4.65625,2.21875 -1.5,0 -2.25,-0.66666 -2.25,-2 0,-0.72916 0.20834,-1.64583 0.625,-2.75 l 4.1875,-11.03125 c 0.25,-0.66665 0.375,-1.18748 0.375,-1.5625 0,-0.39581 -0.16667,-0.59373 -0.5,-0.59375 -0.45833,2e-5 -1.10417,0.35419 -1.9375,1.0625 -0.8125,0.70835 -1.25,1.06252 -1.3125,1.0625 -0.14583,2e-5 -0.33333,-0.11456 -0.5625,-0.34375 -0.22916,-0.24998 -0.34375,-0.4479 -0.34375,-0.59375 0,-0.14581 0.0625,-0.30206 0.1875,-0.46875 0.66667,-0.87498 1.63542,-1.7604 2.90625,-2.65625 1.4375,-0.99998 2.60416,-1.49998 3.5,-1.5 1.29166,2e-5 1.93749,0.59377 1.9375,1.78125 -1e-5,0.91669 -0.32292,2.22919 -0.96875,3.9375 l -3.78125,10.03125 c -0.29167,0.77084 -0.4375,1.30209 -0.4375,1.59375 0,0.43751 0.21875,0.65626 0.65625,0.65625 0.875,10e-6 1.92708,-0.66666 3.15625,-2 1.22916,-1.35416 1.86458,-2.03124 1.90625,-2.03125 0.12499,10e-6 0.31249,0.12501 0.5625,0.375 0.27083,0.22918 0.40624,0.40626 0.40625,0.53125"
       style="font-style:normal;font-variant:normal;font-weight:bold;font-stretch:normal;font-size:64px;line-height:125%;font-family:Gardiner;-inkscape-font-specification:'Gardiner Bold';letter-spacing:0px;word-spacing:0px;fill:#4d4d4d;fill-opacity:1;stroke:none"
       id="path3002"
       inkscape:connector-curvature="0" />
    <path
       d="m 204.9375,945.90908 c -2e-5,0.12501 -0.0625,0.26043 -0.1875,0.40625 -1.10418,1.31251 -2.37502,2.56251 -3.8125,3.75 -1.93751,1.58334 -3.44793,2.375 -4.53125,2.375 -1.16668,0 -1.75001,-0.52083 -1.75,-1.5625 -1e-5,-0.70833 0.28124,-1.77083 0.84375,-3.1875 l 4.15625,-10.53125 c 0.24999,-0.62498 0.37499,-1.20831 0.375,-1.75 -1e-5,-0.89581 -0.37501,-1.34373 -1.125,-1.34375 -1.93751,2e-5 -4.20834,1.64585 -6.8125,4.9375 -2.08334,2.60418 -3.64584,5.15626 -4.6875,7.65625 -0.35417,1.18751 -1.01042,2.90626 -1.96875,5.15625 -0.27083,0.5 -0.59375,0.75 -0.96875,0.75 -0.39583,0 -0.8125,-0.11458 -1.25,-0.34375 -0.5,-0.27083 -0.75,-0.58333 -0.75,-0.9375 0,-0.16666 0.0417,-0.35416 0.125,-0.5625 l 3.8125,-9.59375 c 1.0625,-2.66665 1.59375,-4.55206 1.59375,-5.65625 0,-0.66665 -0.21875,-0.99998 -0.65625,-1 -0.75,2e-5 -1.54167,0.62502 -2.375,1.875 -0.8125,1.25002 -1.28125,1.87502 -1.40625,1.875 -0.77083,2e-5 -1.15625,-0.27082 -1.15625,-0.8125 0,-0.10415 0.0208,-0.1979 0.0625,-0.28125 0.5625,-1.16665 1.40625,-2.3854 2.53125,-3.65625 1.39583,-1.56248 2.55208,-2.34373 3.46875,-2.34375 1.4375,2e-5 2.15624,0.98961 2.15625,2.96875 -1e-5,0.95835 -0.20834,2.3021 -0.625,4.03125 3.74999,-4.70831 7.24999,-7.06248 10.5,-7.0625 2.18748,2e-5 3.28123,1.02086 3.28125,3.0625 -2e-5,0.60419 -0.1771,1.35419 -0.53125,2.25 l -4.125,10.40625 c -0.27085,0.68751 -0.40626,1.28126 -0.40625,1.78125 -1e-5,0.33334 0.10415,0.50001 0.3125,0.5 0.58332,10e-6 1.5104,-0.67708 2.78125,-2.03125 1.29165,-1.35416 2.03123,-2.03124 2.21875,-2.03125 0.12498,10e-6 0.30206,0.12501 0.53125,0.375 0.24998,0.22918 0.37498,0.40626 0.375,0.53125"
       style="font-style:normal;font-variant:normal;font-weight:bold;font-stretch:normal;font-size:64px;line-height:125%;font-family:Gardiner;-inkscape-font-specification:'Gardiner Bold';letter-spacing:0px;word-spacing:0px;fill:#4d4d4d;fill-opacity:1;stroke:none"
       id="path3004"
       inkscape:connector-curvature="0" />
    <path
       d="m 228.9375,932.06533 c -2e-5,0.20836 -0.0313,0.41669 -0.0937,0.625 l -4.75,13.40625 c -0.29168,0.83334 -0.43751,1.64584 -0.4375,2.4375 -10e-6,0.35417 0.10415,0.53126 0.3125,0.53125 0.43749,10e-6 1.21874,-0.67708 2.34375,-2.03125 1.14582,-1.37499 1.7604,-2.06249 1.84375,-2.0625 0.10415,10e-6 0.24998,0.11459 0.4375,0.34375 0.18748,0.22918 0.28123,0.39584 0.28125,0.5 -2e-5,0.79168 -1.06252,2.09376 -3.1875,3.90625 -2.10418,1.8125 -3.67709,2.71875 -4.71875,2.71875 -0.91668,0 -1.37501,-0.42708 -1.375,-1.28125 -10e-6,-0.70833 0.28124,-1.86458 0.84375,-3.46875 l 2.59375,-7.40625 c -2.04168,2.47918 -4.18751,4.83334 -6.4375,7.0625 -3.4375,3.39584 -5.83333,5.09375 -7.1875,5.09375 -0.9375,0 -1.40625,-0.69791 -1.40625,-2.09375 0,-0.70833 0.27084,-1.71874 0.8125,-3.03125 l 4.5625,-11.09375 c 0.20833,-0.49998 0.3125,-0.85415 0.3125,-1.0625 0,-0.33331 -0.1875,-0.49998 -0.5625,-0.5 -0.33333,2e-5 -1,0.57294 -2,1.71875 -1,1.12502 -1.5625,1.68752 -1.6875,1.6875 -0.14583,2e-5 -0.3125,-0.11457 -0.5,-0.34375 -0.1875,-0.24998 -0.28125,-0.4479 -0.28125,-0.59375 0,-0.0625 0.0729,-0.18748 0.21875,-0.375 2.95833,-3.62498 5.375,-5.43748 7.25,-5.4375 0.99999,2e-5 1.49999,0.45836 1.5,1.375 -10e-6,0.91669 -0.41667,2.37502 -1.25,4.375 l -3.5625,8.53125 c -0.27083,0.64584 -0.40625,1.25001 -0.40625,1.8125 0,0.37501 0.10417,0.56251 0.3125,0.5625 1.0625,10e-6 3.34375,-2.09374 6.84375,-6.28125 3.27082,-3.91665 5.21874,-6.62498 5.84375,-8.125 0.16665,-0.49998 0.33332,-0.99998 0.5,-1.5 0.27082,-0.66664 0.61457,-0.99998 1.03125,-1 0.35415,2e-5 0.74998,0.0834 1.1875,0.25 0.54165,0.20836 0.81248,0.45836 0.8125,0.75"
       style="font-style:normal;font-variant:normal;font-weight:bold;font-stretch:normal;font-size:64px;line-height:125%;font-family:Gardiner;-inkscape-font-specification:'Gardiner Bold';letter-spacing:0px;word-spacing:0px;fill:#4d4d4d;fill-opacity:1;stroke:none"
       id="path3006"
       inkscape:connector-curvature="0" />
    <path
       d="m 248.03125,934.94033 c -1e-5,4.06252 -4.21876,6.59376 -12.65625,7.59375 -0.125,0.87501 -0.1875,1.78126 -0.1875,2.71875 0,3.00001 1.46875,4.50001 4.40625,4.5 0.93749,10e-6 1.95833,-0.49999 3.0625,-1.5 1.10416,-0.99999 1.62499,-1.49999 1.5625,-1.5 0.12499,10e-6 0.31249,0.13542 0.5625,0.40625 0.27082,0.25001 0.40624,0.43751 0.40625,0.5625 -1e-5,0.14584 -0.0417,0.27084 -0.125,0.375 -2.14584,2.89584 -4.64584,4.34375 -7.5,4.34375 -1.83333,0 -3.32292,-0.65625 -4.46875,-1.96875 -1.08333,-1.22916 -1.625,-2.78124 -1.625,-4.65625 0,-3.60415 1.07292,-6.8854 3.21875,-9.84375 2.35416,-3.27081 5.27083,-4.90623 8.75,-4.90625 1.27082,2e-5 2.33332,0.32294 3.1875,0.96875 0.93749,0.70836 1.40624,1.6771 1.40625,2.90625 m -3.25,0.28125 c -1e-5,-1.49998 -0.61459,-2.24998 -1.84375,-2.25 -1.56251,2e-5 -3.0625,0.9271 -4.5,2.78125 -1.10417,1.43752 -1.96875,3.08335 -2.59375,4.9375 5.95833,-0.68748 8.93749,-2.5104 8.9375,-5.46875"
       style="font-style:normal;font-variant:normal;font-weight:bold;font-stretch:normal;font-size:64px;line-height:125%;font-family:Gardiner;-inkscape-font-specification:'Gardiner Bold';letter-spacing:0px;word-spacing:0px;fill:#4d4d4d;fill-opacity:1;stroke:none"
       id="path3008"
       inkscape:connector-curvature="0" />
  </g>
</svg>
