<?xml version="1.0" encoding="UTF-8" standalone="no"?>
<!-- Created with Inkscape (http://www.inkscape.org/) -->

<svg
   xmlns:dc="http://purl.org/dc/elements/1.1/"
   xmlns:cc="http://creativecommons.org/ns#"
   xmlns:rdf="http://www.w3.org/1999/02/22-rdf-syntax-ns#"
   xmlns:svg="http://www.w3.org/2000/svg"
   xmlns="http://www.w3.org/2000/svg"
   xmlns:sodipodi="http://sodipodi.sourceforge.net/DTD/sodipodi-0.dtd"
   xmlns:inkscape="http://www.inkscape.org/namespaces/inkscape"
   width="330"
   height="230"
   id="svg2"
   version="1.1"
   inkscape:version="0.91 r13725"
   sodipodi:docname="menu_card_continue_de-xhdpi.svg">
  <defs
     id="defs4">
    <inkscape:path-effect
       effect="envelope"
       id="path-effect3881"
       is_visible="true"
       yy="true"
       xx="true"
       bendpath1="m 0.51393408,631.8761 299.97213592,0"
       bendpath2="m 300.48607,631.8761 0,199.97209"
       bendpath3="m 0.51393408,831.84819 299.97213592,0"
       bendpath4="m 0.51393408,631.8761 0,199.97209" />
    <inkscape:path-effect
       effect="envelope"
       id="path-effect3874"
       is_visible="true"
       yy="true"
       xx="true"
       bendpath1="M 0.51393408,851.8761 C 100.8201,859.43719 200.35703,862.77417 301.91464,870.44753"
       bendpath2="m 298.92175,873.3758 c -5.48736,41.49677 -2.90751,111.36598 -0.19285,154.2297"
       bendpath3="M 0.51393408,1051.8482 C 99.484576,1047.0023 199.2883,1036.7984 300.48607,1034.7053"
       bendpath4="m 0.51393408,851.8761 c -8.68767528,66.65737 -6.48208318,133.31473 0,199.9721"
       bendpath2-nodetypes="cc"
       bendpath1-nodetypes="cc"
       bendpath3-nodetypes="cc"
       bendpath4-nodetypes="cc" />
  </defs>
  <sodipodi:namedview
     id="base"
     pagecolor="#ffffff"
     bordercolor="#666666"
     borderopacity="1.0"
     inkscape:pageopacity="0.0"
     inkscape:pageshadow="2"
     inkscape:zoom="1.979899"
     inkscape:cx="59.658416"
     inkscape:cy="77.712588"
     inkscape:document-units="px"
     inkscape:current-layer="layer1"
     showgrid="false"
     inkscape:window-width="1920"
     inkscape:window-height="1017"
     inkscape:window-x="-8"
     inkscape:window-y="-8"
     inkscape:window-maximized="1" />
  <metadata
     id="metadata7">
    <rdf:RDF>
      <cc:Work
         rdf:about="">
        <dc:format>image/svg+xml</dc:format>
        <dc:type
           rdf:resource="http://purl.org/dc/dcmitype/StillImage" />
        <dc:title></dc:title>
      </cc:Work>
    </rdf:RDF>
  </metadata>
  <g
     inkscape:label="Ebene 1"
     inkscape:groupmode="layer"
     id="layer1"
     transform="translate(0,-822.36218)">
    <g
       id="g3876"
       inkscape:path-effect="#path-effect3881">
      <rect
         style="fill:#ffffff;fill-opacity:1;stroke:#000000;stroke-width:1;stroke-linejoin:miter;stroke-miterlimit:4;stroke-dasharray:none;stroke-dashoffset:5.5;stroke-opacity:1"
         id="rect3782"
         width="299.97214"
         height="199.97209"
         x="0.51393408"
         y="631.8761"
         rx="22.220156"
         ry="22.21912"
         d="m 10.106816,631.24486 c 46.657528,0 63.664508,0 110.322034,0 5.31465,0 9.59322,9.90972 9.59322,22.21912 0,31.10677 0,124.42708 0,155.53385 0,12.30939 -4.27857,22.21912 -9.59322,22.21912 15.76029,0 -126.0823251,0 -110.322034,0 -5.3146436,0 -9.59321939,-9.90973 -9.59321939,-22.21912 0,0 0,-155.53385 0,-155.53385 0,-12.3094 4.27857579,-22.21912 9.59321939,-22.21912 z" />
      <text
         xml:space="preserve"
         style="font-style:normal;font-variant:normal;font-weight:normal;font-stretch:normal;font-size:40px;line-height:125%;font-family:eufm10;-inkscape-font-specification:eufm10;letter-spacing:0px;word-spacing:0px;fill:#000000;fill-opacity:1;stroke:none"
         x="41.109375"
         y="744.78406"
         id="text3784"
         sodipodi:linespacing="125%"><tspan
           sodipodi:role="line"
           id="tspan3786"
           x="41.109375"
           y="744.78406"
           style="font-style:normal;font-variant:normal;font-weight:bold;font-stretch:normal;font-size:64px;font-family:Gardiner;-inkscape-font-specification:'Gardiner Bold';fill:#4d4d4d">Neues Spiel</tspan></text>
    </g>
    <path
       style="color:#000000;font-style:normal;font-variant:normal;font-weight:normal;font-stretch:normal;font-size:medium;line-height:normal;font-family:Sans;-inkscape-font-specification:Sans;text-indent:0;text-align:start;text-decoration:none;text-decoration-line:none;letter-spacing:normal;word-spacing:normal;text-transform:none;direction:ltr;block-progression:tb;writing-mode:lr-tb;baseline-shift:baseline;text-anchor:start;display:inline;overflow:visible;visibility:visible;fill:#000000;fill-opacity:1;fill-rule:nonzero;stroke:none;stroke-width:1;marker:none;enable-background:accumulate"
       d="m 27.3125,1120.2371 c -11.282182,0.3294 -21.0812798,9.0133 -22.1875001,20.4062 -0.7773027,8.0054 -1.4209727,16.0097 -1.9062498,24.0312 -1.0373746,17.1477 -1.4091914,34.3285 -1.2812501,51.5313 0.093356,12.5519 0.4366562,25.1126 1.0000004,37.6562 0.5633383,12.5435 1.3231642,25.0731 2.3437497,37.5938 0.4965684,6.0917 3.4529999,11.3955 7.8124989,15.0624 4.359082,3.6665 10.140017,5.6943 16.21875,5.2813 20.582366,-1.3983 41.200954,-2.5212 61.843748,-3.75 20.642563,-1.2289 41.287763,-2.5371 61.906243,-3.9375 20.61824,-1.4 41.20755,-2.8744 61.75,-4.375 20.54222,-1.5005 41.04167,-3.022 61.46876,-4.5938 6.01991,-0.4631 11.23804,-3.0591 14.87499,-6.7812 3.63634,-3.7213 5.75048,-8.5458 5.40625,-13.6562 -0.70098,-10.4066 -1.18949,-20.4857 -1.53125,-30.375 -0.34177,-9.8893 -0.55386,-19.6209 -0.65625,-29.2813 -0.14033,-13.2393 -0.0627,-26.3797 0.68751,-39.7812 0.35089,-6.2694 0.83172,-12.5921 1.53124,-18.9999 0.53683,-4.9175 -1.29003,-9.593 -4.71875,-13.2188 -3.42996,-3.6272 -8.48377,-6.2103 -14.46875,-6.75 -20.31639,-1.832 -40.78839,-3.4303 -61.375,-4.8125 -20.58646,-1.3822 -41.26468,-2.5454 -62,-3.6875 -20.73515,-1.1421 -41.52348,-2.2451 -62.281242,-3.4687 -20.757617,-1.2238 -41.488084,-2.5738 -62.156249,-4.0313 -0.762939,-0.053 -1.529105,-0.084 -2.281249,-0.062 z m 0.03125,0.9687 c 0.720191,-0.021 1.425559,0.011 2.15625,0.062 20.671774,1.4578 41.457313,2.8074 62.218748,4.0313 20.761292,1.2239 41.515872,2.3267 62.250002,3.4688 20.73397,1.142 41.41996,2.3058 62,3.6874 20.57987,1.3817 41.03539,2.9812 61.34374,4.8125 5.75733,0.5192 10.61334,2.9884 13.875,6.4375 3.26289,3.4505 4.94153,7.8517 4.4375,12.4688 -0.70171,6.4278 -1.17957,12.7793 -1.53125,19.0625 -0.7518,13.432 -0.82795,26.5616 -0.6875,39.8124 0.10247,9.6685 0.31423,19.4159 0.65625,29.3125 0.34201,9.8966 0.82936,19.9862 1.53125,30.4063 0.32387,4.808 -1.65391,9.3851 -5.125,12.9375 -3.47048,3.5516 -8.43074,6.0234 -14.21875,6.4687 -20.42474,1.5717 -40.95795,3.0933 -61.5,4.5938 -20.54182,1.5006 -41.13441,2.975 -61.74999,4.375 -20.61536,1.4 -41.26596,2.7087 -61.906252,3.9375 -20.64007,1.2287 -41.253254,2.3512 -61.843748,3.75 -5.822011,0.3955 -11.327199,-1.5527 -15.499999,-5.0625 -4.1723823,-3.5096 -7.0249855,-8.5789 -7.5000001,-14.4063 -1.0195384,-12.5078 -1.780889,-25.0295 -2.3437497,-37.5625 -0.562856,-12.5327 -0.9067474,-25.0863 -1.0000004,-37.6249 -0.1278018,-17.1841 0.2453924,-34.3149 1.2812501,-51.4376 0.484573,-8.0099 1.1300881,-16.0062 1.9062499,-23.9999 1.0574357,-10.8905 10.4471342,-19.2154 21.2499992,-19.5313 z"
       id="path3778"
       inkscape:connector-curvature="0" />
    <g
       id="g4158"
       transform="translate(15.7002,-18.679122)">
      <path
         style="color:#000000;font-style:normal;font-variant:normal;font-weight:normal;font-stretch:normal;font-size:medium;line-height:normal;font-family:Sans;-inkscape-font-specification:Sans;text-indent:0;text-align:start;text-decoration:none;text-decoration-line:none;letter-spacing:normal;word-spacing:normal;text-transform:none;direction:ltr;block-progression:tb;writing-mode:lr-tb;baseline-shift:baseline;text-anchor:start;display:inline;overflow:visible;visibility:visible;fill:#ffffff;fill-opacity:1;fill-rule:nonzero;stroke:none;stroke-width:1;marker:none;enable-background:accumulate"
         d="m 27.3125,860.23718 c -11.282182,0.3294 -21.0812798,9.01333 -22.1875001,20.40625 -0.7773027,8.00541 -1.4209727,16.00966 -1.9062498,24.03125 -1.0373746,17.14769 -1.4091914,34.32848 -1.2812501,51.53124 0.093356,12.55195 0.4366562,25.11265 1.0000004,37.65626 0.5633383,12.54352 1.3231642,25.07302 2.3437497,37.59372 0.4965684,6.0918 3.4529999,11.3956 7.8124989,15.0625 4.359082,3.6665 10.140017,5.6943 16.21875,5.2813 20.582366,-1.3983 41.200954,-2.5212 61.843748,-3.75 20.642563,-1.2289 41.287763,-2.5371 61.906243,-3.9376 20.61824,-1.3999 41.20755,-2.8744 61.75,-4.3749 20.54222,-1.5005 41.04167,-3.022 61.46876,-4.5938 6.01991,-0.4631 11.23804,-3.0591 14.87499,-6.7812 3.63634,-3.7214 5.75048,-8.5458 5.40625,-13.6562 -0.70098,-10.4066 -1.18949,-20.48572 -1.53125,-30.37507 -0.34177,-9.88932 -0.55386,-19.62085 -0.65625,-29.28126 -0.14033,-13.23934 -0.0627,-26.3798 0.68751,-39.78124 0.35089,-6.26942 0.83172,-12.5922 1.53124,-19 0.53683,-4.91749 -1.29003,-9.5929 -4.71875,-13.21875 -3.42996,-3.62716 -8.48377,-6.21032 -14.46875,-6.75 -20.31639,-1.832 -40.78839,-3.43034 -61.375,-4.8125 -20.58646,-1.38215 -41.26468,-2.54537 -62,-3.6875 -20.73515,-1.14212 -41.52348,-2.24504 -62.281242,-3.46875 -20.757617,-1.22371 -41.488084,-2.57378 -62.156249,-4.03125 -0.762939,-0.0538 -1.529105,-0.0845 -2.281249,-0.0625 z"
         id="rect3004"
         inkscape:connector-curvature="0"
         sodipodi:nodetypes="csssssssscsccssssssssssccc" />
      <g
         transform="translate(4.828125,0.20312238)"
         id="g3993">
        <g
           id="text3906"
           style="font-style:normal;font-variant:normal;font-weight:normal;font-stretch:normal;font-size:40px;line-height:125%;font-family:eufm10;-inkscape-font-specification:eufm10;letter-spacing:0px;word-spacing:0px;fill:#000000;fill-opacity:1;stroke:none">
          <path
             id="path2996"
             style="font-weight:bold;font-size:64px;font-family:Gardiner;-inkscape-font-specification:'Gardiner Bold';fill:#4d4d4d;fill-opacity:1"
             d="m 69.734375,934.40906 c -2.9e-5,0.1042 -0.197945,1.11461 -0.59375,3.03125 -0.375028,1.89586 -0.583361,2.90628 -0.625,3.03125 -0.104194,0.27086 -0.322944,0.40628 -0.65625,0.40625 -0.45836,3e-5 -0.687526,-0.27081 -0.6875,-0.8125 -2.6e-5,-1.62497 -0.531276,-2.72914 -1.59375,-3.3125 -0.750024,-0.43747 -1.979189,-0.65622 -3.6875,-0.65625 l -3.09375,0 c -0.83335,3e-5 -1.406266,0.14586 -1.71875,0.4375 -0.229182,0.2292 -0.447932,0.75003 -0.65625,1.5625 l -2.90625,11.21875 6.8125,0 c 1.12498,2e-5 2.031229,-0.5104 2.71875,-1.53125 0.708311,-1.04165 1.093727,-1.56248 1.15625,-1.5625 l 0.6875,0 c 0.208309,2e-5 0.312476,0.0833 0.3125,0.25 -2.4e-5,-0.31248 -0.364607,0.9271 -1.09375,3.71875 -0.125023,0.85418 -0.395856,2.08335 -0.8125,3.6875 -0.104189,0.29168 -0.458355,0.43751 -1.0625,0.4375 -0.375021,1e-5 -0.562521,-0.11457 -0.5625,-0.34375 -2.1e-5,-0.14582 0.02081,-0.36457 0.0625,-0.65625 0.04165,-0.31249 0.06248,-0.54165 0.0625,-0.6875 -2.1e-5,-0.87499 -0.50002,-1.31249 -1.5,-1.3125 l -7.3125,0 -3.0625,12.03125 c -0.166675,0.64584 -0.250009,1.16667 -0.25,1.5625 -9e-6,0.95833 0.447908,1.5625 1.34375,1.8125 0.395823,0.125 1.229156,0.1875 2.5,0.1875 0.249987,0 0.374987,0.0937 0.375,0.28125 -1.3e-5,0.9375 -0.260429,1.40625 -0.78125,1.40625 -0.645845,0 -1.614594,-0.0521 -2.90625,-0.15625 -1.270841,-0.10417 -2.229174,-0.15625 -2.875,-0.15625 -1.354172,0 -2.69792,0.0521 -4.03125,0.15625 -1.333334,0.10416 -1.979167,0.15625 -1.9375,0.15625 -0.208333,0 -0.3125,-0.10417 -0.3125,-0.3125 0,-0.85417 0.40625,-1.33333 1.21875,-1.4375 1.187498,-0.125 1.95833,-0.34375 2.3125,-0.65625 0.499996,-0.4375 0.895829,-1.22917 1.1875,-2.375 l 6.34375,-24.75 c 0.187489,-0.72914 0.281239,-1.24997 0.28125,-1.5625 -1.1e-5,-0.9583 -0.447927,-1.56247 -1.34375,-1.8125 -0.395843,-0.12497 -1.229175,-0.18747 -2.5,-0.1875 -0.250007,3e-5 -0.375007,-0.10414 -0.375,-0.3125 -7e-6,-0.91664 0.260409,-1.37497 0.78125,-1.375 0.937491,3e-5 2.34374,0.0521 4.21875,0.15625 1.895819,0.1042 3.312485,0.15628 4.25,0.15625 1.270816,3e-5 3.166647,-0.0416 5.6875,-0.125 2.520809,-0.0833 4.41664,-0.12497 5.6875,-0.125 0.624972,3e-5 0.937471,0.17712 0.9375,0.53125"
             inkscape:connector-curvature="0" />
          <path
             id="path2998"
             style="font-weight:bold;font-size:64px;font-family:Gardiner;-inkscape-font-specification:'Gardiner Bold';fill:#4d4d4d;fill-opacity:1"
             d="m 85.859375,954.65906 c -2e-5,3.60417 -1.083352,6.76042 -3.25,9.46875 -2.208348,2.77083 -4.739595,4.15625 -7.59375,4.15625 -2.20834,0 -3.989588,-0.75 -5.34375,-2.25 -1.333336,-1.5 -2.000002,-3.36458 -2,-5.59375 -2e-6,-3.37499 1.020831,-6.41665 3.0625,-9.125 2.22916,-2.93748 4.979157,-4.40623 8.25,-4.40625 2.124985,2e-5 3.8229,0.77085 5.09375,2.3125 1.187481,1.45835 1.78123,3.27085 1.78125,5.4375 m -3.625,-1.0625 c -1.6e-5,-1.24999 -0.270849,-2.3229 -0.8125,-3.21875 -0.666682,-1.04165 -1.583347,-1.56248 -2.75,-1.5625 -1.729178,2e-5 -3.385426,1.34377 -4.96875,4.03125 -1.562506,2.68751 -2.343756,5.55209 -2.34375,8.59375 -6e-6,1.25 0.260411,2.33334 0.78125,3.25 0.624993,1.125 1.510409,1.6875 2.65625,1.6875 1.791656,0 3.479154,-1.35417 5.0625,-4.0625 1.583318,-2.70833 2.374984,-5.61457 2.375,-8.71875"
             inkscape:connector-curvature="0" />
          <path
             id="path3000"
             style="font-weight:bold;font-size:64px;font-family:Gardiner;-inkscape-font-specification:'Gardiner Bold';fill:#4d4d4d;fill-opacity:1"
             d="m 106.89063,949.44031 c -2e-5,0.64585 -0.19794,1.21877 -0.59375,1.71875 -0.39586,0.50001 -0.91669,0.75001 -1.5625,0.75 -0.37502,1e-5 -0.76044,-0.17707 -1.15625,-0.53125 -0.39585,-0.35415 -0.7396,-0.53123 -1.03125,-0.53125 -0.16669,2e-5 -0.56252,0.33335 -1.1875,1 -2.52085,2.64584 -4.500015,5.94792 -5.937505,9.90625 -0.395841,1.27084 -1.041674,3.15625 -1.9375,5.65625 -0.250006,0.58333 -0.583339,0.875 -1,0.875 -1.333337,0 -2.000003,-0.40625 -2,-1.21875 -3e-6,-0.16667 0.04166,-0.36458 0.125,-0.59375 l 3.21875,-9.1875 c 0.749993,-2.14582 1.124992,-3.8854 1.125,-5.21875 -8e-6,-1.16665 -0.343757,-1.74998 -1.03125,-1.75 -0.916672,2e-5 -1.791671,0.53127 -2.625,1.59375 -0.833336,1.06251 -1.260419,1.59376 -1.28125,1.59375 -0.125003,1e-5 -0.322919,-0.0937 -0.59375,-0.28125 -0.250002,-0.18749 -0.375002,-0.34374 -0.375,-0.46875 -2e-6,-0.14582 0.03125,-0.27082 0.09375,-0.375 0.624998,-1.12499 1.42708,-2.22915 2.40625,-3.3125 1.270828,-1.39582 2.333327,-2.09373 3.1875,-2.09375 1.791657,2e-5 2.68749,1.31252 2.6875,3.9375 -1e-5,1.25001 -0.177093,2.64585 -0.53125,4.1875 3.354155,-5.45832 5.916655,-8.18748 7.687505,-8.1875 0.64581,2e-5 1.18748,0.26044 1.625,0.78125 0.45831,0.50002 0.68748,1.08335 0.6875,1.75"
             inkscape:connector-curvature="0" />
          <path
             id="path3002"
             style="font-weight:bold;font-size:64px;font-family:Gardiner;-inkscape-font-specification:'Gardiner Bold';fill:#4d4d4d;fill-opacity:1"
             d="m 120.98438,948.00281 c -2e-5,0.29168 -0.0938,0.63543 -0.28125,1.03125 -0.20835,0.47918 -0.43752,0.71877 -0.6875,0.71875 l -4.46875,0 -3.6875,12.59375 c -0.18751,0.64584 -0.28126,1.17709 -0.28125,1.59375 -1e-5,0.64583 0.26041,0.96875 0.78125,0.96875 1.04165,0 2.23957,-0.4375 3.59375,-1.3125 1.37498,-0.89583 2.02082,-1.34375 1.9375,-1.34375 0.10415,0 0.28123,0.125 0.53125,0.375 0.24998,0.22917 0.37498,0.39584 0.375,0.5 -2e-5,0.10417 -0.0938,0.25 -0.28125,0.4375 -3.18751,3.14583 -5.83335,4.71875 -7.9375,4.71875 -1.75001,0 -2.62501,-0.77083 -2.625,-2.3125 -1e-5,-0.5625 0.11458,-1.23958 0.34375,-2.03125 l 4.09375,-14.1875 -3.21875,0 c -0.29168,2e-5 -0.43751,-0.1354 -0.4375,-0.40625 -1e-5,-0.31248 0.0937,-0.67707 0.28125,-1.09375 0.18749,-0.43748 0.41666,-0.65623 0.6875,-0.65625 l 3.3125,0 1.125,-3.875 c 0.12499,-0.45831 0.42707,-0.68748 0.90625,-0.6875 l 1.6875,0 c 0.37498,2e-5 0.56248,0.16669 0.5625,0.5 -2e-5,0.22919 -0.37502,1.58335 -1.125,4.0625 l 4.40625,0 c 0.27081,2e-5 0.40623,0.13543 0.40625,0.40625"
             inkscape:connector-curvature="0" />
          <path
             id="path3004"
             style="font-weight:bold;font-size:64px;font-family:Gardiner;-inkscape-font-specification:'Gardiner Bold';fill:#4d4d4d;fill-opacity:1"
             d="m 142.64062,935.25281 c -2e-5,1.20836 -0.59377,1.81253 -1.78125,1.8125 -0.77085,3e-5 -1.44793,-0.5208 -2.03125,-1.5625 -0.56251,-1.04164 -1.18751,-1.56247 -1.875,-1.5625 -1.85418,3e-5 -3.98959,4.55211 -6.40625,13.65625 l 4.1875,0 c 0.31249,2e-5 0.46874,0.15627 0.46875,0.46875 -1e-5,1.12502 -0.33334,1.68752 -1,1.6875 l -4.25,0 -2.68749,9.59375 c -1.56251,5.60417 -2.83334,9.54166 -3.8125,11.8125 -2.33334,5.39582 -4.875,8.09374 -7.625,8.09375 -1.77083,-10e-6 -2.65625,-0.71876 -2.65625,-2.15625 0,-1.27084 0.76042,-1.90626 2.28125,-1.90625 0.3125,-10e-6 0.6875,0.18749 1.125,0.5625 0.41666,0.37499 0.75,0.56249 1,0.5625 1.14583,-10e-6 3.01041,-4.75001 5.59375,-14.25 l 3.34375,-12.3125 -3.0625,0 c -0.31251,2e-5 -0.46876,-0.1354 -0.46875,-0.40625 -1e-5,-1.16665 0.33333,-1.74998 1,-1.75 l 3.125,0 c 1.27082,-4.87498 2.31249,-8.14581 3.12499,-9.8125 1.87499,-3.81247 4.37499,-5.71872 7.5,-5.71875 1.16665,3e-5 2.21874,0.23962 3.15625,0.71875 1.16665,0.58337 1.74998,1.40628 1.75,2.46875"
             inkscape:connector-curvature="0" />
          <path
             id="path3006"
             style="font-weight:bold;font-size:64px;font-family:Gardiner;-inkscape-font-specification:'Gardiner Bold';fill:#4d4d4d;fill-opacity:1"
             d="m 155.79687,947.90906 c -2e-5,0.20835 -0.0313,0.41668 -0.0937,0.625 l -4.75,13.40625 c -0.29168,0.83334 -0.43751,1.64584 -0.4375,2.4375 -1e-5,0.35417 0.10415,0.53125 0.3125,0.53125 0.43749,0 1.21874,-0.67708 2.34375,-2.03125 1.14582,-1.375 1.7604,-2.06249 1.84375,-2.0625 0.10415,1e-5 0.24998,0.11459 0.4375,0.34375 0.18748,0.22917 0.28123,0.39584 0.28125,0.5 -2e-5,0.79167 -1.06252,2.09375 -3.1875,3.90625 -2.10418,1.8125 -3.67709,2.71875 -4.71875,2.71875 -0.91668,0 -1.37501,-0.42709 -1.375,-1.28125 -1e-5,-0.70833 0.28124,-1.86458 0.84375,-3.46875 l 2.59375,-7.40625 c -2.04168,2.47917 -4.18751,4.83334 -6.4375,7.0625 -3.4375,3.39583 -5.83333,5.09375 -7.1875,5.09375 -0.9375,0 -1.40625,-0.69792 -1.40625,-2.09375 0,-0.70833 0.27084,-1.71875 0.8125,-3.03125 l 4.5625,-11.09375 c 0.20833,-0.49999 0.3125,-0.85415 0.3125,-1.0625 0,-0.33332 -0.1875,-0.49998 -0.5625,-0.5 -0.33333,2e-5 -1,0.57293 -2,1.71875 -1,1.12501 -1.5625,1.68751 -1.6875,1.6875 -0.14583,1e-5 -0.3125,-0.11457 -0.5,-0.34375 -0.1875,-0.24999 -0.28125,-0.4479 -0.28125,-0.59375 0,-0.0625 0.0729,-0.18749 0.21875,-0.375 2.95833,-3.62498 5.375,-5.43748 7.25,-5.4375 0.99999,2e-5 1.49999,0.45835 1.5,1.375 -1e-5,0.91668 -0.41667,2.37501 -1.25,4.375 l -3.5625,8.53125 c -0.27083,0.64584 -0.40625,1.25 -0.40625,1.8125 0,0.375 0.10417,0.5625 0.3125,0.5625 1.0625,0 3.34375,-2.09375 6.84375,-6.28125 3.27082,-3.91665 5.21874,-6.62499 5.84375,-8.125 0.16665,-0.49998 0.33332,-0.99998 0.5,-1.5 0.27082,-0.66665 0.61457,-0.99998 1.03125,-1 0.35415,2e-5 0.74998,0.0833 1.1875,0.25 0.54165,0.20835 0.81248,0.45835 0.8125,0.75"
             inkscape:connector-curvature="0" />
          <path
             id="path3008"
             style="font-weight:bold;font-size:64px;font-family:Gardiner;-inkscape-font-specification:'Gardiner Bold';fill:#4d4d4d;fill-opacity:1"
             d="m 178.89062,951.59656 c -2e-5,4.58334 -1.72918,8.94792 -5.1875,13.09375 -2.00001,2.39583 -3.75001,3.59375 -5.25,3.59375 -1.47917,0 -2.21875,-0.61459 -2.21875,-1.84375 0,-1.375 0.625,-2.0625 1.875,-2.0625 0.54166,0 0.98958,0.17708 1.34375,0.53125 0.35416,0.33333 0.58333,0.5 0.6875,0.5 0.39583,0 0.89582,-0.45833 1.5,-1.375 0.89582,-1.35416 1.69791,-3.15624 2.40625,-5.40625 0.70832,-2.24999 1.06249,-4.15624 1.0625,-5.71875 -1e-5,-1.99999 -0.52085,-2.99998 -1.5625,-3 -2.02084,2e-5 -4.48959,2.19793 -7.40625,6.59375 -2.41667,3.62501 -4.05208,6.80209 -4.90625,9.53125 -0.25,0.83333 -0.38542,1.25 -0.40625,1.25 -0.20833,0.4375 -0.55208,0.65625 -1.03125,0.65625 -1.39583,0 -2.09375,-0.33334 -2.09375,-1 0,-0.0833 0.0417,-0.27083 0.125,-0.5625 l 8.3125,-28.71875 c 0.10416,-0.35414 0.15625,-0.68747 0.15625,-1 0,-0.72914 -0.44792,-1.2083 -1.34375,-1.4375 -0.89584,-0.24997 -1.34375,-0.4583 -1.34375,-0.625 0,-0.6458 0.27083,-1.09372 0.8125,-1.34375 0.79166,-0.0833 1.77083,-0.2083 2.9375,-0.375 0.16666,-0.0416 0.68749,-0.18747 1.5625,-0.4375 0.81249,-0.24997 1.27083,-0.37497 1.375,-0.375 0.41666,3e-5 0.62499,0.1667 0.625,0.5 -1e-5,0.0834 -0.0729,0.37503 -0.21875,0.875 l -6.8125,23.4375 c 4.16666,-6.64582 7.94791,-9.96873 11.34375,-9.96875 2.43748,2e-5 3.65623,1.56252 3.65625,4.6875"
             inkscape:connector-curvature="0" />
          <path
             id="path3010"
             style="font-weight:bold;font-size:64px;font-family:Gardiner;-inkscape-font-specification:'Gardiner Bold';fill:#4d4d4d;fill-opacity:1"
             d="m 199.14062,949.44031 c -1e-5,0.64585 -0.19793,1.21877 -0.59375,1.71875 -0.39585,0.50001 -0.91668,0.75001 -1.5625,0.75 -0.37501,1e-5 -0.76043,-0.17707 -1.15625,-0.53125 -0.39584,-0.35415 -0.73959,-0.53123 -1.03125,-0.53125 -0.16668,2e-5 -0.56251,0.33335 -1.1875,1 -2.52084,2.64584 -4.5,5.94792 -5.9375,9.90625 -0.39584,1.27084 -1.04167,3.15625 -1.9375,5.65625 -0.25,0.58333 -0.58333,0.875 -1,0.875 -1.33333,0 -2,-0.40625 -2,-1.21875 0,-0.16667 0.0417,-0.36458 0.125,-0.59375 l 3.21875,-9.1875 c 0.75,-2.14582 1.125,-3.8854 1.125,-5.21875 0,-1.16665 -0.34375,-1.74998 -1.03125,-1.75 -0.91667,2e-5 -1.79167,0.53127 -2.625,1.59375 -0.83333,1.06251 -1.26041,1.59376 -1.28125,1.59375 -0.125,1e-5 -0.32291,-0.0937 -0.59375,-0.28125 -0.25,-0.18749 -0.375,-0.34374 -0.375,-0.46875 0,-0.14582 0.0313,-0.27082 0.0937,-0.375 0.625,-1.12499 1.42709,-2.22915 2.40625,-3.3125 1.27083,-1.39582 2.33333,-2.09373 3.1875,-2.09375 1.79166,2e-5 2.68749,1.31252 2.6875,3.9375 -1e-5,1.25001 -0.17709,2.64585 -0.53125,4.1875 3.35416,-5.45832 5.91666,-8.18748 7.6875,-8.1875 0.64582,2e-5 1.18749,0.26044 1.625,0.78125 0.45832,0.50002 0.68749,1.08335 0.6875,1.75"
             inkscape:connector-curvature="0" />
          <path
             id="path3012"
             style="font-weight:bold;font-size:64px;font-family:Gardiner;-inkscape-font-specification:'Gardiner Bold';fill:#4d4d4d;fill-opacity:1"
             d="m 215.39062,950.78406 c -1e-5,4.06251 -4.21876,6.59376 -12.65625,7.59375 -0.125,0.87501 -0.1875,1.78126 -0.1875,2.71875 0,3 1.46875,4.5 4.40625,4.5 0.93749,0 1.95833,-0.5 3.0625,-1.5 1.10416,-1 1.62499,-1.5 1.5625,-1.5 0.12499,0 0.31249,0.13542 0.5625,0.40625 0.27082,0.25 0.40624,0.4375 0.40625,0.5625 -1e-5,0.14584 -0.0417,0.27084 -0.125,0.375 -2.14584,2.89583 -4.64584,4.34375 -7.5,4.34375 -1.83333,0 -3.32292,-0.65625 -4.46875,-1.96875 -1.08333,-1.22917 -1.625,-2.78125 -1.625,-4.65625 0,-3.60416 1.07292,-6.88541 3.21875,-9.84375 2.35416,-3.27082 5.27083,-4.90623 8.75,-4.90625 1.27082,2e-5 2.33332,0.32294 3.1875,0.96875 0.93749,0.70835 1.40624,1.6771 1.40625,2.90625 m -3.25,0.28125 c -1e-5,-1.49998 -0.61459,-2.24998 -1.84375,-2.25 -1.56251,2e-5 -3.0625,0.9271 -4.5,2.78125 -1.10417,1.43751 -1.96875,3.08334 -2.59375,4.9375 5.95833,-0.68749 8.93749,-2.5104 8.9375,-5.46875"
             inkscape:connector-curvature="0" />
          <path
             id="path3014"
             style="font-weight:bold;font-size:64px;font-family:Gardiner;-inkscape-font-specification:'Gardiner Bold';fill:#4d4d4d;fill-opacity:1"
             d="m 239.29687,961.75281 c -2e-5,0.125 -0.0625,0.26042 -0.1875,0.40625 -1.10418,1.3125 -2.37502,2.5625 -3.8125,3.75 -1.93751,1.58333 -3.44793,2.375 -4.53125,2.375 -1.16668,0 -1.75001,-0.52084 -1.75,-1.5625 -1e-5,-0.70833 0.28124,-1.77083 0.84375,-3.1875 l 4.15625,-10.53125 c 0.24999,-0.62499 0.37499,-1.20832 0.375,-1.75 -1e-5,-0.89582 -0.37501,-1.34373 -1.125,-1.34375 -1.93751,2e-5 -4.20834,1.64585 -6.8125,4.9375 -2.08334,2.60418 -3.64584,5.15626 -4.6875,7.65625 -0.35417,1.1875 -1.01042,2.90625 -1.96875,5.15625 -0.27083,0.5 -0.59375,0.75 -0.96875,0.75 -0.39583,0 -0.8125,-0.11459 -1.25,-0.34375 -0.5,-0.27084 -0.75,-0.58333 -0.75,-0.9375 0,-0.16667 0.0417,-0.35417 0.125,-0.5625 l 3.8125,-9.59375 c 1.0625,-2.66666 1.59375,-4.55207 1.59375,-5.65625 0,-0.66665 -0.21875,-0.99998 -0.65625,-1 -0.75,2e-5 -1.54167,0.62501 -2.375,1.875 -0.8125,1.25001 -1.28125,1.87501 -1.40625,1.875 -0.77083,1e-5 -1.15625,-0.27082 -1.15625,-0.8125 0,-0.10415 0.0208,-0.1979 0.0625,-0.28125 0.5625,-1.16665 1.40625,-2.3854 2.53125,-3.65625 1.39583,-1.56248 2.55208,-2.34373 3.46875,-2.34375 1.4375,2e-5 2.15624,0.9896 2.15625,2.96875 -1e-5,0.95835 -0.20834,2.3021 -0.625,4.03125 3.74999,-4.70832 7.24999,-7.06248 10.5,-7.0625 2.18748,2e-5 3.28123,1.02085 3.28125,3.0625 -2e-5,0.60418 -0.1771,1.35418 -0.53125,2.25 l -4.125,10.40625 c -0.27085,0.6875 -0.40626,1.28125 -0.40625,1.78125 -1e-5,0.33333 0.10415,0.5 0.3125,0.5 0.58332,0 1.5104,-0.67708 2.78125,-2.03125 1.29165,-1.35416 2.03123,-2.03124 2.21875,-2.03125 0.12498,1e-5 0.30206,0.125 0.53125,0.375 0.24998,0.22917 0.37498,0.40625 0.375,0.53125"
             inkscape:connector-curvature="0" />
        </g>
        <circle
           style="fill:#4d4d4d;fill-opacity:1;stroke:none"
           id="path3973"
           transform="matrix(1.465522,0,0,1.465522,-67.468105,856.09428)"
           cx="145.33569"
           cy="58.270905"
           r="1.3889598" />
        <circle
           style="fill:#4d4d4d;fill-opacity:1;stroke:none"
           id="path3973-8"
           transform="matrix(1.465522,0,0,1.465522,-58.073105,855.80194)"
           cx="145.33569"
           cy="58.270905"
           r="1.3889598" />
      </g>
    </g>
  </g>
</svg>
