<?xml version="1.0" encoding="UTF-8" standalone="no"?>
<!-- Created with Inkscape (http://www.inkscape.org/) -->

<svg
   xmlns:dc="http://purl.org/dc/elements/1.1/"
   xmlns:cc="http://creativecommons.org/ns#"
   xmlns:rdf="http://www.w3.org/1999/02/22-rdf-syntax-ns#"
   xmlns:svg="http://www.w3.org/2000/svg"
   xmlns="http://www.w3.org/2000/svg"
   xmlns:sodipodi="http://sodipodi.sourceforge.net/DTD/sodipodi-0.dtd"
   xmlns:inkscape="http://www.inkscape.org/namespaces/inkscape"
   width="330"
   height="230"
   id="svg2"
   version="1.1"
   inkscape:version="0.91 r13725"
   sodipodi:docname="menu_card_shadow-xhdpi.svg">
  <defs
     id="defs4">
    <inkscape:path-effect
       effect="envelope"
       id="path-effect3881"
       is_visible="true"
       yy="true"
       xx="true"
       bendpath1="m 0.51393408,631.8761 299.97213592,0"
       bendpath2="m 300.48607,631.8761 0,199.97209"
       bendpath3="m 0.51393408,831.84819 299.97213592,0"
       bendpath4="m 0.51393408,631.8761 0,199.97209" />
    <inkscape:path-effect
       effect="envelope"
       id="path-effect3874"
       is_visible="true"
       yy="true"
       xx="true"
       bendpath1="M 0.51393408,851.8761 C 100.8201,859.43719 200.35703,862.77417 301.91464,870.44753"
       bendpath2="m 298.92175,873.3758 c -5.48736,41.49677 -2.90751,111.36598 -0.19285,154.2297"
       bendpath3="M 0.51393408,1051.8482 C 99.484576,1047.0023 199.2883,1036.7984 300.48607,1034.7053"
       bendpath4="m 0.51393408,851.8761 c -8.68767528,66.65737 -6.48208318,133.31473 0,199.9721"
       bendpath2-nodetypes="cc"
       bendpath1-nodetypes="cc"
       bendpath3-nodetypes="cc"
       bendpath4-nodetypes="cc" />
  </defs>
  <sodipodi:namedview
     id="base"
     pagecolor="#ffffff"
     bordercolor="#666666"
     borderopacity="1.0"
     inkscape:pageopacity="0.0"
     inkscape:pageshadow="2"
     inkscape:zoom="1.4"
     inkscape:cx="-132.60676"
     inkscape:cy="201.56249"
     inkscape:document-units="px"
     inkscape:current-layer="layer1"
     showgrid="false"
     inkscape:window-width="1920"
     inkscape:window-height="1017"
     inkscape:window-x="-8"
     inkscape:window-y="-8"
     inkscape:window-maximized="1" />
  <metadata
     id="metadata7">
    <rdf:RDF>
      <cc:Work
         rdf:about="">
        <dc:format>image/svg+xml</dc:format>
        <dc:type
           rdf:resource="http://purl.org/dc/dcmitype/StillImage" />
        <dc:title />
      </cc:Work>
    </rdf:RDF>
  </metadata>
  <g
     inkscape:label="Ebene 1"
     inkscape:groupmode="layer"
     id="layer1"
     transform="translate(0,-822.36218)"
     style="opacity:0.102">
    <g
       id="g3876"
       inkscape:path-effect="#path-effect3881"
       transform="translate(0,-14)"
       style="">
      <rect
         style="fill:#ffffff;fill-opacity:1;stroke:#000000;stroke-width:1;stroke-linejoin:miter;stroke-miterlimit:4;stroke-dasharray:none;stroke-dashoffset:5.5;stroke-opacity:1"
         id="rect3782"
         width="299.97214"
         height="199.97209"
         x="0.51393408"
         y="631.8761"
         rx="22.220156"
         ry="22.21912"
         d="m 6.8169672,631.24486 c 24.1629238,0 48.3258478,0 72.4887728,0 3.492067,0 6.30337,9.90972 6.30337,22.21911 0,18.68431 0,136.84955 0,155.53386 0,12.30939 -2.811303,22.21912 -6.30337,22.21912 0,0 -72.4887728,0 -72.4887728,0 -3.4920673,0 -6.30337059,-9.90973 -6.30337059,-22.21912 0,0 0,-155.53386 0,-155.53386 0,-12.30939 2.81130329,-22.21911 6.30337059,-22.21911 z" />
      <text
         xml:space="preserve"
         style="font-style:normal;font-variant:normal;font-weight:normal;font-stretch:normal;font-size:40px;line-height:125%;font-family:eufm10;-inkscape-font-specification:eufm10;letter-spacing:0px;word-spacing:0px;fill:#000000;fill-opacity:1;stroke:none"
         x="41.109375"
         y="744.78406"
         id="text3784"
         sodipodi:linespacing="125%"><tspan
           sodipodi:role="line"
           id="tspan3786"
           x="41.109375"
           y="744.78406"
           style="font-style:normal;font-variant:normal;font-weight:bold;font-stretch:normal;font-size:64px;font-family:Gardiner;-inkscape-font-specification:'Gardiner Bold';fill:#4d4d4d">Neues Spiel</tspan></text>
    </g>
    <path
       sodipodi:nodetypes="csssssssscsccssssssssssccc"
       inkscape:connector-curvature="0"
       id="rect3004"
       d="m 38.133206,837.72588 c -11.733469,0.34258 -21.924531,9.37387 -23.075,21.2225 -0.808395,8.32563 -1.477812,16.65005 -1.9825,24.9925 -1.07887,17.8336 -1.46556,35.70162 -1.3325,53.59249 0.09709,13.05403 0.454122,26.11716 1.04,39.16251 0.585871,13.04527 1.376091,26.07602 2.4375,39.09752 0.516431,6.3355 3.59112,11.8514 8.124999,15.665 4.533445,3.8131 10.545618,5.9221 16.8675,5.4925 21.405661,-1.4542 42.848992,-2.622 64.317505,-3.9 21.46826,-1.278 42.93927,-2.6385 64.38249,-4.0951 21.44297,-1.4559 42.85585,-2.9893 64.22,-4.5499 21.36391,-1.5605 42.68333,-3.1428 63.92751,-4.7775 6.2607,-0.4816 11.68756,-3.1815 15.46999,-7.0525 3.78179,-3.8702 5.9805,-8.8876 5.6225,-14.20242 -0.72902,-10.82289 -1.23707,-21.30517 -1.5925,-31.5901 -0.35544,-10.28489 -0.57602,-20.40568 -0.6825,-30.45251 -0.14595,-13.76891 -0.0652,-27.43499 0.71501,-41.37249 0.36492,-6.52019 0.86499,-13.09588 1.59249,-19.76 0.5583,-5.11419 -1.34163,-9.97661 -4.9075,-13.7475 -3.56716,-3.77224 -8.82312,-6.45873 -15.0475,-7.02 -21.12905,-1.90528 -42.41993,-3.56755 -63.83,-5.005 -21.40992,-1.43743 -42.91527,-2.64718 -64.48,-3.835 -21.56456,-1.1878 -43.18442,-2.33484 -64.77249,-3.6075 -21.587928,-1.27265 -43.147613,-2.67673 -64.642505,-4.1925 -0.793457,-0.056 -1.590269,-0.0879 -2.372499,-0.065 z"
       style="color:#000000;font-style:normal;font-variant:normal;font-weight:normal;font-stretch:normal;font-size:medium;line-height:normal;font-family:Sans;-inkscape-font-specification:Sans;text-indent:0;text-align:start;text-decoration:none;text-decoration-line:none;letter-spacing:normal;word-spacing:normal;text-transform:none;direction:ltr;block-progression:tb;writing-mode:lr-tb;baseline-shift:baseline;text-anchor:start;display:inline;overflow:visible;visibility:visible;opacity:1;fill:#000000;fill-opacity:1;fill-rule:nonzero;stroke:none;stroke-width:1;marker:none;enable-background:accumulate" />
    <path
       style="color:#000000;font-style:normal;font-variant:normal;font-weight:normal;font-stretch:normal;font-size:medium;line-height:normal;font-family:Sans;-inkscape-font-specification:Sans;text-indent:0;text-align:start;text-decoration:none;text-decoration-line:none;letter-spacing:normal;word-spacing:normal;text-transform:none;direction:ltr;block-progression:tb;writing-mode:lr-tb;baseline-shift:baseline;text-anchor:start;display:inline;overflow:visible;visibility:visible;fill:#000000;fill-opacity:1;fill-rule:nonzero;stroke:none;stroke-width:1;marker:none;enable-background:accumulate"
       d="m 27.3125,1120.2371 c -11.282182,0.3294 -21.0812798,9.0133 -22.1875001,20.4062 -0.7773027,8.0054 -1.4209727,16.0097 -1.9062498,24.0312 -1.0373746,17.1477 -1.4091914,34.3285 -1.2812501,51.5313 0.093356,12.5519 0.4366562,25.1126 1.0000004,37.6562 0.5633383,12.5435 1.3231642,25.0731 2.3437497,37.5938 0.4965684,6.0917 3.4529999,11.3955 7.8124989,15.0624 4.359082,3.6665 10.140017,5.6943 16.21875,5.2813 20.582366,-1.3983 41.200954,-2.5212 61.843748,-3.75 20.642563,-1.2289 41.287763,-2.5371 61.906243,-3.9375 20.61824,-1.4 41.20755,-2.8744 61.75,-4.375 20.54222,-1.5005 41.04167,-3.022 61.46876,-4.5938 6.01991,-0.4631 11.23804,-3.0591 14.87499,-6.7812 3.63634,-3.7213 5.75048,-8.5458 5.40625,-13.6562 -0.70098,-10.4066 -1.18949,-20.4857 -1.53125,-30.375 -0.34177,-9.8893 -0.55386,-19.6209 -0.65625,-29.2813 -0.14033,-13.2393 -0.0627,-26.3797 0.68751,-39.7812 0.35089,-6.2694 0.83172,-12.5921 1.53124,-18.9999 0.53683,-4.9175 -1.29003,-9.593 -4.71875,-13.2188 -3.42996,-3.6272 -8.48377,-6.2103 -14.46875,-6.75 -20.31639,-1.832 -40.78839,-3.4303 -61.375,-4.8125 -20.58646,-1.3822 -41.26468,-2.5454 -62,-3.6875 -20.73515,-1.1421 -41.52348,-2.2451 -62.281242,-3.4687 -20.757617,-1.2238 -41.488084,-2.5738 -62.156249,-4.0313 -0.762939,-0.053 -1.529105,-0.084 -2.281249,-0.062 z m 0.03125,0.9687 c 0.720191,-0.021 1.425559,0.011 2.15625,0.062 20.671774,1.4578 41.457313,2.8074 62.218748,4.0313 20.761292,1.2239 41.515872,2.3267 62.250002,3.4688 20.73397,1.142 41.41996,2.3058 62,3.6874 20.57987,1.3817 41.03539,2.9812 61.34374,4.8125 5.75733,0.5192 10.61334,2.9884 13.875,6.4375 3.26289,3.4505 4.94153,7.8517 4.4375,12.4688 -0.70171,6.4278 -1.17957,12.7793 -1.53125,19.0625 -0.7518,13.432 -0.82795,26.5616 -0.6875,39.8124 0.10247,9.6685 0.31423,19.4159 0.65625,29.3125 0.34201,9.8966 0.82936,19.9862 1.53125,30.4063 0.32387,4.808 -1.65391,9.3851 -5.125,12.9375 -3.47048,3.5516 -8.43074,6.0234 -14.21875,6.4687 -20.42474,1.5717 -40.95795,3.0933 -61.5,4.5938 -20.54182,1.5006 -41.13441,2.975 -61.74999,4.375 -20.61536,1.4 -41.26596,2.7087 -61.906252,3.9375 -20.64007,1.2287 -41.253254,2.3512 -61.843748,3.75 -5.822011,0.3955 -11.327199,-1.5527 -15.499999,-5.0625 -4.1723823,-3.5096 -7.0249855,-8.5789 -7.5000001,-14.4063 -1.0195384,-12.5078 -1.780889,-25.0295 -2.3437497,-37.5625 -0.562856,-12.5327 -0.9067474,-25.0863 -1.0000004,-37.6249 -0.1278018,-17.1841 0.2453924,-34.3149 1.2812501,-51.4376 0.484573,-8.0099 1.1300881,-16.0062 1.9062499,-23.9999 1.0574357,-10.8905 10.4471342,-19.2154 21.2499992,-19.5313 z"
       id="path3778"
       inkscape:connector-curvature="0" />
    <text
       xml:space="preserve"
       style="font-style:normal;font-weight:normal;font-size:40px;line-height:125%;font-family:sans-serif;letter-spacing:0px;word-spacing:0px;fill:#000000;fill-opacity:1;stroke:none;stroke-width:1px;stroke-linecap:butt;stroke-linejoin:miter;stroke-opacity:1"
       x="-153.57143"
       y="895.2193"
       id="text4367"
       sodipodi:linespacing="125%"><tspan
         sodipodi:role="line"
         id="tspan4369"
         x="-153.57143"
         y="895.2193">104%</tspan></text>
  </g>
</svg>
