<?xml version="1.0" encoding="UTF-8" standalone="no"?>
<!-- Created with Inkscape (http://www.inkscape.org/) -->

<svg
   xmlns:dc="http://purl.org/dc/elements/1.1/"
   xmlns:cc="http://creativecommons.org/ns#"
   xmlns:rdf="http://www.w3.org/1999/02/22-rdf-syntax-ns#"
   xmlns:svg="http://www.w3.org/2000/svg"
   xmlns="http://www.w3.org/2000/svg"
   xmlns:sodipodi="http://sodipodi.sourceforge.net/DTD/sodipodi-0.dtd"
   xmlns:inkscape="http://www.inkscape.org/namespaces/inkscape"
   width="330"
   height="230"
   id="svg2"
   version="1.1"
   inkscape:version="0.91 r13725"
   sodipodi:docname="menu_card_new_en-xhdpi.svg">
  <defs
     id="defs4" />
  <sodipodi:namedview
     id="base"
     pagecolor="#ffffff"
     bordercolor="#666666"
     borderopacity="1.0"
     inkscape:pageopacity="0.0"
     inkscape:pageshadow="2"
     inkscape:zoom="0.98994949"
     inkscape:cx="-46.238245"
     inkscape:cy="16.178522"
     inkscape:document-units="px"
     inkscape:current-layer="layer1"
     showgrid="false"
     inkscape:window-width="1920"
     inkscape:window-height="1017"
     inkscape:window-x="-8"
     inkscape:window-y="-8"
     inkscape:window-maximized="1"
     inkscape:showpageshadow="true" />
  <metadata
     id="metadata7">
    <rdf:RDF>
      <cc:Work
         rdf:about="">
        <dc:format>image/svg+xml</dc:format>
        <dc:type
           rdf:resource="http://purl.org/dc/dcmitype/StillImage" />
        <dc:title></dc:title>
      </cc:Work>
    </rdf:RDF>
  </metadata>
  <g
     inkscape:label="Ebene 1"
     inkscape:groupmode="layer"
     id="layer1"
     transform="translate(0,-822.36218)"
     style="display:inline;opacity:1">
    <path
       style="opacity:1;fill:#fcfcfc;fill-opacity:1;stroke:none;stroke-width:5;stroke-linejoin:miter;stroke-miterlimit:4;stroke-dasharray:none;stroke-opacity:1"
       d="m 43.013672,841.5575 c -11.28218,0.3294 -21.08128,9.0133 -22.1875,20.4062 -0.7773,8.0055 -1.42097,16.0097 -1.90625,24.0313 -1.03737,17.1477 -1.40919,34.3285 -1.28125,51.5312 0.0934,12.552 0.43666,25.1127 1,37.6563 0.56334,12.5435 1.32317,25.073 2.34375,37.5937 0.49657,6.0917 3.453,11.3956 7.8125,15.0625 4.35908,3.6666 10.14002,5.6944 16.21875,5.2813 20.58237,-1.3983 41.200949,-2.5212 61.843748,-3.75 20.64256,-1.2289 41.28582,-2.5371 61.9043,-3.9375 20.61824,-1.4 41.20755,-2.8744 61.75,-4.375 20.54221,-1.5005 41.04167,-3.022 61.46875,-4.5938 6.01991,-0.4631 11.23805,-3.0591 14.875,-6.7812 3.63634,-3.7213 5.75048,-8.5457 5.40625,-13.6563 -0.70098,-10.4066 -1.1895,-20.4856 -1.53125,-30.375 -0.34177,-9.8893 -0.55386,-19.6208 -0.65625,-29.2812 -0.14033,-13.2394 -0.0627,-26.3798 0.6875,-39.7813 0.3509,-6.2694 0.83173,-12.5921 1.53125,-19 0.53683,-4.9174 -1.29002,-9.5928 -4.71875,-13.2187 -3.42995,-3.6272 -8.48377,-6.2103 -14.46875,-6.75 -20.31639,-1.832 -40.7884,-3.4303 -61.375,-4.8125 -20.58646,-1.3822 -41.26468,-2.5454 -62,-3.6875 -20.73515,-1.1421 -41.52154,-2.245 -62.2793,-3.4688 -20.757619,-1.2237 -41.488078,-2.5737 -62.156248,-4.0312 -0.76294,-0.054 -1.5291,-0.085 -2.28125,-0.062 z"
       id="rect4167"
       inkscape:connector-curvature="0" />
    <g
       id="g3993"
       transform="translate(-255.17187,-18.296909)"
       style="fill:#4d4d4d;fill-opacity:1">
      <g
         style="font-style:normal;font-variant:normal;font-weight:normal;font-stretch:normal;font-size:40px;line-height:125%;font-family:eufm10;-inkscape-font-specification:eufm10;letter-spacing:0px;word-spacing:0px;fill:#4d4d4d;fill-opacity:1;stroke:none"
         id="text3906">
        <path
           d="m 356.6875,933.20593 c -4e-5,0.7917 -0.28129,1.26045 -0.84375,1.40625 -0.56254,0.12504 -1.13546,0.25004 -1.71875,0.375 -0.75004,0.4167 -1.30212,1.32295 -1.65625,2.71875 l -6.21875,24.125 c 1.93747,3.4375 2.90622,5.17709 2.90625,5.21875 -3e-5,0.22917 -0.71878,0.34375 -2.15625,0.34375 -1.58336,0 -2.43753,-0.11458 -2.5625,-0.34375 l -14.90625,-27.4375 -6,23.3125 c -0.0833,0.33334 -0.12501,0.66667 -0.125,1 -10e-6,1.39584 1.29166,2.09375 3.875,2.09375 0.20832,0 0.31249,0.0937 0.3125,0.28125 -10e-6,0.9375 -0.23959,1.40625 -0.71875,1.40625 -0.52084,0 -1.32293,-0.0521 -2.40625,-0.15625 -1.06251,-0.10416 -1.86459,-0.15625 -2.40625,-0.15625 -0.56251,0 -1.39584,0.0521 -2.5,0.15625 -1.08334,0.10417 -1.89584,0.15625 -2.4375,0.15625 -0.22917,0 -0.34375,-0.10416 -0.34375,-0.3125 0,-0.5625 0.14583,-0.97916 0.4375,-1.25 0.6875,-0.0417 1.6875,-0.32291 3,-0.84375 0.58333,-0.43749 1.02083,-1.22916 1.3125,-2.375 l 6.625,-25.78125 c -1.08334,-1.66663 -2.97918,-2.49996 -5.6875,-2.5 -0.79167,4e-5 -1.18751,-0.12496 -1.1875,-0.375 -10e-6,-0.8958 0.24999,-1.34371 0.75,-1.34375 0.41666,4e-5 1.05208,0.0521 1.90625,0.15625 0.87499,0.1042 1.53124,0.15629 1.96875,0.15625 0.45832,4e-5 1.14582,-0.0521 2.0625,-0.15625 0.91665,-0.10413 1.60415,-0.15621 2.0625,-0.15625 0.24998,4e-5 0.48957,0.20837 0.71875,0.625 l 14.15625,25.71875 5.5625,-21.5625 c 0.10413,-0.3958 0.15622,-0.72913 0.15625,-1 -3e-5,-1.3958 -1.30212,-2.09371 -3.90625,-2.09375 -0.2292,4e-5 -0.34378,-0.10413 -0.34375,-0.3125 -3e-5,-0.91663 0.26039,-1.37496 0.78125,-1.375 0.49997,4e-5 1.24997,0.0521 2.25,0.15625 0.99997,0.1042 1.74997,0.15629 2.25,0.15625 0.5208,4e-5 1.29163,-0.0521 2.3125,-0.15625 1.04163,-0.10413 1.82288,-0.15621 2.34375,-0.15625 0.24996,4e-5 0.37496,0.0938 0.375,0.28125"
           style="font-weight:bold;font-size:64px;font-family:Gardiner;-inkscape-font-specification:'Gardiner Bold';fill:#4d4d4d;fill-opacity:1"
           id="path2994"
           inkscape:connector-curvature="0" />
        <path
           d="m 370.0625,949.89343 c -2e-5,4.06252 -4.21876,6.59376 -12.65625,7.59375 -0.125,0.87501 -0.1875,1.78126 -0.1875,2.71875 0,3.00001 1.46874,4.50001 4.40625,4.5 0.93749,1e-5 1.95832,-0.49999 3.0625,-1.5 1.10415,-0.99999 1.62499,-1.49999 1.5625,-1.5 0.12499,1e-5 0.31249,0.13542 0.5625,0.40625 0.27082,0.25001 0.40623,0.43751 0.40625,0.5625 -2e-5,0.14584 -0.0417,0.27084 -0.125,0.375 -2.14585,2.89584 -4.64584,4.34375 -7.5,4.34375 -1.83334,0 -3.32292,-0.65625 -4.46875,-1.96875 -1.08334,-1.22916 -1.625,-2.78124 -1.625,-4.65625 0,-3.60415 1.07291,-6.8854 3.21875,-9.84375 2.35416,-3.27081 5.27082,-4.90623 8.75,-4.90625 1.27082,2e-5 2.33332,0.32294 3.1875,0.96875 0.93748,0.70836 1.40623,1.6771 1.40625,2.90625 m -3.25,0.28125 c -10e-6,-1.49998 -0.6146,-2.24998 -1.84375,-2.25 -1.56251,2e-5 -3.06251,0.9271 -4.5,2.78125 -1.10417,1.43752 -1.96876,3.08335 -2.59375,4.9375 5.95832,-0.68748 8.93749,-2.5104 8.9375,-5.46875"
           style="font-weight:bold;font-size:64px;font-family:Gardiner;-inkscape-font-specification:'Gardiner Bold';fill:#4d4d4d;fill-opacity:1"
           id="path2996"
           inkscape:connector-curvature="0" />
        <path
           d="m 402.875,949.23718 c -3e-5,3.97918 -1.36462,8.00001 -4.09375,12.0625 -2.70836,4.0625 -5.41669,6.09375 -8.125,6.09375 -1.81252,0 -3.14585,-1.04166 -4,-3.125 -2.20835,2.08334 -4.20835,3.125 -6,3.125 -1.41668,0 -2.58334,-0.4375 -3.5,-1.3125 -0.89584,-0.89583 -1.34376,-2.05208 -1.34375,-3.46875 -10e-6,-4.52082 1.94791,-8.8854 5.84375,-13.09375 l -5.28125,0 c -0.58334,2e-5 -1.13542,0.16669 -1.65625,0.5 -0.58334,0.37502 -0.875,0.83335 -0.875,1.375 0,0.0625 0.25,0.93752 0.75,2.625 -0.1875,0.89585 -0.77084,1.34376 -1.75,1.34375 -1.04167,1e-5 -1.5625,-0.55207 -1.5625,-1.65625 0,-1.14582 0.57291,-2.61456 1.71875,-4.40625 1.20833,-1.91664 2.34374,-2.87498 3.40625,-2.875 0.47916,2e-5 1.19791,0.0417 2.15625,0.125 0.97916,0.0834 1.70832,0.12502 2.1875,0.125 0.45832,2e-5 1.12499,-0.0416 2,-0.125 0.89582,-0.0833 1.5729,-0.12498 2.03125,-0.125 0.49998,2e-5 0.74998,0.17711 0.75,0.53125 -2e-5,0.16669 -0.0729,0.32294 -0.21875,0.46875 l -0.0937,0.0937 c -3.95834,3.95835 -5.93751,8.32293 -5.9375,13.09375 -10e-6,0.91668 0.21874,1.69792 0.65625,2.34375 0.49999,0.77084 1.17707,1.15626 2.03125,1.15625 1.27082,10e-6 2.65624,-0.66666 4.15625,-2 -0.0833,-0.54166 -0.12502,-1.02082 -0.125,-1.4375 -2e-5,-3.70832 0.67707,-7.04165 2.03125,-10 1.37498,-2.95831 2.96873,-4.43748 4.78125,-4.4375 1.37498,2e-5 2.06247,1.07294 2.0625,3.21875 -3e-5,3.37502 -2.01044,7.51043 -6.03125,12.40625 0.66665,1.50001 1.53123,2.25001 2.59375,2.25 1.79164,10e-6 3.71872,-1.37499 5.78125,-4.125 2.06247,-2.74999 3.09372,-5.39582 3.09375,-7.9375 -3e-5,-0.66665 -0.31253,-1.33331 -0.9375,-2 -0.62503,-0.66665 -0.93753,-1.30206 -0.9375,-1.90625 -3e-5,-0.54164 0.19789,-1.03123 0.59375,-1.46875 0.41664,-0.43748 0.8958,-0.65623 1.4375,-0.65625 1.60413,2e-5 2.40622,1.07294 2.40625,3.21875 m -10.125,1.03125 c -2e-5,-0.74998 -0.31252,-1.12498 -0.9375,-1.125 -0.79169,2e-5 -1.59377,0.94794 -2.40625,2.84375 -0.85419,2.00002 -1.28127,3.95835 -1.28125,5.875 -2e-5,0.62501 0.0521,1.28126 0.15625,1.96875 2.97915,-3.74999 4.46873,-6.93748 4.46875,-9.5625"
           style="font-weight:bold;font-size:64px;font-family:Gardiner;-inkscape-font-specification:'Gardiner Bold';fill:#4d4d4d;fill-opacity:1"
           id="path2998"
           inkscape:connector-curvature="0" />
        <path
           d="m 440.03125,948.48718 c -2e-5,0.27085 -0.0833,0.59377 -0.25,0.96875 -0.20835,0.43752 -0.43752,0.65627 -0.6875,0.65625 l -2.46875,0.0313 c 0.33332,0.85419 0.49998,1.71877 0.5,2.59375 -2e-5,2.25002 -0.83335,4.22918 -2.5,5.9375 -1.66668,1.68751 -3.62501,2.53126 -5.875,2.53125 -0.50001,1e-5 -0.98959,-0.0417 -1.46875,-0.125 -0.66667,0.62501 -1.00001,1.15626 -1,1.59375 -10e-6,0.45834 0.74999,1.11459 2.25,1.96875 l 5.34375,3.03125 c 2.33332,1.33333 3.49998,2.86458 3.5,4.59375 -2e-5,2.08333 -0.9896,3.67708 -2.96875,4.78125 -1.60418,0.89583 -3.54168,1.34374 -5.8125,1.34375 -2.37501,-10e-6 -4.55209,-0.45834 -6.53125,-1.375 -2.5,-1.14584 -3.75,-2.77084 -3.75,-4.875 0,-1.52083 0.66667,-2.86458 2,-4.03125 1.10416,-0.97916 2.47916,-1.6875 4.125,-2.125 -0.91667,-0.6875 -1.375,-1.34374 -1.375,-1.96875 0,-0.89583 0.88541,-2.02083 2.65625,-3.375 -2.60417,-1.04166 -3.90625,-3.0729 -3.90625,-6.09375 0,-2.27082 0.82291,-4.2604 2.46875,-5.96875 1.64583,-1.70831 3.60416,-2.56248 5.875,-2.5625 2.06249,2e-5 3.79165,0.69794 5.1875,2.09375 l 4.25,0 c 0.29165,2e-5 0.43748,0.12502 0.4375,0.375 m -6.28125,3.28125 c -10e-6,-2.56248 -1.14585,-3.84373 -3.4375,-3.84375 -1.62501,2e-5 -2.93751,0.88544 -3.9375,2.65625 -0.83334,1.47918 -1.25001,3.10418 -1.25,4.875 -10e-6,2.56251 1.15624,3.84376 3.46875,3.84375 1.62499,1e-5 2.92707,-0.88541 3.90625,-2.65625 0.83332,-1.47915 1.24999,-3.10415 1.25,-4.875 m 0.28125,21.46875 c -2e-5,-0.95834 -0.9271,-1.97917 -2.78125,-3.0625 -1.18751,-0.6875 -2.95834,-1.72917 -5.3125,-3.125 -1.16667,0.29167 -2.16667,0.85417 -3,1.6875 -0.9375,0.91667 -1.40625,1.9375 -1.40625,3.0625 0,1.5625 0.92708,2.78125 2.78125,3.65625 1.45833,0.68749 3.08332,1.03124 4.875,1.03125 1.20832,-10e-6 2.2604,-0.23959 3.15625,-0.71875 1.12499,-0.58334 1.68748,-1.42709 1.6875,-2.53125"
           style="font-weight:bold;font-size:64px;font-family:Gardiner;-inkscape-font-specification:'Gardiner Bold';fill:#4d4d4d;fill-opacity:1"
           id="path3000"
           inkscape:connector-curvature="0" />
        <path
           d="m 459.28125,960.79968 c -2e-5,0.0625 -0.0625,0.18751 -0.1875,0.375 -2.81252,4.10417 -5.14585,6.15625 -7,6.15625 -1.22918,0 -1.84376,-0.78125 -1.84375,-2.34375 -10e-6,-1.24999 0.37499,-3.03124 1.125,-5.34375 -3.68751,5.16667 -7.08334,7.75 -10.1875,7.75 -0.70834,0 -1.29167,-0.26041 -1.75,-0.78125 -0.4375,-0.52083 -0.65625,-1.14583 -0.65625,-1.875 0,-3.83332 1.76041,-7.58332 5.28125,-11.25 3.54166,-3.68748 7.04165,-5.53123 10.5,-5.53125 0.29165,2e-5 0.65623,0.0313 1.09375,0.0937 0.54165,-1.47914 1.04165,-2.21873 1.5,-2.21875 1.24998,2e-5 1.87498,0.23961 1.875,0.71875 -2e-5,0.0625 -0.0208,0.15627 -0.0625,0.28125 -1.04169,2.75002 -2.08335,5.50002 -3.125,8.25 -1.41668,3.93751 -2.12501,6.61459 -2.125,8.03125 -10e-6,0.56251 0.16665,0.84376 0.5,0.84375 0.60415,10e-6 1.43748,-0.68749 2.5,-2.0625 1.06248,-1.37499 1.64581,-2.06249 1.75,-2.0625 0.12498,10e-6 0.29165,0.13543 0.5,0.40625 0.20831,0.25001 0.31248,0.43751 0.3125,0.5625 m -5.34375,-9.1875 c -2e-5,-0.64581 -0.5521,-0.96873 -1.65625,-0.96875 -2.06251,2e-5 -4.29168,1.3646 -6.6875,4.09375 -2.39584,2.72918 -3.59375,5.28126 -3.59375,7.65625 0,1.10417 0.51041,1.65626 1.53125,1.65625 1.31249,10e-6 3.38541,-1.73958 6.21875,-5.21875 2.79165,-3.41665 4.18748,-5.8229 4.1875,-7.21875"
           style="font-weight:bold;font-size:64px;font-family:Gardiner;-inkscape-font-specification:'Gardiner Bold';fill:#4d4d4d;fill-opacity:1"
           id="path3002"
           inkscape:connector-curvature="0" />
        <path
           d="m 496.4375,960.76843 c -4e-5,0.66668 -1.26045,1.93751 -3.78125,3.8125 -2.52086,1.875 -4.15628,2.8125 -4.90625,2.8125 -1.20836,0 -1.81253,-0.5 -1.8125,-1.5 -3e-5,-0.70833 0.30206,-1.79166 0.90625,-3.25 l 3.96875,-9.59375 c 0.5208,-1.24998 0.78122,-2.1979 0.78125,-2.84375 -3e-5,-0.87498 -0.58336,-1.31248 -1.75,-1.3125 -1.77086,2e-5 -3.77086,1.28127 -6,3.84375 -1.79169,2.04168 -3.15627,4.13543 -4.09375,6.28125 -0.56252,1.75001 -1.54168,4.31251 -2.9375,7.6875 -0.20835,0.41667 -0.45835,0.625 -0.75,0.625 -1.58335,0 -2.37501,-0.34375 -2.375,-1.03125 -10e-6,-0.125 0.0208,-0.23958 0.0625,-0.34375 l 3.625,-9.375 c 1.02082,-2.64582 1.53123,-4.56248 1.53125,-5.75 -2e-5,-1.29165 -0.45835,-1.93748 -1.375,-1.9375 -1.54168,2e-5 -3.3646,1.32294 -5.46875,3.96875 -1.62501,2.08335 -2.88543,4.13543 -3.78125,6.15625 -0.52084,1.16668 -1.30209,3.07292 -2.34375,5.71875 -0.75,1.91667 -1.29167,2.875 -1.625,2.875 -0.35417,0 -0.8125,-0.125 -1.375,-0.375 -0.625,-0.29166 -0.9375,-0.59375 -0.9375,-0.90625 0,-0.14583 0.0208,-0.27083 0.0625,-0.375 l 4.75,-11.46875 c 0.74999,-1.81248 1.12499,-3.12498 1.125,-3.9375 -10e-6,-0.74998 -0.30209,-1.12498 -0.90625,-1.125 -0.54167,2e-5 -1.21876,0.6146 -2.03125,1.84375 -0.79167,1.22918 -1.27084,1.84377 -1.4375,1.84375 -0.10417,2e-5 -0.29167,-0.0833 -0.5625,-0.25 -0.27084,-0.16665 -0.40625,-0.29165 -0.40625,-0.375 0,-0.68748 0.79166,-1.92706 2.375,-3.71875 1.60416,-1.79164 2.73958,-2.68748 3.40625,-2.6875 1.52082,2e-5 2.28124,0.89586 2.28125,2.6875 -10e-6,1.04169 -0.29168,2.41669 -0.875,4.125 3.64582,-4.58331 6.89582,-6.87498 9.75,-6.875 1.68748,2e-5 2.53123,1.08336 2.53125,3.25 -2e-5,0.64585 -0.13544,1.69794 -0.40625,3.15625 3.87497,-4.27081 7.23955,-6.40623 10.09375,-6.40625 2.16663,2e-5 3.24997,1.16669 3.25,3.5 -3e-5,1.02085 -0.27087,2.1771 -0.8125,3.46875 l -4.0625,9.75 c -0.1042,0.25001 -0.15628,0.51042 -0.15625,0.78125 -3e-5,0.33334 0.0937,0.50001 0.28125,0.5 0.49997,1e-5 1.4583,-0.66666 2.875,-2 1.43747,-1.35416 2.2708,-2.04166 2.5,-2.0625 l 0.21875,0.0625 c 0.3958,0.33334 0.59371,0.58334 0.59375,0.75"
           style="font-weight:bold;font-size:64px;font-family:Gardiner;-inkscape-font-specification:'Gardiner Bold';fill:#4d4d4d;fill-opacity:1"
           id="path3004"
           inkscape:connector-curvature="0" />
        <path
           d="m 515.5625,949.89343 c -2e-5,4.06252 -4.21876,6.59376 -12.65625,7.59375 -0.125,0.87501 -0.1875,1.78126 -0.1875,2.71875 0,3.00001 1.46874,4.50001 4.40625,4.5 0.93749,1e-5 1.95832,-0.49999 3.0625,-1.5 1.10415,-0.99999 1.62499,-1.49999 1.5625,-1.5 0.12499,1e-5 0.31249,0.13542 0.5625,0.40625 0.27082,0.25001 0.40624,0.43751 0.40625,0.5625 -10e-6,0.14584 -0.0417,0.27084 -0.125,0.375 -2.14585,2.89584 -4.64584,4.34375 -7.5,4.34375 -1.83334,0 -3.32292,-0.65625 -4.46875,-1.96875 -1.08333,-1.22916 -1.625,-2.78124 -1.625,-4.65625 0,-3.60415 1.07291,-6.8854 3.21875,-9.84375 2.35416,-3.27081 5.27082,-4.90623 8.75,-4.90625 1.27082,2e-5 2.33332,0.32294 3.1875,0.96875 0.93748,0.70836 1.40623,1.6771 1.40625,2.90625 m -3.25,0.28125 c -10e-6,-1.49998 -0.6146,-2.24998 -1.84375,-2.25 -1.56251,2e-5 -3.06251,0.9271 -4.5,2.78125 -1.10417,1.43752 -1.96876,3.08335 -2.59375,4.9375 5.95832,-0.68748 8.93749,-2.5104 8.9375,-5.46875"
           style="font-weight:bold;font-size:64px;font-family:Gardiner;-inkscape-font-specification:'Gardiner Bold';fill:#4d4d4d;fill-opacity:1"
           id="path3006"
           inkscape:connector-curvature="0" />
      </g>
    </g>
  </g>
</svg>
