<?xml version="1.0" encoding="UTF-8" standalone="no"?>
<!-- Created with Inkscape (http://www.inkscape.org/) -->

<svg
   xmlns:dc="http://purl.org/dc/elements/1.1/"
   xmlns:cc="http://creativecommons.org/ns#"
   xmlns:rdf="http://www.w3.org/1999/02/22-rdf-syntax-ns#"
   xmlns:svg="http://www.w3.org/2000/svg"
   xmlns="http://www.w3.org/2000/svg"
   xmlns:sodipodi="http://sodipodi.sourceforge.net/DTD/sodipodi-0.dtd"
   xmlns:inkscape="http://www.inkscape.org/namespaces/inkscape"
   width="192"
   height="192"
   viewBox="0 0 192 192"
   id="svg2"
   version="1.1"
   inkscape:version="0.91 r13725"
   sodipodi:docname="app_logo-hdpi.svg">
  <defs
     id="defs4">
    <clipPath
       clipPathUnits="userSpaceOnUse"
       id="clipPath16">
      <path
         d="M 0,800 800,800 800,0 0,0 0,800 Z"
         id="path18"
         inkscape:connector-curvature="0" />
    </clipPath>
  </defs>
  <sodipodi:namedview
     id="base"
     pagecolor="#ffffff"
     bordercolor="#666666"
     borderopacity="1.0"
     inkscape:pageopacity="0.0"
     inkscape:pageshadow="2"
     inkscape:zoom="2.8"
     inkscape:cx="36.913412"
     inkscape:cy="107.5123"
     inkscape:document-units="px"
     inkscape:current-layer="layer1"
     showgrid="false"
     units="px"
     showguides="true"
     inkscape:guide-bbox="true"
     inkscape:window-width="1920"
     inkscape:window-height="1017"
     inkscape:window-x="-8"
     inkscape:window-y="-8"
     inkscape:window-maximized="1" />
  <metadata
     id="metadata7">
    <rdf:RDF>
      <cc:Work
         rdf:about="">
        <dc:format>image/svg+xml</dc:format>
        <dc:type
           rdf:resource="http://purl.org/dc/dcmitype/StillImage" />
        <dc:title></dc:title>
      </cc:Work>
    </rdf:RDF>
  </metadata>
  <g
     inkscape:groupmode="layer"
     id="layer2"
     inkscape:label="Layer 2">
    <rect
       style="opacity:1;fill:#96dcdf;fill-opacity:1;stroke:none;stroke-width:3;stroke-linejoin:miter;stroke-miterlimit:4;stroke-dasharray:none;stroke-opacity:0.55357139"
       id="rect4227"
       width="184"
       height="184"
       x="4"
       y="4.00002"
       rx="4.6603498"
       ry="4.4893098" />
  </g>
  <g
     inkscape:groupmode="layer"
     id="layer3"
     inkscape:label="Layer 3" />
  <g
     inkscape:label="Layer 1"
     inkscape:groupmode="layer"
     id="layer1"
     transform="translate(0,-860.36216)">
    <g
       transform="matrix(1.1281726,0.24597372,-0.24597372,1.1281726,453.77126,-141.98516)"
       id="g4215">
      <rect
         rx="5"
         ry="5"
         style="opacity:1;fill:#f8f5ee;fill-opacity:1;stroke:none;stroke-width:4;stroke-linejoin:miter;stroke-miterlimit:4;stroke-dasharray:none;stroke-opacity:1"
         id="rect4217"
         width="98.214287"
         height="64.285713"
         x="-134.97011"
         y="924.25482" />
      <rect
         y="927.53784"
         x="-131.63428"
         height="57.719723"
         width="91.542633"
         id="rect4219"
         style="opacity:1;fill:none;fill-opacity:1;stroke:#ce5322;stroke-width:1.73208761;stroke-linejoin:miter;stroke-miterlimit:4;stroke-dasharray:none;stroke-opacity:0.55357139"
         ry="4.4893117"
         rx="4.6603522" />
      <path
         style="fill:none;fill-rule:evenodd;stroke:#bd9654;stroke-width:2.59813142;stroke-linecap:butt;stroke-linejoin:miter;stroke-miterlimit:4;stroke-dasharray:none;stroke-opacity:1"
         d="m -113.00582,942.86216 54.285711,0"
         id="path4221"
         inkscape:connector-curvature="0" />
      <path
         inkscape:connector-curvature="0"
         id="path4223"
         d="m -120.81653,954.86216 50.245101,0"
         style="fill:none;fill-rule:evenodd;stroke:#bd9654;stroke-width:2.59813142;stroke-linecap:butt;stroke-linejoin:miter;stroke-miterlimit:4;stroke-dasharray:none;stroke-opacity:1" />
      <path
         style="fill:none;fill-rule:evenodd;stroke:#bd9654;stroke-width:2.59813118;stroke-linecap:butt;stroke-linejoin:miter;stroke-miterlimit:4;stroke-dasharray:none;stroke-opacity:1"
         d="m -113.00582,966.86213 60.599162,0"
         id="path4225"
         inkscape:connector-curvature="0" />
    </g>
    <g
       id="g4192"
       transform="matrix(1.0392329,-0.3470922,0.3470922,1.0392329,-172.94138,-29.804996)">
      <rect
         y="924.25482"
         x="-134.97011"
         height="64.285713"
         width="98.214287"
         id="rect4167"
         style="opacity:1;fill:#f8f5ee;fill-opacity:1;stroke:none;stroke-width:4;stroke-linejoin:miter;stroke-miterlimit:4;stroke-dasharray:none;stroke-opacity:1"
         ry="5"
         rx="5" />
      <rect
         rx="4.6603522"
         ry="4.4893117"
         style="opacity:1;fill:none;fill-opacity:1;stroke:#2266ce;stroke-width:1.82537842;stroke-linejoin:miter;stroke-miterlimit:4;stroke-dasharray:none;stroke-opacity:0.55357139"
         id="rect4184"
         width="91.542633"
         height="57.719723"
         x="-131.63428"
         y="927.53784" />
      <path
         inkscape:connector-curvature="0"
         id="path4186"
         d="m -113.00582,942.86216 54.285711,0"
         style="fill:none;fill-rule:evenodd;stroke:#bd9654;stroke-width:2.73806763;stroke-linecap:butt;stroke-linejoin:miter;stroke-miterlimit:4;stroke-dasharray:none;stroke-opacity:1" />
      <path
         style="fill:none;fill-rule:evenodd;stroke:#bd9654;stroke-width:2.73806763;stroke-linecap:butt;stroke-linejoin:miter;stroke-miterlimit:4;stroke-dasharray:none;stroke-opacity:1"
         d="m -120.81653,954.86216 50.245101,0"
         id="path4188"
         inkscape:connector-curvature="0" />
      <path
         inkscape:connector-curvature="0"
         id="path4190"
         d="m -113.00582,966.86213 60.599162,0"
         style="fill:none;fill-rule:evenodd;stroke:#bd9654;stroke-width:2.73806739;stroke-linecap:butt;stroke-linejoin:miter;stroke-miterlimit:4;stroke-dasharray:none;stroke-opacity:1" />
    </g>
    <path
       sodipodi:nodetypes="sccsscscss"
       inkscape:connector-curvature="0"
       id="rect4222"
       d="m 39.16898,914.94695 117.39417,1.33928 c 3.61572,0.0342 26.53885,45.79839 31.43905,55.69183 l 0,71.94584 c 0,2.7099 -2.54181,4.4423 -4.44239,4.4423 l -115.66201,0 C 60.463431,1037.002 33.345543,997.22152 33.262312,993.38876 l -0.535714,-24.66947 0,-47.32996 c 0,-3.56908 2.873534,-6.48309 6.442382,-6.44238 z"
       style="opacity:1;fill:#806935;fill-opacity:0.4859813;stroke:none;stroke-width:4;stroke-linejoin:miter;stroke-miterlimit:4;stroke-dasharray:none;stroke-opacity:1" />
    <rect
       rx="6.4423819"
       ry="6.4423819"
       style="opacity:1;fill:#f8f5ee;fill-opacity:1;stroke:none;stroke-width:4;stroke-linejoin:miter;stroke-miterlimit:4;stroke-dasharray:none;stroke-opacity:1"
       id="rect4148"
       width="126.54678"
       height="82.830627"
       x="32.726608"
       y="914.94684" />
    <path
       sodipodi:nodetypes="ssscsssscss"
       inkscape:connector-curvature="0"
       id="rect4225"
       d="m 39.168245,914.69095 c -3.56908,0 -6.44141,2.87429 -6.44141,6.44337 l 0,69.94531 c 0,2.13067 1.028551,4.00823 2.613291,5.17968 -1.23903,-1.17271 -1.713864,-2.53126 -1.713864,-4.37982 l 0,-69.94531 c 0,-3.56908 2.874281,-6.44336 6.443361,-6.44336 l 113.662107,0 c 1.43996,0 2.46177,0.17337 3.53221,0.96576 -1.15354,-1.09336 -2.7114,-1.76563 -4.43358,-1.76563 z"
       style="opacity:1;fill:#ffffff;fill-opacity:1;stroke:none;stroke-width:4;stroke-linejoin:miter;stroke-miterlimit:4;stroke-dasharray:none;stroke-opacity:1" />
    <g
       id="g4336"
       transform="translate(-199.82873,-1.98565)">
      <path
         inkscape:connector-curvature="0"
         style="font-style:normal;font-variant:normal;font-weight:normal;font-stretch:normal;font-size:medium;line-height:125%;font-family:Constantia;-inkscape-font-specification:'Constantia, Normal';text-align:start;letter-spacing:0px;word-spacing:0px;writing-mode:lr-tb;text-anchor:start;fill:#8f6e37;fill-opacity:1;stroke:none;stroke-width:1px;stroke-linecap:butt;stroke-linejoin:miter;stroke-opacity:1"
         d="m 128.32617,970.76006 q 1.31458,0 2.14884,0.80898 0.85953,0.80897 0.85953,2.17412 0,1.36514 -0.85953,2.1994 -0.83426,0.83425 -2.14884,0.83425 -1.39043,0 -2.22469,-0.83425 -0.83424,-0.83426 -0.83424,-2.1994 0,-1.36515 0.83424,-2.17412 0.83426,-0.80898 2.22469,-0.80898 z"
         id="path4276" />
      <path
         id="path4262"
         d="m 126.9263,969.35968 q 1.31458,0 2.14884,0.80898 0.85953,0.80897 0.85953,2.17412 0,1.36514 -0.85953,2.1994 -0.83426,0.83425 -2.14884,0.83425 -1.39043,0 -2.22469,-0.83425 -0.83424,-0.83426 -0.83424,-2.1994 0,-1.36515 0.83424,-2.17412 0.83426,-0.80898 2.22469,-0.80898 z"
         style="font-style:normal;font-variant:normal;font-weight:normal;font-stretch:normal;font-size:medium;line-height:125%;font-family:Constantia;-inkscape-font-specification:'Constantia, Normal';text-align:start;letter-spacing:0px;word-spacing:0px;writing-mode:lr-tb;text-anchor:start;fill:#d3b98d;fill-opacity:1;stroke:none;stroke-width:1px;stroke-linecap:butt;stroke-linejoin:miter;stroke-opacity:1"
         inkscape:connector-curvature="0" />
      <path
         inkscape:connector-curvature="0"
         style="font-style:normal;font-variant:normal;font-weight:normal;font-stretch:normal;font-size:medium;line-height:125%;font-family:Constantia;-inkscape-font-specification:'Constantia, Normal';text-align:start;letter-spacing:0px;word-spacing:0px;writing-mode:lr-tb;text-anchor:start;fill:#8f6e37;fill-opacity:1;stroke:none;stroke-width:1px;stroke-linecap:butt;stroke-linejoin:miter;stroke-opacity:1"
         d="m 128.42732,966.26014 q -1.49154,-1.33987 -2.78084,-3.05893 -1.28932,-1.74436 -1.28932,-2.52805 0,-0.70784 0.35394,-1.44099 0.37921,-0.73313 0.96066,-1.49154 0.60673,-0.75841 1.36514,-1.51683 0.75841,-0.78369 1.5674,-1.59267 0.85953,-0.83425 1.6685,-1.69378 0.83426,-0.85954 1.46627,-1.71908 0.65729,-0.88483 1.03649,-1.74435 0.40449,-0.85954 0.40449,-1.74436 0,-2.14884 -1.44098,-3.41286 -1.4157,-1.26402 -3.81735,-1.26402 -1.66851,0 -3.33703,0.70786 l -1.66851,5.78922 -0.98594,0.15168 -1.49154,-7.07853 q 4.24711,-1.64323 8.08975,-1.64323 4.19656,0 6.64877,1.87076 2.45219,1.87076 2.45219,5.38474 0,1.36514 -0.45505,2.55332 -0.42977,1.1629 -1.1629,2.1994 -0.70785,1.03651 -1.59268,1.97187 -0.8848,0.91011 -1.7949,1.76964 -0.78369,0.73312 -1.51682,1.44099 -0.70786,0.70786 -1.2893,1.4157 -0.55617,0.68257 -0.88483,1.44098 -0.32863,0.73314 -0.32863,1.49155 0,1.39042 0.93536,3.03366 l -1.11234,0.70785 z"
         id="path4278" />
      <path
         id="path4775"
         d="m 127.02745,964.85976 q -1.49154,-1.33987 -2.78084,-3.05893 -1.28932,-1.74436 -1.28932,-2.52805 0,-0.70784 0.35394,-1.44099 0.37921,-0.73313 0.96066,-1.49154 0.60673,-0.75841 1.36514,-1.51683 0.75841,-0.78369 1.5674,-1.59267 0.85953,-0.83425 1.6685,-1.69378 0.83426,-0.85954 1.46627,-1.71908 0.65729,-0.88483 1.03649,-1.74435 0.40449,-0.85954 0.40449,-1.74436 0,-2.14884 -1.44098,-3.41286 -1.4157,-1.26402 -3.81735,-1.26402 -1.66851,0 -3.33703,0.70786 l -1.66851,5.78922 -0.98594,0.15168 -1.49154,-7.07853 q 4.24711,-1.64323 8.08975,-1.64323 4.19656,0 6.64877,1.87076 2.45219,1.87076 2.45219,5.38474 0,1.36514 -0.45505,2.55332 -0.42977,1.1629 -1.1629,2.1994 -0.70785,1.03651 -1.59268,1.97187 -0.8848,0.91011 -1.7949,1.76964 -0.78369,0.73312 -1.51682,1.44099 -0.70786,0.70786 -1.2893,1.4157 -0.55617,0.68257 -0.88483,1.44098 -0.32863,0.73314 -0.32863,1.49155 0,1.39042 0.93536,3.03366 l -1.11234,0.70785 z"
         style="font-style:normal;font-variant:normal;font-weight:normal;font-stretch:normal;font-size:medium;line-height:125%;font-family:Constantia;-inkscape-font-specification:'Constantia, Normal';text-align:start;letter-spacing:0px;word-spacing:0px;writing-mode:lr-tb;text-anchor:start;fill:#d3b98d;fill-opacity:1;stroke:none;stroke-width:1px;stroke-linecap:butt;stroke-linejoin:miter;stroke-opacity:1"
         inkscape:connector-curvature="0" />
      <path
         inkscape:connector-curvature="0"
         style="font-style:normal;font-variant:normal;font-weight:normal;font-stretch:normal;font-size:medium;line-height:125%;font-family:Constantia;-inkscape-font-specification:'Constantia, Normal';text-align:start;letter-spacing:0px;word-spacing:0px;writing-mode:lr-tb;text-anchor:start;fill:#8f6e37;fill-opacity:1;stroke:none;stroke-width:1px;stroke-linecap:butt;stroke-linejoin:miter;stroke-opacity:1"
         d="m 64.51508,970.76006 q 1.31458,0 2.14884,0.80898 0.85953,0.80897 0.85953,2.17412 0,1.36514 -0.85953,2.1994 -0.83426,0.83425 -2.14884,0.83425 -1.39042,0 -2.22469,-0.83425 -0.83425,-0.83426 -0.83425,-2.1994 0,-1.36515 0.83425,-2.17412 0.83427,-0.80898 2.22469,-0.80898 z"
         id="path4280" />
      <path
         id="path4258"
         d="m 63.11521,969.35968 q 1.31458,0 2.14884,0.80898 0.85953,0.80897 0.85953,2.17412 0,1.36514 -0.85953,2.1994 -0.83426,0.83425 -2.14884,0.83425 -1.39042,0 -2.22468,-0.83425 -0.83425,-0.83426 -0.83425,-2.1994 0,-1.36515 0.83425,-2.17412 0.83426,-0.80898 2.22468,-0.80898 z"
         style="font-style:normal;font-variant:normal;font-weight:normal;font-stretch:normal;font-size:medium;line-height:125%;font-family:Constantia;-inkscape-font-specification:'Constantia, Normal';text-align:start;letter-spacing:0px;word-spacing:0px;writing-mode:lr-tb;text-anchor:start;fill:#d3b98d;fill-opacity:1;stroke:none;stroke-width:1px;stroke-linecap:butt;stroke-linejoin:miter;stroke-opacity:1"
         inkscape:connector-curvature="0" />
      <path
         inkscape:connector-curvature="0"
         style="font-style:normal;font-variant:normal;font-weight:normal;font-stretch:normal;font-size:medium;line-height:125%;font-family:Constantia;-inkscape-font-specification:'Constantia, Normal';text-align:start;letter-spacing:0px;word-spacing:0px;writing-mode:lr-tb;text-anchor:start;fill:#8f6e37;fill-opacity:1;stroke:none;stroke-width:1px;stroke-linecap:butt;stroke-linejoin:miter;stroke-opacity:1"
         d="m 64.61622,966.26014 q -1.49154,-1.33987 -2.78086,-3.05893 -1.2893,-1.74436 -1.2893,-2.52805 0,-0.70784 0.35393,-1.44099 0.3792,-0.73313 0.96065,-1.49154 0.60673,-0.75841 1.36516,-1.51683 0.75841,-0.78369 1.56738,-1.59267 0.85954,-0.83425 1.66851,-1.69378 0.83426,-0.85954 1.46627,-1.71908 0.65729,-0.88483 1.0365,-1.74435 0.40448,-0.85954 0.40448,-1.74436 0,-2.14884 -1.44098,-3.41286 -1.41571,-1.26402 -3.81735,-1.26402 -1.66852,0 -3.33702,0.70786 l -1.66851,5.78922 -0.98594,0.15168 -1.49154,-7.07853 q 4.24711,-1.64323 8.08974,-1.64323 4.19655,0 6.64877,1.87076 2.4522,1.87076 2.4522,5.38474 0,1.36514 -0.45505,2.55332 -0.42977,1.1629 -1.1629,2.1994 -0.70785,1.03651 -1.59268,1.97187 -0.88481,0.91011 -1.79491,1.76964 -0.78369,0.73312 -1.51682,1.44099 -0.70785,0.70786 -1.2893,1.4157 -0.55617,0.68257 -0.88482,1.44098 -0.32865,0.73314 -0.32865,1.49155 0,1.39042 0.93538,3.03366 l -1.11234,0.70785 z"
         id="path4282" />
      <path
         id="path4778"
         d="m 63.21635,964.85976 q -1.49154,-1.33987 -2.78085,-3.05893 -1.28931,-1.74436 -1.28931,-2.52805 0,-0.70784 0.35394,-1.44099 0.3792,-0.73313 0.96065,-1.49154 0.60673,-0.75841 1.36515,-1.51683 0.75841,-0.78369 1.56738,-1.59267 0.85954,-0.83425 1.66851,-1.69378 0.83426,-0.85954 1.46628,-1.71908 0.65729,-0.88483 1.0365,-1.74435 0.40448,-0.85954 0.40448,-1.74436 0,-2.14884 -1.44098,-3.41286 -1.41572,-1.26402 -3.81736,-1.26402 -1.66851,0 -3.33701,0.70786 l -1.66852,5.78922 -0.98594,0.15168 -1.49154,-7.07853 q 4.24712,-1.64323 8.08974,-1.64323 4.19655,0 6.64877,1.87076 2.4522,1.87076 2.4522,5.38474 0,1.36514 -0.45505,2.55332 -0.42977,1.1629 -1.1629,2.1994 -0.70785,1.03651 -1.59267,1.97187 -0.88481,0.91011 -1.79492,1.76964 -0.78369,0.73312 -1.51682,1.44099 -0.70785,0.70786 -1.2893,1.4157 -0.55617,0.68257 -0.88482,1.44098 -0.32865,0.73314 -0.32865,1.49155 0,1.39042 0.93538,3.03366 l -1.11234,0.70785 z"
         style="font-style:normal;font-variant:normal;font-weight:normal;font-stretch:normal;font-size:medium;line-height:125%;font-family:Constantia;-inkscape-font-specification:'Constantia, Normal';text-align:start;letter-spacing:0px;word-spacing:0px;writing-mode:lr-tb;text-anchor:start;fill:#d3b98d;fill-opacity:1;stroke:none;stroke-width:1px;stroke-linecap:butt;stroke-linejoin:miter;stroke-opacity:1"
         inkscape:connector-curvature="0" />
      <path
         inkscape:connector-curvature="0"
         style="font-style:normal;font-variant:normal;font-weight:normal;font-stretch:normal;font-size:medium;line-height:125%;font-family:Constantia;-inkscape-font-specification:Constantia;letter-spacing:0px;word-spacing:0px;fill:#8f6e37;fill-opacity:1;stroke:none;stroke-width:1px;stroke-linecap:butt;stroke-linejoin:miter;stroke-opacity:1"
         d="m 95.6523,975.99041 q 1.75277,0 2.86514,1.0786 1.14603,1.0787 1.14603,2.8989 0,1.8202 -1.14603,2.9325 -1.11237,1.1124 -2.86514,1.1124 -1.8539,0 -2.96625,-1.1124 -1.11235,-1.1123 -1.11235,-2.9325 0,-1.8202 1.11235,-2.8989 1.11235,-1.0786 2.96625,-1.0786 z"
         id="path4284" />
      <path
         id="path4254"
         d="m 93.65227,973.99025 q 1.75277,0 2.86514,1.0786 1.14603,1.0787 1.14603,2.8989 0,1.8202 -1.14603,2.9325 -1.11237,1.1124 -2.86514,1.1124 -1.8539,0 -2.96625,-1.1124 -1.11235,-1.1123 -1.11235,-2.9325 0,-1.8202 1.11235,-2.8989 1.11235,-1.0786 2.96625,-1.0786 z"
         style="font-style:normal;font-variant:normal;font-weight:normal;font-stretch:normal;font-size:medium;line-height:125%;font-family:Constantia;-inkscape-font-specification:Constantia;letter-spacing:0px;word-spacing:0px;fill:#bd9654;fill-opacity:1;stroke:none;stroke-width:1px;stroke-linecap:butt;stroke-linejoin:miter;stroke-opacity:1"
         inkscape:connector-curvature="0" />
      <path
         inkscape:connector-curvature="0"
         style="font-style:normal;font-variant:normal;font-weight:normal;font-stretch:normal;font-size:medium;line-height:125%;font-family:Constantia;-inkscape-font-specification:Constantia;letter-spacing:0px;word-spacing:0px;fill:#8f6e37;fill-opacity:1;stroke:none;stroke-width:1px;stroke-linecap:butt;stroke-linejoin:miter;stroke-opacity:1"
         d="m 95.78712,969.99051 q -1.98872,-1.7865 -3.70781,-4.0786 -1.71907,-2.3258 -1.71907,-3.3707 0,-0.9438 0.4719,-1.9213 0.50562,-0.9776 1.28088,-1.9888 0.80898,-1.0112 1.82021,-2.0224 1.01122,-1.0449 2.08986,-2.1236 1.14604,-1.1123 2.22467,-2.2584 1.11235,-1.146 1.95504,-2.2921 0.87638,-1.1797 1.38199,-2.3258 0.53932,-1.1461 0.53932,-2.3258 0,-2.8651 -1.92131,-4.5505 -1.88762,-1.6854 -5.08982,-1.6854 -2.22468,0 -4.44937,0.9438 l -2.22469,7.719 -1.31458,0.2023 -1.98874,-9.4381 q 5.66284,-2.191 10.78636,-2.191 5.59542,0 8.86503,2.4944 3.26962,2.4943 3.26962,7.1796 0,1.8203 -0.60674,3.4045 -0.57302,1.5505 -1.55054,2.9325 -0.94379,1.382 -2.12356,2.6292 -1.17975,1.2135 -2.39321,2.3595 -1.04493,0.9776 -2.02245,1.9214 -0.94381,0.9438 -1.71907,1.8876 -0.74158,0.9101 -1.17976,1.9213 -0.43819,0.9775 -0.43819,1.9887 0,1.8539 1.24716,4.0449 l -1.48313,0.9438 z"
         id="path4286" />
      <path
         id="path4215"
         d="m 93.913359,968.11662 c -1.325813,-1.191 -2.688019,-2.6768 -3.834079,-4.20487 -1.146047,-1.55053 -1.71907,-2.6741 -1.71907,-3.3707 0,-0.6292 0.1573,-1.26963 0.4719,-1.9213 0.33708,-0.65173 0.76404,-1.31467 1.28088,-1.9888 0.53932,-0.67413 1.146057,-1.34827 1.82021,-2.0224 0.674147,-0.6966 1.370767,-1.40447 2.08986,-2.1236 0.764027,-0.74153 1.505583,-1.49433 2.22467,-2.2584 0.741567,-0.764 1.393247,-1.52803 1.95504,-2.2921 0.584253,-0.78647 1.044917,-1.56173 1.38199,-2.3258 0.359547,-0.76407 0.53932,-1.53933 0.53932,-2.3258 0,-1.91007 -0.640437,-3.4269 -1.92131,-4.5505 -1.258413,-1.1236 -2.95502,-1.6854 -5.08982,-1.6854 -1.48312,0 -2.966243,0.3146 -4.44937,0.9438 l -2.22469,7.719 -1.31458,0.2023 -1.98874,-9.4381 c 3.775227,-1.46067 7.37068,-2.191 10.78636,-2.191 3.73028,0 6.68529,0.83147 8.86503,2.4944 2.17975,1.66287 3.26962,4.05607 3.26962,7.1796 0,1.21353 -0.20225,2.34837 -0.60674,3.4045 -0.38201,1.03367 -0.89886,2.01117 -1.55054,2.9325 -0.62919,0.92133 -1.33705,1.79773 -2.12356,2.6292 -0.7865,0.809 -1.58424,1.5955 -2.39322,2.3595 -0.69662,0.65173 -1.370767,1.2922 -2.02244,1.9214 -0.629207,0.6292 -1.20223,1.2584 -1.71907,1.8876 -0.494387,0.60673 -0.88764,1.24717 -1.17976,1.9213 -0.292127,0.65167 -0.43819,1.31457 -0.43819,1.9887 0,1.23593 0.41572,2.58423 1.24716,4.0449 z"
         style="font-style:normal;font-variant:normal;font-weight:normal;font-stretch:normal;font-size:medium;line-height:125%;font-family:Constantia;-inkscape-font-specification:Constantia;letter-spacing:0px;word-spacing:0px;fill:#bd9654;fill-opacity:1;stroke:none;stroke-width:1px;stroke-linecap:butt;stroke-linejoin:miter;stroke-opacity:1"
         inkscape:connector-curvature="0"
         sodipodi:nodetypes="ccscccccccscsccccscscccccccscc" />
    </g>
    <path
       id="path4402"
       d="m 96.39411,934.79765 c -3.41568,0 -7.01188,0.7307 -10.78711,2.1914 l 1.98828,9.4375 1.31446,-0.20312 2.2246,-7.71875 c 1.48313,-0.6292 2.96806,-0.94336 4.45118,-0.94336 2.1348,0 3.831429,0.56196 5.08984,1.68556 1.28088,1.1236 1.91993,2.64067 1.91993,4.55078 0,0.7864 -0.17952,1.56217 -0.53906,2.32617 -0.33707,0.7641 -0.79661,1.53782 -1.38087,2.32422 -0.56179,0.7641 -1.213511,1.52897 -1.955081,2.29297 -0.71909,0.7641 -1.46253,1.51621 -2.22656,2.2578 -0.71909,0.71911 -1.41569,1.4284 -2.08984,2.125 -0.67415,0.6741 -1.27904,1.34739 -1.81836,2.02148 -0.51684,0.67421 -0.94417,1.33659 -1.28125,1.98829 -0.3146,0.6517 -0.47266,1.29268 -0.47266,1.92187 0,0.6967 0.5727,1.8206 1.71875,3.37109 1.14606,1.5281 2.50817,3.01409 3.83398,4.20508 l 1.35743,-1.07031 c -0.83144,-1.46069 -1.24805,-2.80902 -1.24805,-4.04492 0,-0.6742 0.14732,-1.33668 0.43945,-1.98828 0.29212,-0.6742 0.6853,-1.31518 1.17969,-1.92188 0.51684,-0.6292 1.08954,-1.25947 1.71875,-1.88867 0.651671,-0.6292 1.326821,-1.26822 2.023451,-1.91992 0.80898,-0.764 1.60607,-1.55038 2.39257,-2.35938 0.78651,-0.8315 1.49386,-1.70956 2.12305,-2.63086 0.65168,-0.9214 1.16877,-1.89804 1.55078,-2.93164 0.40449,-1.0562 0.60742,-2.1908 0.60742,-3.4043 0,-3.1236 -1.08978,-5.51688 -3.26953,-7.17968 -2.17974,-1.663 -5.13496,-2.49414 -8.865241,-2.49414 z"
       style="opacity:1;fill:#7e6030;fill-opacity:1;stroke:none;stroke-width:3;stroke-linejoin:miter;stroke-miterlimit:4;stroke-dasharray:none;stroke-opacity:1"
       inkscape:connector-curvature="0" />
    <path
       style="opacity:1;fill:#bd9654;fill-opacity:1;stroke:none;stroke-width:3;stroke-linejoin:miter;stroke-miterlimit:4;stroke-dasharray:none;stroke-opacity:1"
       d="m 94.194334,932.4979 c -3.41568,0 -7.01188,0.7307 -10.78711,2.1914 l 1.98828,9.4375 1.31446,-0.20312 2.2246,-7.71875 c 1.48313,-0.6292 2.96806,-0.94336 4.45118,-0.94336 2.1348,0 3.831429,0.56196 5.089839,1.68556 1.280873,1.1236 1.919927,2.64067 1.919927,4.55078 0,0.7864 -0.17952,1.56217 -0.539064,2.32617 -0.33707,0.7641 -0.79661,1.53782 -1.380863,2.32422 -0.56179,0.7641 -1.21351,1.52897 -1.95508,2.29297 -0.71909,0.7641 -1.46253,1.51621 -2.22656,2.2578 -0.71909,0.71911 -1.41569,1.4284 -2.08984,2.125 -0.67415,0.6741 -1.27904,1.34739 -1.81836,2.02148 -0.51684,0.67421 -0.94417,1.33659 -1.28125,1.98829 -0.3146,0.6517 -0.47266,1.29268 -0.47266,1.92187 0,0.6967 0.5727,1.8206 1.71875,3.37109 1.14606,1.5281 2.50817,3.01409 3.83398,4.20508 l 1.35743,-1.07031 c -0.83144,-1.46069 -1.24805,-2.80902 -1.24805,-4.04492 0,-0.6742 0.14732,-1.33668 0.43945,-1.98828 0.29212,-0.6742 0.6853,-1.31518 1.17969,-1.92188 0.51684,-0.6292 1.08954,-1.25947 1.71875,-1.88867 0.65167,-0.6292 1.32682,-1.26822 2.023443,-1.91992 0.808984,-0.764 1.606074,-1.55038 2.392574,-2.35938 0.78651,-0.8315 1.49386,-1.70956 2.12305,-2.63086 0.65168,-0.9214 1.16877,-1.89804 1.55078,-2.93164 0.40449,-1.0562 0.60742,-2.1908 0.60742,-3.4043 0,-3.1236 -1.08978,-5.51688 -3.26953,-7.17968 -2.17974,-1.663 -5.134957,-2.49414 -8.865237,-2.49414 z"
       id="path4392" />
    <path
       id="path4394"
       d="m 65.08884,939.29428 c -2.56175,0 -5.25843,0.54711 -8.08984,1.64258 l 1.49218,7.07812 0.98633,-0.15234 1.66797,-5.78906 c 1.11234,-0.47194 2.22555,-0.70703 3.33789,-0.70703 1.6011,0 2.8726,0.421 3.81641,1.26367 0.96065,0.84267 1.4414,1.97952 1.4414,3.41211 1e-5,0.58987 -0.13464,1.17309 -0.40429,1.74609 -0.25281,0.57307 -0.59892,1.15428 -1.03711,1.74414 -0.42135,0.573 -0.91062,1.14569 -1.4668,1.71875 -0.53931,0.573 -1.09494,1.13724 -1.66797,1.69336 -0.53931,0.53935 -1.0608,1.07129 -1.5664,1.59375 -0.50562,0.5056 -0.96075,1.01003 -1.36524,1.51563 -0.38763,0.50566 -0.70813,1.00345 -0.96093,1.49218 -0.23596,0.48874 -0.35352,0.96948 -0.35352,1.44141 0,0.52247 0.429519,1.36448 1.28906,2.52734 0.85954,1.14607 1.78494,2.16533 2.7793,3.0586 l 1.11328,-0.70703 c -0.62359,-1.09547 -0.93555,-2.10816 -0.93555,-3.03516 0,-0.5056 0.10903,-1.0015 0.32813,-1.49023 0.2191,-0.5056 0.51398,-0.98634 0.88476,-1.44141 0.38764,-0.47187 0.81717,-0.94408 1.28907,-1.41602 0.488749,-0.47193 0.995109,-0.95267 1.51757,-1.4414 0.60674,-0.573 1.20505,-1.1628 1.79493,-1.76953 0.589879,-0.6236 1.121849,-1.27971 1.59375,-1.97071 0.488749,-0.691 0.87559,-1.42395 1.16211,-2.19921 0.303359,-0.79214 0.45507,-1.64463 0.45507,-2.55469 0,-2.34267 -0.81832,-4.13763 -2.45312,-5.38477 -1.63481,-1.2472 -3.85074,-1.86914 -6.64844,-1.86914 z"
       style="opacity:1;fill:#947139;fill-opacity:1;stroke:none;stroke-width:3;stroke-linejoin:miter;stroke-miterlimit:4;stroke-dasharray:none;stroke-opacity:1"
       inkscape:connector-curvature="0" />
    <path
       style="opacity:1;fill:#d3b98d;fill-opacity:1;stroke:none;stroke-width:3;stroke-linejoin:miter;stroke-miterlimit:4;stroke-dasharray:none;stroke-opacity:1"
       d="m 63.588864,937.79477 c -2.56175,0 -5.25843,0.54711 -8.08984,1.64258 l 1.49218,7.07812 0.98633,-0.15234 1.66797,-5.78906 c 1.11234,-0.47194 2.22555,-0.70703 3.33789,-0.70703 1.6011,0 2.8726,0.421 3.81641,1.26367 0.96065,0.84267 1.4414,1.97952 1.4414,3.41211 1e-5,0.58987 -0.13464,1.17309 -0.40429,1.74609 -0.25281,0.57307 -0.59892,1.15428 -1.03711,1.74414 -0.42135,0.573 -0.91062,1.14569 -1.4668,1.71875 -0.53931,0.573 -1.09494,1.13724 -1.66797,1.69336 -0.53931,0.53935 -1.0608,1.07129 -1.5664,1.59375 -0.50562,0.5056 -0.96075,1.01003 -1.36524,1.51563 -0.38763,0.50566 -0.70813,1.00345 -0.96093,1.49218 -0.23596,0.48874 -0.35352,0.96948 -0.35352,1.44141 0,0.52247 0.429519,1.36448 1.28906,2.52734 0.85954,1.14607 1.78494,2.16533 2.7793,3.0586 l 1.11328,-0.70703 c -0.62359,-1.09547 -0.93555,-2.10816 -0.93555,-3.03516 0,-0.5056 0.10903,-1.0015 0.32813,-1.49023 0.2191,-0.5056 0.51398,-0.98634 0.88476,-1.44141 0.38764,-0.47187 0.81717,-0.94408 1.28907,-1.41602 0.488749,-0.47193 0.995109,-0.95267 1.51757,-1.4414 0.60674,-0.573 1.20505,-1.1628 1.79493,-1.76953 0.589879,-0.6236 1.121849,-1.27971 1.59375,-1.97071 0.488749,-0.691 0.87559,-1.42395 1.16211,-2.19921 0.303359,-0.79214 0.45507,-1.64463 0.45507,-2.55469 0,-2.34267 -0.81832,-4.13763 -2.45312,-5.38477 -1.63481,-1.2472 -3.85074,-1.86914 -6.64844,-1.86914 z"
       id="path4390" />
    <path
       id="path4396"
       d="m 128.90135,939.29428 c -2.56176,0 -5.25844,0.54711 -8.08984,1.64258 l 1.49023,7.07812 0.98633,-0.15234 1.66797,-5.78906 c 1.11234,-0.47194 2.22555,-0.70703 3.33789,-0.70703 1.6011,0 2.8726,0.421 3.8164,1.26367 0.96066,0.84267 1.44141,1.97952 1.44141,3.41211 0,0.58987 -0.13464,1.17309 -0.4043,1.74609 -0.2528,0.57307 -0.59891,1.15428 -1.03711,1.74414 -0.42134,0.573 -0.90867,1.14569 -1.46484,1.71875 -0.53931,0.573 -1.0969,1.13724 -1.66992,1.69336 -0.53933,0.53935 -1.0608,1.07129 -1.56641,1.59375 -0.50561,0.5056 -0.96075,1.01003 -1.36523,1.51563 -0.38764,0.50566 -0.70813,1.00345 -0.96094,1.49218 -0.23596,0.48874 -0.35352,0.96948 -0.35352,1.44141 0,0.52247 0.42952,1.36448 1.28907,2.52734 0.85953,1.14607 1.78689,2.16533 2.78125,3.0586 l 1.11132,-0.70703 c -0.62357,-1.09547 -0.93554,-2.10816 -0.93554,-3.03516 0,-0.5056 0.11099,-1.0015 0.33008,-1.49023 0.2191,-0.5056 0.51398,-0.98634 0.88476,-1.44141 0.38763,-0.47187 0.81716,-0.94408 1.28906,-1.41602 0.48876,-0.47193 0.99317,-0.95267 1.51563,-1.4414 0.60673,-0.573 1.20505,-1.1628 1.79492,-1.76953 0.58989,-0.6236 1.12185,-1.27971 1.59375,-1.97071 0.48875,-0.691 0.8756,-1.42395 1.16211,-2.19921 0.30337,-0.79214 0.45508,-1.64463 0.45508,-2.55469 0,-2.34267 -0.81638,-4.13763 -2.45117,-5.38477 -1.63481,-1.2472 -3.85073,-1.86914 -6.64844,-1.86914 z"
       style="opacity:1;fill:#947139;fill-opacity:1;stroke:none;stroke-width:3;stroke-linejoin:miter;stroke-miterlimit:4;stroke-dasharray:none;stroke-opacity:1"
       inkscape:connector-curvature="0" />
    <path
       style="opacity:1;fill:#d3b98d;fill-opacity:1;stroke:none;stroke-width:3;stroke-linejoin:miter;stroke-miterlimit:4;stroke-dasharray:none;stroke-opacity:1"
       d="m 127.40137,937.79477 c -2.56176,0 -5.25844,0.54711 -8.08984,1.64258 l 1.49023,7.07812 0.98633,-0.15234 1.66797,-5.78906 c 1.11234,-0.47194 2.22555,-0.70703 3.33789,-0.70703 1.6011,0 2.8726,0.421 3.8164,1.26367 0.96066,0.84267 1.44141,1.97952 1.44141,3.41211 0,0.58987 -0.13464,1.17309 -0.4043,1.74609 -0.2528,0.57307 -0.59891,1.15428 -1.03711,1.74414 -0.42134,0.573 -0.90867,1.14569 -1.46484,1.71875 -0.53931,0.573 -1.0969,1.13724 -1.66992,1.69336 -0.53933,0.53935 -1.0608,1.07129 -1.56641,1.59375 -0.50561,0.5056 -0.96075,1.01003 -1.36523,1.51563 -0.38764,0.50566 -0.70813,1.00345 -0.96094,1.49218 -0.23596,0.48874 -0.35352,0.96948 -0.35352,1.44141 0,0.52247 0.42952,1.36448 1.28907,2.52734 0.85953,1.14607 1.78689,2.16533 2.78125,3.0586 l 1.11132,-0.70703 c -0.62357,-1.09547 -0.93554,-2.10816 -0.93554,-3.03516 0,-0.5056 0.11099,-1.0015 0.33008,-1.49023 0.2191,-0.5056 0.51398,-0.98634 0.88476,-1.44141 0.38763,-0.47187 0.81716,-0.94408 1.28906,-1.41602 0.48876,-0.47193 0.99317,-0.95267 1.51563,-1.4414 0.60673,-0.573 1.20505,-1.1628 1.79492,-1.76953 0.58989,-0.6236 1.12185,-1.27971 1.59375,-1.97071 0.48875,-0.691 0.8756,-1.42395 1.16211,-2.19921 0.30337,-0.79214 0.45508,-1.64463 0.45508,-2.55469 0,-2.34267 -0.81638,-4.13763 -2.45117,-5.38477 -1.63481,-1.2472 -3.85073,-1.86914 -6.64844,-1.86914 z"
       id="path4388" />
    <path
       id="path4398"
       d="m 64.88767,969.07358 c -0.92695,0 -1.66844,0.26927 -2.22461,0.80859 -0.55617,0.53927 -0.83398,1.2637 -0.83398,2.17383 0,0.91007 0.27781,1.64497 0.83398,2.20117 0.55617,0.55614 1.29766,0.83399 2.22461,0.83399 0.87639,0 1.59226,-0.27785 2.14844,-0.83399 0.57302,-0.5562 0.85937,-1.2911 0.85937,-2.20117 0,-0.91013 -0.28635,-1.63456 -0.85937,-2.17383 -0.55618,-0.53932 -1.27205,-0.80859 -2.14844,-0.80859 z"
       style="opacity:1;fill:#947139;fill-opacity:1;stroke:none;stroke-width:3;stroke-linejoin:miter;stroke-miterlimit:4;stroke-dasharray:none;stroke-opacity:1"
       inkscape:connector-curvature="0" />
    <path
       style="opacity:1;fill:#d3b98d;fill-opacity:1;stroke:none;stroke-width:3;stroke-linejoin:miter;stroke-miterlimit:4;stroke-dasharray:none;stroke-opacity:1"
       d="m 63.387694,967.57407 c -0.92695,0 -1.66844,0.26927 -2.22461,0.80859 -0.55617,0.53927 -0.83398,1.2637 -0.83398,2.17383 0,0.91007 0.27781,1.64497 0.83398,2.20117 0.55617,0.55614 1.29766,0.83399 2.22461,0.83399 0.87639,0 1.59226,-0.27785 2.14844,-0.83399 0.57302,-0.5562 0.85937,-1.2911 0.85937,-2.20117 0,-0.91013 -0.28635,-1.63456 -0.85937,-2.17383 -0.55618,-0.53932 -1.27205,-0.80859 -2.14844,-0.80859 z"
       id="path4386" />
    <path
       id="path4400"
       d="m 128.69822,969.07358 c -0.92695,0 -1.66843,0.26927 -2.22461,0.80859 -0.55616,0.53927 -0.83398,1.2637 -0.83398,2.17383 0,0.91007 0.27782,1.64497 0.83398,2.20117 0.55618,0.55614 1.29766,0.83399 2.22461,0.83399 0.87639,0 1.59227,-0.27785 2.14844,-0.83399 0.57302,-0.5562 0.85938,-1.2911 0.85938,-2.20117 0,-0.91013 -0.28636,-1.63456 -0.85938,-2.17383 -0.55617,-0.53932 -1.27205,-0.80859 -2.14844,-0.80859 z"
       style="opacity:1;fill:#947139;fill-opacity:1;stroke:none;stroke-width:3;stroke-linejoin:miter;stroke-miterlimit:4;stroke-dasharray:none;stroke-opacity:1"
       inkscape:connector-curvature="0" />
    <path
       style="opacity:1;fill:#d3b98d;fill-opacity:1;stroke:none;stroke-width:3;stroke-linejoin:miter;stroke-miterlimit:4;stroke-dasharray:none;stroke-opacity:1"
       d="m 127.19824,967.57407 c -0.92695,0 -1.66843,0.26927 -2.22461,0.80859 -0.55616,0.53927 -0.83398,1.2637 -0.83398,2.17383 0,0.91007 0.27782,1.64497 0.83398,2.20117 0.55618,0.55614 1.29766,0.83399 2.22461,0.83399 0.87639,0 1.59227,-0.27785 2.14844,-0.83399 0.57302,-0.5562 0.85938,-1.2911 0.85938,-2.20117 0,-0.91013 -0.28636,-1.63456 -0.85938,-2.17383 -0.55617,-0.53932 -1.27205,-0.80859 -2.14844,-0.80859 z"
       id="path4384" />
    <path
       id="path4404"
       d="m 96.12458,974.50468 c -1.23593,0 -2.22523,0.35906 -2.9668,1.07812 -0.74156,0.7192 -1.11328,1.68497 -1.11328,2.89845 0,1.21347 0.37172,2.19205 1.11328,2.93359 0.74157,0.74153 1.73087,1.11132 2.9668,1.11132 1.16851,0 2.12365,-0.36979 2.86523,-1.11132 0.76402,-0.74154 1.14453,-1.72012 1.14453,-2.93359 0,-1.21348 -0.38051,-2.17925 -1.14453,-2.89845 -0.74158,-0.71906 -1.69672,-1.07812 -2.86523,-1.07812 z"
       style="opacity:1;fill:#7e6030;fill-opacity:1;stroke:none;stroke-width:3;stroke-linejoin:miter;stroke-miterlimit:4;stroke-dasharray:none;stroke-opacity:1"
       inkscape:connector-curvature="0" />
    <path
       style="opacity:1;fill:#bd9654;fill-opacity:1;stroke:none;stroke-width:3;stroke-linejoin:miter;stroke-miterlimit:4;stroke-dasharray:none;stroke-opacity:1"
       d="m 93.924804,972.20493 c -1.23593,0 -2.22523,0.35906 -2.9668,1.07812 -0.74156,0.7192 -1.11328,1.68497 -1.11328,2.89845 0,1.21347 0.37172,2.19205 1.11328,2.93359 0.74157,0.74153 1.73087,1.11132 2.9668,1.11132 1.16851,0 2.12365,-0.36979 2.86523,-1.11132 0.76402,-0.74154 1.14453,-1.72012 1.14453,-2.93359 0,-1.21348 -0.38051,-2.17925 -1.14453,-2.89845 -0.74158,-0.71906 -1.69672,-1.07812 -2.86523,-1.07812 z"
       id="rect4350" />
  </g>
</svg>
